<?xml version="1.0" standalone="no"?>
<!DOCTYPE svg PUBLIC "-//W3C//DTD SVG 1.1//EN" "http://www.w3.org/Graphics/SVG/1.1/DTD/svg11.dtd" >
<svg xmlns="http://www.w3.org/2000/svg" xmlns:xlink="http://www.w3.org/1999/xlink" version="1.1">
<metadata></metadata>
<defs>
<font id="kawkab_monoregular" horiz-adv-x="700" >
<font-face units-per-em="1000" ascent="800" descent="-200" />
<missing-glyph horiz-adv-x="500" />
<glyph unicode="fi" d="M252 702q35 41 119 41q47 0 109 -10q58 -8 93 -29l31 75q-24 15 -101 33q-68 12 -140 12q-109 0 -171 -50q-66 -53 -66 -158v-33h-91v-82h91v-501h93v501h294v-501h93v583h-387q0 80 33 119z" />
<glyph unicode="fl" d="M496.5 17.5q32.5 -31.5 88.5 -31.5q29 0 57 6q29 4 52 15l-10 73q-35 -12 -73 -12q-54 0 -54 75v666q-30 8 -98 15q-58 6 -112 6q-112 0 -170 -53t-58 -161v-33h-91v-82h91v-501h93v501h120v82h-120q0 83 31 124.5t107 41.5q30 0 63 -3t51 -7v-622q0 -68 32.5 -99.5z" />
<glyph unicode="&#xfedf;&#xfe82;" arabic-form="isolated" d="M633 107q5 -21 5 -41q0 -66 -57 -66h-370q-21 0 -27.5 8.5t-3.5 19.5l23 82q9 30 37 30h9q124 49 187 222q-86 149 -194 220l-14 -11q-12 -6 -21 -6q-10 0 -15 5l-56 42q-10 8 -16 21.5t-6 27.5q0 11 4 18l37 75q4 8 12 12.5t17 4.5q12 0 19 -7l111 -96q31 -28 73 -77.5 t83 -112.5q25 123 30 271q1 32 4.5 50.5t18.5 49.5q10 20 17 28t19 8h19q15 0 19 -12t4 -47q0 -148 -17.5 -250t-58.5 -191q65 -121 98 -246q5 -11 10 -32zM367 140h167q-27 81 -60 151q-42 -66 -107 -151zM33 937q12 39 33.5 68t45.5 44t44 15q13 0 21.5 -5t24.5 -18 q20 -17 39 -26.5t50 -9.5q28 0 65 12.5t106 46.5q7 0 11.5 -9t4.5 -22t-5 -26.5t-14 -23.5q-13 -14 -41.5 -32t-62.5 -31.5t-61 -13.5q-43 0 -87.5 32t-68.5 75q-41 -21 -70 -112z" />
<glyph unicode="&#xfee0;&#xfe82;" arabic-form="final" d="M648 181q21 -41 52 -41v-140q-29 0 -53.5 17t-48 89.5t-30.5 222.5q-11 -119 -36.5 -189.5t-61 -105.5t-87.5 -57l-42 -18q-48 -21 -116 -37t-117 -13v63l270 125q-14 79 -41.5 152.5t-59.5 135.5t-84 154l-12 21l99 119l18 -55q50 -153 81 -267.5t45 -230.5 q34 27 58.5 61.5t28.5 65.5l10 532l106 105v-567q0 -101 21 -142zM39 807q12 39 33.5 68t45.5 44t44 15q13 0 21.5 -5t24.5 -18q20 -17 39 -26.5t50 -9.5q28 0 65 12.5t106 46.5q7 0 11.5 -9t4.5 -22t-5 -26.5t-14 -23.5q-13 -14 -41.5 -32t-62.5 -31.5t-61 -13.5 q-43 0 -87.5 32t-68.5 75q-41 -21 -70 -112z" />
<glyph unicode="&#xfedf;&#xfe84;" arabic-form="isolated" d="M354 1001q0 -7 -6.5 -11.5t-15.5 -6.5q-66 -15 -108.5 -26t-64.5 -20.5t-59 -29.5q-1 -1 -3 -1q-7 0 -10 16q-2 8 -5 17t-3 13q0 7 4.5 12t14.5 11l62 36q-65 23 -65 85q0 35 17.5 72t47 61.5t64.5 24.5q31 0 45 -21t16 -63v-3q0 -9 -3.5 -14t-9.5 -5q-2 0 -31 13.5 t-51 13.5q-42 0 -42 -33q0 -34 20.5 -66.5t66.5 -32.5l64 1q20 0 27.5 -3t14.5 -14l11 -19q2 -4 2 -7zM633 107q5 -21 5 -41q0 -66 -57 -66h-370q-21 0 -27.5 8.5t-3.5 19.5l23 82q9 30 37 30h9q124 49 187 222q-86 149 -194 220l-14 -11q-12 -6 -21 -6q-10 0 -15 5l-56 42 q-10 8 -16 21.5t-6 27.5q0 11 4 18l37 75q4 8 12 12.5t17 4.5q12 0 19 -7l111 -96q31 -28 73 -77.5t83 -112.5q25 123 30 271q1 32 4.5 50.5t18.5 49.5q10 20 17 28t19 8h19q15 0 19 -12t4 -47q0 -148 -17.5 -250t-58.5 -191q65 -121 98 -246q5 -11 10 -32zM367 140h167 q-27 81 -60 151q-42 -66 -107 -151z" />
<glyph unicode="&#xfee0;&#xfe84;" arabic-form="final" d="M117 816q-7 0 -10 16q-2 8 -5 17t-3 13q0 7 4.5 12t14.5 11l62 36q-65 23 -65 85q0 35 17.5 72t47 61.5t64.5 24.5q31 0 45 -21t16 -63v-3q0 -9 -3.5 -14t-9.5 -5q-2 0 -31 13.5t-51 13.5q-42 0 -42 -33q0 -34 20.5 -66.5t66.5 -32.5l64 1q20 0 27.5 -3t14.5 -14l11 -19 q2 -4 2 -7q0 -7 -6.5 -11.5t-15.5 -6.5q-66 -15 -108.5 -26t-64.5 -20.5t-59 -29.5q-1 -1 -3 -1zM648 181q21 -41 52 -41v-140q-29 0 -53.5 17t-48 89.5t-30.5 222.5q-11 -119 -36.5 -189.5t-61 -105.5t-87.5 -57l-42 -18q-48 -21 -116 -37t-117 -13v63l270 125 q-14 79 -41.5 152.5t-59.5 135.5t-84 154l-12 21l99 119l18 -55q50 -153 81 -267.5t45 -230.5q34 27 58.5 61.5t28.5 65.5l10 532l106 105v-567q0 -101 21 -142z" />
<glyph unicode="&#xfedf;&#xfe88;" arabic-form="isolated" d="M633 107q5 -21 5 -41q0 -66 -57 -66h-370q-21 0 -27.5 8.5t-3.5 19.5l23 82q9 30 37 30h9q124 49 187 222q-86 149 -194 220l-14 -11q-12 -6 -21 -6q-10 0 -15 5l-56 42q-10 8 -16 21.5t-6 27.5q0 11 4 18l37 75q4 8 12 12.5t17 4.5q12 0 19 -7l111 -96q31 -28 73 -77.5 t83 -112.5q25 123 30 271q1 32 4.5 50.5t18.5 49.5q10 20 17 28t19 8h19q15 0 19 -12t4 -47q0 -148 -17.5 -250t-58.5 -191q65 -121 98 -246q5 -11 10 -32zM367 140h167q-27 81 -60 151q-42 -66 -107 -151zM327 -534q-7 0 -10 17q-9 28 -9 33q0 8 5 13.5t16 12.5l68 39 q-72 25 -72 94q0 38 19 79t52 68t71 27q34 0 50 -23.5t18 -69.5v-3q0 -10 -4.5 -15.5t-10.5 -5.5q-2 0 -33.5 15t-56.5 15q-46 0 -46 -37q0 -21 9 -46.5t30.5 -44t56.5 -18.5q17 0 28 1l42 1q22 0 30 -3.5t16 -15.5l12 -21q5 -10 -2.5 -17.5t-19.5 -10.5q-96 -22 -131 -31 t-59.5 -19.5t-64.5 -32.5q-1 -1 -4 -1z" />
<glyph unicode="&#xfee0;&#xfe88;" arabic-form="final" d="M648 181q21 -41 52 -41v-140q-29 0 -53.5 17t-48 89.5t-30.5 222.5q-11 -119 -36.5 -189.5t-61 -105.5t-87.5 -57l-42 -18q-48 -21 -116 -37t-117 -13v63l270 125q-14 79 -41.5 152.5t-59.5 135.5t-84 154l-12 21l99 119l18 -55q50 -153 81 -267.5t45 -230.5 q34 27 58.5 61.5t28.5 65.5l10 532l106 105v-567q0 -101 21 -142zM330 -556q-7 0 -10 17q-9 28 -9 33q0 8 5 13.5t16 12.5l68 39q-72 25 -72 94q0 38 19 79t52 68t71 27q34 0 50 -23.5t18 -69.5v-3q0 -10 -4.5 -15.5t-10.5 -5.5q-2 0 -33.5 15t-56.5 15q-46 0 -46 -37 q0 -21 9 -46.5t30.5 -44t56.5 -18.5q17 0 28 1l42 1q22 0 30 -3.5t16 -15.5l12 -21q5 -10 -2.5 -17.5t-19.5 -10.5q-96 -22 -131 -31t-59.5 -19.5t-64.5 -32.5q-1 -1 -4 -1z" />
<glyph unicode="&#xfedf;&#xfe8e;" arabic-form="isolated" d="M633 107q5 -21 5 -41q0 -66 -57 -66h-370q-21 0 -27.5 8.5t-3.5 19.5l23 82q9 30 37 30h9q124 49 187 222q-86 149 -194 220l-14 -11q-12 -6 -21 -6q-10 0 -15 5l-56 42q-10 8 -16 21.5t-6 27.5q0 11 4 18l37 75q4 8 12 12.5t17 4.5q12 0 19 -7l111 -96q31 -28 73 -77.5 t83 -112.5q25 123 30 271q1 32 4.5 50.5t18.5 49.5q10 20 17 28t19 8h19q15 0 19 -12t4 -47q0 -148 -17.5 -250t-58.5 -191q65 -121 98 -246q5 -11 10 -32zM367 140h167q-27 81 -60 151q-42 -66 -107 -151z" />
<glyph unicode="&#xfee0;&#xfe8e;" arabic-form="final" d="M648 181q21 -41 52 -41v-140q-29 0 -53.5 17t-48 89.5t-30.5 222.5q-11 -119 -36.5 -189.5t-61 -105.5t-87.5 -57l-42 -18q-48 -21 -116 -37t-117 -13v63l270 125q-14 79 -41.5 152.5t-59.5 135.5t-84 154l-12 21l99 119l18 -55q50 -153 81 -267.5t45 -230.5 q34 27 58.5 61.5t28.5 65.5l10 532l106 105v-567q0 -101 21 -142z" />
<glyph unicode="&#xfedf;&#xfb51;" d="M215.5 900.5q-28.5 6.5 -36.5 24.5q-37 -22 -57.5 -27t-70.5 -4v43q59 12 81.5 23.5t22.5 29.5v33l39 25q-5 -30 -3 -75q2 -1 7 -1q3 0 14.5 13.5t15.5 18.5q43 55 85 93.5t81 38.5q35 0 56.5 -34.5t21.5 -87.5q0 -52 -20.5 -78t-56 -34t-92.5 -8q-59 0 -87.5 6.5z M312.5 1039q-29.5 -25 -67.5 -68q26 -12 76 -12q48 0 76.5 13.5t28.5 34.5q0 18 -16 37.5t-41 19.5q-27 0 -56.5 -25zM633 107q5 -21 5 -41q0 -66 -57 -66h-370q-21 0 -27.5 8.5t-3.5 19.5l23 82q9 30 37 30h9q124 49 187 222q-86 149 -194 220l-14 -11q-12 -6 -21 -6 q-10 0 -15 5l-56 42q-10 8 -16 21.5t-6 27.5q0 11 4 18l37 75q4 8 12 12.5t17 4.5q12 0 19 -7l111 -96q31 -28 73 -77.5t83 -112.5q25 123 30 271q1 32 4.5 50.5t18.5 49.5q10 20 17 28t19 8h19q15 0 19 -12t4 -47q0 -148 -17.5 -250t-58.5 -191q65 -121 98 -246 q5 -11 10 -32zM367 140h167q-27 81 -60 151q-42 -66 -107 -151z" />
<glyph unicode="&#xfee0;&#xfb51;" d="M195.5 794.5q-28.5 6.5 -36.5 24.5q-37 -22 -57.5 -27t-70.5 -4v43q59 12 81.5 23.5t22.5 29.5v33l39 25q-5 -30 -3 -75q2 -1 7 -1q3 0 14.5 13.5t15.5 18.5q43 55 85 93.5t81 38.5q35 0 56.5 -34.5t21.5 -87.5q0 -52 -20.5 -78t-56 -34t-92.5 -8q-59 0 -87.5 6.5z M292.5 933q-29.5 -25 -67.5 -68q26 -12 76 -12q48 0 76.5 13.5t28.5 34.5q0 18 -16 37.5t-41 19.5q-27 0 -56.5 -25zM648 181q21 -41 52 -41v-140q-29 0 -53.5 17t-48 89.5t-30.5 222.5q-11 -119 -36.5 -189.5t-61 -105.5t-87.5 -57l-42 -18q-48 -21 -116 -37t-117 -13v63 l270 125q-14 79 -41.5 152.5t-59.5 135.5t-84 154l-12 21l99 119l18 -55q50 -153 81 -267.5t45 -230.5q34 27 58.5 61.5t28.5 65.5l10 532l106 105v-567q0 -101 21 -142z" />
<glyph unicode="&#x66e;" d="M0 140h486q31 0 51.5 13t20.5 40q0 21 -19 100.5t-33 115.5l101 101q19 -49 43.5 -144t24.5 -144q0 -50 -28 -102t-77.5 -86t-112.5 -34h-457v140z" />
<glyph unicode="&#x66e;" d="M700 0q-75 0 -122 14t-76.5 49t-49.5 101q-20 -61 -45.5 -96t-65.5 -51.5t-102 -16.5h-239v140h230q68 0 102.5 6.5t53.5 32t19 80.5q0 39 -10 106l129 83q-1 -24 -1 -134q0 -105 1 -121q2 -24 22 -35.5t54.5 -14.5t99.5 -3v-140z" />
<glyph unicode="&#x66e;" d="M101.5 20.5q-48.5 20.5 -75 58t-26.5 86.5q0 56 23 121.5t60 116.5l51 -7q-36 -93 -36 -158q0 -47 19.5 -72.5t55.5 -25.5h275q40 0 73.5 26t48.5 69q17 53 21 77l73 45q-16 -57 -25 -103q-3 -16 -3 -31q0 -38 17 -60.5t47 -22.5v-140h-5q-32 0 -56 30.5t-31 80.5 q-16 -50 -74 -80.5t-136 -30.5h-185q-63 0 -111.5 20.5z" />
<glyph unicode="&#x66f;" d="M151 -308.5q-72 41.5 -111.5 117t-39.5 174.5q0 44 17.5 92t46.5 81l25 -30q-11 -19 -18 -45t-7 -49q0 -72 27.5 -127t77.5 -85t116 -30q84 0 148.5 26t100 74t35.5 110q-107 6 -165 26.5t-81 56.5t-23 97q0 58 24.5 128.5t64 119t80.5 48.5q44 0 88 -59.5t74.5 -140.5 t36.5 -136h32v-140h-33q0 -104 -43.5 -183.5t-123 -123t-183.5 -43.5q-94 0 -166 41.5zM541 237.5q-21 59.5 -48.5 100t-49.5 33.5q-38 -13 -51 -58.5t-13 -97.5q0 -22 14 -33.5t40 -18t83 -15.5l50 -8q-4 38 -25 97.5z" />
<glyph unicode="&#x6a1;" d="M0 140h369q79 0 139.5 14t59.5 55l-1 33q-125 -10 -165 -10q-71 0 -97.5 23.5t-26.5 80.5q0 63 23 145t62.5 140.5t87.5 58.5q47 0 93 -60t75 -157.5t29 -204.5q0 -64 -15.5 -111.5t-59.5 -84.5q-39 -33 -97.5 -47.5t-158.5 -14.5h-317v140zM544 374q-4 38 -30.5 84 t-58 79.5t-45.5 33.5q-27 0 -40 -51t-13 -97q0 -22 6 -32.5t24.5 -15t58.5 -4.5q37 0 98 3z" />
<glyph unicode="&#x6a1;" d="M0 140h192q81 0 110 1.5t56 7.5q-31 11 -58.5 27.5t-58.5 42.5q-27 23 -42.5 45.5t-15.5 57.5q0 40 20 100.5t54.5 105.5t76.5 45q23 0 53.5 -14t62.5 -47t56 -86q15 -32 26 -73t11 -77q0 -30 -8 -53.5t-23 -49.5q2 -4 19.5 -11.5t41.5 -13.5q20 -5 36.5 -6.5t56.5 -1.5 h34v-140h-55q-34 0 -85.5 26.5t-100.5 71.5q-26 -44 -82 -71t-147 -27h-230v140zM433 288q0 49 -20 91.5t-48 68t-48 25.5q-23 0 -40.5 -31.5t-17.5 -66.5q0 -33 16 -50q39 -40 72 -66.5t71 -51.5q15 40 15 81z" />
<glyph unicode="&#x6a1;" d="M52 42.5q-52 42.5 -52 126.5q0 39 11.5 83t38.5 83l26 -10q-27 -77 -27 -110q0 -38 25.5 -56.5t98.5 -18.5h224q53 0 78.5 2.5t33.5 11.5q-21 18 -46 31t-30 16q-32 16 -50 28.5t-29.5 34t-11.5 54.5q0 46 20.5 103t53 96.5t67.5 39.5q33 0 75 -35.5t71 -98.5 q14 -31 24 -67t10 -68q0 -17 -3 -34.5t-4 -23.5q-8 -34 -9 -57q10 -10 27 -21.5t26 -11.5v-140q-18 0 -45.5 20t-51.5 44.5t-31 34.5q-30 -48 -79.5 -73.5t-127.5 -25.5h-152q-109 0 -161 42.5zM558.5 320.5q-12.5 57.5 -35 94t-49.5 36.5q-16 0 -31 -13.5t-23.5 -33 t-8.5 -34.5q0 -31 32 -63t95 -79l34 -26q-1 61 -13.5 118.5z" />
<glyph unicode="&#x6c2;" d="M193 542q-5 0 -6.5 6.5t-1.5 7.5q-7 21 -7 27q0 10 16 20l55 32q-58 20 -58 75q0 30 15.5 63t42 54.5t56.5 21.5q27 0 39.5 -18.5t14.5 -55.5v-3q0 -8 -3.5 -12.5t-8.5 -4.5q-4 1 -28 12.5t-44 11.5q-37 0 -37 -29t18.5 -58t58.5 -29l56 1q17 0 24 -2.5t13 -12.5l10 -17 q1 -2 1 -6q0 -11 -19 -16q-103 -24 -131 -33t-73 -34q-1 -1 -3 -1zM120 17q0 62 27.5 155.5t69.5 162t85 68.5q26 0 53 -20.5t41 -45.5l22 -43q7 -12 22 -41.5t27 -48.5q19 -30 42.5 -43.5t53.5 -17t85 -3.5h52v-140h-117q-74 0 -125 29.5t-78 66.5t-55 89q-9 16 -15.5 23 t-20.5 7q-15 0 -22.5 -7t-13.5 -19t-21 -61q-25 -77 -45.5 -121.5t-42.5 -47.5q-24 -1 -24 58z" />
<glyph unicode="&#x6c3;" d="M338 659l85 93l87 -91l-84 -94zM114 656l84 93l87 -90l-83 -95zM120 17q0 62 27.5 155.5t69.5 162t85 68.5q26 0 53 -20.5t41 -45.5l22 -43q7 -12 22 -41.5t27 -48.5q19 -30 42.5 -43.5t53.5 -17t85 -3.5h52v-140h-117q-74 0 -125 29.5t-78 66.5t-55 89q-9 16 -15.5 23 t-20.5 7q-15 0 -22.5 -7t-13.5 -19t-21 -61q-25 -77 -45.5 -121.5t-42.5 -47.5q-24 -1 -24 58z" />
<glyph unicode="&#x671;" arabic-form="final" d="M79 957q59 12 81.5 23.5t22.5 29.5v33l39 25q-5 -30 -3 -75q2 -1 7 -1q3 0 14.5 13.5t15.5 18.5q43 55 85 93.5t81 38.5q35 0 56.5 -34.5t21.5 -87.5q0 -52 -20.5 -78t-56 -34t-92.5 -8q-59 0 -87.5 6.5t-36.5 24.5q-37 -22 -57.5 -27t-70.5 -4v43zM425.5 992.5 q28.5 13.5 28.5 34.5q0 18 -16 37.5t-41 19.5q-27 0 -56.5 -25t-67.5 -68q26 -12 76 -12q48 0 76.5 13.5zM253.5 47.5q-52.5 47.5 -55.5 147.5l-3 115q-5 177 -8 245t-12 201l125 95v-598q0 -61 22 -87t78 -26h300v-140h-317q-77 0 -129.5 47.5z" />
<glyph unicode="&#x67e;" arabic-form="final" d="M101.5 20.5q-48.5 20.5 -75 58t-26.5 86.5q0 56 23 121.5t60 116.5l51 -7q-36 -93 -36 -158q0 -47 19.5 -72.5t55.5 -25.5h275q40 0 73.5 26t48.5 69q17 53 21 77l73 45q-16 -57 -25 -103q-3 -16 -3 -31q0 -38 17 -60.5t47 -22.5v-140h-5q-32 0 -56 30.5t-31 80.5 q-16 -50 -74 -80.5t-136 -30.5h-185q-63 0 -111.5 20.5zM161 -223l83 89l82 -89l-82 -90zM345 -223l83 89l82 -89l-82 -90zM251 -410l83 89l82 -89l-82 -90z" />
<glyph unicode="&#x67e;" arabic-form="initial" d="M0 140h486q31 0 51.5 13t20.5 40q0 21 -19 100.5t-33 115.5l101 101q19 -49 43.5 -144t24.5 -144q0 -50 -28 -102t-77.5 -86t-112.5 -34h-457v140zM196 -223l83 89l82 -89l-82 -90zM380 -223l83 89l82 -89l-82 -90zM286 -410l83 89l82 -89l-82 -90z" />
<glyph unicode="&#x67e;" arabic-form="medial" d="M700 0q-75 0 -122 14t-76.5 49t-49.5 101q-20 -61 -45.5 -96t-65.5 -51.5t-102 -16.5h-239v140h230q68 0 102.5 6.5t53.5 32t19 80.5q0 39 -10 106l129 83q-1 -24 -1 -134q0 -105 1 -121q2 -24 22 -35.5t54.5 -14.5t99.5 -3v-140zM174 -223l83 89l82 -89l-82 -90z M358 -223l83 89l82 -89l-82 -90zM264 -410l83 89l82 -89l-82 -90z" />
<glyph unicode="&#x679;" arabic-form="final" d="M101.5 20.5q-48.5 20.5 -75 58t-26.5 86.5q0 56 23 121.5t60 116.5l51 -7q-36 -93 -36 -158q0 -47 19.5 -72.5t55.5 -25.5h275q40 0 73.5 26t48.5 69q17 53 21 77l73 45q-16 -57 -25 -103q-3 -16 -3 -31q0 -38 17 -60.5t47 -22.5v-140h-5q-32 0 -56 30.5t-31 80.5 q-16 -50 -74 -80.5t-136 -30.5h-185q-63 0 -111.5 20.5zM476 681.5q18 -31.5 18 -76.5q0 -56 -31 -79.5t-95 -23.5h-160q0 34 8.5 48.5t18.5 14.5q11 0 15 1q17 20 14 66q-3 79 -7 122.5t-14 60.5l50 44l24 -63q-14 -15 -19 -48.5t-8 -92.5l-3 -52q34 50 71 80t68 30 q32 0 50 -31.5zM439 576q15 7 15 26t-14.5 34t-33.5 15q-21 0 -47.5 -22t-61.5 -60h95q32 0 47 7z" />
<glyph unicode="&#x679;" arabic-form="initial" d="M0 140h486q31 0 51.5 13t20.5 40q0 21 -19 100.5t-33 115.5l101 101q19 -49 43.5 -144t24.5 -144q0 -50 -28 -102t-77.5 -86t-112.5 -34h-457v140zM426 731.5q18 -31.5 18 -76.5q0 -56 -31 -79.5t-95 -23.5h-160q0 34 8.5 48.5t18.5 14.5q11 0 15 1q17 20 14 66 q-3 79 -7 122.5t-14 60.5l50 44l24 -63q-14 -15 -19 -48.5t-8 -92.5l-3 -52q34 50 71 80t68 30q32 0 50 -31.5zM389 626q15 7 15 26t-14.5 34t-33.5 15q-21 0 -47.5 -22t-61.5 -60h95q32 0 47 7z" />
<glyph unicode="&#x679;" arabic-form="medial" d="M700 0q-75 0 -122 14t-76.5 49t-49.5 101q-20 -61 -45.5 -96t-65.5 -51.5t-102 -16.5h-239v140h230q68 0 102.5 6.5t53.5 32t19 80.5q0 39 -10 106l129 83q-1 -24 -1 -134q0 -105 1 -121q2 -24 22 -35.5t54.5 -14.5t99.5 -3v-140zM386 701.5q18 -31.5 18 -76.5 q0 -56 -31 -79.5t-95 -23.5h-160q0 34 8.5 48.5t18.5 14.5q11 0 15 1q17 20 14 66q-3 79 -7 122.5t-14 60.5l50 44l24 -63q-14 -15 -19 -48.5t-8 -92.5l-3 -52q34 50 71 80t68 30q32 0 50 -31.5zM349 596q15 7 15 26t-14.5 34t-33.5 15q-21 0 -47.5 -22t-61.5 -60h95 q32 0 47 7z" />
<glyph unicode="&#x6a4;" arabic-form="final" d="M52 42.5q-52 42.5 -52 126.5q0 39 11.5 83t38.5 83l26 -10q-27 -77 -27 -110q0 -38 25.5 -56.5t98.5 -18.5h224q53 0 78.5 2.5t33.5 11.5q-21 18 -46 31t-30 16q-32 16 -50 28.5t-29.5 34t-11.5 54.5q0 46 20.5 103t53 96.5t67.5 39.5q33 0 75 -35.5t71 -98.5 q14 -31 24 -67t10 -68q0 -17 -3 -34.5t-4 -23.5q-8 -34 -9 -57q10 -10 27 -21.5t26 -11.5v-140q-18 0 -45.5 20t-51.5 44.5t-31 34.5q-30 -48 -79.5 -73.5t-127.5 -25.5h-152q-109 0 -161 42.5zM558.5 320.5q-12.5 57.5 -35 94t-49.5 36.5q-16 0 -31 -13.5t-23.5 -33 t-8.5 -34.5q0 -31 32 -63t95 -79l34 -26q-1 61 -13.5 118.5zM388 922l87 93l86 -93l-86 -94zM303 734l87 93l86 -93l-86 -94zM505 734l87 93l86 -93l-86 -94z" />
<glyph unicode="&#x6a4;" arabic-form="initial" d="M0 140h369q79 0 139.5 14t59.5 55l-1 33q-125 -10 -165 -10q-71 0 -97.5 23.5t-26.5 80.5q0 63 23 145t62.5 140.5t87.5 58.5q47 0 93 -60t75 -157.5t29 -204.5q0 -64 -15.5 -111.5t-59.5 -84.5q-39 -33 -97.5 -47.5t-158.5 -14.5h-317v140zM544 374q-4 38 -30.5 84 t-58 79.5t-45.5 33.5q-27 0 -40 -51t-13 -97q0 -22 6 -32.5t24.5 -15t58.5 -4.5q37 0 98 3zM325 1032l87 93l86 -93l-86 -94zM240 844l87 93l86 -93l-86 -94zM442 844l87 93l86 -93l-86 -94z" />
<glyph unicode="&#x6a4;" arabic-form="medial" d="M0 140h192q81 0 110 1.5t56 7.5q-31 11 -58.5 27.5t-58.5 42.5q-27 23 -42.5 45.5t-15.5 57.5q0 40 20 100.5t54.5 105.5t76.5 45q23 0 53.5 -14t62.5 -47t56 -86q15 -32 26 -73t11 -77q0 -30 -8 -53.5t-23 -49.5q2 -4 19.5 -11.5t41.5 -13.5q20 -5 36.5 -6.5t56.5 -1.5 h34v-140h-55q-34 0 -85.5 26.5t-100.5 71.5q-26 -44 -82 -71t-147 -27h-230v140zM433 288q0 49 -20 91.5t-48 68t-48 25.5q-23 0 -40.5 -31.5t-17.5 -66.5q0 -33 16 -50q39 -40 72 -66.5t71 -51.5q15 40 15 81zM240 948l87 93l86 -93l-86 -94zM155 760l87 93l86 -93l-86 -94 zM357 760l87 93l86 -93l-86 -94z" />
<glyph unicode="&#x686;" arabic-form="final" d="M616 0q-79 0 -128 54.5t-52 148.5q-116 -53 -195.5 -139.5t-79.5 -202.5q0 -108 70.5 -159.5t179.5 -51.5q70 0 141 20t118 48l15 -18q-59 -78 -143 -132t-194 -54q-72 0 -139.5 27t-112.5 91.5t-45 170.5q0 119 59.5 220t171 168.5t261.5 88.5l-20 8q-67 28 -111 41.5 t-93 13.5q-53 0 -108.5 -16.5t-104.5 -45.5l-8 6l43 133q80 60 193 60q46 0 79 -8.5t79 -26.5q49 -20 90 -30t100 -10q2 -42 -39 -149q-24 2 -67.5 -6.5t-92.5 -27.5q10 -40 35.5 -61t55.5 -21h126v-140h-84zM313 13l66 -71l-66 -72l-66 72zM460 -130l-66 72l66 71l66 -71z M385 -280l-66 72l66 71l66 -71z" />
<glyph unicode="&#x686;" arabic-form="initial" d="M0 140h185q77 0 167 16t158 67q29 22 45.5 44.5t18.5 34.5q-167 71 -278 71q-51 0 -95.5 -14.5t-91.5 -47.5l-8 6l43 133q87 60 182 60q49 0 92.5 -13.5t112.5 -41.5q52 -22 87.5 -34.5t72.5 -17.5l-26 -130q-26 -2 -39.5 -14t-32.5 -40q-19 -30 -40.5 -56t-58.5 -57 q-55 -47 -107 -70t-96 -29.5t-97 -6.5h-194v140zM186 -223l83 89l82 -89l-82 -90zM370 -223l83 89l82 -89l-82 -90zM276 -410l83 89l82 -89l-82 -90z" />
<glyph unicode="&#x686;" arabic-form="medial" d="M700 140v-140h-22q-58 0 -80.5 59t-23.5 132q-31 -43 -80 -85q-55 -47 -107 -70t-96 -29.5t-97 -6.5h-194v140h185q77 0 167 16t158 67q29 22 45.5 44.5t18.5 34.5q-167 71 -278 71q-51 0 -95.5 -14.5t-91.5 -47.5l-8 6l43 133q87 60 182 60q49 0 92.5 -13.5t112.5 -41.5 q52 -22 87.5 -34.5t72.5 -17.5l-26 -130q-29 -3 -45 -19v-5q0 -40 3 -61t15.5 -34.5t39.5 -13.5h22zM186 -223l83 89l82 -89l-82 -90zM370 -223l83 89l82 -89l-82 -90zM276 -410l83 89l82 -89l-82 -90z" />
<glyph unicode="&#x688;" arabic-form="final" d="M139.5 6q-20.5 5 -34 22t-13.5 53q0 31 7.5 63t24.5 32q8 0 21 -10q19 -12 37 -19t46 -7h52q46 0 70.5 4t40 22t15.5 56q0 29 -8 64.5t-27 98.5l-32 118l111 112q27 -127 60 -308q15 -83 20 -102q7 -31 27 -48t59 -17h84v-140h-84q-177 0 -195 140q-17 -58 -41.5 -88.5 t-60 -41.5t-93.5 -11l-32 1q-34 1 -54.5 6zM469 901.5q18 -31.5 18 -76.5q0 -56 -31 -79.5t-95 -23.5h-160q0 34 8.5 48.5t18.5 14.5q11 0 15 1q17 20 14 66q-3 79 -7 122.5t-14 60.5l50 44l24 -63q-14 -15 -19 -48.5t-8 -92.5l-3 -52q34 50 71 80t68 30q32 0 50 -31.5z M432 796q15 7 15 26t-14.5 34t-33.5 15q-21 0 -47.5 -22t-61.5 -60h95q32 0 47 7z" />
<glyph unicode="&#x698;" arabic-form="final" d="M117 -351q-32 9 -62 34v51q87 0 134 19t89 56q63 56 116 131.5t53 132.5q0 70 -49.5 148t-52.5 82l101 101q4 -7 23 -56q22 -59 42.5 -101.5t52.5 -74.5t73 -32h63v-140h-43q-44 0 -81.5 14t-76.5 47q3 -18 3 -39q0 -54 -18.5 -119t-51.5 -122t-74 -89q-34 -26 -80 -39 t-93 -13q-36 0 -68 9zM268 799l87 93l86 -93l-86 -94zM183 611l87 93l86 -93l-86 -94zM385 611l87 93l86 -93l-86 -94z" />
<glyph unicode="&#x691;" arabic-form="final" d="M117 -351q-32 9 -62 34v51q87 0 134 19t89 56q63 56 116 131.5t53 132.5q0 70 -49.5 148t-52.5 82l101 101q4 -7 23 -56q22 -59 42.5 -101.5t52.5 -74.5t73 -32h63v-140h-43q-44 0 -81.5 14t-76.5 47q3 -18 3 -39q0 -54 -18.5 -119t-51.5 -122t-74 -89q-34 -26 -80 -39 t-93 -13q-36 0 -68 9zM506 783.5q18 -31.5 18 -76.5q0 -56 -31 -79.5t-95 -23.5h-160q0 34 8.5 48.5t18.5 14.5q11 0 15 1q17 20 14 66q-3 79 -7 122.5t-14 60.5l50 44l24 -63q-14 -15 -19 -48.5t-8 -92.5l-3 -52q34 50 71 80t68 30q32 0 50 -31.5zM469 678q15 7 15 26 t-14.5 34t-33.5 15q-21 0 -47.5 -22t-61.5 -60h95q32 0 47 7z" />
<glyph unicode="&#x6a9;" arabic-form="final" d="M700 140v-140h-12q-21 0 -45.5 39.5t-54.5 114.5q-28 -65 -82.5 -109.5t-130.5 -44.5h-225q-68 0 -109 35t-41 93q0 54 15.5 101.5t41.5 70.5q9 -4 9 -33q0 -7 -2 -29q-1 -5 -1 -15q0 -38 23.5 -60.5t63.5 -22.5l144 -1q79 0 133.5 5.5t82.5 20.5q12 14 12 29 q0 41 -67 93t-147.5 92.5t-95.5 37.5q-15 0 -23 9t-8 33q0 41 20 113q39 62 123 127t176 116.5t155 74.5l-13 -126l-383 -228q73 -23 144 -63.5t123 -88.5t72 -91q24 -42 42 -79q21 -42 31 -58t17 -16h12z" />
<glyph unicode="&#x6a9;" arabic-form="initial" d="M642 764l-383 -228q80 -24 157 -70.5t129 -99.5t61 -97q2 -7 2 -24q0 -48 -27.5 -106t-80 -98.5t-125.5 -40.5h-375v140h150l144 -1q79 0 133.5 5.5t82.5 20.5q12 14 12 29q0 41 -67 93t-147.5 92.5t-95.5 37.5q-15 0 -23 9t-8 33q0 41 20 113q39 62 123 127t176 116.5 t155 74.5z" />
<glyph unicode="&#x6a9;" arabic-form="medial" d="M700 140v-140h-38q-39 0 -80.5 42t-73.5 113q-27 -65 -82 -110t-131 -45h-295v140h70l144 -1q79 0 133.5 5.5t82.5 20.5q12 14 12 29q0 41 -67 93t-147.5 92.5t-95.5 37.5q-15 0 -23 9t-8 33q0 41 20 113q39 62 123 127t176 116.5t155 74.5l-13 -126l-383 -228 q71 -22 141 -62t122 -86.5t73 -89.5q7 -12 14.5 -28t11.5 -24q11 -26 20 -42t22 -28q18 -16 40.5 -26t42.5 -10h34z" />
<glyph unicode="&#x6af;" arabic-form="final" d="M346 873q-102 -69 -164 -133l-14 69q75 65 177.5 134.5t214.5 130.5l14 -70q-126 -62 -228 -131zM700 140v-140h-12q-21 0 -45.5 39.5t-54.5 114.5q-28 -65 -82.5 -109.5t-130.5 -44.5h-225q-68 0 -109 35t-41 93q0 54 15.5 101.5t41.5 70.5q9 -4 9 -33q0 -7 -2 -29 q-1 -5 -1 -15q0 -38 23.5 -60.5t63.5 -22.5l144 -1q79 0 133.5 5.5t82.5 20.5q12 14 12 29q0 41 -67 93t-147.5 92.5t-95.5 37.5q-15 0 -23 9t-8 33q0 41 20 113q39 62 123 127t176 116.5t155 74.5l-13 -126l-383 -228q73 -23 144 -63.5t123 -88.5t72 -91q24 -42 42 -79 q21 -42 31 -58t17 -16h12z" />
<glyph unicode="&#x6af;" arabic-form="initial" d="M356 883q-102 -69 -164 -133l-14 69q75 65 177.5 134.5t214.5 130.5l14 -70q-126 -62 -228 -131zM642 764l-383 -228q80 -24 157 -70.5t129 -99.5t61 -97q2 -7 2 -24q0 -48 -27.5 -106t-80 -98.5t-125.5 -40.5h-375v140h150l144 -1q79 0 133.5 5.5t82.5 20.5q12 14 12 29 q0 41 -67 93t-147.5 92.5t-95.5 37.5q-15 0 -23 9t-8 33q0 41 20 113q39 62 123 127t176 116.5t155 74.5z" />
<glyph unicode="&#x6af;" arabic-form="medial" d="M286 883q-102 -69 -164 -133l-14 69q75 65 177.5 134.5t214.5 130.5l14 -70q-126 -62 -228 -131zM700 140v-140h-38q-39 0 -80.5 42t-73.5 113q-27 -65 -82 -110t-131 -45h-295v140h70l144 -1q79 0 133.5 5.5t82.5 20.5q12 14 12 29q0 41 -67 93t-147.5 92.5t-95.5 37.5 q-15 0 -23 9t-8 33q0 41 20 113q39 62 123 127t176 116.5t155 74.5l-13 -126l-383 -228q71 -22 141 -62t122 -86.5t73 -89.5q7 -12 14.5 -28t11.5 -24q11 -26 20 -42t22 -28q18 -16 40.5 -26t42.5 -10h34z" />
<glyph unicode="&#x6ba;" arabic-form="final" d="M57 -256q-57 81 -57 198q0 24 4 66q8 76 20 118.5t37 79.5l34 -22q-9 -21 -15 -57t-6 -83q0 -118 41 -175.5t137 -73.5q20 -3 40 -3q66 0 126 32t96.5 87t36.5 120q0 23 -4 42q-10 49 -45 121.5t-57 108.5l101 101q12 -24 31 -81q29 -86 53.5 -134.5t53.5 -48.5h16v-140 h-16q-13 0 -20.5 2t-18.5 12t-29 32q0 -140 -48.5 -229t-123 -129t-158.5 -40q-11 0 -33 2q-139 13 -196 94z" />
<glyph unicode="&#x6c1;" arabic-form="final" d="M120 17q0 62 27.5 155.5t69.5 162t85 68.5q26 0 53 -20.5t41 -45.5l22 -43q7 -12 22 -41.5t27 -48.5q19 -30 42.5 -43.5t53.5 -17t85 -3.5h52v-140h-117q-74 0 -125 29.5t-78 66.5t-55 89q-9 16 -15.5 23t-20.5 7q-15 0 -22.5 -7t-13.5 -19t-21 -61q-25 -77 -45.5 -121.5 t-42.5 -47.5q-24 -1 -24 58z" />
<glyph unicode="&#x6c1;" arabic-form="initial" d="M641 109q-34 -57 -91 -86q-44 -48 -69 -85.5t-25 -64.5q0 -30 33 -42q45 -15 69 -34t24 -59q0 -44 -26 -69t-64 -25q-58 0 -83 46t-25 104q0 13 2 31q11 77 98 177q-18 -2 -27 -2h-457v140h486q31 0 51.5 13t20.5 40q0 21 -19 100.5t-33 115.5l101 101q19 -49 43.5 -144 t24.5 -144q0 -56 -34 -113z" />
<glyph unicode="&#x6c1;" arabic-form="medial" d="M196 -373q-10 14 -18 60q-8 44 -12.5 98.5t-4.5 101.5q0 83 16 149q5 23 5 34q0 9 -3 9q-2 0 -24.5 -22t-49.5 -39.5t-53 -17.5h-52v140h38q45 0 76 20.5t66 57.5q27 29 47.5 43.5t44.5 14.5q17 0 25.5 -9.5t8.5 -34.5q0 -37 -26 -188q-3 -24 -32 -206q53 111 111 179 t107.5 95.5t83.5 27.5h150v-140h-59q-120 0 -208.5 -65t-121.5 -173q-5 -18 -8 -31q-16 -58 -32 -88t-49 -30q-16 0 -26 14z" />
<glyph unicode="&#x6be;" arabic-form="final" d="M700 0h-226q-13 -3 -27 -3q-13 0 -25 3l-147 31l-219 -138q-14 -9 -27 -9t-21 17.5t-8 33.5q0 21 23.5 43.5t93.5 63.5l37 22q-32 10 -44.5 32t-12.5 57q0 69 34 119t82.5 76t92.5 28q35 127 78.5 214.5t100.5 87.5q53 0 97.5 -78t71 -179.5t26.5 -155.5q0 -60 -38 -125 h58v-140zM418 134q23 -2 41 -2q115 0 115 86q0 39 -18 119.5t-46.5 143t-60.5 62.5q-21 0 -38 -26t-45 -83q-26 -51 -31 -61q44 -9 71.5 -47t27.5 -90q0 -30 -11 -51t-39 -46q11 -3 34 -5zM333.5 155.5q24.5 14.5 24.5 40.5q0 21 -15 50.5t-38 51t-44 21.5q-18 0 -36.5 -16 t-31 -41t-12.5 -51q0 -34 23.5 -52t65.5 -18q39 0 63.5 14.5z" />
<glyph unicode="&#x6be;" arabic-form="initial" d="M582.5 600q44.5 -78 71 -179.5t26.5 -155.5q0 -62 -40 -123.5t-100.5 -101.5t-117.5 -40h-422v140h97q0 81 35 133.5t83.5 76.5t90.5 26q35 127 78.5 214.5t100.5 87.5q53 0 97.5 -78zM574 218q0 39 -18 119.5t-46.5 143t-60.5 62.5q-20 0 -38 -26.5t-45 -81.5 q-26 -51 -31 -61q44 -9 71.5 -47t27.5 -91q0 -30 -11 -51t-39 -46q11 -3 34 -5t41 -2q115 0 115 86zM333.5 155.5q24.5 14.5 24.5 40.5q0 21 -15 50.5t-38 51t-44 21.5q-18 0 -36.5 -16t-31 -41t-12.5 -51q0 -34 23.5 -52t65.5 -18q39 0 63.5 14.5z" />
<glyph unicode="&#x6be;" arabic-form="medial" d="M700 140v-140h-276h-2h-422v140h97q0 81 35 133.5t83.5 76.5t90.5 26q35 127 78.5 214.5t100.5 87.5q53 0 97.5 -78t71 -179.5t26.5 -155.5q0 -61 -41 -125h61zM418 134q23 -2 41 -2q115 0 115 86q0 39 -18 119.5t-46.5 143t-60.5 62.5q-20 0 -38 -26.5t-45 -81.5 q-26 -51 -31 -61q44 -9 71.5 -47t27.5 -91q0 -30 -11 -51t-39 -46q11 -3 34 -5zM333.5 155.5q24.5 14.5 24.5 40.5q0 21 -15 50.5t-38 51t-44 21.5q-18 0 -36.5 -16t-31 -41t-12.5 -51q0 -34 23.5 -52t65.5 -18q39 0 63.5 14.5z" />
<glyph unicode="&#x6d2;" arabic-form="final" d="M118.5 -296.5q-90.5 32.5 -90.5 123.5q0 55 34 122t90 109q61 46 142.5 64t160.5 18h245v-140h-303q-71 0 -114 -10t-81 -35q-27 -17 -53 -41.5t-26 -46.5q0 -33 68 -44.5t185 -11.5q85 0 209 4q55 3 97 3l-3 -89q-105 -36 -176.5 -47t-146.5 -11q-147 0 -237.5 32.5z " />
<glyph unicode="&#x6d3;" arabic-form="final" d="M249 311q-5 0 -6.5 6.5t-1.5 7.5q-7 21 -7 27q0 10 16 20l55 32q-58 20 -58 75q0 30 15.5 63t42 54.5t56.5 21.5q27 0 39.5 -18.5t14.5 -55.5v-3q0 -8 -3.5 -12.5t-8.5 -4.5q-4 1 -28 12.5t-44 11.5q-37 0 -37 -29t18.5 -58t58.5 -29l56 1q17 0 24 -2.5t13 -12.5l10 -17 q1 -2 1 -6q0 -11 -19 -16q-103 -24 -131 -33t-73 -34q-1 -1 -3 -1zM118.5 -296.5q-90.5 32.5 -90.5 123.5q0 55 34 122t90 109q61 46 142.5 64t160.5 18h245v-140h-303q-71 0 -114 -10t-81 -35q-27 -17 -53 -41.5t-26 -46.5q0 -33 68 -44.5t185 -11.5q85 0 209 4q55 3 97 3 l-3 -89q-105 -36 -176.5 -47t-146.5 -11q-147 0 -237.5 32.5z" />
<glyph unicode="&#x6cc;" arabic-form="final" d="M59 -284q-59 66 -59 203q0 86 27.5 158t102.5 154l15 -22q-46 -76 -63.5 -130.5t-17.5 -111.5q0 -67 20 -104t61.5 -52t113.5 -15q98 0 192 20t94 64q0 21 -21 45.5t-41 42.5t-25 23q-11 11 -27 25q-33 30 -71 62l38 98q143 -36 302 -36v-140q-49 -1 -79.5 2.5 t-60.5 17.5q79 -78 79 -179q0 -61 -29 -92t-89 -51q-52 -17 -127.5 -32.5t-145.5 -15.5q-130 0 -189 66z" />
<glyph unicode="&#x6cc;" arabic-form="initial" d="M0 140h486q31 0 51.5 13t20.5 40q0 21 -19 100.5t-33 115.5l101 101q19 -49 43.5 -144t24.5 -144q0 -50 -28 -102t-77.5 -86t-112.5 -34h-457v140zM361 -255l85 93l87 -91l-84 -94zM137 -258l84 93l87 -90l-83 -95z" />
<glyph unicode="&#x6cc;" arabic-form="medial" d="M700 0q-75 0 -122 14t-76.5 49t-49.5 101q-20 -61 -45.5 -96t-65.5 -51.5t-102 -16.5h-239v140h230q68 0 102.5 6.5t53.5 32t19 80.5q0 39 -10 106l129 83q-1 -24 -1 -134q0 -105 1 -121q2 -24 22 -35.5t54.5 -14.5t99.5 -3v-140zM361 -255l85 93l87 -91l-84 -94z M137 -258l84 93l87 -90l-83 -95z" />
<glyph unicode="&#xfccc;" arabic-form="initial" d="M666 59q0 -14 -18 -35l-41 -48q-22 -27 -45 -27q-16 0 -36 14l-81 57q-24 17 -37 43q-46 -31 -110.5 -47t-129.5 -16h-168v140h292q54 0 72 28.5t18 81.5q0 71 -18 234.5t-39 290.5l131 115l90 -156q-29 -27 -65 -68q0 -44 1 -72q2 -90 2 -197v-202q0 -13 -1 -20 q34 -29 113 -63q34 -15 49 -24q21 -13 21 -29z" />
<glyph unicode="&#xfcd1;" arabic-form="initial" d="M564 692q53 -50 86 -105q-1 -57 -24.5 -107.5t-54.5 -77.5q-28 -25 -68.5 -39t-106.5 -30q-32 -8 -76 -20q-57 -22 -57 -64t57 -101q43 -29 132 -69q52 -24 63 -31q21 -13 21 -28t-18 -36l-41 -48q-13 -14 -23.5 -20.5t-21.5 -6.5q-16 0 -36 14l-101 77q-21 16 -34 38 q-38 -38 -103 -38h-158v140h188l-13 32q-8 19 -8 47q0 24 6 49t13 41q17 33 68 68.5t111.5 62.5t99.5 36q-59 13 -89 46t-30 75q0 16 7.5 33.5t29.5 47.5q25 35 42 49.5t39 14.5q47 0 100 -50z" />
<glyph unicode="&#xfdf2;" horiz-adv-x="2800" arabic-form="isolated" d="M2332 764l130 126v-750l-74 -178h-16zM829 9.5q-65 29.5 -96.5 72.5t-55.5 103l-41 -58q-32 -21 -94 -21q-39 0 -79 8t-67 21q-25 12 -34 26.5t-9 39.5q0 89 98 193q81 86 195 149v76l82 60q5 -198 10 -284t11 -118q12 -62 45 -96t90.5 -47.5t150.5 -13.5q86 0 134 15 t72.5 60t24.5 136q0 92 -29 335l-4 36l143 105l8 -2q2 -22 2 -51q0 -71 -7 -215q-1 -30 -4 -107t-3 -121q0 -43 3 -61q5 -31 33 -60.5t84 -49.5t137 -20q74 0 113 17t52.5 46.5t13.5 73.5q0 61 -17.5 195t-39.5 270l121 115l90 -156q-25 -26 -37.5 -54.5t-18.5 -81 t-6 -148.5v-202q0 -123 -75.5 -169t-195.5 -46q-129 0 -208 44.5t-93 139.5q-35 -88 -113.5 -136t-213.5 -48q-107 0 -172 29.5zM674 262q1 15 1 41q0 50 -10 140q-32 -16 -86 -52t-92 -81q-24 -28 -24 -42q0 -12 18 -17t55 -5q69 0 138 16z" />
<glyph unicode="&#x622;" arabic-form="final" d="M18 947q12 39 33.5 68t45.5 44t44 15q13 0 21.5 -5t24.5 -18q20 -17 39 -26.5t50 -9.5q28 0 65 12.5t106 46.5q7 0 11.5 -9t4.5 -22t-5 -26.5t-14 -23.5q-13 -14 -41.5 -32t-62.5 -31.5t-61 -13.5q-43 0 -87.5 32t-68.5 75q-41 -21 -70 -112zM253.5 47.5 q-52.5 47.5 -55.5 147.5l-3 115q-5 177 -8 245t-12 201l125 95v-598q0 -61 22 -87t78 -26h300v-140h-317q-77 0 -129.5 47.5z" />
<glyph unicode="&#x623;" arabic-form="final" d="M110 877q-5 0 -9 15q-2 8 -5 17t-3 13q0 7 4.5 12t14.5 11l61 35q-64 23 -64 85q0 34 17 70.5t46.5 61t63.5 24.5q31 0 45.5 -20.5t16.5 -62.5q0 -11 -4 -16.5t-10 -5.5q-4 1 -31 14t-50 13q-41 0 -41 -33t20.5 -65.5t65.5 -32.5q15 0 25 1l38 1q19 0 26.5 -3.5 t14.5 -14.5l11 -18q2 -4 2 -7q0 -7 -7 -12t-15 -7q-65 -15 -107 -25.5t-64 -19.5t-58 -29q-1 -1 -4 -1zM253.5 47.5q-52.5 47.5 -55.5 147.5l-3 115q-5 177 -8 245t-12 201l125 95v-598q0 -61 22 -87t78 -26h300v-140h-317q-77 0 -129.5 47.5z" />
<glyph unicode="&#x624;" arabic-form="final" d="M211 591q-6 0 -7.5 7t-1.5 8q-7 21 -7 27q0 12 17 21l56 33q-59 20 -59 77q0 31 16 65t43 56.5t58 22.5q28 0 41 -19.5t15 -57.5v-2q0 -8 -3.5 -13t-8.5 -5q-5 1 -30 13t-45 12q-38 0 -38 -30t19 -60t61 -30l58 1q18 0 24.5 -2.5t13.5 -12.5l10 -18q1 -2 1 -6 q0 -10 -20 -17q-60 -13 -98.5 -23t-58.5 -18.5t-53 -27.5q-1 -1 -3 -1zM165 -349q-28 7 -82 32v51h61q88 0 183 67q66 46 104.5 101t38.5 98q-18 -2 -56 -2q-108 0 -165.5 34.5t-57.5 110.5q0 82 26 159.5t67 125.5t82 48q72 0 150 -158q28 -57 38 -95t15 -83h131v-140h-131 q2 -79 -38 -161.5t-120 -138.5t-192 -56q-26 0 -54 7zM435 234q-24 45 -52.5 75t-47.5 37q-6 2 -10 2q-24 0 -38 -36.5t-14 -87.5q0 -41 14 -58t51 -21.5t127 -4.5q-6 49 -30 94z" />
<glyph unicode="&#x625;" arabic-form="final" d="M253.5 47.5q-52.5 47.5 -55.5 147.5l-3 115q-5 177 -8 245t-12 201l125 95v-598q0 -61 22 -87t78 -26h300v-140h-317q-77 0 -129.5 47.5zM227 -490q-7 0 -10 16q-8 25 -8 29q0 13 19 24l61 35q-64 23 -64 84q0 35 17 71.5t46.5 61t63.5 24.5q31 0 45.5 -21t16.5 -63 q0 -10 -4 -15.5t-10 -5.5q-4 1 -31 14t-50 13q-41 0 -41 -34q0 -33 20.5 -65.5t65.5 -32.5q15 0 25 1l38 1q19 0 26.5 -3t14.5 -14l11 -19q2 -4 2 -7q0 -6 -7 -11t-15 -7q-86 -20 -117.5 -28t-53.5 -17.5t-58 -29.5q-1 -1 -3 -1z" />
<glyph unicode="&#x626;" arabic-form="final" d="M278 398q-5 0 -6.5 6.5t-1.5 7.5q-7 21 -7 27q0 10 16 20l55 32q-58 20 -58 75q0 30 15.5 63t42 54.5t56.5 21.5q27 0 39.5 -18.5t14.5 -55.5v-3q0 -8 -3.5 -12.5t-8.5 -4.5q-4 1 -28 12.5t-44 11.5q-37 0 -37 -29t18.5 -58t58.5 -29l56 1q17 0 24 -2.5t13 -12.5l10 -17 q1 -2 1 -6q0 -11 -19 -16q-103 -24 -131 -33t-73 -34q-1 -1 -3 -1zM59 -284q-59 66 -59 203q0 86 27.5 158t102.5 154l15 -22q-46 -76 -63.5 -130.5t-17.5 -111.5q0 -67 20 -104t61.5 -52t113.5 -15q98 0 192 20t94 64q0 21 -21 45.5t-41 42.5t-25 23q-11 11 -27 25 q-33 30 -71 62l38 98q143 -36 302 -36v-140q-49 -1 -79.5 2.5t-60.5 17.5q79 -78 79 -179q0 -61 -29 -92t-89 -51q-52 -17 -127.5 -32.5t-145.5 -15.5q-130 0 -189 66z" />
<glyph unicode="&#x626;" arabic-form="initial" d="M220 550q-5 0 -6.5 6.5t-1.5 7.5q-7 21 -7 27q0 10 16 20l55 32q-58 20 -58 75q0 30 15.5 63t42 54.5t56.5 21.5q27 0 39.5 -18.5t14.5 -55.5v-3q0 -8 -3.5 -12.5t-8.5 -4.5q-4 1 -28 12.5t-44 11.5q-37 0 -37 -29t18.5 -58t58.5 -29l56 1q17 0 24 -2.5t13 -12.5l10 -17 q1 -2 1 -6q0 -11 -19 -16q-103 -24 -131 -33t-73 -34q-1 -1 -3 -1zM0 140h486q31 0 51.5 13t20.5 40q0 21 -19 100.5t-33 115.5l101 101q19 -49 43.5 -144t24.5 -144q0 -50 -28 -102t-77.5 -86t-112.5 -34h-457v140z" />
<glyph unicode="&#x626;" arabic-form="medial" d="M233 561q-5 0 -6.5 6.5t-1.5 7.5q-7 21 -7 27q0 10 16 20l55 32q-58 20 -58 75q0 30 15.5 63t42 54.5t56.5 21.5q27 0 39.5 -18.5t14.5 -55.5v-3q0 -8 -3.5 -12.5t-8.5 -4.5q-4 1 -28 12.5t-44 11.5q-37 0 -37 -29t18.5 -58t58.5 -29l56 1q17 0 24 -2.5t13 -12.5l10 -17 q1 -2 1 -6q0 -11 -19 -16q-103 -24 -131 -33t-73 -34q-1 -1 -3 -1zM700 0q-75 0 -122 14t-76.5 49t-49.5 101q-20 -61 -45.5 -96t-65.5 -51.5t-102 -16.5h-239v140h230q68 0 102.5 6.5t53.5 32t19 80.5q0 39 -10 106l129 83q-1 -24 -1 -134q0 -105 1 -121q2 -24 22 -35.5 t54.5 -14.5t99.5 -3v-140z" />
<glyph unicode="&#x627;" arabic-form="final" d="M253.5 47.5q-52.5 47.5 -55.5 147.5l-3 115q-5 177 -8 245t-12 201l125 95v-598q0 -61 22 -87t78 -26h300v-140h-317q-77 0 -129.5 47.5z" />
<glyph unicode="&#x628;" arabic-form="final" d="M101.5 20.5q-48.5 20.5 -75 58t-26.5 86.5q0 56 23 121.5t60 116.5l51 -7q-36 -93 -36 -158q0 -47 19.5 -72.5t55.5 -25.5h275q40 0 73.5 26t48.5 69q17 53 21 77l73 45q-16 -57 -25 -103q-3 -16 -3 -31q0 -38 17 -60.5t47 -22.5v-140h-5q-32 0 -56 30.5t-31 80.5 q-16 -50 -74 -80.5t-136 -30.5h-185q-63 0 -111.5 20.5zM264 -260l87 93l86 -93l-86 -94z" />
<glyph unicode="&#x628;" arabic-form="initial" d="M0 140h486q31 0 51.5 13t20.5 40q0 21 -19 100.5t-33 115.5l101 101q19 -49 43.5 -144t24.5 -144q0 -50 -28 -102t-77.5 -86t-112.5 -34h-457v140zM264 -260l87 93l86 -93l-86 -94z" />
<glyph unicode="&#x628;" arabic-form="medial" d="M700 0q-75 0 -122 14t-76.5 49t-49.5 101q-20 -61 -45.5 -96t-65.5 -51.5t-102 -16.5h-239v140h230q68 0 102.5 6.5t53.5 32t19 80.5q0 39 -10 106l129 83q-1 -24 -1 -134q0 -105 1 -121q2 -24 22 -35.5t54.5 -14.5t99.5 -3v-140zM349 -260l87 93l86 -93l-86 -94z" />
<glyph unicode="&#x629;" arabic-form="final" d="M454.5 49q-46.5 49 -61.5 127l-41 -58q-32 -21 -94 -21q-39 0 -79 8t-67 21q-25 12 -34 26.5t-9 39.5q0 87 98 193q50 54 103.5 91t91.5 58l-20 76l97 38l2 -46q6 -165 8.5 -212t10.5 -114q7 -65 27.5 -100.5t72.5 -35.5h140v-140h-119q-80 0 -126.5 49zM312.5 240.5 q28.5 3.5 67.5 12.5q1 15 1 41q0 50 -10 140q-24 -12 -76 -49.5t-92 -83.5q-24 -28 -24 -42q0 -12 17.5 -17t53.5 -5q34 0 62.5 3.5zM363 814l85 93l87 -91l-84 -94zM139 811l84 93l87 -90l-83 -95z" />
<glyph unicode="&#x62a;" arabic-form="final" d="M101.5 20.5q-48.5 20.5 -75 58t-26.5 86.5q0 56 23 121.5t60 116.5l51 -7q-36 -93 -36 -158q0 -47 19.5 -72.5t55.5 -25.5h275q40 0 73.5 26t48.5 69q17 53 21 77l73 45q-16 -57 -25 -103q-3 -16 -3 -31q0 -38 17 -60.5t47 -22.5v-140h-5q-32 0 -56 30.5t-31 80.5 q-16 -50 -74 -80.5t-136 -30.5h-185q-63 0 -111.5 20.5zM401 626l85 93l87 -91l-84 -94zM177 623l84 93l87 -90l-83 -95z" />
<glyph unicode="&#x62a;" arabic-form="initial" d="M0 140h486q31 0 51.5 13t20.5 40q0 21 -19 100.5t-33 115.5l101 101q19 -49 43.5 -144t24.5 -144q0 -50 -28 -102t-77.5 -86t-112.5 -34h-457v140zM310 626l85 93l87 -91l-84 -94zM86 623l84 93l87 -90l-83 -95z" />
<glyph unicode="&#x62a;" arabic-form="medial" d="M700 0q-75 0 -122 14t-76.5 49t-49.5 101q-20 -61 -45.5 -96t-65.5 -51.5t-102 -16.5h-239v140h230q68 0 102.5 6.5t53.5 32t19 80.5q0 39 -10 106l129 83q-1 -24 -1 -134q0 -105 1 -121q2 -24 22 -35.5t54.5 -14.5t99.5 -3v-140zM309 626l85 93l87 -91l-84 -94zM85 623 l84 93l87 -90l-83 -95z" />
<glyph unicode="&#x62b;" arabic-form="final" d="M101.5 20.5q-48.5 20.5 -75 58t-26.5 86.5q0 56 23 121.5t60 116.5l51 -7q-36 -93 -36 -158q0 -47 19.5 -72.5t55.5 -25.5h275q40 0 73.5 26t48.5 69q17 53 21 77l73 45q-16 -57 -25 -103q-3 -16 -3 -31q0 -38 17 -60.5t47 -22.5v-140h-5q-32 0 -56 30.5t-31 80.5 q-16 -50 -74 -80.5t-136 -30.5h-185q-63 0 -111.5 20.5zM266 732l87 93l86 -93l-86 -94zM181 544l87 93l86 -93l-86 -94zM383 544l87 93l86 -93l-86 -94z" />
<glyph unicode="&#x62b;" arabic-form="initial" d="M0 140h486q31 0 51.5 13t20.5 40q0 21 -19 100.5t-33 115.5l101 101q19 -49 43.5 -144t24.5 -144q0 -50 -28 -102t-77.5 -86t-112.5 -34h-457v140zM156 787l87 93l86 -93l-86 -94zM71 599l87 93l86 -93l-86 -94zM273 599l87 93l86 -93l-86 -94z" />
<glyph unicode="&#x62b;" arabic-form="medial" d="M700 0q-75 0 -122 14t-76.5 49t-49.5 101q-20 -61 -45.5 -96t-65.5 -51.5t-102 -16.5h-239v140h230q68 0 102.5 6.5t53.5 32t19 80.5q0 39 -10 106l129 83q-1 -24 -1 -134q0 -105 1 -121q2 -24 22 -35.5t54.5 -14.5t99.5 -3v-140zM201 787l87 93l86 -93l-86 -94zM116 599 l87 93l86 -93l-86 -94zM318 599l87 93l86 -93l-86 -94z" />
<glyph unicode="&#x62c;" arabic-form="final" d="M240.5 63.5q-79.5 -86.5 -79.5 -202.5q0 -108 70.5 -159.5t179.5 -51.5q70 0 141 20t118 48l15 -18q-59 -78 -143 -132t-194 -54q-72 0 -139.5 27t-112.5 91.5t-45 170.5q0 119 59.5 220t171 168.5t261.5 88.5l-20 8q-67 28 -111 41.5t-93 13.5q-53 0 -108.5 -16.5 t-104.5 -45.5l-8 6l43 133q80 60 193 60q46 0 79 -8.5t79 -26.5q49 -20 90 -30t100 -10q2 -42 -39 -149q-24 2 -67.5 -6.5t-92.5 -27.5q10 -40 35.5 -61t55.5 -21h126v-140h-84q-79 0 -128 54.5t-52 148.5q-116 -53 -195.5 -139.5zM309 -131l87 93l86 -93l-86 -94z" />
<glyph unicode="&#x62c;" arabic-form="initial" d="M0 140h185q77 0 167 16t158 67q29 22 45.5 44.5t18.5 34.5q-167 71 -278 71q-51 0 -95.5 -14.5t-91.5 -47.5l-8 6l43 133q87 60 182 60q49 0 92.5 -13.5t112.5 -41.5q52 -22 87.5 -34.5t72.5 -17.5l-26 -130q-26 -2 -39.5 -14t-32.5 -40q-19 -30 -40.5 -56t-58.5 -57 q-55 -47 -107 -70t-96 -29.5t-97 -6.5h-194v140zM264 -260l87 93l86 -93l-86 -94z" />
<glyph unicode="&#x62c;" arabic-form="medial" d="M700 140v-140h-22q-58 0 -80.5 59t-23.5 132q-31 -43 -80 -85q-55 -47 -107 -70t-96 -29.5t-97 -6.5h-194v140h185q77 0 167 16t158 67q29 22 45.5 44.5t18.5 34.5q-167 71 -278 71q-51 0 -95.5 -14.5t-91.5 -47.5l-8 6l43 133q87 60 182 60q49 0 92.5 -13.5t112.5 -41.5 q52 -22 87.5 -34.5t72.5 -17.5l-26 -130q-29 -3 -45 -19v-5q0 -40 3 -61t15.5 -34.5t39.5 -13.5h22zM264 -260l87 93l86 -93l-86 -94z" />
<glyph unicode="&#x62d;" arabic-form="final" d="M240.5 63.5q-79.5 -86.5 -79.5 -202.5q0 -108 70.5 -159.5t179.5 -51.5q70 0 141 20t118 48l15 -18q-59 -78 -143 -132t-194 -54q-72 0 -139.5 27t-112.5 91.5t-45 170.5q0 119 59.5 220t171 168.5t261.5 88.5l-20 8q-67 28 -111 41.5t-93 13.5q-53 0 -108.5 -16.5 t-104.5 -45.5l-8 6l43 133q80 60 193 60q46 0 79 -8.5t79 -26.5q49 -20 90 -30t100 -10q2 -42 -39 -149q-24 2 -67.5 -6.5t-92.5 -27.5q10 -40 35.5 -61t55.5 -21h126v-140h-84q-79 0 -128 54.5t-52 148.5q-116 -53 -195.5 -139.5z" />
<glyph unicode="&#x62d;" arabic-form="initial" d="M0 140h185q77 0 167 16t158 67q29 22 45.5 44.5t18.5 34.5q-167 71 -278 71q-51 0 -95.5 -14.5t-91.5 -47.5l-8 6l43 133q87 60 182 60q49 0 92.5 -13.5t112.5 -41.5q52 -22 87.5 -34.5t72.5 -17.5l-26 -130q-26 -2 -39.5 -14t-32.5 -40q-19 -30 -40.5 -56t-58.5 -57 q-55 -47 -107 -70t-96 -29.5t-97 -6.5h-194v140z" />
<glyph unicode="&#x62d;" arabic-form="medial" d="M700 140v-140h-22q-58 0 -80.5 59t-23.5 132q-31 -43 -80 -85q-55 -47 -107 -70t-96 -29.5t-97 -6.5h-194v140h185q77 0 167 16t158 67q29 22 45.5 44.5t18.5 34.5q-167 71 -278 71q-51 0 -95.5 -14.5t-91.5 -47.5l-8 6l43 133q87 60 182 60q49 0 92.5 -13.5t112.5 -41.5 q52 -22 87.5 -34.5t72.5 -17.5l-26 -130q-29 -3 -45 -19v-5q0 -40 3 -61t15.5 -34.5t39.5 -13.5h22z" />
<glyph unicode="&#x62e;" arabic-form="final" d="M240.5 63.5q-79.5 -86.5 -79.5 -202.5q0 -108 70.5 -159.5t179.5 -51.5q70 0 141 20t118 48l15 -18q-59 -78 -143 -132t-194 -54q-72 0 -139.5 27t-112.5 91.5t-45 170.5q0 119 59.5 220t171 168.5t261.5 88.5l-20 8q-67 28 -111 41.5t-93 13.5q-53 0 -108.5 -16.5 t-104.5 -45.5l-8 6l43 133q80 60 193 60q46 0 79 -8.5t79 -26.5q49 -20 90 -30t100 -10q2 -42 -39 -149q-24 2 -67.5 -6.5t-92.5 -27.5q10 -40 35.5 -61t55.5 -21h126v-140h-84q-79 0 -128 54.5t-52 148.5q-116 -53 -195.5 -139.5zM263 700l87 93l86 -93l-86 -94z" />
<glyph unicode="&#x62e;" arabic-form="initial" d="M0 140h185q77 0 167 16t158 67q29 22 45.5 44.5t18.5 34.5q-167 71 -278 71q-51 0 -95.5 -14.5t-91.5 -47.5l-8 6l43 133q87 60 182 60q49 0 92.5 -13.5t112.5 -41.5q52 -22 87.5 -34.5t72.5 -17.5l-26 -130q-26 -2 -39.5 -14t-32.5 -40q-19 -30 -40.5 -56t-58.5 -57 q-55 -47 -107 -70t-96 -29.5t-97 -6.5h-194v140zM263 720l87 93l86 -93l-86 -94z" />
<glyph unicode="&#x62e;" arabic-form="medial" d="M700 140v-140h-22q-58 0 -80.5 59t-23.5 132q-31 -43 -80 -85q-55 -47 -107 -70t-96 -29.5t-97 -6.5h-194v140h185q77 0 167 16t158 67q29 22 45.5 44.5t18.5 34.5q-167 71 -278 71q-51 0 -95.5 -14.5t-91.5 -47.5l-8 6l43 133q87 60 182 60q49 0 92.5 -13.5t112.5 -41.5 q52 -22 87.5 -34.5t72.5 -17.5l-26 -130q-29 -3 -45 -19v-5q0 -40 3 -61t15.5 -34.5t39.5 -13.5h22zM303 720l87 93l86 -93l-86 -94z" />
<glyph unicode="&#x62f;" arabic-form="final" d="M139.5 6q-20.5 5 -34 22t-13.5 53q0 31 7.5 63t24.5 32q8 0 21 -10q19 -12 37 -19t46 -7h52q46 0 70.5 4t40 22t15.5 56q0 29 -8 64.5t-27 98.5l-32 118l111 112q27 -127 60 -308q15 -83 20 -102q7 -31 27 -48t59 -17h84v-140h-84q-177 0 -195 140q-17 -58 -41.5 -88.5 t-60 -41.5t-93.5 -11l-32 1q-34 1 -54.5 6z" />
<glyph unicode="&#x630;" arabic-form="final" d="M139.5 6q-20.5 5 -34 22t-13.5 53q0 31 7.5 63t24.5 32q8 0 21 -10q19 -12 37 -19t46 -7h52q46 0 70.5 4t40 22t15.5 56q0 29 -8 64.5t-27 98.5l-32 118l111 112q27 -127 60 -308q15 -83 20 -102q7 -31 27 -48t59 -17h84v-140h-84q-177 0 -195 140q-17 -58 -41.5 -88.5 t-60 -41.5t-93.5 -11l-32 1q-34 1 -54.5 6zM258 754l87 93l86 -93l-86 -94z" />
<glyph unicode="&#x631;" arabic-form="final" d="M117 -351q-32 9 -62 34v51q87 0 134 19t89 56q63 56 116 131.5t53 132.5q0 70 -49.5 148t-52.5 82l101 101q4 -7 23 -56q22 -59 42.5 -101.5t52.5 -74.5t73 -32h63v-140h-43q-44 0 -81.5 14t-76.5 47q3 -18 3 -39q0 -54 -18.5 -119t-51.5 -122t-74 -89q-34 -26 -80 -39 t-93 -13q-36 0 -68 9z" />
<glyph unicode="&#x632;" arabic-form="final" d="M117 -351q-32 9 -62 34v51q87 0 134 19t89 56q63 56 116 131.5t53 132.5q0 70 -49.5 148t-52.5 82l101 101q4 -7 23 -56q22 -59 42.5 -101.5t52.5 -74.5t73 -32h63v-140h-43q-44 0 -81.5 14t-76.5 47q3 -18 3 -39q0 -54 -18.5 -119t-51.5 -122t-74 -89q-34 -26 -80 -39 t-93 -13q-36 0 -68 9zM263 610l87 93l86 -93l-86 -94z" />
<glyph unicode="&#x633;" arabic-form="final" d="M700 140v-140q-30 0 -51 12.5t-37 39.5q-18 -24 -37.5 -38t-36.5 -14q-20 0 -34 19t-21 48q-19 -63 -73 -67q-13 0 -24 6q9 -38 13 -64.5t4 -57.5q0 -125 -62.5 -185t-155.5 -60q-103 0 -144 74.5t-41 230.5q0 70 8.5 119t31.5 127h47q-9 -26 -18 -96t-9 -119 q0 -85 33 -137t100 -52q58 0 95.5 37.5t37.5 95.5q0 52 -23.5 117.5t-64.5 159.5l98 98q10 -75 23 -154h26q26 1 35.5 20.5t9.5 51.5l-1 29q-1 8 -1 22q0 50 28 50q24 0 32.5 -22t8.5 -75v-32q0 -14 -2 -44q43 1 70 17t27 64v178l83 59v-233q0 -36 -15 -83q15 -2 40 -2z" />
<glyph unicode="&#x633;" arabic-form="initial" d="M656 486v-270q0 -52 -23.5 -102t-66.5 -82t-100 -32q-42 0 -69.5 18t-34.5 42q-31 -41 -58 -52.5t-61 -11.5q-42 0 -67 5.5t-40.5 22.5t-22.5 52q-3 -5 -16 -30t-30 -35.5t-41 -10.5h-26v140h44q31 0 44 28.5t24 86.5q4 24 7 36q6 26 13.5 37t23.5 11q14 0 19 -9t5 -26 q0 -15 -2.5 -49.5t-3.5 -52.5l-3 -38q0 -24 60 -24q49 0 72.5 17.5t30 49t6.5 88.5v53q0 13 13.5 26t39.5 13q17 0 25 -16.5t12 -67.5q2 -21 2 -54q0 -67 -18 -103l-3 -6q52 0 81 3.5t46 17.5t17 43v195z" />
<glyph unicode="&#x633;" arabic-form="medial" d="M700 140v-140q-36 0 -60 18.5t-41 58.5q-28 -36 -63 -56.5t-74 -20.5q-34 0 -59.5 14.5t-36.5 35.5q-34 -33 -69 -43.5t-60 -10.5q-103 0 -114 80q-19 -36 -45 -56t-62 -20h-16v140h34q27 0 42 15t22.5 37.5t14.5 60.5l6 28q6 26 13.5 37t23.5 11q14 0 19 -9t5 -26 q0 -15 -2.5 -47t-3.5 -48q-3 -25 -3 -35q0 -24 67 -24q71 0 97.5 24t26.5 72q0 22 -8 84l-3 28q-2 18 11.5 28.5t39.5 10.5q20 0 26 -15.5t11 -63.5q0 -6 2 -22.5t2 -33.5q0 -53 -19 -106l-2 -6q66 2 108.5 17t47.5 45q1 5 1 23q0 38 -11 163q-1 15 13.5 26t33.5 11 q16 0 27 -8.5t13 -26.5q7 -61 7 -113q0 -37 -4 -61q-4 -27 -18 -68q16 -8 60 -8z" />
<glyph unicode="&#x634;" arabic-form="final" d="M700 140v-140q-30 0 -51 12.5t-37 39.5q-18 -24 -37.5 -38t-36.5 -14q-20 0 -34 19t-21 48q-19 -63 -73 -67q-13 0 -24 6q9 -38 13 -64.5t4 -57.5q0 -125 -62.5 -185t-155.5 -60q-103 0 -144 74.5t-41 230.5q0 70 8.5 119t31.5 127h47q-9 -26 -18 -96t-9 -119 q0 -85 33 -137t100 -52q58 0 95.5 37.5t37.5 95.5q0 52 -23.5 117.5t-64.5 159.5l98 98q10 -75 23 -154h26q26 1 35.5 20.5t9.5 51.5l-1 29q-1 8 -1 22q0 50 28 50q24 0 32.5 -22t8.5 -75v-32q0 -14 -2 -44q43 1 70 17t27 64v178l83 59v-233q0 -36 -15 -83q15 -2 40 -2z M316 782l87 93l86 -93l-86 -94zM231 594l87 93l86 -93l-86 -94zM433 594l87 93l86 -93l-86 -94z" />
<glyph unicode="&#x634;" arabic-form="initial" d="M656 486v-270q0 -52 -23.5 -102t-66.5 -82t-100 -32q-42 0 -69.5 18t-34.5 42q-31 -41 -58 -52.5t-61 -11.5q-42 0 -67 5.5t-40.5 22.5t-22.5 52q-3 -5 -16 -30t-30 -35.5t-41 -10.5h-26v140h44q31 0 44 28.5t24 86.5q4 24 7 36q6 26 13.5 37t23.5 11q14 0 19 -9t5 -26 q0 -15 -2.5 -49.5t-3.5 -52.5l-3 -38q0 -24 60 -24q49 0 72.5 17.5t30 49t6.5 88.5v53q0 13 13.5 26t39.5 13q17 0 25 -16.5t12 -67.5q2 -21 2 -54q0 -67 -18 -103l-3 -6q52 0 81 3.5t46 17.5t17 43v195zM306 812l87 93l86 -93l-86 -94zM221 624l87 93l86 -93l-86 -94z M423 624l87 93l86 -93l-86 -94z" />
<glyph unicode="&#x634;" arabic-form="medial" d="M700 140v-140q-36 0 -60 18.5t-41 58.5q-28 -36 -63 -56.5t-74 -20.5q-34 0 -59.5 14.5t-36.5 35.5q-34 -33 -69 -43.5t-60 -10.5q-103 0 -114 80q-19 -36 -45 -56t-62 -20h-16v140h34q27 0 42 15t22.5 37.5t14.5 60.5l6 28q6 26 13.5 37t23.5 11q14 0 19 -9t5 -26 q0 -15 -2.5 -47t-3.5 -48q-3 -25 -3 -35q0 -24 67 -24q71 0 97.5 24t26.5 72q0 22 -8 84l-3 28q-2 18 11.5 28.5t39.5 10.5q20 0 26 -15.5t11 -63.5q0 -6 2 -22.5t2 -33.5q0 -53 -19 -106l-2 -6q66 2 108.5 17t47.5 45q1 5 1 23q0 38 -11 163q-1 15 13.5 26t33.5 11 q16 0 27 -8.5t13 -26.5q7 -61 7 -113q0 -37 -4 -61q-4 -27 -18 -68q16 -8 60 -8zM346 812l87 93l86 -93l-86 -94zM261 624l87 93l86 -93l-86 -94zM463 624l87 93l86 -93l-86 -94z" />
<glyph unicode="&#x635;" arabic-form="final" d="M700 140v-140h-163q-70 0 -95 2q2 -44 2 -79q0 -123 -48.5 -193.5t-174.5 -70.5q-122 0 -171.5 71.5t-49.5 218.5q0 108 40 241h47q-9 -26 -18 -96t-9 -118q0 -92 43 -131t119 -39q87 0 118.5 46.5t31.5 119.5q0 21 -16 65t-48 120l-29 71h82q15 59 46 120.5t74.5 102.5 t92.5 41q122 0 122 -244q0 -60 -8 -108h12zM542 144.5q35 4.5 53.5 23.5t18.5 62q0 48 -19 91t-51 43q-27 0 -57.5 -30.5t-51 -81t-20.5 -106.5l3 -6h17q72 0 107 4.5z" />
<glyph unicode="&#x635;" arabic-form="initial" d="M0 140h9q12 0 19.5 11.5t7.5 36.5v52q0 29 10 44.5t29 15.5t29 -15.5t9 -45.5l-1 -59q0 -26 3 -33t16 -7q12 0 25 8t19 19q40 71 100.5 145t127 124.5t123.5 50.5q46 0 83 -37t57 -95.5t20 -120.5q0 -127 -73 -180.5t-220 -53.5h-217q-18 0 -48 22.5t-37 36.5 q-5 -13 -22.5 -26.5t-38 -23t-30.5 -9.5v140zM453 140q80 0 115.5 18.5t35.5 68.5q0 26 -16.5 53.5t-43 45.5t-53.5 18q-59 0 -122.5 -52t-150.5 -152h235z" />
<glyph unicode="&#x635;" arabic-form="medial" d="M0 140h19q12 0 19.5 11.5t7.5 36.5v112h78l-2 -120q0 -18 2 -24t7 -6q11 0 17 4t11 13q89 157 181 241t169 84q73 0 112.5 -72t39.5 -185q0 -58 -11 -96l50 1v-140h-524q-18 0 -48 22.5t-37 36.5q-5 -13 -22.5 -26.5t-38 -23t-30.5 -9.5v140zM414 140q79 0 126.5 15.5 t47.5 67.5q0 34 -16 64t-43 48.5t-58 18.5q-55 0 -122.5 -57t-146.5 -157h212z" />
<glyph unicode="&#x636;" arabic-form="final" d="M700 140v-140h-163q-70 0 -95 2q2 -44 2 -79q0 -123 -48.5 -193.5t-174.5 -70.5q-122 0 -171.5 71.5t-49.5 218.5q0 108 40 241h47q-9 -26 -18 -96t-9 -118q0 -92 43 -131t119 -39q87 0 118.5 46.5t31.5 119.5q0 21 -16 65t-48 120l-29 71h82q15 59 46 120.5t74.5 102.5 t92.5 41q122 0 122 -244q0 -60 -8 -108h12zM542 144.5q35 4.5 53.5 23.5t18.5 62q0 48 -19 91t-51 43q-27 0 -57.5 -30.5t-51 -81t-20.5 -106.5l3 -6h17q72 0 107 4.5zM376 660l87 93l86 -93l-86 -94z" />
<glyph unicode="&#x636;" arabic-form="initial" d="M0 140h9q12 0 19.5 11.5t7.5 36.5v52q0 29 10 44.5t29 15.5t29 -15.5t9 -45.5l-1 -59q0 -26 3 -33t16 -7q12 0 25 8t19 19q40 71 100.5 145t127 124.5t123.5 50.5q46 0 83 -37t57 -95.5t20 -120.5q0 -127 -73 -180.5t-220 -53.5h-217q-18 0 -48 22.5t-37 36.5 q-5 -13 -22.5 -26.5t-38 -23t-30.5 -9.5v140zM453 140q80 0 115.5 18.5t35.5 68.5q0 26 -16.5 53.5t-43 45.5t-53.5 18q-59 0 -122.5 -52t-150.5 -152h235zM263 660l87 93l86 -93l-86 -94z" />
<glyph unicode="&#x636;" arabic-form="medial" d="M0 140h19q12 0 19.5 11.5t7.5 36.5v112h78l-2 -120q0 -18 2 -24t7 -6q11 0 17 4t11 13q89 157 181 241t169 84q73 0 112.5 -72t39.5 -185q0 -58 -11 -96l50 1v-140h-524q-18 0 -48 22.5t-37 36.5q-5 -13 -22.5 -26.5t-38 -23t-30.5 -9.5v140zM414 140q79 0 126.5 15.5 t47.5 67.5q0 34 -16 64t-43 48.5t-58 18.5q-55 0 -122.5 -57t-146.5 -157h212zM263 680l87 93l86 -93l-86 -94z" />
<glyph unicode="&#x637;" arabic-form="final" d="M700 140v-140h-349h-351q0 77 18.5 108t41.5 32q32 2 38 2q20 26 27 59.5t5 87.5v23q-5 174 -14 306.5t-33 171.5l110 100l57 -141q-55 -59 -55 -370q0 -54 2 -120q75 107 153 167.5t138 60.5q48 0 85 -36.5t57 -95.5t20 -125q0 -52 -13 -90h63zM530.5 158 q37.5 18 37.5 63q0 31 -16.5 59.5t-44 46t-57.5 17.5q-53 0 -119 -54t-149 -150h235q76 0 113.5 18z" />
<glyph unicode="&#x637;" arabic-form="initial" d="M609 450q37 -37 57 -95.5t20 -120.5q0 -127 -73 -180.5t-220 -53.5h-393v140h52q49 0 79 6q18 25 24.5 58t4.5 85v23q-5 174 -14 306.5t-33 171.5l110 100l57 -141q-55 -59 -55 -371q0 -59 2 -125q67 96 149 165t150 69q46 0 83 -37zM568.5 158.5q35.5 18.5 35.5 68.5 q0 26 -16.5 53.5t-43 45.5t-53.5 18q-59 0 -122.5 -52t-150.5 -152h235q80 0 115.5 18.5z" />
<glyph unicode="&#x637;" arabic-form="medial" d="M700 140v-140h-349h-351v140h16q54 0 86 8q17 25 23.5 57.5t4.5 83.5v23q-5 174 -14 306.5t-33 171.5l110 100l57 -141q-55 -59 -55 -370q0 -57 2 -125q71 103 142.5 168t142.5 65q53 0 91 -37t57.5 -96.5t19.5 -123.5q0 -52 -13 -90h63zM530.5 158q37.5 18 37.5 63 q0 31 -16.5 59.5t-44 46t-57.5 17.5q-53 0 -119 -54t-149 -150h235q76 0 113.5 18z" />
<glyph unicode="&#x638;" arabic-form="final" d="M700 140v-140h-349h-351q0 77 18.5 108t41.5 32q32 2 38 2q20 26 27 59.5t5 87.5v23q-5 174 -14 306.5t-33 171.5l110 100l57 -141q-55 -59 -55 -370q0 -54 2 -120q75 107 153 167.5t138 60.5q48 0 85 -36.5t57 -95.5t20 -125q0 -52 -13 -90h63zM530.5 158 q37.5 18 37.5 63q0 31 -16.5 59.5t-44 46t-57.5 17.5q-53 0 -119 -54t-149 -150h235q76 0 113.5 18zM363 660l87 93l86 -93l-86 -94z" />
<glyph unicode="&#x638;" arabic-form="initial" d="M609 450q37 -37 57 -95.5t20 -120.5q0 -127 -73 -180.5t-220 -53.5h-393v140h52q49 0 79 6q18 25 24.5 58t4.5 85v23q-5 174 -14 306.5t-33 171.5l110 100l57 -141q-55 -59 -55 -371q0 -59 2 -125q67 96 149 165t150 69q46 0 83 -37zM568.5 158.5q35.5 18.5 35.5 68.5 q0 26 -16.5 53.5t-43 45.5t-53.5 18q-59 0 -122.5 -52t-150.5 -152h235q80 0 115.5 18.5zM403 675l87 93l86 -93l-86 -94z" />
<glyph unicode="&#x638;" arabic-form="medial" d="M700 140v-140h-349h-351v140h16q54 0 86 8q17 25 23.5 57.5t4.5 83.5v23q-5 174 -14 306.5t-33 171.5l110 100l57 -141q-55 -59 -55 -370q0 -57 2 -125q71 103 142.5 168t142.5 65q53 0 91 -37t57.5 -96.5t19.5 -123.5q0 -52 -13 -90h63zM530.5 158q37.5 18 37.5 63 q0 31 -16.5 59.5t-44 46t-57.5 17.5q-53 0 -119 -54t-149 -150h235q76 0 113.5 18zM363 675l87 93l86 -93l-86 -94z" />
<glyph unicode="&#x639;" arabic-form="final" d="M364.5 105q-15.5 -8 -25.5 -13q-64 -32 -102.5 -58.5t-66 -72.5t-27.5 -115q0 -196 240 -196q81 0 151.5 20t117.5 48l15 -18q-68 -88 -151 -137t-195 -49q-115 0 -201.5 58.5t-86.5 205.5t81 243.5t173 144.5q9 4 34 16.5t36.5 25.5t11.5 31q0 29 -27 55t-57 26 q-40 0 -56 2.5t-23.5 13t-7.5 35.5q0 73 49 100.5t145 27.5q74 0 124 -11.5t76 -29.5l21 -70q4 -13 -7.5 -34.5t-33.5 -52.5q-64 -91 -111 -133q26 -28 63 -28h176v-140h-134q-59 0 -102.5 33t-63.5 91q-20 -11 -35.5 -19z" />
<glyph unicode="&#x639;" arabic-form="initial" d="M0 140h257q-35 27 -58.5 72t-23.5 95q0 61 36 127t91 109.5t110 43.5q50 0 92.5 -36.5t58.5 -93.5l-16 -59q-34 28 -65 38.5t-73 10.5q-64 0 -110 -20t-46 -64q0 -33 24.5 -81.5t70 -84.5t104.5 -36q28 0 79 8t97 19l-36 -136q-133 -34 -237.5 -43t-283.5 -9h-71v140z " />
<glyph unicode="&#x639;" arabic-form="medial" d="M700 140v-140h-42q-55 0 -79 4t-44 23q-72 69 -94 99q-79 -61 -167.5 -93.5t-168.5 -32.5h-105v140h127q244 0 244 84q0 24 -26 43.5t-55 19.5q-40 0 -56 2t-23.5 10.5t-7.5 28.5q0 63 10 92t50.5 42.5t133.5 13.5t134.5 -8.5t55 -25.5t23.5 -56q1 -6 8 -31 q4 -13 -7.5 -34.5t-33.5 -52.5q-38 -52 -84 -97q17 -12 60 -23q19 -6 36.5 -7t56.5 -1h54z" />
<glyph unicode="&#x63a;" arabic-form="final" d="M290 699l87 93l86 -93l-86 -94zM364.5 105q-15.5 -8 -25.5 -13q-64 -32 -102.5 -58.5t-66 -72.5t-27.5 -115q0 -196 240 -196q81 0 151.5 20t117.5 48l15 -18q-68 -88 -151 -137t-195 -49q-115 0 -201.5 58.5t-86.5 205.5t81 243.5t173 144.5q9 4 34 16.5t36.5 25.5 t11.5 31q0 29 -27 55t-57 26q-40 0 -56 2.5t-23.5 13t-7.5 35.5q0 73 49 100.5t145 27.5q74 0 124 -11.5t76 -29.5l21 -70q4 -13 -7.5 -34.5t-33.5 -52.5q-64 -91 -111 -133q26 -28 63 -28h176v-140h-134q-59 0 -102.5 33t-63.5 91q-20 -11 -35.5 -19z" />
<glyph unicode="&#x63a;" arabic-form="initial" d="M0 140h257q-35 27 -58.5 72t-23.5 95q0 61 36 127t91 109.5t110 43.5q50 0 92.5 -36.5t58.5 -93.5l-16 -59q-34 28 -65 38.5t-73 10.5q-64 0 -110 -20t-46 -64q0 -33 24.5 -81.5t70 -84.5t104.5 -36q28 0 79 8t97 19l-36 -136q-133 -34 -237.5 -43t-283.5 -9h-71v140z M276 776l87 93l86 -93l-86 -94z" />
<glyph unicode="&#x63a;" arabic-form="medial" d="M700 140v-140h-42q-55 0 -79 4t-44 23q-72 69 -94 99q-79 -61 -167.5 -93.5t-168.5 -32.5h-105v140h127q244 0 244 84q0 24 -26 43.5t-55 19.5q-40 0 -56 2t-23.5 10.5t-7.5 28.5q0 63 10 92t50.5 42.5t133.5 13.5t134.5 -8.5t55 -25.5t23.5 -56q1 -6 8 -31 q4 -13 -7.5 -34.5t-33.5 -52.5q-38 -52 -84 -97q17 -12 60 -23q19 -6 36.5 -7t56.5 -1h54zM310 701l87 93l86 -93l-86 -94z" />
<glyph unicode="&#x641;" arabic-form="final" d="M52 42.5q-52 42.5 -52 126.5q0 39 11.5 83t38.5 83l26 -10q-27 -77 -27 -110q0 -38 25.5 -56.5t98.5 -18.5h224q53 0 78.5 2.5t33.5 11.5q-21 18 -46 31t-30 16q-32 16 -50 28.5t-29.5 34t-11.5 54.5q0 46 20.5 103t53 96.5t67.5 39.5q33 0 75 -35.5t71 -98.5 q14 -31 24 -67t10 -68q0 -17 -3 -34.5t-4 -23.5q-8 -34 -9 -57q10 -10 27 -21.5t26 -11.5v-140q-18 0 -45.5 20t-51.5 44.5t-31 34.5q-30 -48 -79.5 -73.5t-127.5 -25.5h-152q-109 0 -161 42.5zM558.5 320.5q-12.5 57.5 -35 94t-49.5 36.5q-16 0 -31 -13.5t-23.5 -33 t-8.5 -34.5q0 -31 32 -63t95 -79l34 -26q-1 61 -13.5 118.5zM394 749l87 93l86 -93l-86 -94z" />
<glyph unicode="&#x641;" arabic-form="initial" d="M0 140h369q79 0 139.5 14t59.5 55l-1 33q-125 -10 -165 -10q-71 0 -97.5 23.5t-26.5 80.5q0 63 23 145t62.5 140.5t87.5 58.5q47 0 93 -60t75 -157.5t29 -204.5q0 -64 -15.5 -111.5t-59.5 -84.5q-39 -33 -97.5 -47.5t-158.5 -14.5h-317v140zM544 374q-4 38 -30.5 84 t-58 79.5t-45.5 33.5q-27 0 -40 -51t-13 -97q0 -22 6 -32.5t24.5 -15t58.5 -4.5q37 0 98 3zM355 865l87 93l86 -93l-86 -94z" />
<glyph unicode="&#x641;" arabic-form="medial" d="M0 140h192q81 0 110 1.5t56 7.5q-31 11 -58.5 27.5t-58.5 42.5q-27 23 -42.5 45.5t-15.5 57.5q0 40 20 100.5t54.5 105.5t76.5 45q23 0 53.5 -14t62.5 -47t56 -86q15 -32 26 -73t11 -77q0 -30 -8 -53.5t-23 -49.5q2 -4 19.5 -11.5t41.5 -13.5q20 -5 36.5 -6.5t56.5 -1.5 h34v-140h-55q-34 0 -85.5 26.5t-100.5 71.5q-26 -44 -82 -71t-147 -27h-230v140zM433 288q0 49 -20 91.5t-48 68t-48 25.5q-23 0 -40.5 -31.5t-17.5 -66.5q0 -33 16 -50q39 -40 72 -66.5t71 -51.5q15 40 15 81zM243 756l87 93l86 -93l-86 -94z" />
<glyph unicode="&#x642;" arabic-form="final" d="M151 -308.5q-72 41.5 -111.5 117t-39.5 174.5q0 44 17.5 92t46.5 81l25 -30q-11 -19 -18 -45t-7 -49q0 -72 27.5 -127t77.5 -85t116 -30q84 0 148.5 26t100 74t35.5 110q-107 6 -165 26.5t-81 56.5t-23 97q0 58 24.5 128.5t64 119t80.5 48.5q44 0 88 -59.5t74.5 -140.5 t36.5 -136h32v-140h-33q0 -104 -43.5 -183.5t-123 -123t-183.5 -43.5q-94 0 -166 41.5zM541 237.5q-21 59.5 -48.5 100t-49.5 33.5q-38 -13 -51 -58.5t-13 -97.5q0 -22 14 -33.5t40 -18t83 -15.5l50 -8q-4 38 -25 97.5zM485 662l85 93l87 -91l-84 -94zM261 659l84 93l87 -90 l-83 -95z" />
<glyph unicode="&#x642;" arabic-form="initial" d="M0 140h369q79 0 139.5 14t59.5 55l-1 33q-125 -10 -165 -10q-71 0 -97.5 23.5t-26.5 80.5q0 63 23 145t62.5 140.5t87.5 58.5q47 0 93 -60t75 -157.5t29 -204.5q0 -64 -15.5 -111.5t-59.5 -84.5q-39 -33 -97.5 -47.5t-158.5 -14.5h-317v140zM544 374q-4 38 -30.5 84 t-58 79.5t-45.5 33.5q-27 0 -40 -51t-13 -97q0 -22 6 -32.5t24.5 -15t58.5 -4.5q37 0 98 3zM439 856l85 93l87 -91l-84 -94zM215 853l84 93l87 -90l-83 -95z" />
<glyph unicode="&#x642;" arabic-form="medial" d="M0 140h192q81 0 110 1.5t56 7.5q-31 11 -58.5 27.5t-58.5 42.5q-27 23 -42.5 45.5t-15.5 57.5q0 40 20 100.5t54.5 105.5t76.5 45q23 0 53.5 -14t62.5 -47t56 -86q15 -32 26 -73t11 -77q0 -30 -8 -53.5t-23 -49.5q2 -4 19.5 -11.5t41.5 -13.5q20 -5 36.5 -6.5t56.5 -1.5 h34v-140h-55q-34 0 -85.5 26.5t-100.5 71.5q-26 -44 -82 -71t-147 -27h-230v140zM433 288q0 49 -20 91.5t-48 68t-48 25.5q-23 0 -40.5 -31.5t-17.5 -66.5q0 -33 16 -50q39 -40 72 -66.5t71 -51.5q15 40 15 81zM373 758l85 93l87 -91l-84 -94zM149 755l84 93l87 -90l-83 -95 z" />
<glyph unicode="&#x643;" arabic-form="final" d="M86.5 17.5q-46.5 17.5 -66.5 54.5t-20 98q0 59 14 101.5t39 91.5l15 30l18 -14q-10 -26 -19.5 -74.5t-9.5 -75.5q0 -40 27.5 -64.5t88.5 -24.5h245q58 0 89.5 11t48 43.5t19.5 98.5q1 13 1 41q0 153 -34 453l123 103h8q0 -20 -4 -196q-7 -292 -7 -368q0 -53 1 -68 q3 -41 13 -79.5t24 -38.5v-140q-38 0 -62.5 60.5t-24.5 187.5q-7 -112 -37.5 -166t-72 -68t-105.5 -14h-185q-80 0 -126.5 17.5zM197 359l26 12q52 23 79 38t27 27q0 9 -13.5 16t-43.5 17q-20 6 -29 10q-8 3 -11.5 8.5t-3.5 19.5q0 35 19.5 69t49 55.5t58.5 21.5q20 0 36 -8 l-38 -59q-22 2 -42.5 -9t-20.5 -22q0 -7 10 -13t31 -15q34 -14 53.5 -28.5t19.5 -37.5q0 -45 -64.5 -79t-147.5 -65z" />
<glyph unicode="&#x643;" arabic-form="initial" d="M642 764l-383 -228q80 -24 157 -70.5t129 -99.5t61 -97q2 -7 2 -24q0 -48 -27.5 -106t-80 -98.5t-125.5 -40.5h-375v140h150l144 -1q79 0 133.5 5.5t82.5 20.5q12 14 12 29q0 41 -67 93t-147.5 92.5t-95.5 37.5q-15 0 -23 9t-8 33q0 41 20 113q39 62 123 127t176 116.5 t155 74.5z" />
<glyph unicode="&#x643;" arabic-form="medial" d="M700 140v-140h-38q-39 0 -80.5 42t-73.5 113q-27 -65 -82 -110t-131 -45h-295v140h70l144 -1q79 0 133.5 5.5t82.5 20.5q12 14 12 29q0 41 -67 93t-147.5 92.5t-95.5 37.5q-15 0 -23 9t-8 33q0 41 20 113q39 62 123 127t176 116.5t155 74.5l-13 -126l-383 -228 q71 -22 141 -62t122 -86.5t73 -89.5q7 -12 14.5 -28t11.5 -24q11 -26 20 -42t22 -28q18 -16 40.5 -26t42.5 -10h34z" />
<glyph unicode="&#x644;" arabic-form="final" d="M114.5 -317.5q-54.5 32.5 -84.5 91t-30 135.5q0 88 24.5 163t65.5 110l15 -22q-19 -29 -30 -90t-11 -132q0 -67 49.5 -107.5t130.5 -40.5q54 0 96.5 27t66.5 76.5t24 113.5q0 76 -14.5 380t-23.5 384l131 119q3 -67 4.5 -182t2.5 -157q2 -185 4.5 -278.5t8.5 -100.5 q20 -23 46.5 -27.5t71.5 -4.5h38v-140h-38q-32 0 -61 12.5t-58 48.5q0 -122 -38 -215.5t-106.5 -144.5t-158.5 -51q-71 0 -125.5 32.5z" />
<glyph unicode="&#x644;" arabic-form="initial" d="M0 140h292q54 0 72 28.5t18 81.5q0 71 -18 234.5t-39 290.5l131 115l90 -156l-65 -68q0 -44 1 -72q2 -90 2 -197v-202q0 -71 -20 -113.5t-66 -62t-125 -19.5h-273v140z" />
<glyph unicode="&#x644;" arabic-form="medial" d="M0 140h105q110 0 159.5 14.5t63 44t13.5 90.5q0 82 -9 220.5t-23 261.5l129 119h10l1 -597q0 -60 20.5 -92.5t74 -46.5t156.5 -14v-140q-99 0 -160 17.5t-99 71t-49 159.5q-19 -102 -43 -154.5t-61.5 -73t-102.5 -20.5h-185v140z" />
<glyph unicode="&#x645;" arabic-form="final" d="M89 -489q0 92 -22 460q-1 12 -1 32q0 35 9 55.5t30 37.5t66 43q9 3 24.5 27.5t33.5 56.5t26 45q43 78 71.5 123t46.5 54q8 4 28 6.5t41 2.5q42 0 60 -9q17 -9 30.5 -40.5t32.5 -89.5q18 -57 32 -91.5t34 -59t47 -24.5h22v-140h-30q-18 0 -37 9t-49 36q-38 34 -54 61 q1 -4 1 -14q0 -28 -14 -63t-34 -53q-143 26 -267 87q-22 -24 -34 -40.5t-25 -41.5l45 -377l-105 -95zM464 237q-42 101 -59 136q-42 -50 -78 -111.5t-44 -86.5q63 -26 115 -39t119 -17q-16 29 -53 118z" />
<glyph unicode="&#x645;" arabic-form="initial" d="M236 63q-12 -30 -28.5 -43.5t-34 -16.5t-46.5 -3h-127v140h161q23 0 56.5 45.5t82.5 128.5q34 57 56.5 90.5t36.5 40.5q8 4 28 6.5t41 2.5q42 0 60 -9q22 -12 42.5 -54.5t48.5 -118.5l22 -56q3 -16 -22.5 -67.5t-59.5 -104.5t-50 -68q-143 26 -267 87zM515.5 164.5 q-12.5 30.5 -17.5 42.5q-43 110 -73 166q-42 -50 -78 -111.5t-44 -86.5q63 -26 115 -39t119 -17q-9 15 -21.5 45.5z" />
<glyph unicode="&#x645;" arabic-form="medial" d="M166 63q-12 -30 -28.5 -43.5t-34 -16.5t-46.5 -3h-57v140h91q23 0 56.5 45.5t82.5 128.5q34 57 56.5 90.5t36.5 40.5q8 4 28 6.5t41 2.5q42 0 60 -9q15 -8 27.5 -33t30.5 -75q23 -61 42.5 -100.5t50.5 -68t75 -28.5h22v-140h-40q-46 0 -70 8.5t-56 36.5q-38 34 -54 61 q1 -4 1 -14q0 -28 -14 -63t-34 -53q-143 26 -267 87zM422 218q-43 106 -67 155q-42 -50 -78 -111.5t-44 -86.5q63 -26 115 -39t119 -17q-13 23 -45 99z" />
<glyph unicode="&#x646;" arabic-form="final" d="M57 -256q-57 81 -57 198q0 24 4 66q8 76 20 118.5t37 79.5l34 -22q-9 -21 -15 -57t-6 -83q0 -118 41 -175.5t137 -73.5q20 -3 40 -3q66 0 126 32t96.5 87t36.5 120q0 23 -4 42q-10 49 -45 121.5t-57 108.5l101 101q12 -24 31 -81q29 -86 53.5 -134.5t53.5 -48.5h16v-140 h-16q-13 0 -20.5 2t-18.5 12t-29 32q0 -140 -48.5 -229t-123 -129t-158.5 -40q-11 0 -33 2q-139 13 -196 94zM143 455l87 93l86 -93l-86 -94z" />
<glyph unicode="&#x646;" arabic-form="initial" d="M0 140h486q31 0 51.5 13t20.5 40q0 21 -19 100.5t-33 115.5l101 101q19 -49 43.5 -144t24.5 -144q0 -50 -28 -102t-77.5 -86t-112.5 -34h-457v140zM229 630l87 93l86 -93l-86 -94z" />
<glyph unicode="&#x646;" arabic-form="medial" d="M700 0q-75 0 -122 14t-76.5 49t-49.5 101q-20 -61 -45.5 -96t-65.5 -51.5t-102 -16.5h-239v140h230q68 0 102.5 6.5t53.5 32t19 80.5q0 39 -10 106l129 83q-1 -24 -1 -134q0 -105 1 -121q2 -24 22 -35.5t54.5 -14.5t99.5 -3v-140zM170 630l87 93l86 -93l-86 -94z" />
<glyph unicode="&#x647;" arabic-form="final" d="M454.5 49q-46.5 49 -61.5 127l-41 -58q-32 -21 -94 -21q-39 0 -79 8t-67 21q-25 12 -34 26.5t-9 39.5q0 87 98 193q50 54 103.5 91t91.5 58l-20 76l97 38l2 -46q6 -165 8.5 -212t10.5 -114q7 -65 27.5 -100.5t72.5 -35.5h140v-140h-119q-80 0 -126.5 49zM312.5 240.5 q28.5 3.5 67.5 12.5q1 15 1 41q0 50 -10 140q-24 -12 -76 -49.5t-92 -83.5q-24 -28 -24 -42q0 -12 17.5 -17t53.5 -5q34 0 62.5 3.5z" />
<glyph unicode="&#x647;" arabic-form="initial" d="M582.5 600q44.5 -78 71 -179.5t26.5 -155.5q0 -62 -40 -123.5t-100.5 -101.5t-117.5 -40h-422v140h97q0 81 35 133.5t83.5 76.5t90.5 26q35 127 78.5 214.5t100.5 87.5q53 0 97.5 -78zM574 218q0 39 -18 119.5t-46.5 143t-60.5 62.5q-20 0 -38 -26.5t-45 -81.5 q-26 -51 -31 -61q44 -9 71.5 -47t27.5 -91q0 -30 -11 -51t-39 -46q11 -3 34 -5t41 -2q115 0 115 86zM333.5 155.5q24.5 14.5 24.5 40.5q0 21 -15 50.5t-38 51t-44 21.5q-18 0 -36.5 -16t-31 -41t-12.5 -51q0 -34 23.5 -52t65.5 -18q39 0 63.5 14.5z" />
<glyph unicode="&#x647;" arabic-form="medial" d="M306 -364q-39 23 -77 70q-30 38 -52 104t-22 190h-155v140h187q23 54 30 72q29 69 46 100.5t49 69.5q86 101 155 101q37 0 53.5 -29t16.5 -88q0 -79 -29 -131.5t-95 -96.5l287 2v-140h-259q77 -92 77 -183q0 -51 -23 -98.5t-57 -76.5t-65 -29q-28 0 -67 23zM340 145 q33 7 64.5 34t51 62.5t19.5 64.5q0 23 -12.5 38t-35.5 15q-17 0 -38.5 -8t-39.5 -27q-20 -20 -45 -67t-51 -117q62 0 87 5zM441 -245q14 13 14 34q0 51 -84 143q-38 41 -59 54.5t-41 13.5q-57 0 -57 -82q0 -28 8.5 -49t33 -43t71.5 -49q23 -13 47.5 -24t37.5 -11q15 0 29 13 z" />
<glyph unicode="&#x648;" arabic-form="final" d="M165 -349q-28 7 -82 32v51h61q88 0 183 67q66 46 104.5 101t38.5 98q-18 -2 -56 -2q-108 0 -165.5 34.5t-57.5 110.5q0 82 26 159.5t67 125.5t82 48q72 0 150 -158q28 -57 38 -95t15 -83h131v-140h-131q2 -79 -38 -161.5t-120 -138.5t-192 -56q-26 0 -54 7zM435 234 q-24 45 -52.5 75t-47.5 37q-6 2 -10 2q-24 0 -38 -36.5t-14 -87.5q0 -41 14 -58t51 -21.5t127 -4.5q-6 49 -30 94z" />
<glyph unicode="&#x649;" arabic-form="final" d="M59 -284q-59 66 -59 203q0 86 27.5 158t102.5 154l15 -22q-46 -76 -63.5 -130.5t-17.5 -111.5q0 -67 20 -104t61.5 -52t113.5 -15q98 0 192 20t94 64q0 21 -21 45.5t-41 42.5t-25 23q-11 11 -27 25q-33 30 -71 62l38 98q143 -36 302 -36v-140q-49 -1 -79.5 2.5 t-60.5 17.5q79 -78 79 -179q0 -61 -29 -92t-89 -51q-52 -17 -127.5 -32.5t-145.5 -15.5q-130 0 -189 66z" />
<glyph unicode="&#x64a;" arabic-form="final" d="M59 -284q-59 66 -59 203q0 86 27.5 158t102.5 154l15 -22q-46 -76 -63.5 -130.5t-17.5 -111.5q0 -67 20 -104t61.5 -52t113.5 -15q98 0 192 20t94 64q0 21 -21 45.5t-41 42.5t-25 23q-11 11 -27 25q-33 30 -71 62l38 98q143 -36 302 -36v-140q-49 -1 -79.5 2.5 t-60.5 17.5q79 -78 79 -179q0 -61 -29 -92t-89 -51q-52 -17 -127.5 -32.5t-145.5 -15.5q-130 0 -189 66zM415 -540l85 93l87 -91l-84 -94zM191 -543l84 93l87 -90l-83 -95z" />
<glyph unicode="&#x64a;" arabic-form="initial" d="M0 140h486q31 0 51.5 13t20.5 40q0 21 -19 100.5t-33 115.5l101 101q19 -49 43.5 -144t24.5 -144q0 -50 -28 -102t-77.5 -86t-112.5 -34h-457v140zM361 -255l85 93l87 -91l-84 -94zM137 -258l84 93l87 -90l-83 -95z" />
<glyph unicode="&#x64a;" arabic-form="medial" d="M700 0q-75 0 -122 14t-76.5 49t-49.5 101q-20 -61 -45.5 -96t-65.5 -51.5t-102 -16.5h-239v140h230q68 0 102.5 6.5t53.5 32t19 80.5q0 39 -10 106l129 83q-1 -24 -1 -134q0 -105 1 -121q2 -24 22 -35.5t54.5 -14.5t99.5 -3v-140zM361 -255l85 93l87 -91l-84 -94z M137 -258l84 93l87 -90l-83 -95z" />
<glyph unicode=" " />
<glyph unicode="!" d="M322 206h57l20 206v404h-97v-404zM300 4.5q18 -18.5 49 -18.5t49.5 18.5t18.5 49.5t-18 49t-50 18q-31 0 -49 -18t-18 -49t18 -49.5z" />
<glyph unicode="&#x22;" d="M244 463l36 353h-103v-353h67zM485 463l36 353h-102v-353h66z" />
<glyph unicode="#" d="M434 68l45 194h107l19 75h-108l36 153h112l18 74h-113l45 185h-81l-44 -185h-169l44 185h-80l-45 -185h-110l-17 -74h110l-36 -153h-116l-16 -75h114l-45 -194h80l46 194h169l-46 -194h81zM452 490l-36 -153h-169l36 153h169z" />
<glyph unicode="$" d="M386 -117v108q98 16 149 74.5t51 150.5q0 90 -62 152q-27 26 -60.5 47t-77.5 43v288q80 -4 138 -31l28 81q-33 15 -71.5 23.5t-94.5 10.5v103h-79v-106q-94 -13 -142 -66t-48 -138q0 -94 59 -153q24 -25 55.5 -44t75.5 -41v-315q-103 4 -162 38l-32 -85q31 -17 81 -26.5 t113 -10.5v-103h79zM240 706.5q27 32.5 85 38.5v-255q-55 29 -83.5 60.5t-28.5 77.5t27 78.5zM457 116q-33 -34 -90 -44v284q31 -16 51 -29.5t36 -29.5q36 -38 36 -89q0 -58 -33 -92z" />
<glyph unicode="%" d="M176 -16l406 819l-67 34l-405 -823zM80 477q20 -21 46.5 -31.5t55.5 -10.5q62 0 101 42q48 51 48 155q0 106 -48 157q-37 41 -101 41q-29 0 -55.5 -11t-46.5 -33q-47 -54 -47 -154q0 -105 47 -155zM135 730q21 27 47 27q29 0 47 -26q21 -35 21 -99q0 -66 -21 -99 q-17 -25 -47 -25q-24 0 -46 28q-22 26 -22 96t21 98zM415 42q39 -42 102 -42q62 0 101 42q48 51 48 155q0 106 -48 157q-37 41 -101 41q-62 0 -102 -44q-48 -55 -48 -154q0 -104 48 -155zM470 296q18 26 47 26q28 0 46 -26q21 -32 21 -99q0 -73 -21 -100q-16 -24 -46 -24 q-24 0 -46 28q-22 26 -22 96t21 99z" />
<glyph unicode="&#x26;" d="M115 49q35 -31 80.5 -47t94.5 -16q80 0 141 34q25 13 44.5 30t46.5 44q78 -76 141 -108v99q-52 34 -87 77q37 48 57.5 119.5t24.5 149.5h-83q0 -53 -12 -112q-16 -67 -39 -101q-53 53 -116 133q-68 86 -97 140q79 47 118.5 98.5t39.5 101.5q0 57 -38 95q-42 44 -133 44 q-85 0 -129 -46q-20 -20 -30 -47t-10 -56q0 -44 17.5 -84t51.5 -91q-77 -48 -120 -118t-43 -147q0 -121 80 -192zM240.5 736.5q20.5 20.5 61.5 20.5q80 0 80 -84q0 -23 -23 -57q-21 -30 -86 -73q-53 76 -53 138q0 35 20.5 55.5zM396 91q-39 -23 -92 -23q-30 0 -60.5 11 t-55.5 32q-60 51 -60 134q0 58 26 106.5t87 95.5q39 -62 98 -142q80 -104 129 -152q-33 -39 -72 -62z" />
<glyph unicode="'" d="M371 463l36 353h-103v-353h67z" />
<glyph unicode="(" d="M418.5 -124q-54.5 31 -96.5 82q-100 115 -100 325q0 213 87 323q39 50 95 82.5t129 54.5l-29 73q-166 -36 -264 -158q-112 -141 -112 -375q0 -232 111 -369q95 -117 265 -161l29 80q-60 12 -114.5 43z" />
<glyph unicode=")" d="M462 -86q109 137 109 369q0 234 -112 375q-49 62 -116.5 101.5t-146.5 56.5l-29 -73q73 -22 129 -54.5t96 -82.5q86 -111 86 -323q0 -208 -99 -325q-44 -51 -98.5 -82t-113.5 -43l29 -80q172 45 266 161z" />
<glyph unicode="*" d="M302 591l-231 20v-94l231 18l-141 -188l84 -45l102 209l109 -209l78 45l-135 188l229 -18v94l-236 -18l141 198l-81 43l-100 -206l-104 205l-80 -46z" />
<glyph unicode="+" d="M308 352v-258h84v258h252v84h-252v258h-84v-258h-252v-84h252z" />
<glyph unicode="," d="M286 7.5q19 -19.5 53 -19.5q4 0 26 4q0 -40 -29 -71t-74 -49l29 -46q61 20 98 61q53 53 53 137q0 56 -24.5 87t-68.5 31q-36 0 -59 -21.5t-23 -56.5q0 -37 19 -56.5z" />
<glyph unicode="-" d="M549 293v86h-399v-86h399z" />
<glyph unicode="." d="M276 90l106 114l105 -114l-105 -110z" />
<glyph unicode="/" d="M174 -163l425 961l-73 32l-426 -961z" />
<glyph unicode="0" d="M129 104q72 -118 220 -118q143 0 215 112q70 107 70 310q0 213 -64 313q-69 109 -220 109q-145 0 -216 -111q-70 -107 -70 -311q0 -199 65 -304zM204.5 668.5q43.5 83.5 145.5 83.5q63 0 103 -36t61 -102l-347 -314q-6 50 -6 108q0 177 43.5 260.5zM494.5 147.5 q-44.5 -83.5 -145.5 -83.5q-120 0 -164 146l347 316q7 -65 7 -118q0 -177 -44.5 -260.5z" />
<glyph unicode="1" d="M600 0v84h-179v732h-65l-257 -183l46 -66l186 130v-613h-183v-84h452z" />
<glyph unicode="2" d="M526 771.5q-57 58.5 -165 58.5q-70 0 -129 -17.5t-111 -54.5l40 -64q37 28 80 41.5t104 13.5q72 0 109.5 -40t37.5 -111q0 -45 -23 -97q-46 -95 -144 -198q-68 -71 -173 -164q-22 -19 -61 -55v-84h518v84h-411q189 160 287 290.5t98 235.5q0 103 -57 161.5z" />
<glyph unicode="3" d="M126 98l-23 -82q83 -30 183 -30q64 0 120.5 17.5t98.5 50.5q43 34 67 83t24 110q0 97 -69 158q-33 28 -77.5 43t-97.5 15h-19l230 269v84h-460v-84h348l-229 -290v-56h74q209 0 209 -149q0 -38 -16 -70t-46 -54q-29 -22 -68.5 -34.5t-85.5 -12.5q-94 0 -163 32z" />
<glyph unicode="4" d="M519 331v485h-77l-391 -494v-68h377v-254h91v254h157v77h-157zM159 331l269 339v-339h-269z" />
<glyph unicode="5" d="M205.5 81q-38.5 13 -71.5 31l-37 -76q8 -7 27.5 -16t44.5 -15q59 -19 124 -19q133 0 212 70q40 35 62.5 85.5t22.5 113.5q0 115 -74 179t-205 64l-58 -2v236h313v84h-400v-402l109 6q106 0 165 -44.5t59 -127.5q0 -88 -55 -135q-52 -45 -146 -45q-54 0 -92.5 13z" />
<glyph unicode="6" d="M610.5 343q-17.5 44 -51.5 76q-75 64 -195 64q-65 0 -123 -28q-23 -12 -42 -28.5t-29 -32.5q8 63 37 124t74 110q47 52 108.5 85.5t132.5 42.5l-16 74q-94 -10 -173.5 -55.5t-138.5 -121.5q-58 -75 -90.5 -173.5t-32.5 -206.5q0 -66 20 -119.5t58 -90.5q79 -77 203 -77 q65 0 117 21.5t88 58.5q35 35 53 82.5t18 97.5q0 53 -17.5 97zM520 170.5q-13 -31.5 -36 -55.5q-54 -51 -130 -51q-47 0 -83 17t-61 46q-24 27 -36 62.5t-12 71.5v22l2 26q22 39 68 66q53 30 115 30q93 0 139.5 -43t46.5 -125q0 -35 -13 -66.5z" />
<glyph unicode="7" d="M596 740v76h-516v-84h421l-356 -732h95z" />
<glyph unicode="8" d="M104 117.5q17 -38.5 49 -67.5q33 -30 81 -47t108 -17q128 0 201 65q34 30 51.5 72.5t17.5 92.5q0 73 -45 126q-39 43 -115 81q72 45 106 100t34 123q0 38 -16 72.5t-47 59.5q-32 25 -76 38.5t-96 13.5q-56 0 -103 -15t-80 -43q-32 -27 -50 -64.5t-18 -80.5q0 -74 44 -123 q18 -22 44.5 -39.5t64.5 -38.5q-172 -88 -172 -228q0 -42 17 -80.5zM208 674.5q11 21.5 31 39.5q45 38 115 38q61 0 104 -34q45 -37 45 -91q0 -48 -30 -88.5t-94 -82.5q-46 21 -75 36.5t-51 34.5q-56 44 -56 104q0 22 11 43.5zM506.5 147.5q-13.5 -27.5 -37.5 -46.5 q-51 -37 -120 -37q-82 0 -127 43q-45 41 -45 102q0 47 38 95t117 87l20 -10q39 -19 65 -33.5t46 -30.5q57 -46 57 -107q0 -35 -13.5 -62.5z" />
<glyph unicode="9" d="M91.5 473q20.5 -44 57.5 -75q35 -31 83 -48t101 -17q69 0 116 16q43 14 80 54q-11 -68 -38.5 -127.5t-71.5 -104.5q-96 -96 -243 -112l18 -73q94 8 173.5 47t137.5 107q123 145 123 398q0 66 -18.5 120.5t-53.5 92.5q-76 79 -204 79q-134 0 -210 -76q-35 -35 -53 -82.5 t-18 -101.5q0 -53 20.5 -97zM213.5 707.5q46.5 45.5 130.5 45.5q96 0 148 -70q23 -30 34.5 -69.5t11.5 -81.5v-22q0 -7 -1 -14t-2 -13q-21 -32 -69.5 -51.5t-113.5 -19.5q-86 0 -135.5 43t-49.5 125t46.5 127.5z" />
<glyph unicode=":" d="M293 466q21 -22 56 -22q37 0 58 21.5t21 56.5q0 38 -20.5 58t-58.5 20q-36 0 -56.5 -20t-20.5 -58q0 -34 21 -56zM293 8q21 -22 56 -22q37 0 58 21.5t21 56.5q0 37 -20.5 57.5t-58.5 20.5q-36 0 -56.5 -20.5t-20.5 -57.5q0 -34 21 -56z" />
<glyph unicode=";" d="M299 466q21 -22 55 -22q37 0 58.5 21.5t21.5 56.5q0 38 -21 58t-59 20q-35 0 -55.5 -20t-20.5 -58q0 -34 21 -56zM286 7.5q19 -19.5 53 -19.5q4 0 26 4q0 -40 -29 -71t-74 -49l29 -46q61 20 98 61q53 53 53 137q0 56 -24.5 87t-68.5 31q-36 0 -59 -21.5t-23 -56.5 q0 -37 19 -56.5z" />
<glyph unicode="&#x3c;" d="M647 108l-464 270l463 274l-44 72l-550 -335v-33l551 -318z" />
<glyph unicode="=" d="M620 449v84h-541v-84h541zM620 257v83h-541v-83h541z" />
<glyph unicode="&#x3e;" d="M647 389l-549 335l-44 -72l463 -274l-465 -270l45 -70l550 318v33z" />
<glyph unicode="?" d="M367 289q18 32 45.5 58.5t65.5 54.5q25 17 62 54q32 34 49.5 71.5t17.5 89.5q0 38 -14.5 75.5t-43.5 67.5q-31 32 -77.5 51t-104.5 19q-101 0 -178.5 -31t-125.5 -92l59 -54q4 3 28 24.5t55 38.5q57 33 125 33q90 0 139 -51q20 -21 31 -46.5t11 -48.5q0 -43 -18 -72 q-30 -50 -102 -103q-29 -21 -59 -49q-30 -31 -46.5 -66t-16.5 -81v-13q0 -9 2 -13h76q0 49 20 83zM265 4.5q18 -18.5 49 -18.5t49.5 18.5t18.5 49.5t-18 49t-50 18q-31 0 -49 -18t-18 -49t18 -49.5z" />
<glyph unicode="@" d="M602.5 495q-11.5 47 -35.5 78q-51 60 -171 60q-69 0 -135.5 -28t-117.5 -83q-55 -58 -86 -143.5t-31 -196.5q0 -219 123 -334q54 -48 120.5 -72t137.5 -24q81 0 150.5 27.5t117.5 79.5l-48 62q-37 -43 -96 -67q-62 -24 -115 -24q-63 0 -118 21.5t-96 65.5q-92 99 -92 272 q0 84 22 152.5t62 117.5q37 47 85 71.5t98 24.5q46 0 76 -13t46 -41q24 -40 24 -120q0 -15 -2 -51q-56 10 -109 10q-81 0 -134 -25q-47 -21 -72 -61.5t-25 -98.5q0 -76 50 -120q48 -45 125 -45q46 0 73 11q52 20 76 60l17 26h6l11 -87h155v76h-78q-7 50 -7 111q0 25 2 69 l1 31q2 68 2 94q0 67 -11.5 114zM302.5 95q-26.5 27 -26.5 68q0 39 18 61q33 45 128 45q48 0 99 -10v-82q-18 -46 -44 -72q-37 -37 -98 -37q-50 0 -76.5 27z" />
<glyph unicode="A" d="M681 0l-275 816h-115l-272 -816h95l75 226h314l77 -226h101zM356 694l120 -384h-257l123 384h14z" />
<glyph unicode="B" d="M520 789q-67 37 -178 37q-128 0 -225 -17v-803q25 -7 51 -8q53 -7 114 -7h47q59 0 114 14.5t96 42.5q44 30 69 76.5t25 107.5q0 89 -55 142q-42 43 -123 59v4q38 10 68 30t48 47q18 26 28 56t10 60q0 108 -89 159zM213 735q40 7 119 7q77 0 120 -27q54 -33 54 -105 q0 -55 -41 -93q-33 -33 -97 -55q-30 -5 -94 -5h-61v278zM269 77q-45 2 -56 6v292h102q96 0 147 -28q69 -37 69 -122q0 -37 -15.5 -65.5t-43.5 -47.5q-53 -37 -134 -37q-21 0 -69 2z" />
<glyph unicode="C" d="M620 603v184h-1q-40 25 -72 33q-41 10 -120 10q-156 0 -247 -97q-104 -107 -104 -325q0 -212 95 -321q45 -50 107.5 -75.5t136.5 -25.5q139 0 219 63l-1 2v158h-86v-117q-45 -20 -105 -20t-108.5 21t-81.5 63q-74 88 -74 252q0 174 80 261q33 38 78.5 56.5t96.5 18.5 q58 0 101 -16v-125h86z" />
<glyph unicode="D" d="M128 -5l49 -2q51 -3 90 -3q204 0 299 130q78 107 78 294q0 195 -82 297q-91 115 -294 115q-100 0 -175 -10v-817zM494 633q47 -77 47 -219q0 -151 -50 -234q-64 -104 -220 -104q-11 0 -18 1q-15 0 -23 1q-24 0 -40 2v653q26 6 83 6q156 0 221 -106z" />
<glyph unicode="E" d="M610 0v86h-388v291h353v86h-353v267h382v86h-479v-816h485z" />
<glyph unicode="F" d="M233 0v365h348v86h-348v279h371v86h-468v-816h97z" />
<glyph unicode="G" d="M596 603v195l1 4q-65 28 -192 28q-69 0 -130 -24t-107 -73q-50 -52 -78 -134t-28 -191q0 -213 90 -319q84 -103 244 -103q63 0 125 16q64 18 100 46v359h-250v-78h168v-228q-53 -29 -127 -29q-248 0 -248 336q0 176 76 262q64 74 173 74q61 0 97 -8v-133h86z" />
<glyph unicode="H" d="M630 0v816h-97v-355h-366v355h-97v-816h97v374h366v-374h97z" />
<glyph unicode="I" d="M301 730v-644h-231v-86h560v86h-232v644h232v86h-560v-86h231z" />
<glyph unicode="J" d="M478 730v-423q0 -121 -44 -176.5t-133 -55.5q-51 0 -97 21q-29 12 -64 35l-42 -77q23 -25 78 -44q63 -22 127 -22q132 0 202 77t70 224v527h-462v-86h365z" />
<glyph unicode="K" d="M694 0l-324 428l288 388h-112l-263 -364h-87v364h-97v-816h97v378h90l285 -378h123z" />
<glyph unicode="L" d="M618 0v289h-86v-203h-330v730h-97v-816h513z" />
<glyph unicode="M" d="M630 0v816h-88l-186 -310h-3l-193 310h-90v-816h94v543l-14 110h6l54 -99l125 -201h29l119 200l56 100h6l-12 -111v-542h97z" />
<glyph unicode="N" d="M618 0v816h-91v-508l13 -112h-6l-61 112l-328 508h-63v-816h91v511l-12 117h5l63 -117l326 -511h63z" />
<glyph unicode="O" d="M121 103q73 -117 228 -117q148 0 221.5 108t73.5 314q0 202 -66 307q-72 115 -229 115q-148 0 -220.5 -108t-72.5 -314q0 -202 65 -305zM204.5 662.5q45.5 81.5 144.5 81.5q104 0 152 -100q40 -83 40 -236q0 -173 -46 -254.5t-146 -81.5q-103 0 -151 102q-39 81 -39 234 q0 173 45.5 254.5z" />
<glyph unicode="P" d="M213 0v310q-2 0 20 -2q10 -1 24 -2t33 -1h19q63 0 119.5 15t99.5 46q98 69 98 209q0 137 -102 202q-81 49 -210 49q-121 0 -197 -18v-808h96zM458 707q66 -43 66 -132q0 -103 -70 -148q-54 -35 -150 -35h-18q-18 0 -27 1q-37 0 -46 3v339q32 7 103 7q87 0 142 -35z" />
<glyph unicode="Q" d="M111 121q58 -113 185 -130q12 -84 79 -132q53 -37 128 -37q38 0 72 11t50 29l-26 72q-38 -26 -89 -26q-91 0 -112 82q125 17 185.5 122t60.5 296q0 202 -66 307q-72 115 -229 115q-148 0 -220.5 -108t-72.5 -314q0 -184 55 -287zM204.5 662.5q45.5 81.5 144.5 81.5 q104 0 152 -100q40 -83 40 -236q0 -173 -46 -254.5t-146 -81.5q-103 0 -151 102q-39 81 -39 234q0 173 45.5 254.5z" />
<glyph unicode="R" d="M213 0v359h146l193 -359h113l-216 387q19 8 43.5 25.5t46.5 41.5q53 62 53 146q0 116 -80 175q-68 51 -188 51q-49 0 -106 -5t-101 -13v-808h96zM446 701.5q44 -40.5 44 -104.5q0 -81 -50.5 -122t-135.5 -41h-91v301l23 3q9 1 27 2.5t32 1.5h31q76 0 120 -40.5z" />
<glyph unicode="S" d="M89 245v-189l-2 -4q53 -26 102 -42q81 -24 156 -24q133 0 205 63q74 65 74 167q0 63 -32 107q-57 75 -184 128q-42 17 -104 48q-54 27 -83 57t-29 72q0 24 12 45t34 37q45 34 121 34q70 0 139 -16v-125h86v186l1 4h-1v2l-2 -1q-35 17 -92 26.5t-126 9.5q-122 0 -195 -56 t-73 -151q0 -69 32 -111q56 -77 183 -127q48 -19 104 -46q54 -26 83 -56.5t29 -74.5q0 -67 -54 -103q-47 -33 -131 -33q-83 0 -167 43v130h-86z" />
<glyph unicode="T" d="M133 603v127h168v-644h-128v-86h353v86h-128v644h169v-127h86v213h-606v-213h86z" />
<glyph unicode="U" d="M495.5 127.5q-40.5 -51.5 -134.5 -51.5q-101 0 -145 50q-49 52 -49 172v518h-97v-563q0 -263 290 -263q130 0 196 67q74 72 74 215v544h-94v-518q0 -119 -40.5 -170.5z" />
<glyph unicode="V" d="M16 816l280 -816h113l274 816h-97l-221 -696h-13l-230 696h-106z" />
<glyph unicode="W" d="M17 816l128 -816h98l94 330l13 80h3l12 -79l94 -331h97l126 816h-86l-86 -579l-7 -80h-6l-21 87l-81 316h-77l-86 -319l-16 -82h-8l-6 75l-92 582h-93z" />
<glyph unicode="X" d="M132 0l186 293l31 58l31 -58l183 -293h113l-267 423l256 393h-108l-173 -276l-28 -55l-30 55l-163 276h-116l246 -401l-270 -415h109z" />
<glyph unicode="Y" d="M399 0v314l290 502h-104l-227 -403h-1l-233 403h-114l292 -504v-312h97z" />
<glyph unicode="Z" d="M635 0v86h-462l462 643v87h-571v-86h461l-461 -643v-87h571z" />
<glyph unicode="[" d="M571 -268v81h-306v922h306v81h-397v-1084h397z" />
<glyph unicode="\" d="M96 798l431 -961l77 34l-430 959z" />
<glyph unicode="]" d="M127 816v-81h308v-922h-308v-81h399v1084h-399z" />
<glyph unicode="^" d="M138 351l218 359l210 -359h95l-284 478h-34l-302 -478h97z" />
<glyph unicode="_" d="M634 -239v82h-569v-82h569z" />
<glyph unicode="`" d="M229 840l138 -174h64l-75 174h-127z" />
<glyph unicode="a" d="M249 502q45 12 91 12q40 0 66 -9t41 -29q19 -29 19 -90q0 -24 -3 -56q-66 10 -126 10q-91 0 -148 -25q-102 -44 -102 -160q0 -77 50 -121t137 -44q77 0 133 39q36 25 57 58h6l10 -87h155v76h-78q-6 43 -6 111q0 52 3 100q2 68 2 94q0 94 -36 145q-48 66 -157 66 q-65 0 -127.5 -13.5t-109.5 -40.5l29 -68q49 20 94 32zM211 94.5q-28 26.5 -28 68.5q0 39 21 61q41 45 147 45q53 0 112 -10v-82q-16 -40 -56 -72q-22 -17 -50.5 -27t-59.5 -10q-58 0 -86 26.5z" />
<glyph unicode="b" d="M99 738v-701q29 -19 88 -32.5t128 -13.5q153 0 235.5 80t82.5 230q0 296 -256 296q-56 0 -103.5 -21t-78.5 -59h-6v299h-187v-78h97zM498 456q38 -56 38 -154q0 -121 -56 -177q-52 -56 -149 -56q-85 0 -142 30v268q42 152 176 152q89 0 133 -63z" />
<glyph unicode="c" d="M596 382v163l1 3q-45 22 -99.5 35.5t-132.5 13.5q-67 0 -122 -20t-94 -59q-79 -81 -79 -227q0 -138 78 -221q79 -84 230 -84q84 0 156 30q57 25 97 57l-41 68q-36 -31 -87.5 -49.5t-106.5 -18.5q-102 0 -166 59q-63 57 -63 159q0 116 55 170t171 54q58 0 119 -22v-111h84 z" />
<glyph unicode="d" d="M505 738v-165q-25 6 -32 9l-31 6q-29 4 -79 4q-68 0 -123 -19.5t-93 -57.5q-82 -79 -82 -225q0 -156 62.5 -230t194.5 -74q64 0 115.5 29t77.5 75h5l12 -90h155v76h-78q-3 12 -5.5 33t-3.5 31q-4 46 -4 59v617h-189v-78h98zM201 129q-39 57 -39 161q0 114 52.5 169.5 t148.5 55.5q52 0 84 -7.5t58 -25.5v-271q-15 -74 -56.5 -110.5t-111.5 -36.5q-94 0 -136 65z" />
<glyph unicode="e" d="M546.5 116q-22.5 -13 -48.5 -23q-66 -25 -121 -25q-97 0 -152.5 53t-55.5 155h451q1 15 1 42q0 150 -71 218q-64 61 -182 61q-67 0 -122 -20.5t-93 -58.5q-80 -80 -80 -227q0 -138 74 -221q75 -84 213 -84q71 0 145 24q66 23 112 63l-36 67q-12 -11 -34.5 -24z M485.5 477.5q43.5 -42.5 49.5 -119.5h-362q7 84 65 127q47 35 133 35q71 0 114.5 -42.5z" />
<glyph unicode="f" d="M574 78h-242v427h242v78h-242q0 88 29 125t104 37q62 0 110 -21l21 76q-34 14 -63.5 18.5t-70.5 4.5q-221 0 -221 -207v-33h-138v-78h138v-427h-138v-78h471v78z" />
<glyph unicode="g" d="M513.5 583q-50.5 9 -118.5 9q-156 0 -235.5 -76t-79.5 -226q0 -156 62.5 -230t195.5 -74q65 0 107 20t70 60h5v-65q0 -46 -9.5 -77t-30.5 -51t-55 -29.5t-86 -9.5q-49 0 -96 18q-45 13 -67 34l-44 -83q86 -50 208 -50q121 0 193 53q78 59 78 165v586q-47 17 -97.5 26z M216 128q-40 59 -40 163q0 111 52.5 167t148.5 56q92 0 143 -24v-277q-17 -76 -58 -112.5t-111 -36.5q-93 0 -135 64z" />
<glyph unicode="h" d="M97 738v-738h90v371q7 31 25 59t43 48t55.5 30.5t61.5 10.5q85 0 121 -50q16 -24 22 -60.5t6 -90.5v-318h91v336q0 78 -12.5 129t-38.5 80q-25 28 -66.5 40t-99.5 12q-68 0 -117 -21.5t-86 -64.5h-5v305h-182v-78h92z" />
<glyph unicode="i" d="M315 697q21 -21 53 -21q34 0 57 21t23 52q0 32 -23 54.5t-57 22.5q-32 0 -53 -22.5t-21 -54.5q0 -31 21 -52zM617 78h-198v505h-297v-78h203v-427h-203v-78h495v78z" />
<glyph unicode="j" d="M364 697q21 -21 53 -21q34 0 57 21t23 52q0 32 -23 54.5t-57 22.5q-32 0 -53 -22.5t-21 -54.5q0 -31 21 -52zM361 -119q-31 -42 -99 -42q-40 0 -80 16t-75 42l-38 -75q31 -24 73 -41q63 -28 117 -28q108 0 167 58.5t59 174.5v597h-375v-78h282v-502q0 -80 -31 -122z" />
<glyph unicode="k" d="M127 738v-738h90v264h64l250 -264h120v78h-76l-212 229l257 276h-109l-230 -250h-64v483h-189v-78h99z" />
<glyph unicode="l" d="M241 738v-542q0 -113 47 -165q43 -46 133 -46q38 0 90 18q55 21 86 51l-42 64q-35 -28 -65 -40t-63 -12q-48 0 -71.5 30.5t-23.5 99.5v620h-193v-78h102z" />
<glyph unicode="m" d="M394 389q30 126 111 126q18 0 29 -8.5t19 -26.5q10 -27 10 -84v-396h89v416q0 88 -24 132q-14 25 -38 37t-62 12q-55 0 -88.5 -23.5t-62.5 -73.5q-7 51 -42 76q-32 21 -71 21q-55 0 -84 -24q-13 -11 -23.5 -24t-25.5 -37h-5l-18 71h-60v-583h88v401q15 52 43 83t66 31 q36 0 51 -38q9 -28 9 -89v-388h89v389z" />
<glyph unicode="n" d="M198 0v366q17 60 67 102q52 44 110 44q81 0 113.5 -47t32.5 -148v-317h91v335q0 149 -55 210q-27 28 -67.5 40t-96.5 12q-69 0 -124 -34q-51 -32 -75 -74h-6l-11 94h-156v-76h78q5 -22 7 -65l2 -63v-379h90z" />
<glyph unicode="o" d="M83.5 170.5q17.5 -55.5 51.5 -95.5q76 -89 215 -89q67 0 120.5 21.5t89.5 61.5q35 39 54 96t19 126q0 66 -17 121.5t-52 95.5q-74 89 -214 89q-135 0 -209.5 -82t-74.5 -224q0 -65 17.5 -120.5zM350 519q94 0 146 -72q42 -62 42 -156q0 -112 -47.5 -169.5t-140.5 -57.5 q-96 0 -145 72q-21 32 -31.5 72.5t-10.5 82.5q0 228 187 228z" />
<glyph unicode="p" d="M202 -233v245q28 -12 64 -19q29 -7 78 -7q67 0 123.5 22t95.5 63q40 42 61.5 100.5t21.5 131.5q0 154 -62 224t-189 70q-125 0 -198 -96h-6l-11 82h-156v-76h79q3 -15 7 -65l2 -63v-612h90zM508.5 459q40.5 -53 40.5 -155q0 -116 -55 -178t-150 -62q-50 0 -82 9t-60 28 v266q3 26 18 51.5t40 46.5q24 22 55 34.5t65 12.5q88 0 128.5 -53z" />
<glyph unicode="q" d="M510 581.5q-60 10.5 -125 10.5q-157 0 -236 -76t-79 -226q0 -156 62.5 -230t195.5 -74q64 0 106.5 20t70.5 59h5v-298h90v789q-30 15 -90 25.5zM205 128q-38 56 -38 163q0 113 52 168t148 55q97 0 143 -23v-281q-30 -146 -168 -146q-93 0 -137 64z" />
<glyph unicode="r" d="M548 78h-224v344q18 28 60 56q50 36 115 36q38 0 54 -35q14 -36 14 -109l81 1q0 58 -4.5 97.5t-17.5 66.5q-15 30 -39 45t-62 15q-62 0 -111 -23.5t-95 -64.5h-5l-19 76h-218v-78h157v-427h-157v-78h471v78z" />
<glyph unicode="s" d="M499 114.5q-12 -18.5 -34 -29.5q-41 -22 -107 -22q-63 0 -125 26q-27 11 -50.5 25.5t-37.5 28.5l-47 -75q38 -33 104 -56q75 -26 145 -26q124 0 189.5 51t65.5 134q0 54 -29 86q-53 56 -166 79q-48 8 -95 21q-49 12 -75 28.5t-26 44.5q0 46 46 69q39 21 95 21 q60 0 101.5 -15t94.5 -44l37 73q-42 26 -101.5 44.5t-132.5 18.5q-99 0 -161 -40q-70 -47 -70 -128q0 -54 29 -83q51 -51 167 -75q56 -12 93 -23q48 -14 75 -35t27 -56q0 -24 -12 -42.5z" />
<glyph unicode="t" d="M175 505v-289q0 -115 69 -176q61 -55 161 -55q58 0 114.5 19.5t98.5 52.5l-30 69q-38 -29 -76 -46t-86 -17q-78 0 -119 41.5t-41 125.5v275h311v78h-311v141l-91 -26v-115h-139v-78h139z" />
<glyph unicode="u" d="M498 505v-302q-25 -62 -70.5 -100.5t-103.5 -38.5q-41 0 -66 13.5t-39 40.5q-12 25 -16.5 60.5t-4.5 88.5v316h-169v-78h78v-257q0 -76 11.5 -126t36.5 -81q24 -30 61.5 -42.5t92.5 -12.5q67 0 118 30.5t84 82.5h4l4 -99h155v76h-78q-7 49 -7 109v398h-166v-78h75z" />
<glyph unicode="v" d="M50 583l251 -583h102l246 583h-101l-183 -470h-13l-195 470h-107z" />
<glyph unicode="w" d="M203 128h-7l-95 455h-89l122 -583h104l116 322h4l112 -322h104l114 583h-85l-83 -452h-8l-117 324h-79z" />
<glyph unicode="x" d="M160 0l189 239l185 -239h112l-239 303l225 280h-105l-173 -219l-167 219h-117l225 -285l-241 -298h106z" />
<glyph unicode="y" d="M54 583l244 -583h79q-31 -148 -119 -148q-14 0 -52 10q-32 8 -46 21l-33 -84q13 -13 51 -25q43 -13 66 -13q68 0 109 31q74 56 105 175q8 32 26 92l162 524h-94l-145 -493h-44l-204 493h-105z" />
<glyph unicode="z" d="M602 0v78h-399l399 427v78h-504v-78h395l-395 -427v-78h504z" />
<glyph unicode="{" d="M305.5 -218.5q48.5 -49.5 131.5 -49.5h169v81h-127q-70 0 -101 34t-31 105v112q0 79 -60 148q-23 25 -48.5 41.5t-42.5 19.5v7q18 2 43 17.5t49 39.5q27 27 43 64.5t16 82.5v113q0 71 30 105t101 34h128v81h-169q-38 0 -71.5 -14.5t-57.5 -39.5q-51 -53 -51 -138v-119 q0 -94 -59 -148q-24 -21 -52.5 -32t-52.5 -11v-82q24 0 52.5 -12.5t52.5 -35.5q27 -26 43 -63.5t16 -84.5v-114q0 -92 48.5 -141.5z" />
<glyph unicode="|" d="M389 -152v968h-79v-968h79z" />
<glyph unicode="}" d="M459.5 122q16.5 37 43.5 63q23 23 51 35.5t52 12.5v82q-24 0 -52 11t-51 32q-60 53 -60 148v119q0 41 -13 76.5t-37 61.5q-54 54 -131 54h-169v-81h129q71 0 100.5 -34t29.5 -105v-113q0 -45 16.5 -82.5t43.5 -64.5q23 -24 48.5 -39.5t43.5 -17.5v-7q-18 -3 -44 -19.5 t-48 -41.5q-60 -67 -60 -148v-112q0 -72 -31 -105.5t-101 -33.5h-127v-81h169q84 0 132.5 49t48.5 142v114q0 48 16.5 85z" />
<glyph unicode="~" d="M197 393.5q30 12.5 58 12.5q26 0 47.5 -8t53.5 -24q30 -15 54.5 -23.5t52.5 -8.5q64 0 144 54l-39 72q-47 -42 -96 -42q-24 0 -44 7.5t-57 24.5q-30 15 -57.5 23.5t-56.5 8.5q-77 0 -166 -69l40 -70q36 30 66 42.5z" />
<glyph unicode="&#xa0;" />
<glyph unicode="&#xa1;" d="M300 479q18 -18 49 -18t49.5 18t18.5 49q0 32 -18 50t-50 18q-31 0 -49 -18.5t-18 -49.5t18 -49zM378 377h-57l-20 -206v-404h97v404z" />
<glyph unicode="&#xa2;" d="M505 79q-46 -11 -85 -11v446q41 0 80 -13q44 -13 66 -24l26 79q-29 16 -73 28t-91 12v104h-83v-107q-106 -14 -175 -90q-73 -84 -73 -212q0 -129 66 -210.5t182 -92.5v-105h83v107q52 0 96 11q53 14 79 33l-30 71q-21 -15 -68 -26zM238 445q44 57 119 67v-440 q-78 8 -123 76q-40 59 -40 143q0 97 44 154z" />
<glyph unicode="&#xa3;" d="M203 365q27 -67 27 -128q0 -29 -8.5 -56t-24.5 -48q-39 -49 -107 -49v-84h520v86h-353q41 37 58 84q11 33 11 75q0 62 -21 120h153v82h-187q-20 39 -30 75.5t-10 81.5q0 65 38 102.5t108 37.5q112 0 180 -34l31 83q-77 37 -210 37q-115 0 -179.5 -59.5t-64.5 -172.5 q0 -45 8.5 -80t24.5 -71h-77v-82h113z" />
<glyph unicode="&#xa4;" d="M180 513q-31 -54 -31 -111q0 -62 29 -111l-122 -124l57 -56l123 123q46 -31 113 -31q65 0 113 30l123 -122l57 56l-123 126q30 47 30 109t-30 110l123 126l-57 57l-126 -125q-48 33 -110 33q-65 0 -111 -32l-125 124l-57 -57zM263.5 490.5q33.5 35.5 85.5 35.5t86 -35.5 t34 -88.5t-34 -87.5t-86 -34.5t-85.5 34.5t-33.5 87.5t33.5 88.5z" />
<glyph unicode="&#xa5;" d="M302 312v-82h-142v-70h142v-160h97v160h142v70h-142v82h142v70h-112l237 434h-104l-202 -396h-6l-208 396h-113l236 -434h-109v-70h142z" />
<glyph unicode="&#xa6;" d="M310 816v-392h79v392h-79zM389 -152v392h-79v-392h79z" />
<glyph unicode="&#xa7;" d="M149 326q39 -54 132 -86q22 -6 51 -17l24 -8q39 -15 59.5 -33t20.5 -46q0 -36 -26 -52t-77 -16q-78 0 -146 32l-24 -76q36 -18 78.5 -28t103.5 -10q80 0 132 37q52 39 52 110q0 46 -14 71t-47 44q58 32 81.5 73.5t23.5 83.5q0 54 -23 86q-38 55 -133 86q-17 5 -49 17 l-25 9q-40 15 -60.5 32t-20.5 45q0 32 26 50.5t77 18.5q39 0 77.5 -9.5t69.5 -23.5l22 78q-76 36 -182 36q-85 0 -134 -40t-49 -107q0 -44 16.5 -69.5t45.5 -45.5q-51 -25 -82 -76q-23 -40 -23 -80q0 -51 23 -86zM451 336q-26 -31 -60 -46q-30 11 -62 21q-33 10 -55 24 q-27 14 -41 32.5t-14 46.5q0 39 24 67.5t61 45.5q32 -12 63 -21q28 -9 57 -23q27 -15 41 -34t14 -47q0 -38 -28 -66z" />
<glyph unicode="&#xa8;" d="M171 705q18 -19 48 -19q29 0 48 19t19 47q0 31 -19 50t-48 19q-30 0 -48 -19t-18 -50q0 -28 18 -47zM431.5 705q18.5 -19 46.5 -19q30 0 49.5 19t19.5 47q0 31 -19 50t-50 19q-29 0 -47 -19t-18 -50q0 -28 18.5 -47z" />
<glyph unicode="&#xa9;" d="M71 219.5q21 -55.5 61 -94.5q80 -80 218 -80q61 0 116 20.5t95 59.5q41 39 64 95t23 124t-23 124t-64 95q-40 38 -95.5 58.5t-115.5 20.5q-62 0 -116 -20.5t-95 -58.5q-42 -39 -65.5 -95t-23.5 -124q0 -69 21 -124.5zM181 524q31 30 75 46t94 16t93.5 -16t75.5 -46 q67 -67 67 -180q0 -57 -17.5 -103t-49.5 -77t-75.5 -47t-93.5 -16q-51 0 -94.5 16t-74.5 47q-33 31 -51 77t-18 103q0 113 69 180zM365 248q-38 0 -59 24t-21 72q0 96 73 96q25 0 64 -18l22 60q-30 13 -48 18t-46 5q-65 0 -103 -42.5t-38 -118.5q0 -75 36.5 -118t104.5 -43 q59 0 100 23l-17 59q-29 -17 -68 -17z" />
<glyph unicode="&#xaa;" d="M284.5 751.5q38.5 8.5 82.5 8.5q39 0 53.5 -12.5t14.5 -44.5v-12q0 -9 -1 -14q-11 0 -15 2h-17q-96 0 -156 -30q-65 -31 -65 -100q0 -51 36 -81t97 -30q77 0 121 59h5l15 -54h64q-9 33 -9 102q0 24 2 78q1 26 1 85q0 60 -28 89t-98 29q-55 0 -103 -10.5t-80 -26.5l18 -58 q24 12 62.5 20.5zM279 518q-17 14 -17 37q0 37 38 51q26 12 85 12h24q17 0 25 -1v-49q-10 -24 -34 -42q-28 -22 -74 -22q-30 0 -47 14z" />
<glyph unicode="&#xab;" d="M361 80l-190 232l182 236l-67 56l-228 -296l237 -285zM641 80l-190 232l182 236l-67 56l-228 -296l237 -285z" />
<glyph unicode="&#xac;" d="M513 373v-140h84v224h-494v-84h410z" />
<glyph unicode="&#xad;" d="M549 293v86h-399v-86h399z" />
<glyph unicode="&#xae;" d="M64.5 395q23.5 -58 66.5 -98q86 -80 219 -80q63 0 119 20.5t99 59.5q43 40 67 98.5t24 130.5q0 73 -23.5 131t-66.5 99q-42 38 -98.5 58.5t-120.5 20.5q-63 0 -119 -20.5t-98 -58.5q-44 -41 -68 -99t-24 -131t23.5 -131zM181 707q64 59 169 59q100 0 167 -59 q32 -31 50 -76.5t18 -104.5q0 -117 -67 -181q-31 -29 -74 -44t-94 -15q-48 0 -91.5 15.5t-74.5 44.5q-70 65 -70 180q0 117 67 181zM290 375v122h49l91 -122h71l-100 144q25 5 42 24q22 22 22 55q0 47 -32.5 69t-86.5 22q-84 0 -116 -12v-302h60zM401 596q0 -50 -71 -50h-40 v86q10 5 43 5q68 0 68 -41z" />
<glyph unicode="&#xaf;" d="M522 677v73h-345v-73h345z" />
<glyph unicode="&#xb0;" d="M233 546q22 -22 52 -33.5t65 -11.5q34 0 64 11.5t52 33.5q48 45 48 120t-48 121q-22 21 -52 32t-64 11t-64.5 -12t-52.5 -33q-22 -22 -35 -53t-13 -66q0 -74 48 -120zM285.5 734.5q26.5 25.5 64.5 25.5t64.5 -25.5t26.5 -68.5t-26.5 -69t-64.5 -26t-64.5 26t-26.5 69 t26.5 68.5z" />
<glyph unicode="&#xb1;" d="M308 491v-140h84v140h205v84h-205v211h-84v-211h-205v-84h205zM597 208v83h-494v-83h494z" />
<glyph unicode="&#xb2;" d="M470 902q-22 19 -54 29t-69 10q-66 0 -128 -29q-46 -23 -73 -50l37 -57q33 26 60 39q42 22 90 22q42 0 69 -19q35 -28 35 -70q0 -51 -63 -104q-48 -44 -130 -95q-87 -53 -111 -73v-62h409v74h-287q107 51 178 115q86 76 86 155q0 74 -49 115z" />
<glyph unicode="&#xb3;" d="M189 535q-49 29 -64 49l-42 -60q25 -38 92 -65q29 -11 60.5 -17.5t59.5 -6.5q102 0 157.5 42.5t55.5 114.5q0 63 -45.5 102.5t-122.5 40.5v2l151 134v62h-369v-70h266l-151 -142v-45h75q58 0 86.5 -22.5t28.5 -61.5q0 -42 -32.5 -64.5t-89.5 -22.5q-63 0 -116 30z" />
<glyph unicode="&#xb4;" d="M293 666l138 174h-127l-75 -174h64z" />
<glyph unicode="&#xb6;" d="M385 -152v968h-53q-45 0 -83 -19t-64 -51q-25 -31 -38.5 -72t-13.5 -84q0 -42 13.5 -83.5t36.5 -73.5q23 -34 54 -53t68 -19v-513h80zM567 -152v968h-80v-968h80z" />
<glyph unicode="&#xb7;" d="M293 299.5q21 -21.5 56 -21.5q37 0 58 21.5t21 56.5q0 37 -20.5 57.5t-58.5 20.5q-36 0 -56.5 -20.5t-20.5 -57.5q0 -35 21 -56.5z" />
<glyph unicode="&#xb8;" d="M260 -105q100 -11 100 -43q0 -20 -10 -29q-19 -17 -63 -17h-12q-8 0 -13 2l-10 -46q32 -5 52 -5q66 0 104.5 29.5t38.5 75.5q0 36 -22 57t-71 31l28 50h-66z" />
<glyph unicode="&#xb9;" d="M566 443v71h-158v419h-65l-194 -116l32 -64l145 82v-321h-170v-71h410z" />
<glyph unicode="&#xba;" d="M222 478q44 -44 128 -44t129 44q52 52 52 154t-52 154q-45 44 -129 44q-83 0 -128 -46q-53 -53 -53 -152q0 -103 53 -154zM278.5 733.5q23.5 29.5 71.5 29.5q45 0 70 -27q24 -30 24 -104t-24 -103q-25 -28 -70 -28q-95 0 -95 131q0 72 23.5 101.5z" />
<glyph unicode="&#xbb;" d="M134 604l-68 -56l182 -236l-190 -232l67 -57l236 285zM414 604l-68 -56l182 -236l-190 -232l67 -57l236 285z" />
<glyph unicode="&#xbc;" d="M199 -14l360 822l-55 23l-361 -819zM225 326v490h-47l-137 -122l37 -43l79 68v-393h68zM581 175v322h-57l-168 -336v-48h157v-113h68v113h59v62h-59zM429 175l84 183v-183h-84z" />
<glyph unicode="&#xbd;" d="M185 -14l360 822l-55 23l-361 -819zM225 326v490h-47l-137 -122l37 -43l79 68v-393h68zM526 498q-23 0 -51 -8.5t-47 -24.5l21 -56q13 11 32.5 17.5t40.5 6.5t34.5 -19.5t13.5 -53.5q0 -71 -52 -168q-36 -65 -96 -136v-56h231v65h-150q67 90 101.5 162t34.5 144 q0 127 -113 127z" />
<glyph unicode="&#xbe;" d="M209 -14l359 822l-55 23l-360 -819zM66 401l-15 -62q39 -21 90 -21q58 0 95 43.5t37 114.5q0 64 -26.5 100t-77.5 35v3l90 153v49h-204v-65h125l-88 -153v-38h41q71 0 71 -84q0 -44 -17.5 -68t-52.5 -24q-41 0 -68 17zM581 175v322h-57l-168 -336v-48h157v-113h68v113h59 v62h-59zM429 175l84 183v-183h-84z" />
<glyph unicode="&#xbf;" d="M336 480.5q18 -18.5 49 -18.5t50 18.5t19 48.5q0 31 -18.5 49.5t-50.5 18.5q-31 0 -49 -18.5t-18 -49.5q0 -30 18 -48.5zM333 294q-30 -56 -110 -112q-33 -24 -63 -54q-32 -32 -50 -71t-18 -91q0 -37 15.5 -74.5t46.5 -67.5q71 -71 200 -71q100 0 166 30t117 93l-60 54 q-39 -39 -81 -64q-57 -32 -126 -32q-90 0 -139 51q-21 21 -31.5 46t-10.5 49q0 44 19 72q30 53 102 103q34 25 57 50q63 63 63 146v13q0 9 -1 13h-77q0 -51 -19 -83z" />
<glyph unicode="&#xc0;" d="M167 1014v-24l184 -113h86l-137 137h-133zM681 0l-275 816h-115l-272 -816h95l75 226h314l77 -226h101zM356 694l120 -384h-257l123 384h14z" />
<glyph unicode="&#xc1;" d="M337 877l190 113v24h-133l-137 -137h80zM681 0l-275 816h-115l-272 -816h95l75 226h314l77 -226h101zM356 694l120 -384h-257l123 384h14z" />
<glyph unicode="&#xc2;" d="M255 872l97 76l90 -76h115l-169 144h-70l-180 -144h117zM681 0l-275 816h-115l-272 -816h95l75 226h314l77 -226h101zM356 694l120 -384h-257l123 384h14z" />
<glyph unicode="&#xc3;" d="M268 902q17 0 33 -4.5t43 -13.5q47 -20 80 -20q68 0 117 44l-34 57q-27 -24 -58 -24q-27 0 -74 20q-50 18 -84 18q-84 0 -139 -59l42 -52q34 34 74 34zM681 0l-275 816h-115l-272 -816h95l75 226h314l77 -226h101zM356 694l120 -384h-257l123 384h14z" />
<glyph unicode="&#xc4;" d="M167.5 889.5q20.5 -16.5 52.5 -16.5q31 0 51 16.5t20 43.5t-20 43.5t-51 16.5q-32 0 -52.5 -16.5t-20.5 -43.5t20.5 -43.5zM428.5 889.5q19.5 -16.5 50.5 -16.5q34 0 54 16.5t20 43.5t-20 43.5t-54 16.5q-31 0 -50.5 -16.5t-19.5 -43.5t19.5 -43.5zM681 0l-275 816h-115 l-272 -816h95l75 226h314l77 -226h101zM356 694l120 -384h-257l123 384h14z" />
<glyph unicode="&#xc5;" d="M249.5 832.5q22.5 -24.5 66.5 -31.5l-299 -801h96l82 226h301l84 -226h101l-300 801q45 7 68.5 31.5t23.5 62.5q0 49 -32 74.5t-91 25.5q-61 0 -92 -27t-31 -73q0 -38 22.5 -62.5zM311.5 931q13.5 13 38.5 13q52 0 52 -49q0 -21 -13.5 -33.5t-38.5 -12.5q-26 0 -39 12.5 t-13 33.5q0 23 13.5 36zM346 646l120 -336h-240l119 336h1z" />
<glyph unicode="&#xc6;" d="M663 0v87h-213v288h190v88h-190v266h210v87h-317l-320 -816h97l85 223h152v-223h306zM357 307h-123l96 260l24 77h3v-337z" />
<glyph unicode="&#xc7;" d="M620 603v184h-1q-40 25 -72 33q-41 10 -120 10q-156 0 -247 -97q-104 -107 -104 -325q0 -212 95 -321q82 -91 218 -100l-47 -92q100 -11 100 -43q0 -20 -11 -29q-17 -17 -63 -17h-11q-8 0 -13 2l-11 -46q32 -5 53 -5q66 0 104 29.5t38 75.5q0 36 -22 57t-70 31l21 37 q110 10 177 62l-1 2v158h-86v-117q-45 -20 -105 -20t-108.5 21t-81.5 63q-74 88 -74 252q0 174 80 261q33 38 78.5 56.5t96.5 18.5q58 0 101 -16v-125h86z" />
<glyph unicode="&#xc8;" d="M183 1014v-24l184 -113h87l-138 137h-133zM610 0v86h-388v291h353v86h-353v267h382v86h-479v-816h485z" />
<glyph unicode="&#xc9;" d="M353 877l190 113v24h-133l-137 -137h80zM610 0v86h-388v291h353v86h-353v267h382v86h-479v-816h485z" />
<glyph unicode="&#xca;" d="M268 872l97 76l90 -76h115l-169 144h-70l-181 -144h118zM610 0v86h-388v291h353v86h-353v267h382v86h-479v-816h485z" />
<glyph unicode="&#xcb;" d="M180.5 889.5q20.5 -16.5 52.5 -16.5q31 0 51 16.5t20 43.5t-20 43.5t-51 16.5q-32 0 -52.5 -16.5t-20.5 -43.5t20.5 -43.5zM441.5 889.5q19.5 -16.5 50.5 -16.5q34 0 54 16.5t20 43.5t-20 43.5t-54 16.5q-31 0 -50.5 -16.5t-19.5 -43.5t19.5 -43.5zM610 0v86h-388v291 h353v86h-353v267h382v86h-479v-816h485z" />
<glyph unicode="&#xcc;" d="M181 1014v-24l184 -113h86l-137 137h-133zM301 730v-644h-231v-86h560v86h-232v644h232v86h-560v-86h231z" />
<glyph unicode="&#xcd;" d="M332 877l190 113v24h-133l-137 -137h80zM301 730v-644h-231v-86h560v86h-232v644h232v86h-560v-86h231z" />
<glyph unicode="&#xce;" d="M254 872l97 76l90 -76h115l-169 144h-70l-181 -144h118zM301 730v-644h-231v-86h560v86h-232v644h232v86h-560v-86h231z" />
<glyph unicode="&#xcf;" d="M167.5 889.5q20.5 -16.5 52.5 -16.5q31 0 51 16.5t20 43.5t-20 43.5t-51 16.5q-32 0 -52.5 -16.5t-20.5 -43.5t20.5 -43.5zM428.5 889.5q19.5 -16.5 50.5 -16.5q34 0 54 16.5t20 43.5t-20 43.5t-54 16.5q-31 0 -50.5 -16.5t-19.5 -43.5t19.5 -43.5zM301 730v-644h-231 v-86h560v86h-232v644h232v86h-560v-86h231z" />
<glyph unicode="&#xd0;" d="M115 387v-388l38 -4l53 -2q59 -3 104 -3q102 0 174.5 34t117.5 96q77 107 77 294q0 194 -80 297q-90 115 -277 115q-132 0 -207 -10v-359h-105v-70h105zM531 633q45 -77 45 -219q0 -151 -49 -234q-63 -104 -215 -104q-10 0 -19 1q-20 0 -31 1q-34 0 -50 2v307h160v70 h-160v276q26 6 112 6q142 0 207 -106z" />
<glyph unicode="&#xd1;" d="M268 902q17 0 33 -4.5t43 -13.5q47 -20 80 -20q68 0 117 44l-34 57q-27 -24 -58 -24q-27 0 -74 20q-50 18 -84 18q-84 0 -139 -59l42 -52q34 34 74 34zM618 0v816h-91v-508l13 -112h-6l-61 112l-328 508h-63v-816h91v511l-12 117h5l63 -117l326 -511h63z" />
<glyph unicode="&#xd2;" d="M160 1014v-24l184 -113h86l-137 137h-133zM121 103q73 -117 228 -117q148 0 221.5 108t73.5 314q0 202 -66 307q-72 115 -229 115q-148 0 -220.5 -108t-72.5 -314q0 -202 65 -305zM204.5 662.5q45.5 81.5 144.5 81.5q104 0 152 -100q40 -83 40 -236q0 -173 -46 -254.5 t-146 -81.5q-103 0 -151 102q-39 81 -39 234q0 173 45.5 254.5z" />
<glyph unicode="&#xd3;" d="M378 877l190 113v24h-133l-138 -137h81zM121 103q73 -117 228 -117q148 0 221.5 108t73.5 314q0 202 -66 307q-72 115 -229 115q-148 0 -220.5 -108t-72.5 -314q0 -202 65 -305zM204.5 662.5q45.5 81.5 144.5 81.5q104 0 152 -100q40 -83 40 -236q0 -173 -46 -254.5 t-146 -81.5q-103 0 -151 102q-39 81 -39 234q0 173 45.5 254.5z" />
<glyph unicode="&#xd4;" d="M253 872l97 76l90 -76h115l-169 144h-70l-181 -144h118zM121 103q73 -117 228 -117q148 0 221.5 108t73.5 314q0 202 -66 307q-72 115 -229 115q-148 0 -220.5 -108t-72.5 -314q0 -202 65 -305zM204.5 662.5q45.5 81.5 144.5 81.5q104 0 152 -100q40 -83 40 -236 q0 -173 -46 -254.5t-146 -81.5q-103 0 -151 102q-39 81 -39 234q0 173 45.5 254.5z" />
<glyph unicode="&#xd5;" d="M267 902q16 0 33 -4.5t43 -13.5q45 -20 80 -20q68 0 117 44l-34 57q-28 -24 -58 -24q-27 0 -74 20q-50 18 -84 18q-83 0 -140 -59l42 -52q35 34 75 34zM121 103q73 -117 228 -117q148 0 221.5 108t73.5 314q0 202 -66 307q-72 115 -229 115q-148 0 -220.5 -108 t-72.5 -314q0 -202 65 -305zM204.5 662.5q45.5 81.5 144.5 81.5q104 0 152 -100q40 -83 40 -236q0 -173 -46 -254.5t-146 -81.5q-103 0 -151 102q-39 81 -39 234q0 173 45.5 254.5z" />
<glyph unicode="&#xd6;" d="M165.5 889.5q20.5 -16.5 52.5 -16.5q31 0 51 16.5t20 43.5t-20 43.5t-51 16.5q-32 0 -52.5 -16.5t-20.5 -43.5t20.5 -43.5zM426.5 889.5q19.5 -16.5 50.5 -16.5q34 0 53.5 16.5t19.5 43.5t-19.5 43.5t-53.5 16.5q-31 0 -50.5 -16.5t-19.5 -43.5t19.5 -43.5zM121 103 q73 -117 228 -117q148 0 221.5 108t73.5 314q0 202 -66 307q-72 115 -229 115q-148 0 -220.5 -108t-72.5 -314q0 -202 65 -305zM204.5 662.5q45.5 81.5 144.5 81.5q104 0 152 -100q40 -83 40 -236q0 -173 -46 -254.5t-146 -81.5q-103 0 -151 102q-39 81 -39 234 q0 173 45.5 254.5z" />
<glyph unicode="&#xd7;" d="M290 395l-149 -150l61 -60l148 150l148 -150l59 61l-147 148l147 147l-59 62l-148 -148l-147 148l-60 -62z" />
<glyph unicode="&#xd8;" d="M99 -14l46 65q79 -65 204 -65q161 0 247.5 109t86.5 313q0 189 -76 299l60 84l-61 40l-49 -70q-78 69 -208 69q-161 0 -247 -109t-86 -313q0 -191 77 -302l-55 -78zM179 660q60 84 170 84q91 0 149 -65l-338 -480q-41 88 -41 209q0 168 60 252zM520.5 156.5 q-60.5 -84.5 -171.5 -84.5q-90 0 -146 61l338 479q40 -84 40 -204q0 -167 -60.5 -251.5z" />
<glyph unicode="&#xd9;" d="M175 1014v-24l184 -113h86l-137 137h-133zM495.5 127.5q-40.5 -51.5 -134.5 -51.5q-101 0 -145 50q-49 52 -49 172v518h-97v-563q0 -263 290 -263q130 0 196 67q74 72 74 215v544h-94v-518q0 -119 -40.5 -170.5z" />
<glyph unicode="&#xda;" d="M367 877l190 113v24h-133l-137 -137h80zM495.5 127.5q-40.5 -51.5 -134.5 -51.5q-101 0 -145 50q-49 52 -49 172v518h-97v-563q0 -263 290 -263q130 0 196 67q74 72 74 215v544h-94v-518q0 -119 -40.5 -170.5z" />
<glyph unicode="&#xdb;" d="M258 872l96 76l90 -76h116l-169 144h-70l-181 -144h118zM495.5 127.5q-40.5 -51.5 -134.5 -51.5q-101 0 -145 50q-49 52 -49 172v518h-97v-563q0 -263 290 -263q130 0 196 67q74 72 74 215v544h-94v-518q0 -119 -40.5 -170.5z" />
<glyph unicode="&#xdc;" d="M168.5 889.5q20.5 -16.5 53.5 -16.5q30 0 50.5 16.5t20.5 43.5t-20.5 43.5t-50.5 16.5q-33 0 -53.5 -16.5t-20.5 -43.5t20.5 -43.5zM430 889.5q20 -16.5 50 -16.5q34 0 54 16.5t20 43.5t-20 43.5t-54 16.5q-30 0 -50 -16.5t-20 -43.5t20 -43.5zM495.5 127.5 q-40.5 -51.5 -134.5 -51.5q-101 0 -145 50q-49 52 -49 172v518h-97v-563q0 -263 290 -263q130 0 196 67q74 72 74 215v544h-94v-518q0 -119 -40.5 -170.5z" />
<glyph unicode="&#xdd;" d="M357 877l190 113v24h-133l-138 -137h81zM399 0v314l290 502h-104l-227 -403h-1l-233 403h-114l292 -504v-312h97z" />
<glyph unicode="&#xde;" d="M203 0v216q3 -1 9 -1.5t14 -1.5q48 -2 74 -2h22q62 0 119 15.5t100 46.5q98 70 98 209t-103 201q-77 49 -210 49h-28h-33l-62 -3v87h-97v-816h97zM471 613q65 -41 65 -131q0 -104 -70 -149q-54 -36 -149 -36h-22q-22 0 -35 1q-12 2 -20.5 2.5t-14.5 0.5q-16 0 -22 2v338 q26 4 23 4q60 3 70 3h33q88 0 142 -35z" />
<glyph unicode="&#xdf;" d="M451 611q-14 -17 -32 -31t-24 -19q-34 -28 -52.5 -55t-18.5 -68q0 -43 18 -70q31 -47 101 -71q40 -16 57 -25q30 -16 46 -36.5t16 -53.5q0 -25 -10 -47t-27 -37q-40 -33 -88 -33q-22 0 -37 3q-33 3 -50 14q-5 2 -11 5.5t-14 6.5l-27 -75q26 -17 63 -25q31 -8 84 -8 q49 0 89.5 17t67.5 46q26 27 39.5 62.5t13.5 73.5q0 50 -17 84q-33 57 -102 84l-19 8q-26 10 -38 16q-30 13 -46 28t-16 39q0 23 14.5 39.5t32.5 31t25 19.5q34 27 52 53t18 66q0 74 -60 124q-58 46 -156 46q-209 0 -209 -213v-27h-91v-82h91v-501h93v581q0 89 27 126 q28 35 92 35q40 0 80 -25q18 -12 28.5 -28.5t10.5 -36.5q0 -24 -14 -41z" />
<glyph unicode="&#xe0;" d="M218 840l139 -174h64l-76 174h-127zM249 502q45 12 91 12q40 0 66 -9t41 -29q19 -29 19 -90q0 -24 -3 -56q-66 10 -126 10q-91 0 -148 -25q-102 -44 -102 -160q0 -77 50 -121t137 -44q77 0 133 39q36 25 57 58h6l10 -87h155v76h-78q-6 43 -6 111q0 52 3 100q2 68 2 94 q0 94 -36 145q-48 66 -157 66q-65 0 -127.5 -13.5t-109.5 -40.5l29 -68q49 20 94 32zM211 94.5q-28 26.5 -28 68.5q0 39 21 61q41 45 147 45q53 0 112 -10v-82q-16 -40 -56 -72q-22 -17 -50.5 -27t-59.5 -10q-58 0 -86 26.5z" />
<glyph unicode="&#xe1;" d="M337 666l139 174h-127l-76 -174h64zM249 502q45 12 91 12q40 0 66 -9t41 -29q19 -29 19 -90q0 -24 -3 -56q-66 10 -126 10q-91 0 -148 -25q-102 -44 -102 -160q0 -77 50 -121t137 -44q77 0 133 39q36 25 57 58h6l10 -87h155v76h-78q-6 43 -6 111q0 52 3 100q2 68 2 94 q0 94 -36 145q-48 66 -157 66q-65 0 -127.5 -13.5t-109.5 -40.5l29 -68q49 20 94 32zM211 94.5q-28 26.5 -28 68.5q0 39 21 61q41 45 147 45q53 0 112 -10v-82q-16 -40 -56 -72q-22 -17 -50.5 -27t-59.5 -10q-58 0 -86 26.5z" />
<glyph unicode="&#xe2;" d="M244 641l100 127l94 -127h91l-157 213h-43l-167 -213h82zM249 502q45 12 91 12q40 0 66 -9t41 -29q19 -29 19 -90q0 -24 -3 -56q-66 10 -126 10q-91 0 -148 -25q-102 -44 -102 -160q0 -77 50 -121t137 -44q77 0 133 39q36 25 57 58h6l10 -87h155v76h-78q-6 43 -6 111 q0 52 3 100q2 68 2 94q0 94 -36 145q-48 66 -157 66q-65 0 -127.5 -13.5t-109.5 -40.5l29 -68q49 20 94 32zM211 94.5q-28 26.5 -28 68.5q0 39 21 61q41 45 147 45q53 0 112 -10v-82q-16 -40 -56 -72q-22 -17 -50.5 -27t-59.5 -10q-58 0 -86 26.5z" />
<glyph unicode="&#xe3;" d="M274 752q25 0 64 -22q21 -12 37 -18.5t34 -6.5q31 0 56 13t54 45l-41 51q-28 -28 -54 -28q-12 0 -22.5 4t-21 10t-16.5 9q-20 12 -36 18t-34 6q-27 0 -62.5 -17.5t-67.5 -52.5l44 -47q35 36 66 36zM249 502q45 12 91 12q40 0 66 -9t41 -29q19 -29 19 -90q0 -24 -3 -56 q-66 10 -126 10q-91 0 -148 -25q-102 -44 -102 -160q0 -77 50 -121t137 -44q77 0 133 39q36 25 57 58h6l10 -87h155v76h-78q-6 43 -6 111q0 52 3 100q2 68 2 94q0 94 -36 145q-48 66 -157 66q-65 0 -127.5 -13.5t-109.5 -40.5l29 -68q49 20 94 32zM211 94.5 q-28 26.5 -28 68.5q0 39 21 61q41 45 147 45q53 0 112 -10v-82q-16 -40 -56 -72q-22 -17 -50.5 -27t-59.5 -10q-58 0 -86 26.5z" />
<glyph unicode="&#xe4;" d="M166.5 705q18.5 -19 48.5 -19q28 0 47 19t19 47q0 31 -18.5 50t-47.5 19q-31 0 -49 -19t-18 -50q0 -28 18.5 -47zM426.5 705q18.5 -19 46.5 -19q30 0 49.5 19t19.5 47q0 31 -19 50t-50 19q-29 0 -47 -19t-18 -50q0 -28 18.5 -47zM249 502q45 12 91 12q40 0 66 -9t41 -29 q19 -29 19 -90q0 -24 -3 -56q-66 10 -126 10q-91 0 -148 -25q-102 -44 -102 -160q0 -77 50 -121t137 -44q77 0 133 39q36 25 57 58h6l10 -87h155v76h-78q-6 43 -6 111q0 52 3 100q2 68 2 94q0 94 -36 145q-48 66 -157 66q-65 0 -127.5 -13.5t-109.5 -40.5l29 -68 q49 20 94 32zM211 94.5q-28 26.5 -28 68.5q0 39 21 61q41 45 147 45q53 0 112 -10v-82q-16 -40 -56 -72q-22 -17 -50.5 -27t-59.5 -10q-58 0 -86 26.5z" />
<glyph unicode="&#xe5;" d="M262.5 673q31.5 -28 81.5 -28q49 0 81.5 29.5t32.5 75.5q0 53 -31.5 79.5t-82.5 26.5q-52 0 -82.5 -28.5t-30.5 -77.5t31.5 -77zM308 787.5q14 12.5 36 12.5t36.5 -13t14.5 -37t-14 -36.5t-37 -12.5q-21 0 -35.5 13t-14.5 36q0 25 14 37.5zM249 502q45 12 91 12 q40 0 66 -9t41 -29q19 -29 19 -90q0 -24 -3 -56q-66 10 -126 10q-91 0 -148 -25q-102 -44 -102 -160q0 -77 50 -121t137 -44q77 0 133 39q36 25 57 58h6l10 -87h155v76h-78q-6 43 -6 111q0 52 3 100q2 68 2 94q0 94 -36 145q-48 66 -157 66q-65 0 -127.5 -13.5t-109.5 -40.5 l29 -68q49 20 94 32zM211 94.5q-28 26.5 -28 68.5q0 39 21 61q41 45 147 45q53 0 112 -10v-82q-16 -40 -56 -72q-22 -17 -50.5 -27t-59.5 -10q-58 0 -86 26.5z" />
<glyph unicode="&#xe6;" d="M361.5 37.5q17.5 -17.5 39.5 -28.5q44 -23 96 -23q45 0 86 12t64 32l-28 66q-13 -15 -43 -21q-37 -11 -59 -11q-66 0 -101.5 48t-36.5 155h281q6 43 6 113q0 117 -56 175q-42 42 -111 42q-41 0 -79 -17q-45 -23 -64 -61q-12 33 -56 55q-40 18 -83 18q-44 0 -84.5 -12.5 t-68.5 -37.5l22 -67q22 17 53.5 28t58.5 11q47 0 75 -24q32 -34 32 -94q0 -15 -2 -59q-9 0 -16 1l-47 1h-16q-91 0 -137 -38q-53 -45 -53 -140q0 -77 39.5 -123.5t102.5 -46.5q112 0 154 85h5q9 -21 26.5 -38.5zM560.5 478.5q24.5 -40.5 24.5 -114.5v-21h-204q1 82 40 133 q33 43 78 43q37 0 61.5 -40.5zM141 97q-21 28 -21 72q0 58 36 81q27 15 84 15h13l38 -1q6 -2 13 -2v-122q-8 -31 -35.5 -51t-64.5 -20q-42 0 -63 28z" />
<glyph unicode="&#xe7;" d="M596 382v163l1 3q-45 22 -99.5 35.5t-132.5 13.5q-67 0 -122 -20t-94 -59q-79 -81 -79 -227q0 -132 69 -212.5t199 -90.5l-49 -93q100 -10 100 -43q0 -20 -10 -29q-19 -17 -63 -17h-12q-8 0 -13 2l-10 -46q32 -5 52 -5q66 0 104.5 29.5t38.5 75.5q0 36 -22 57t-70 31 l19 37q74 4 132.5 29t95.5 57l-41 68q-36 -31 -87.5 -49.5t-106.5 -18.5q-102 0 -166 59q-63 57 -63 159q0 116 55 170t171 54q58 0 119 -22v-111h84z" />
<glyph unicode="&#xe8;" d="M225 840l139 -174h64l-76 174h-127zM546.5 116q-22.5 -13 -48.5 -23q-66 -25 -121 -25q-97 0 -152.5 53t-55.5 155h451q1 15 1 42q0 150 -71 218q-64 61 -182 61q-67 0 -122 -20.5t-93 -58.5q-80 -80 -80 -227q0 -138 74 -221q75 -84 213 -84q71 0 145 24q66 23 112 63 l-36 67q-12 -11 -34.5 -24zM485.5 477.5q43.5 -42.5 49.5 -119.5h-362q7 84 65 127q47 35 133 35q71 0 114.5 -42.5z" />
<glyph unicode="&#xe9;" d="M353 666l139 174h-127l-76 -174h64zM546.5 116q-22.5 -13 -48.5 -23q-66 -25 -121 -25q-97 0 -152.5 53t-55.5 155h451q1 15 1 42q0 150 -71 218q-64 61 -182 61q-67 0 -122 -20.5t-93 -58.5q-80 -80 -80 -227q0 -138 74 -221q75 -84 213 -84q71 0 145 24q66 23 112 63 l-36 67q-12 -11 -34.5 -24zM485.5 477.5q43.5 -42.5 49.5 -119.5h-362q7 84 65 127q47 35 133 35q71 0 114.5 -42.5z" />
<glyph unicode="&#xea;" d="M251 641l100 127l94 -127h91l-157 213h-43l-167 -213h82zM546.5 116q-22.5 -13 -48.5 -23q-66 -25 -121 -25q-97 0 -152.5 53t-55.5 155h451q1 15 1 42q0 150 -71 218q-64 61 -182 61q-67 0 -122 -20.5t-93 -58.5q-80 -80 -80 -227q0 -138 74 -221q75 -84 213 -84 q71 0 145 24q66 23 112 63l-36 67q-12 -11 -34.5 -24zM485.5 477.5q43.5 -42.5 49.5 -119.5h-362q7 84 65 127q47 35 133 35q71 0 114.5 -42.5z" />
<glyph unicode="&#xeb;" d="M182.5 705q18.5 -19 48.5 -19q28 0 47 19t19 47q0 31 -18.5 50t-47.5 19q-31 0 -49 -19t-18 -50q0 -28 18.5 -47zM442.5 705q18.5 -19 47.5 -19q30 0 49.5 19t19.5 47q0 31 -19 50t-50 19q-29 0 -47.5 -19t-18.5 -50q0 -28 18.5 -47zM546.5 116q-22.5 -13 -48.5 -23 q-66 -25 -121 -25q-97 0 -152.5 53t-55.5 155h451q1 15 1 42q0 150 -71 218q-64 61 -182 61q-67 0 -122 -20.5t-93 -58.5q-80 -80 -80 -227q0 -138 74 -221q75 -84 213 -84q71 0 145 24q66 23 112 63l-36 67q-12 -11 -34.5 -24zM485.5 477.5q43.5 -42.5 49.5 -119.5h-362 q7 84 65 127q47 35 133 35q71 0 114.5 -42.5z" />
<glyph unicode="&#xec;" d="M227 840l139 -174h64l-76 174h-127zM665 78h-199v505h-296v-78h203v-427h-203v-78h495v78z" />
<glyph unicode="&#xed;" d="M333 666l139 174h-127l-76 -174h64zM617 78h-198v505h-297v-78h203v-427h-203v-78h495v78z" />
<glyph unicode="&#xee;" d="M234 641l101 127l94 -127h91l-157 213h-44l-166 -213h81zM617 78h-198v505h-297v-78h203v-427h-203v-78h495v78z" />
<glyph unicode="&#xef;" d="M171 705q18 -19 48 -19q29 0 48 19t19 47q0 31 -19 50t-48 19q-30 0 -48 -19t-18 -50q0 -28 18 -47zM431.5 705q18.5 -19 46.5 -19q30 0 49.5 19t19.5 47q0 31 -19 50t-50 19q-29 0 -47 -19t-18 -50q0 -28 18.5 -47zM619 78h-198v505h-296v-78h203v-427h-203v-78h494v78z " />
<glyph unicode="&#xf0;" d="M399 691q37 -33 69.5 -72t51.5 -78q-32 25 -76 39.5t-95 14.5q-69 0 -123 -23.5t-90 -66.5q-35 -42 -53.5 -97t-18.5 -115q0 -135 68 -216q75 -91 219 -91q59 0 112 21.5t94 63.5q90 95 90 273q0 131 -61 241q-23 42 -51.5 76t-64.5 69l58 31l-30 53l-79 -43 q-51 35 -122 60l-40 -63q46 -11 88 -37l-66 -36l31 -51zM209 449q51 64 149 64q51 0 100 -16q59 -22 88 -53q6 -25 7 -50q0 -20 1 -29v-27q0 -135 -62 -207q-27 -32 -62 -47.5t-74 -15.5q-87 0 -138 54q-57 62 -57 169q0 100 48 158z" />
<glyph unicode="&#xf1;" d="M280 752q26 0 64 -22q20 -12 36.5 -18.5t33.5 -6.5q31 0 56.5 13t54.5 45l-41 51q-28 -28 -54 -28q-12 0 -22.5 4t-21 10t-16.5 9q-20 11 -36.5 17.5t-33.5 6.5q-27 0 -62.5 -17.5t-67.5 -52.5l43 -47q36 36 67 36zM198 0v366q17 60 67 102q52 44 110 44q81 0 113.5 -47 t32.5 -148v-317h91v335q0 149 -55 210q-27 28 -67.5 40t-96.5 12q-69 0 -124 -34q-51 -32 -75 -74h-6l-11 94h-156v-76h78q5 -22 7 -65l2 -63v-379h90z" />
<glyph unicode="&#xf2;" d="M194 840l138 -174h64l-75 174h-127zM83.5 170.5q17.5 -55.5 51.5 -95.5q76 -89 215 -89q67 0 120.5 21.5t89.5 61.5q35 39 54 96t19 126q0 66 -17 121.5t-52 95.5q-74 89 -214 89q-135 0 -209.5 -82t-74.5 -224q0 -65 17.5 -120.5zM350 519q94 0 146 -72q42 -62 42 -156 q0 -112 -47.5 -169.5t-140.5 -57.5q-96 0 -145 72q-21 32 -31.5 72.5t-10.5 82.5q0 228 187 228z" />
<glyph unicode="&#xf3;" d="M366 666l139 174h-127l-76 -174h64zM83.5 170.5q17.5 -55.5 51.5 -95.5q76 -89 215 -89q67 0 120.5 21.5t89.5 61.5q35 39 54 96t19 126q0 66 -17 121.5t-52 95.5q-74 89 -214 89q-135 0 -209.5 -82t-74.5 -224q0 -65 17.5 -120.5zM350 519q94 0 146 -72q42 -62 42 -156 q0 -112 -47.5 -169.5t-140.5 -57.5q-96 0 -145 72q-21 32 -31.5 72.5t-10.5 82.5q0 228 187 228z" />
<glyph unicode="&#xf4;" d="M250 641l100 127l94 -127h91l-157 213h-43l-167 -213h82zM83.5 170.5q17.5 -55.5 51.5 -95.5q76 -89 215 -89q67 0 120.5 21.5t89.5 61.5q35 39 54 96t19 126q0 66 -17 121.5t-52 95.5q-74 89 -214 89q-135 0 -209.5 -82t-74.5 -224q0 -65 17.5 -120.5zM350 519 q94 0 146 -72q42 -62 42 -156q0 -112 -47.5 -169.5t-140.5 -57.5q-96 0 -145 72q-21 32 -31.5 72.5t-10.5 82.5q0 228 187 228z" />
<glyph unicode="&#xf5;" d="M281 752q25 0 64 -22q21 -12 37 -18.5t34 -6.5q31 0 56 13t54 45l-41 51q-28 -28 -54 -28q-12 0 -22.5 4t-21 10t-16.5 9q-20 12 -36 18t-34 6q-27 0 -62.5 -17.5t-67.5 -52.5l44 -47q35 36 66 36zM83.5 170.5q17.5 -55.5 51.5 -95.5q76 -89 215 -89q67 0 120.5 21.5 t89.5 61.5q35 39 54 96t19 126q0 66 -17 121.5t-52 95.5q-74 89 -214 89q-135 0 -209.5 -82t-74.5 -224q0 -65 17.5 -120.5zM350 519q94 0 146 -72q42 -62 42 -156q0 -112 -47.5 -169.5t-140.5 -57.5q-96 0 -145 72q-21 32 -31.5 72.5t-10.5 82.5q0 228 187 228z" />
<glyph unicode="&#xf6;" d="M170 705q18 -19 48 -19q29 0 48 19t19 47q0 31 -19 50t-48 19q-30 0 -48 -19t-18 -50q0 -28 18 -47zM430 705q18 -19 47 -19q30 0 49.5 19t19.5 47q0 31 -19 50t-50 19q-29 0 -47 -19t-18 -50q0 -28 18 -47zM83.5 170.5q17.5 -55.5 51.5 -95.5q76 -89 215 -89 q67 0 120.5 21.5t89.5 61.5q35 39 54 96t19 126q0 66 -17 121.5t-52 95.5q-74 89 -214 89q-135 0 -209.5 -82t-74.5 -224q0 -65 17.5 -120.5zM350 519q94 0 146 -72q42 -62 42 -156q0 -112 -47.5 -169.5t-140.5 -57.5q-96 0 -145 72q-21 32 -31.5 72.5t-10.5 82.5 q0 228 187 228z" />
<glyph unicode="&#xf7;" d="M294 566.5q21 -21.5 56 -21.5q37 0 58 21.5t21 56.5q0 37 -20.5 57.5t-58.5 20.5q-36 0 -56.5 -20.5t-20.5 -57.5q0 -35 21 -56.5zM620 352v84h-541v-84h541zM294 129q21 -22 56 -22q37 0 58 21.5t21 56.5q0 38 -20.5 58.5t-58.5 20.5q-36 0 -56.5 -20.5t-20.5 -58.5 q0 -34 21 -56z" />
<glyph unicode="&#xf8;" d="M83.5 170.5q17.5 -55.5 51.5 -95.5q1 -1 5 -6l-30 -43l60 -43l28 39q8 -5 15 -8t11 -5q55 -23 126 -23q67 0 120.5 21.5t89.5 61.5q35 39 54 96t19 126q0 66 -17 121.5t-52 95.5l-9 11l28 38l-63 43l-27 -36q-3 2 -17 9q-52 24 -126 24q-135 0 -209.5 -82t-74.5 -224 q0 -65 17.5 -120.5zM350 519q51 0 86 -20q4 -1 8 -5l-247 -346q-16 28 -25 65t-9 78q0 228 187 228zM499 441q39 -59 39 -150q0 -112 -47.5 -169.5t-140.5 -57.5q-50 0 -88 20l-14 8z" />
<glyph unicode="&#xf9;" d="M173 840l138 -174h64l-75 174h-127zM498 505v-302q-25 -62 -70.5 -100.5t-103.5 -38.5q-41 0 -66 13.5t-39 40.5q-12 25 -16.5 60.5t-4.5 88.5v316h-169v-78h78v-257q0 -76 11.5 -126t36.5 -81q24 -30 61.5 -42.5t92.5 -12.5q67 0 118 30.5t84 82.5h4l4 -99h155v76h-78 q-7 49 -7 109v398h-166v-78h75z" />
<glyph unicode="&#xfa;" d="M319 666l139 174h-127l-76 -174h64zM498 505v-302q-25 -62 -70.5 -100.5t-103.5 -38.5q-41 0 -66 13.5t-39 40.5q-12 25 -16.5 60.5t-4.5 88.5v316h-169v-78h78v-257q0 -76 11.5 -126t36.5 -81q24 -30 61.5 -42.5t92.5 -12.5q67 0 118 30.5t84 82.5h4l4 -99h155v76h-78 q-7 49 -7 109v398h-166v-78h75z" />
<glyph unicode="&#xfb;" d="M243 641l100 127l94 -127h91l-157 213h-43l-167 -213h82zM498 505v-302q-25 -62 -70.5 -100.5t-103.5 -38.5q-41 0 -66 13.5t-39 40.5q-12 25 -16.5 60.5t-4.5 88.5v316h-169v-78h78v-257q0 -76 11.5 -126t36.5 -81q24 -30 61.5 -42.5t92.5 -12.5q67 0 118 30.5t84 82.5 h4l4 -99h155v76h-78q-7 49 -7 109v398h-166v-78h75z" />
<glyph unicode="&#xfc;" d="M164 705q18 -19 48 -19q29 0 48 19t19 47q0 31 -19 50t-48 19q-30 0 -48 -19t-18 -50q0 -28 18 -47zM424.5 705q18.5 -19 46.5 -19q30 0 49.5 19t19.5 47q0 31 -19 50t-50 19q-29 0 -47 -19t-18 -50q0 -28 18.5 -47zM498 505v-302q-25 -62 -70.5 -100.5t-103.5 -38.5 q-41 0 -66 13.5t-39 40.5q-12 25 -16.5 60.5t-4.5 88.5v316h-169v-78h78v-257q0 -76 11.5 -126t36.5 -81q24 -30 61.5 -42.5t92.5 -12.5q67 0 118 30.5t84 82.5h4l4 -99h155v76h-78q-7 49 -7 109v398h-166v-78h75z" />
<glyph unicode="&#xfd;" d="M382 666l139 174h-127l-76 -174h64zM54 583l244 -583h79q-31 -148 -119 -148q-14 0 -52 10q-32 8 -46 21l-33 -84q13 -13 51 -25q43 -13 66 -13q68 0 109 31q74 56 105 175q8 32 26 92l162 524h-94l-145 -493h-44l-204 493h-105z" />
<glyph unicode="&#xfe;" d="M202 -233v245q28 -12 64 -19q29 -7 78 -7q67 0 123.5 22t95.5 63q40 42 61.5 100.5t21.5 131.5q0 154 -62 224t-189 70q-65 0 -114 -27t-79 -69v315h-178v-76h88v-973h90zM508.5 459q40.5 -53 40.5 -155q0 -116 -55 -178t-150 -62q-50 0 -82 9t-60 28v266q3 26 18 51.5 t40 46.5q24 22 55 34.5t65 12.5q88 0 128.5 -53z" />
<glyph unicode="&#xff;" d="M181.5 705q18.5 -19 48.5 -19q28 0 47 19t19 47q0 31 -18.5 50t-47.5 19q-31 0 -49 -19t-18 -50q0 -28 18.5 -47zM441.5 705q18.5 -19 47.5 -19q30 0 49 19t19 47q0 31 -19 50t-49 19q-29 0 -47.5 -19t-18.5 -50q0 -28 18.5 -47zM54 583l244 -583h79q-31 -148 -119 -148 q-14 0 -52 10q-32 8 -46 21l-33 -84q13 -13 51 -25q43 -13 66 -13q68 0 109 31q74 56 105 175q8 32 26 92l162 524h-94l-145 -493h-44l-204 493h-105z" />
<glyph unicode="&#x100;" d="M533 911v72h-369v-72h369zM681 0l-275 816h-115l-272 -816h95l75 226h314l77 -226h101zM356 694l120 -384h-257l123 384h14z" />
<glyph unicode="&#x101;" d="M539 677v73h-345v-73h345zM249 502q45 12 91 12q40 0 66 -9t41 -29q19 -29 19 -90q0 -24 -3 -56q-66 10 -126 10q-91 0 -148 -25q-102 -44 -102 -160q0 -77 50 -121t137 -44q77 0 133 39q36 25 57 58h6l10 -87h155v76h-78q-6 43 -6 111q0 52 3 100q2 68 2 94 q0 94 -36 145q-48 66 -157 66q-65 0 -127.5 -13.5t-109.5 -40.5l29 -68q49 20 94 32zM211 94.5q-28 26.5 -28 68.5q0 39 21 61q41 45 147 45q53 0 112 -10v-82q-16 -40 -56 -72q-22 -17 -50.5 -27t-59.5 -10q-58 0 -86 26.5z" />
<glyph unicode="&#x102;" d="M231 880q58 -29 123 -29q69 0 125 35t81 99l-55 31q-17 -36 -56.5 -59.5t-92.5 -23.5q-55 0 -96 21.5t-61 61.5l-59 -37q29 -67 91 -99zM681 0l-275 816h-115l-272 -816h95l75 226h314l77 -226h101zM356 694l120 -384h-257l123 384h14z" />
<glyph unicode="&#x103;" d="M255 708q49 -40 115 -40q33 0 64 12.5t55 34.5q23 21 37 48.5t17 55.5l-49 21q-19 -43 -51.5 -66.5t-71.5 -23.5q-40 0 -75 24t-56 66l-52 -27q14 -63 67 -105zM249 502q45 12 91 12q40 0 66 -9t41 -29q19 -29 19 -90q0 -24 -3 -56q-66 10 -126 10q-91 0 -148 -25 q-102 -44 -102 -160q0 -77 50 -121t137 -44q77 0 133 39q36 25 57 58h6l10 -87h155v76h-78q-6 43 -6 111q0 52 3 100q2 68 2 94q0 94 -36 145q-48 66 -157 66q-65 0 -127.5 -13.5t-109.5 -40.5l29 -68q49 20 94 32zM211 94.5q-28 26.5 -28 68.5q0 39 21 61q41 45 147 45 q53 0 112 -10v-82q-16 -40 -56 -72q-22 -17 -50.5 -27t-59.5 -10q-58 0 -86 26.5z" />
<glyph unicode="&#x104;" d="M486 -124q0 -48 31.5 -75.5t84.5 -27.5q26 0 55 7.5t45 20.5l-13 50q-24 -12 -47 -12q-27 0 -43 17.5t-16 42.5q0 62 64 101h34l-275 816h-115l-272 -816h95l75 226h314l75 -225q-92 -45 -92 -125zM356 694l120 -384h-257l123 384h14z" />
<glyph unicode="&#x105;" d="M249 502q45 12 91 12q40 0 66 -9t41 -29q19 -29 19 -90q0 -24 -3 -56q-66 10 -126 10q-91 0 -148 -25q-102 -44 -102 -160q0 -77 50 -121t137 -44q77 0 133 39q36 25 57 58h6l10 -87h61q-91 -44 -91 -124q0 -48 31.5 -75.5t84.5 -27.5q26 0 54.5 7.5t45.5 20.5l-13 50 q-24 -12 -47 -12q-27 0 -43 17.5t-16 42.5q0 62 64 101h24v76h-78q-6 43 -6 111q0 52 3 100q2 68 2 94q0 94 -36 145q-48 66 -157 66q-65 0 -127.5 -13.5t-109.5 -40.5l29 -68q49 20 94 32zM211 94.5q-28 26.5 -28 68.5q0 39 21 61q41 45 147 45q53 0 112 -10v-82 q-16 -40 -56 -72q-22 -17 -50.5 -27t-59.5 -10q-58 0 -86 26.5z" />
<glyph unicode="&#x106;" d="M422 877l190 113v24h-133l-137 -137h80zM620 603v184h-1q-40 25 -72 33q-41 10 -120 10q-156 0 -247 -97q-104 -107 -104 -325q0 -212 95 -321q45 -50 107.5 -75.5t136.5 -25.5q139 0 219 63l-1 2v158h-86v-117q-45 -20 -105 -20t-108.5 21t-81.5 63q-74 88 -74 252 q0 174 80 261q33 38 78.5 56.5t96.5 18.5q58 0 101 -16v-125h86z" />
<glyph unicode="&#x107;" d="M382 666l139 174h-127l-76 -174h64zM596 382v163l1 3q-45 22 -99.5 35.5t-132.5 13.5q-67 0 -122 -20t-94 -59q-79 -81 -79 -227q0 -138 78 -221q79 -84 230 -84q84 0 156 30q57 25 97 57l-41 68q-36 -31 -87.5 -49.5t-106.5 -18.5q-102 0 -166 59q-63 57 -63 159 q0 116 55 170t171 54q58 0 119 -22v-111h84z" />
<glyph unicode="&#x108;" d="M303 872l97 76l90 -76h115l-169 144h-70l-181 -144h118zM620 603v184h-1q-40 25 -72 33q-41 10 -120 10q-156 0 -247 -97q-104 -107 -104 -325q0 -212 95 -321q45 -50 107.5 -75.5t136.5 -25.5q139 0 219 63l-1 2v158h-86v-117q-45 -20 -105 -20t-108.5 21t-81.5 63 q-74 88 -74 252q0 174 80 261q33 38 78.5 56.5t96.5 18.5q58 0 101 -16v-125h86z" />
<glyph unicode="&#x109;" d="M238 641l100 127l95 -127h91l-158 213h-43l-167 -213h82zM596 382v163l1 3q-45 22 -99.5 35.5t-132.5 13.5q-67 0 -122 -20t-94 -59q-79 -81 -79 -227q0 -138 78 -221q79 -84 230 -84q84 0 156 30q57 25 97 57l-41 68q-36 -31 -87.5 -49.5t-106.5 -18.5q-102 0 -166 59 q-63 57 -63 159q0 116 55 170t171 54q58 0 119 -22v-111h84z" />
<glyph unicode="&#x10c;" d="M503 1014l-95 -78l-90 78h-121l174 -144h67l173 144h-108zM620 603v184h-1q-40 25 -72 33q-41 10 -120 10q-156 0 -247 -97q-104 -107 -104 -325q0 -212 95 -321q45 -50 107.5 -75.5t136.5 -25.5q139 0 219 63l-1 2v158h-86v-117q-45 -20 -105 -20t-108.5 21t-81.5 63 q-74 88 -74 252q0 174 80 261q33 38 78.5 56.5t96.5 18.5q58 0 101 -16v-125h86z" />
<glyph unicode="&#x10d;" d="M450 854l-100 -128l-95 128h-91l158 -213h43l167 213h-82zM596 382v163l1 3q-45 22 -99.5 35.5t-132.5 13.5q-67 0 -122 -20t-94 -59q-79 -81 -79 -227q0 -138 78 -221q79 -84 230 -84q84 0 156 30q57 25 97 57l-41 68q-36 -31 -87.5 -49.5t-106.5 -18.5q-102 0 -166 59 q-63 57 -63 159q0 116 55 170t171 54q58 0 119 -22v-111h84z" />
<glyph unicode="&#x10e;" d="M416 1014l-94 -78l-90 78h-121l174 -144h67l173 144h-109zM128 -5l49 -2q51 -3 90 -3q204 0 299 130q78 107 78 294q0 195 -82 297q-91 115 -294 115q-100 0 -175 -10v-817zM494 633q47 -77 47 -219q0 -151 -50 -234q-64 -104 -220 -104q-11 0 -18 1q-15 0 -23 1 q-24 0 -40 2v653q26 6 83 6q156 0 221 -106z" />
<glyph unicode="&#x10f;" d="M505 738v-165q-25 6 -32 9l-31 6q-29 4 -79 4q-68 0 -123 -19.5t-93 -57.5q-82 -79 -82 -225q0 -156 62.5 -230t194.5 -74q64 0 115.5 29t77.5 75h5l12 -90h155v76h-78q-3 12 -5.5 33t-3.5 31q-4 46 -4 59v617h-189v-78h98zM680.5 708.5q-10.5 -53.5 -29.5 -94.5l38 -21 q11 11 26.5 34.5t29.5 53.5q35 75 40 135h-94q0 -54 -10.5 -107.5zM201 129q-39 57 -39 161q0 114 52.5 169.5t148.5 55.5q52 0 84 -7.5t58 -25.5v-271q-15 -74 -56.5 -110.5t-111.5 -36.5q-94 0 -136 65z" />
<glyph unicode="&#x110;" d="M115 387v-388l38 -4l53 -2q59 -3 104 -3q102 0 174.5 34t117.5 96q77 107 77 294q0 194 -80 297q-90 115 -277 115q-132 0 -207 -10v-359h-105v-70h105zM531 633q45 -77 45 -219q0 -151 -49 -234q-63 -104 -215 -104q-10 0 -19 1q-20 0 -31 1q-34 0 -50 2v307h160v70 h-160v276q26 6 112 6q142 0 207 -106z" />
<glyph unicode="&#x111;" d="M603.5 109q-2.5 21 -3.5 31q-4 46 -4 59v468h87v70h-87v79h-91v-79h-193v-70h193v-94q-25 6 -32 9l-31 6q-29 4 -79 4q-68 0 -123 -19.5t-93 -57.5q-82 -79 -82 -225q0 -156 62.5 -230t194.5 -74q64 0 115.5 29t77.5 75h5l12 -90h155v76h-78q-3 12 -5.5 33zM201 129 q-39 57 -39 161q0 114 52.5 169.5t148.5 55.5q52 0 84 -7.5t58 -25.5v-271q-15 -74 -56.5 -110.5t-111.5 -36.5q-94 0 -136 65z" />
<glyph unicode="&#x112;" d="M545 911v72h-369v-72h369zM610 0v86h-388v291h353v86h-353v267h382v86h-479v-816h485z" />
<glyph unicode="&#x113;" d="M535 677v73h-345v-73h345zM546.5 116q-22.5 -13 -48.5 -23q-66 -25 -121 -25q-97 0 -152.5 53t-55.5 155h451q1 15 1 42q0 150 -71 218q-64 61 -182 61q-67 0 -122 -20.5t-93 -58.5q-80 -80 -80 -227q0 -138 74 -221q75 -84 213 -84q71 0 145 24q66 23 112 63l-36 67 q-12 -11 -34.5 -24zM485.5 477.5q43.5 -42.5 49.5 -119.5h-362q7 84 65 127q47 35 133 35q71 0 114.5 -42.5z" />
<glyph unicode="&#x116;" d="M310 877.5q21 -19.5 58 -19.5t59.5 19.5t22.5 49.5q0 28 -22.5 47t-59.5 19q-36 0 -57.5 -19t-21.5 -47q0 -30 21 -49.5zM610 0v86h-388v291h353v86h-353v267h382v86h-479v-816h485z" />
<glyph unicode="&#x117;" d="M316 697q21 -21 54 -21q34 0 56.5 21t22.5 52q0 32 -23 54.5t-56 22.5q-32 0 -53.5 -22.5t-21.5 -54.5q0 -31 21 -52zM546.5 116q-22.5 -13 -48.5 -23q-66 -25 -121 -25q-97 0 -152.5 53t-55.5 155h451q1 15 1 42q0 150 -71 218q-64 61 -182 61q-67 0 -122 -20.5 t-93 -58.5q-80 -80 -80 -227q0 -138 74 -221q75 -84 213 -84q71 0 145 24q66 23 112 63l-36 67q-12 -11 -34.5 -24zM485.5 477.5q43.5 -42.5 49.5 -119.5h-362q7 84 65 127q47 35 133 35q71 0 114.5 -42.5z" />
<glyph unicode="&#x118;" d="M517 0q-91 -44 -91 -124q0 -48 31 -75.5t84 -27.5q27 0 55.5 7.5t44.5 20.5l-13 50q-24 -12 -46 -12q-28 0 -44 17.5t-16 42.5q0 61 64 101h24v86h-388v291h353v86h-353v267h382v86h-479v-816h392z" />
<glyph unicode="&#x119;" d="M546.5 116q-22.5 -13 -48.5 -23q-66 -25 -121 -25q-97 0 -152.5 53t-55.5 155h451q1 15 1 42q0 150 -71 218q-64 61 -182 61q-67 0 -122 -20.5t-93 -58.5q-80 -80 -80 -227q0 -138 74 -221q75 -84 213 -84q17 0 25 1q-20 -12 -35 -29q-32 -34 -32 -82t31.5 -75.5 t84.5 -27.5q26 0 55 7.5t45 20.5l-13 50q-24 -12 -46 -12q-28 0 -44 17.5t-16 42.5q0 66 72 106q6 1 18 5q66 23 112 63l-36 67q-12 -11 -34.5 -24zM485.5 477.5q43.5 -42.5 49.5 -119.5h-362q7 84 65 127q47 35 133 35q71 0 114.5 -42.5z" />
<glyph unicode="&#x11a;" d="M456 1014l-95 -78l-89 78h-122l174 -144h68l172 144h-108zM610 0v86h-388v291h353v86h-353v267h382v86h-479v-816h485z" />
<glyph unicode="&#x11b;" d="M464 854l-100 -128l-95 128h-91l158 -213h43l167 213h-82zM546.5 116q-22.5 -13 -48.5 -23q-66 -25 -121 -25q-97 0 -152.5 53t-55.5 155h451q1 15 1 42q0 150 -71 218q-64 61 -182 61q-67 0 -122 -20.5t-93 -58.5q-80 -80 -80 -227q0 -138 74 -221q75 -84 213 -84 q71 0 145 24q66 23 112 63l-36 67q-12 -11 -34.5 -24zM485.5 477.5q43.5 -42.5 49.5 -119.5h-362q7 84 65 127q47 35 133 35q71 0 114.5 -42.5z" />
<glyph unicode="&#x11c;" d="M296 872l97 76l90 -76h115l-169 144h-70l-181 -144h118zM596 603v195l1 4q-65 28 -192 28q-69 0 -130 -24t-107 -73q-50 -52 -78 -134t-28 -191q0 -213 90 -319q84 -103 244 -103q63 0 125 16q64 18 100 46v359h-250v-78h168v-228q-53 -29 -127 -29q-248 0 -248 336 q0 176 76 262q64 74 173 74q61 0 97 -8v-133h86z" />
<glyph unicode="&#x11d;" d="M264 641l100 127l94 -127h91l-157 213h-43l-167 -213h82zM513.5 583q-50.5 9 -118.5 9q-156 0 -235.5 -76t-79.5 -226q0 -156 62.5 -230t195.5 -74q65 0 107 20t70 60h5v-65q0 -46 -9.5 -77t-30.5 -51t-55 -29.5t-86 -9.5q-49 0 -96 18q-45 13 -67 34l-44 -83 q86 -50 208 -50q121 0 193 53q78 59 78 165v586q-47 17 -97.5 26zM216 128q-40 59 -40 163q0 111 52.5 167t148.5 56q92 0 143 -24v-277q-17 -76 -58 -112.5t-111 -36.5q-93 0 -135 64z" />
<glyph unicode="&#x11e;" d="M265 880q58 -29 123 -29q69 0 125 35t80 99l-54 31q-17 -36 -56.5 -59.5t-93.5 -23.5q-55 0 -95.5 21.5t-60.5 61.5l-59 -37q29 -67 91 -99zM596 603v195l1 4q-65 28 -192 28q-69 0 -130 -24t-107 -73q-50 -52 -78 -134t-28 -191q0 -213 90 -319q84 -103 244 -103 q63 0 125 16q64 18 100 46v359h-250v-78h168v-228q-53 -29 -127 -29q-248 0 -248 336q0 176 76 262q64 74 173 74q61 0 97 -8v-133h86z" />
<glyph unicode="&#x11f;" d="M252 708q48 -40 114 -40q34 0 65 12.5t54 34.5q22 21 36.5 48t18.5 56l-49 21q-20 -44 -52 -67t-72 -23q-39 0 -74 24t-56 66l-53 -27q16 -65 68 -105zM513.5 583q-50.5 9 -118.5 9q-156 0 -235.5 -76t-79.5 -226q0 -156 62.5 -230t195.5 -74q65 0 107 20t70 60h5v-65 q0 -46 -9.5 -77t-30.5 -51t-55 -29.5t-86 -9.5q-49 0 -96 18q-45 13 -67 34l-44 -83q86 -50 208 -50q121 0 193 53q78 59 78 165v586q-47 17 -97.5 26zM216 128q-40 59 -40 163q0 111 52.5 167t148.5 56q92 0 143 -24v-277q-17 -76 -58 -112.5t-111 -36.5q-93 0 -135 64z " />
<glyph unicode="&#x122;" d="M596 603v195l1 4q-65 28 -192 28q-69 0 -130 -24t-107 -73q-50 -52 -78 -134t-28 -191q0 -213 90 -319q84 -103 244 -103q63 0 125 16q64 18 100 46v359h-250v-78h168v-228q-53 -29 -127 -29q-248 0 -248 336q0 176 76 262q64 74 173 74q61 0 97 -8v-133h86zM341 -143 q13 -14 34 -14q9 0 12 1q0 -51 -51 -81l32 -37q33 13 59 42q35 43 35 92q0 44 -21.5 66t-53.5 22q-24 0 -41.5 -16t-17.5 -39q0 -22 13 -36z" />
<glyph unicode="&#x123;" d="M422.5 734.5q-13.5 14.5 -34.5 14.5q-8 0 -11 -2q0 52 51 81l-33 37q-35 -14 -57 -41q-36 -41 -36 -93q0 -44 21.5 -65.5t53.5 -21.5q24 0 41.5 15.5t17.5 38.5q0 22 -13.5 36.5zM513.5 583q-50.5 9 -118.5 9q-156 0 -235.5 -76t-79.5 -226q0 -156 62.5 -230t195.5 -74 q65 0 107 20t70 60h5v-65q0 -46 -9.5 -77t-30.5 -51t-55 -29.5t-86 -9.5q-49 0 -96 18q-45 13 -67 34l-44 -83q86 -50 208 -50q121 0 193 53q78 59 78 165v586q-47 17 -97.5 26zM216 128q-40 59 -40 163q0 111 52.5 167t148.5 56q92 0 143 -24v-277q-17 -76 -58 -112.5 t-111 -36.5q-93 0 -135 64z" />
<glyph unicode="&#x124;" d="M254 872l97 76l90 -76h115l-169 144h-70l-181 -144h118zM630 0v816h-97v-355h-366v355h-97v-816h97v374h366v-374h97z" />
<glyph unicode="&#x125;" d="M76 872l97 76l89 -76h116l-169 144h-70l-181 -144h118zM97 738v-738h90v371q7 31 25 59t43 48t55.5 30.5t61.5 10.5q85 0 121 -50q16 -24 22 -60.5t6 -90.5v-318h91v336q0 78 -12.5 129t-38.5 80q-25 28 -66.5 40t-99.5 12q-68 0 -117 -21.5t-86 -64.5h-5v305h-182v-78 h92z" />
<glyph unicode="&#x126;" d="M104 610v-610h97v374h298v-374h97v610h92v74h-92v132h-97v-132h-298v132h-97v-132h-92v-74h92zM201 610h298v-149h-298v149z" />
<glyph unicode="&#x127;" d="M97 667v-667h90v371q7 31 25 59t43 48t55.5 30.5t61.5 10.5q85 0 121 -50q16 -24 22 -60.5t6 -90.5v-318h91v336q0 78 -12.5 129t-38.5 80q-25 28 -66.5 40t-99.5 12q-68 0 -117 -21.5t-86 -64.5h-5v156h190v70h-190v79h-90v-79h-94v-70h94z" />
<glyph unicode="&#x12a;" d="M534 911v72h-368v-72h368zM301 730v-644h-231v-86h560v86h-232v644h232v86h-560v-86h231z" />
<glyph unicode="&#x12b;" d="M522 677v73h-345v-73h345zM617 78h-198v505h-297v-78h203v-427h-203v-78h495v78z" />
<glyph unicode="&#x12e;" d="M301 730v-644h-231v-86h402q-91 -44 -91 -124q0 -48 31.5 -75.5t84.5 -27.5q26 0 55 7.5t45 20.5l-13 50q-24 -12 -46 -12q-28 0 -44 17.5t-16 42.5q0 61 64 101h88v86h-232v644h232v86h-560v-86h231z" />
<glyph unicode="&#x12f;" d="M315 697q21 -21 53 -21q34 0 57 21t23 52q0 32 -23 54.5t-57 22.5q-32 0 -53 -22.5t-21 -54.5q0 -31 21 -52zM370 -124q0 -48 31 -75.5t84 -27.5q27 0 55.5 7.5t44.5 20.5l-12 50q-25 -12 -47 -12q-28 0 -44 17.5t-16 42.5q0 62 65 101h86v78h-198v505h-297v-78h203v-427 h-203v-78h339q-91 -44 -91 -124z" />
<glyph unicode="&#x130;" d="M292 877.5q21 -19.5 58 -19.5t59 19.5t22 49.5q0 28 -22.5 47t-58.5 19t-57.5 -19t-21.5 -47q0 -30 21 -49.5zM301 730v-644h-231v-86h560v86h-232v644h232v86h-560v-86h231z" />
<glyph unicode="&#x131;" d="M617 78h-198v505h-297v-78h203v-427h-203v-78h495v78z" />
<glyph unicode="&#x134;" d="M266 872l97 76l89 -76h116l-169 144h-70l-181 -144h118zM478 730v-423q0 -121 -44 -176.5t-133 -55.5q-51 0 -97 21q-29 12 -64 35l-42 -77q23 -25 78 -44q63 -22 127 -22q132 0 202 77t70 224v527h-462v-86h365z" />
<glyph unicode="&#x135;" d="M254 641l100 127l95 -127h91l-158 213h-43l-166 -213h81zM417 -119q-31 -42 -99 -42q-40 0 -80 16t-75 42l-38 -75q31 -24 73 -41q63 -28 117 -28q108 0 167 58.5t59 174.5v597h-375v-78h282v-502q0 -80 -31 -122z" />
<glyph unicode="&#x136;" d="M694 0l-324 428l288 388h-112l-263 -364h-87v364h-97v-816h97v378h90l285 -378h123zM285 -143q13 -14 34 -14q9 0 12 1q0 -51 -51 -81l32 -37q33 13 59 42q35 43 35 92q0 44 -21.5 66t-53.5 22q-24 0 -41.5 -16t-17.5 -39q0 -22 13 -36z" />
<glyph unicode="&#x137;" d="M127 738v-738h90v264h64l250 -264h120v78h-76l-212 229l257 276h-109l-230 -250h-64v483h-189v-78h99zM287.5 -143q13.5 -14 34.5 -14q8 0 11 1q0 -52 -51 -81l33 -37q33 13 58 42q35 41 35 92q0 44 -21.5 66t-53.5 22q-24 0 -41.5 -16t-17.5 -39q0 -22 13.5 -36z" />
<glyph unicode="&#x139;" d="M265 877l190 113v24h-133l-138 -137h81zM618 0v289h-86v-203h-330v730h-97v-816h513z" />
<glyph unicode="&#x13a;" d="M335 877l190 113v24h-133l-138 -137h81zM241 738v-542q0 -113 47 -165q43 -46 133 -46q38 0 90 18q55 21 86 51l-42 64q-35 -28 -65 -40t-63 -12q-48 0 -71.5 30.5t-23.5 99.5v620h-193v-78h102z" />
<glyph unicode="&#x13b;" d="M618 0v289h-86v-203h-330v730h-97v-816h513zM289.5 -143q13.5 -14 34.5 -14q8 0 12 1q0 -51 -51 -81l32 -37q35 14 58 42q35 41 35 92q0 44 -21.5 66t-52.5 22q-25 0 -42.5 -15.5t-17.5 -39.5q0 -22 13.5 -36z" />
<glyph unicode="&#x13c;" d="M241 738v-542q0 -113 47 -165q43 -46 133 -46q38 0 90 18q55 21 86 51l-42 64q-35 -28 -65 -40t-63 -12q-48 0 -71.5 30.5t-23.5 99.5v620h-193v-78h102zM357.5 -143q13.5 -14 34.5 -14q8 0 11 1q0 -52 -51 -81l33 -37q33 13 58 42q35 41 35 92q0 44 -21.5 66t-53.5 22 q-24 0 -41.5 -16t-17.5 -39q0 -22 13.5 -36z" />
<glyph unicode="&#x13d;" d="M618 0v289h-86v-203h-330v730h-97v-816h513zM447.5 708.5q-10.5 -53.5 -30.5 -94.5l39 -21q11 11 26.5 34.5t29.5 53.5q35 75 40 135h-94q0 -54 -10.5 -107.5z" />
<glyph unicode="&#x13e;" d="M241 738v-542q0 -113 47 -165q43 -46 133 -46q38 0 90 18q55 21 86 51l-42 64q-35 -28 -65 -40t-63 -12q-48 0 -71.5 30.5t-23.5 99.5v620h-193v-78h102zM443.5 708.5q-10.5 -53.5 -30.5 -94.5l38 -21q11 11 26.5 34.5t29.5 53.5q35 75 40 135h-93q0 -54 -10.5 -107.5z " />
<glyph unicode="&#x141;" d="M105 310v-310h513v289h-86v-203h-330v299l122 94v94l-122 -97v340h-97v-416l-84 -65v-89z" />
<glyph unicode="&#x142;" d="M241 738v-352l-115 -91v-89l115 90v-100q0 -113 47 -165q43 -46 133 -46q38 0 90 18q55 21 86 51l-42 64q-35 -28 -65 -40t-63 -12q-48 0 -71.5 30.5t-23.5 99.5v170l172 134v93l-172 -136v359h-193v-78h102z" />
<glyph unicode="&#x143;" d="M374 877l190 113v24h-133l-137 -137h80zM618 0v816h-91v-508l13 -112h-6l-61 112l-328 508h-63v-816h91v511l-12 117h5l63 -117l326 -511h63z" />
<glyph unicode="&#x144;" d="M352 666l139 174h-127l-76 -174h64zM198 0v366q17 60 67 102q52 44 110 44q81 0 113.5 -47t32.5 -148v-317h91v335q0 149 -55 210q-27 28 -67.5 40t-96.5 12q-69 0 -124 -34q-51 -32 -75 -74h-6l-11 94h-156v-76h78q5 -22 7 -65l2 -63v-379h90z" />
<glyph unicode="&#x145;" d="M618 0v816h-91v-508l13 -112h-6l-61 112l-328 508h-63v-816h91v511l-12 117h5l63 -117l326 -511h63zM295.5 -143q13.5 -14 34.5 -14q8 0 12 1q0 -52 -52 -81l33 -37q33 13 58 42q35 41 35 92q0 44 -21.5 66t-52.5 22q-25 0 -42.5 -15.5t-17.5 -39.5q0 -22 13.5 -36z" />
<glyph unicode="&#x146;" d="M198 0v366q17 60 67 102q52 44 110 44q81 0 113.5 -47t32.5 -148v-317h91v335q0 149 -55 210q-27 28 -67.5 40t-96.5 12q-69 0 -124 -34q-51 -32 -75 -74h-6l-11 94h-156v-76h78q5 -22 7 -65l2 -63v-379h90zM307.5 -143q13.5 -14 34.5 -14q8 0 11 1q0 -51 -51 -81l33 -37 q33 13 58 42q35 41 35 92q0 44 -21.5 66t-53.5 22q-24 0 -41.5 -16t-17.5 -39q0 -22 13.5 -36z" />
<glyph unicode="&#x147;" d="M445 1014l-94 -78l-90 78h-121l174 -144h67l173 144h-109zM618 0v816h-91v-508l13 -112h-6l-61 112l-328 508h-63v-816h91v511l-12 117h5l63 -117l326 -511h63z" />
<glyph unicode="&#x148;" d="M464 854l-100 -128l-95 128h-91l158 -213h43l167 213h-82zM198 0v366q17 60 67 102q52 44 110 44q81 0 113.5 -47t32.5 -148v-317h91v335q0 149 -55 210q-27 28 -67.5 40t-96.5 12q-69 0 -124 -34q-51 -32 -75 -74h-6l-11 94h-156v-76h78q5 -22 7 -65l2 -63v-379h90z" />
<glyph unicode="&#x14c;" d="M541 911v72h-368v-72h368zM121 103q73 -117 228 -117q148 0 221.5 108t73.5 314q0 202 -66 307q-72 115 -229 115q-148 0 -220.5 -108t-72.5 -314q0 -202 65 -305zM204.5 662.5q45.5 81.5 144.5 81.5q104 0 152 -100q40 -83 40 -236q0 -173 -46 -254.5t-146 -81.5 q-103 0 -151 102q-39 81 -39 234q0 173 45.5 254.5z" />
<glyph unicode="&#x14d;" d="M522 677v73h-345v-73h345zM83.5 170.5q17.5 -55.5 51.5 -95.5q76 -89 215 -89q67 0 120.5 21.5t89.5 61.5q35 39 54 96t19 126q0 66 -17 121.5t-52 95.5q-74 89 -214 89q-135 0 -209.5 -82t-74.5 -224q0 -65 17.5 -120.5zM350 519q94 0 146 -72q42 -62 42 -156 q0 -112 -47.5 -169.5t-140.5 -57.5q-96 0 -145 72q-21 32 -31.5 72.5t-10.5 82.5q0 228 187 228z" />
<glyph unicode="&#x150;" d="M300 864l116 108v19h-108l-75 -127h67zM445 864l167 108v19h-115l-119 -127h67zM121 103q73 -117 228 -117q148 0 221.5 108t73.5 314q0 202 -66 307q-72 115 -229 115q-148 0 -220.5 -108t-72.5 -314q0 -202 65 -305zM204.5 662.5q45.5 81.5 144.5 81.5q104 0 152 -100 q40 -83 40 -236q0 -173 -46 -254.5t-146 -81.5q-103 0 -151 102q-39 81 -39 234q0 173 45.5 254.5z" />
<glyph unicode="&#x151;" d="M291 666l93 174h-101l-40 -174h48zM421 666l153 174h-120l-86 -174h53zM83.5 170.5q17.5 -55.5 51.5 -95.5q76 -89 215 -89q67 0 120.5 21.5t89.5 61.5q35 39 54 96t19 126q0 66 -17 121.5t-52 95.5q-74 89 -214 89q-135 0 -209.5 -82t-74.5 -224q0 -65 17.5 -120.5z M350 519q94 0 146 -72q42 -62 42 -156q0 -112 -47.5 -169.5t-140.5 -57.5q-96 0 -145 72q-21 32 -31.5 72.5t-10.5 82.5q0 228 187 228z" />
<glyph unicode="&#x152;" d="M673 87h-214v288h190v88h-190v266h210v87h-303q-25 7 -47.5 10.5t-53.5 3.5q-112 0 -172 -108.5t-60 -313.5q0 -200 57 -308q59 -114 175 -114q59 0 101 14h307v87zM320 74.5q-21 -3.5 -48 -3.5q-75 0 -111 100q-33 88 -33 237q0 173 35 255q36 82 103 82q62 0 100 -24 v-631q-25 -12 -46 -15.5z" />
<glyph unicode="&#x153;" d="M413.5 12q34.5 -26 82.5 -26q40 0 79 13.5t62 37.5l-28 64q-14 -16 -40.5 -27t-51.5 -11q-61 0 -88 53.5t-28 159.5h241q6 43 6 108q0 118 -50 173q-36 40 -105 40q-46 0 -79 -25.5t-53 -68.5q-37 94 -131 94q-85 0 -132.5 -79t-47.5 -227q0 -153 45.5 -229t133.5 -76 q46 0 79 23t53 73q18 -44 52.5 -70zM569 347h-167q9 173 91 173q76 0 76 -173zM160 464q24 55 70 55q47 0 70 -68q17 -59 17 -160q0 -114 -20 -171q-21 -56 -67 -56q-25 0 -43.5 18.5t-29.5 50.5q-22 60 -22 158q0 119 25 173z" />
<glyph unicode="&#x154;" d="M333 877l191 113v24h-133l-138 -137h80zM213 0v359h146l193 -359h113l-216 387q19 8 43.5 25.5t46.5 41.5q53 62 53 146q0 116 -80 175q-68 51 -188 51q-49 0 -106 -5t-101 -13v-808h96zM446 701.5q44 -40.5 44 -104.5q0 -81 -50.5 -122t-135.5 -41h-91v301l23 3 q9 1 27 2.5t32 1.5h31q76 0 120 -40.5z" />
<glyph unicode="&#x155;" d="M379 666l139 174h-127l-76 -174h64zM548 78h-224v344q18 28 60 56q50 36 115 36q38 0 54 -35q14 -36 14 -109l81 1q0 58 -4.5 97.5t-17.5 66.5q-15 30 -39 45t-62 15q-62 0 -111 -23.5t-95 -64.5h-5l-19 76h-218v-78h157v-427h-157v-78h471v78z" />
<glyph unicode="&#x156;" d="M213 0v359h146l193 -359h113l-216 387q19 8 43.5 25.5t46.5 41.5q53 62 53 146q0 116 -80 175q-68 51 -188 51q-49 0 -106 -5t-101 -13v-808h96zM446 701.5q44 -40.5 44 -104.5q0 -81 -50.5 -122t-135.5 -41h-91v301l23 3q9 1 27 2.5t32 1.5h31q76 0 120 -40.5z M309.5 -143q13.5 -14 34.5 -14q8 0 12 1q0 -52 -52 -81l33 -37q33 13 58 42q35 41 35 92q0 44 -21.5 66t-52.5 22q-25 0 -42.5 -15.5t-17.5 -39.5q0 -22 13.5 -36z" />
<glyph unicode="&#x157;" d="M548 78h-224v344q18 28 60 56q50 36 115 36q38 0 54 -35q14 -36 14 -109l81 1q0 58 -4.5 97.5t-17.5 66.5q-15 30 -39 45t-62 15q-62 0 -111 -23.5t-95 -64.5h-5l-19 76h-218v-78h157v-427h-157v-78h471v78zM281.5 -143q13.5 -14 34.5 -14q8 0 12 1q0 -52 -52 -81l33 -37 q33 13 58 42q35 41 35 92q0 44 -21.5 66t-52.5 22q-25 0 -42.5 -15.5t-17.5 -39.5q0 -22 13.5 -36z" />
<glyph unicode="&#x158;" d="M406 1014l-95 -78l-89 78h-122l174 -144h68l172 144h-108zM213 0v359h146l193 -359h113l-216 387q19 8 43.5 25.5t46.5 41.5q53 62 53 146q0 116 -80 175q-68 51 -188 51q-49 0 -106 -5t-101 -13v-808h96zM446 701.5q44 -40.5 44 -104.5q0 -81 -50.5 -122t-135.5 -41h-91 v301l23 3q9 1 27 2.5t32 1.5h31q76 0 120 -40.5z" />
<glyph unicode="&#x159;" d="M469 854l-101 -128l-94 128h-91l157 -213h44l166 213h-81zM548 78h-224v344q18 28 60 56q50 36 115 36q38 0 54 -35q14 -36 14 -109l81 1q0 58 -4.5 97.5t-17.5 66.5q-15 30 -39 45t-62 15q-62 0 -111 -23.5t-95 -64.5h-5l-19 76h-218v-78h157v-427h-157v-78h471v78z" />
<glyph unicode="&#x15a;" d="M381 877l190 113v24h-133l-137 -137h80zM89 245v-189l-2 -4q53 -26 102 -42q81 -24 156 -24q133 0 205 63q74 65 74 167q0 63 -32 107q-57 75 -184 128q-42 17 -104 48q-54 27 -83 57t-29 72q0 24 12 45t34 37q45 34 121 34q70 0 139 -16v-125h86v186l1 4h-1v2l-2 -1 q-35 17 -92 26.5t-126 9.5q-122 0 -195 -56t-73 -151q0 -69 32 -111q56 -77 183 -127q48 -19 104 -46q54 -26 83 -56.5t29 -74.5q0 -67 -54 -103q-47 -33 -131 -33q-83 0 -167 43v130h-86z" />
<glyph unicode="&#x15b;" d="M343 666l139 174h-128l-75 -174h64zM499 114.5q-12 -18.5 -34 -29.5q-41 -22 -107 -22q-63 0 -125 26q-27 11 -50.5 25.5t-37.5 28.5l-47 -75q38 -33 104 -56q75 -26 145 -26q124 0 189.5 51t65.5 134q0 54 -29 86q-53 56 -166 79q-48 8 -95 21q-49 12 -75 28.5t-26 44.5 q0 46 46 69q39 21 95 21q60 0 101.5 -15t94.5 -44l37 73q-42 26 -101.5 44.5t-132.5 18.5q-99 0 -161 -40q-70 -47 -70 -128q0 -54 29 -83q51 -51 167 -75q56 -12 93 -23q48 -14 75 -35t27 -56q0 -24 -12 -42.5z" />
<glyph unicode="&#x15c;" d="M266 872l97 76l89 -76h116l-169 144h-70l-181 -144h118zM89 245v-189l-2 -4q53 -26 102 -42q81 -24 156 -24q133 0 205 63q74 65 74 167q0 63 -32 107q-57 75 -184 128q-42 17 -104 48q-54 27 -83 57t-29 72q0 24 12 45t34 37q45 34 121 34q70 0 139 -16v-125h86v186l1 4 h-1v2l-2 -1q-35 17 -92 26.5t-126 9.5q-122 0 -195 -56t-73 -151q0 -69 32 -111q56 -77 183 -127q48 -19 104 -46q54 -26 83 -56.5t29 -74.5q0 -67 -54 -103q-47 -33 -131 -33q-83 0 -167 43v130h-86z" />
<glyph unicode="&#x15d;" d="M253 641l100 127l95 -127h91l-158 213h-43l-167 -213h82zM499 114.5q-12 -18.5 -34 -29.5q-41 -22 -107 -22q-63 0 -125 26q-27 11 -50.5 25.5t-37.5 28.5l-47 -75q38 -33 104 -56q75 -26 145 -26q124 0 189.5 51t65.5 134q0 54 -29 86q-53 56 -166 79q-48 8 -95 21 q-49 12 -75 28.5t-26 44.5q0 46 46 69q39 21 95 21q60 0 101.5 -15t94.5 -44l37 73q-42 26 -101.5 44.5t-132.5 18.5q-99 0 -161 -40q-70 -47 -70 -128q0 -54 29 -83q51 -51 167 -75q56 -12 93 -23q48 -14 75 -35t27 -56q0 -24 -12 -42.5z" />
<glyph unicode="&#x15e;" d="M89 245v-189l-2 -4q53 -26 102 -42q73 -22 132 -23l-49 -92q100 -11 100 -43q0 -20 -11 -29q-17 -17 -63 -17h-11q-8 0 -13 2l-10 -46q30 -5 52 -5q66 0 104 29.5t38 75.5q0 36 -22 57t-70 31l21 38q104 9 163 61q74 65 74 167q0 63 -32 107q-57 75 -184 128 q-42 17 -104 48q-54 27 -83 57t-29 72q0 24 12 45t34 37q45 34 121 34q70 0 139 -16v-125h86v186l1 4h-1v2l-2 -1q-35 17 -92 26.5t-126 9.5q-122 0 -195 -56t-73 -151q0 -69 32 -111q56 -77 183 -127q48 -19 104 -46q54 -26 83 -56.5t29 -74.5q0 -67 -54 -103 q-47 -33 -131 -33q-83 0 -167 43v130h-86z" />
<glyph unicode="&#x15f;" d="M499 114.5q-12 -18.5 -34 -29.5q-41 -22 -107 -22q-63 0 -125 26q-27 11 -50.5 25.5t-37.5 28.5l-47 -75q38 -33 104 -56q67 -23 119 -25l-49 -92q100 -11 100 -43q0 -20 -11 -29q-17 -17 -63 -17h-11q-8 0 -13 2l-10 -46q30 -5 52 -5q66 0 104 29.5t38 75.5q0 36 -22 57 t-70 31l21 37q100 8 157.5 56.5t57.5 127.5q0 54 -29 86q-53 56 -166 79q-48 8 -95 21q-49 12 -75 28.5t-26 44.5q0 46 46 69q39 21 95 21q60 0 101.5 -15t94.5 -44l37 73q-42 26 -101.5 44.5t-132.5 18.5q-99 0 -161 -40q-70 -47 -70 -128q0 -54 29 -83q51 -51 167 -75 q56 -12 93 -23q48 -14 75 -35t27 -56q0 -24 -12 -42.5z" />
<glyph unicode="&#x160;" d="M451 1014l-94 -78l-90 78h-121l173 -144h68l173 144h-109zM89 245v-189l-2 -4q53 -26 102 -42q81 -24 156 -24q133 0 205 63q74 65 74 167q0 63 -32 107q-57 75 -184 128q-42 17 -104 48q-54 27 -83 57t-29 72q0 24 12 45t34 37q45 34 121 34q70 0 139 -16v-125h86v186 l1 4h-1v2l-2 -1q-35 17 -92 26.5t-126 9.5q-122 0 -195 -56t-73 -151q0 -69 32 -111q56 -77 183 -127q48 -19 104 -46q54 -26 83 -56.5t29 -74.5q0 -67 -54 -103q-47 -33 -131 -33q-83 0 -167 43v130h-86z" />
<glyph unicode="&#x161;" d="M455 854l-101 -128l-94 128h-91l157 -213h44l166 213h-81zM499 114.5q-12 -18.5 -34 -29.5q-41 -22 -107 -22q-63 0 -125 26q-27 11 -50.5 25.5t-37.5 28.5l-47 -75q38 -33 104 -56q75 -26 145 -26q124 0 189.5 51t65.5 134q0 54 -29 86q-53 56 -166 79q-48 8 -95 21 q-49 12 -75 28.5t-26 44.5q0 46 46 69q39 21 95 21q60 0 101.5 -15t94.5 -44l37 73q-42 26 -101.5 44.5t-132.5 18.5q-99 0 -161 -40q-70 -47 -70 -128q0 -54 29 -83q51 -51 167 -75q56 -12 93 -23q48 -14 75 -35t27 -56q0 -24 -12 -42.5z" />
<glyph unicode="&#x162;" d="M526 86h-128v644h169v-127h86v213h-606v-213h86v127h168v-644h-128v-86h143l-56 -105q100 -11 100 -43q0 -20 -10 -29q-19 -17 -63 -17h-12q-8 0 -13 2l-10 -46q32 -5 52 -5q66 0 104.5 29.5t38.5 75.5q0 36 -22 57t-71 31l28 50h144v86z" />
<glyph unicode="&#x163;" d="M175 505v-289q0 -62 19 -104q36 -86 122 -113q17 -5 20 -6l-53 -98q101 -11 101 -43q0 -19 -11 -29q-17 -17 -63 -17h-12q-8 0 -12 2l-11 -46q32 -5 53 -5q65 0 103.5 29.5t38.5 75.5q0 36 -22 57t-70 31l18 35h9q58 0 114.5 19.5t98.5 52.5l-30 69q-38 -29 -76 -46 t-86 -17q-78 0 -119 41.5t-41 125.5v275h311v78h-311v141l-91 -26v-115h-139v-78h139z" />
<glyph unicode="&#x164;" d="M444 1014l-94 -78l-90 78h-121l173 -144h68l173 144h-109zM133 603v127h168v-644h-128v-86h353v86h-128v644h169v-127h86v213h-606v-213h86z" />
<glyph unicode="&#x165;" d="M406.5 725.5q-10.5 -52.5 -29.5 -94.5l38 -21q11 11 26.5 34.5t29.5 52.5q35 75 40 136h-94q0 -55 -10.5 -107.5zM175 505v-289q0 -115 69 -176q61 -55 161 -55q58 0 114.5 19.5t98.5 52.5l-30 69q-38 -29 -76 -46t-86 -17q-78 0 -119 41.5t-41 125.5v275h311v78h-311 v141l-91 -26v-115h-139v-78h139z" />
<glyph unicode="&#x16a;" d="M536 911v72h-368v-72h368zM495.5 127.5q-40.5 -51.5 -134.5 -51.5q-101 0 -145 50q-49 52 -49 172v518h-97v-563q0 -263 290 -263q130 0 196 67q74 72 74 215v544h-94v-518q0 -119 -40.5 -170.5z" />
<glyph unicode="&#x16b;" d="M515 677v73h-345v-73h345zM498 505v-302q-25 -62 -70.5 -100.5t-103.5 -38.5q-41 0 -66 13.5t-39 40.5q-12 25 -16.5 60.5t-4.5 88.5v316h-169v-78h78v-257q0 -76 11.5 -126t36.5 -81q24 -30 61.5 -42.5t92.5 -12.5q67 0 118 30.5t84 82.5h4l4 -99h155v76h-78 q-7 49 -7 109v398h-166v-78h75z" />
<glyph unicode="&#x16c;" d="M231 880q58 -29 123 -29q69 0 125 35t81 99l-55 31q-17 -36 -56.5 -59.5t-92.5 -23.5q-55 0 -96 21.5t-61 61.5l-59 -37q29 -67 91 -99zM495.5 127.5q-40.5 -51.5 -134.5 -51.5q-101 0 -145 50q-49 52 -49 172v518h-97v-563q0 -263 290 -263q130 0 196 67q74 72 74 215 v544h-94v-518q0 -119 -40.5 -170.5z" />
<glyph unicode="&#x16d;" d="M232 708q49 -40 114 -40q34 0 65 12.5t54 34.5q23 21 37 48t18 56l-49 21q-20 -44 -52 -67t-72 -23q-39 0 -74 24t-56 66l-53 -27q16 -65 68 -105zM498 505v-302q-25 -62 -70.5 -100.5t-103.5 -38.5q-41 0 -66 13.5t-39 40.5q-12 25 -16.5 60.5t-4.5 88.5v316h-169v-78 h78v-257q0 -76 11.5 -126t36.5 -81q24 -30 61.5 -42.5t92.5 -12.5q67 0 118 30.5t84 82.5h4l4 -99h155v76h-78q-7 49 -7 109v398h-166v-78h75z" />
<glyph unicode="&#x16e;" d="M263.5 824.5q31.5 -25.5 90.5 -25.5q60 0 92 26.5t32 69.5q0 49 -32 74.5t-92 25.5q-61 0 -91.5 -27t-30.5 -73q0 -45 31.5 -70.5zM316.5 931q13.5 13 37.5 13q53 0 53 -49q0 -21 -14 -33.5t-39 -12.5q-26 0 -38.5 12.5t-12.5 33.5q0 23 13.5 36zM495.5 127.5 q-40.5 -51.5 -134.5 -51.5q-101 0 -145 50q-49 52 -49 172v518h-97v-563q0 -263 290 -263q130 0 196 67q74 72 74 215v544h-94v-518q0 -119 -40.5 -170.5z" />
<glyph unicode="&#x16f;" d="M260 673q31 -28 82 -28q49 0 81.5 29.5t32.5 75.5q0 53 -31.5 79.5t-82.5 26.5q-52 0 -82.5 -28.5t-30.5 -77.5t31 -77zM305.5 787.5q14.5 12.5 36.5 12.5q21 0 36 -13t15 -37t-14 -36.5t-37 -12.5q-21 0 -36 13t-15 36q0 25 14.5 37.5zM498 505v-302 q-25 -62 -70.5 -100.5t-103.5 -38.5q-41 0 -66 13.5t-39 40.5q-12 25 -16.5 60.5t-4.5 88.5v316h-169v-78h78v-257q0 -76 11.5 -126t36.5 -81q24 -30 61.5 -42.5t92.5 -12.5q67 0 118 30.5t84 82.5h4l4 -99h155v76h-78q-7 49 -7 109v398h-166v-78h75z" />
<glyph unicode="&#x170;" d="M285 864l116 108v19h-108l-75 -127h67zM430 864l167 108v19h-115l-119 -127h67zM495.5 127.5q-40.5 -51.5 -134.5 -51.5q-101 0 -145 50q-49 52 -49 172v518h-97v-563q0 -263 290 -263q130 0 196 67q74 72 74 215v544h-94v-518q0 -119 -40.5 -170.5z" />
<glyph unicode="&#x171;" d="M280 666l92 174h-100l-41 -174h49zM409 666l153 174h-120l-85 -174h52zM498 505v-302q-25 -62 -70.5 -100.5t-103.5 -38.5q-41 0 -66 13.5t-39 40.5q-12 25 -16.5 60.5t-4.5 88.5v316h-169v-78h78v-257q0 -76 11.5 -126t36.5 -81q24 -30 61.5 -42.5t92.5 -12.5 q67 0 118 30.5t84 82.5h4l4 -99h155v76h-78q-7 49 -7 109v398h-166v-78h75z" />
<glyph unicode="&#x172;" d="M495.5 127.5q-40.5 -51.5 -134.5 -51.5q-101 0 -145 50q-49 52 -49 172v518h-97v-563q0 -263 290 -263h11q-31 -19 -51 -45t-20 -69q0 -48 31 -75.5t84 -27.5q27 0 55.5 7.5t44.5 20.5l-12 50q-26 -12 -47 -12q-28 0 -44 17.5t-16 42.5q0 66 75 107q48 14 85 51 q74 72 74 215v544h-94v-518q0 -119 -40.5 -170.5z" />
<glyph unicode="&#x173;" d="M498 505v-302q-25 -62 -70.5 -100.5t-103.5 -38.5q-41 0 -66 13.5t-39 40.5q-12 25 -16.5 60.5t-4.5 88.5v316h-169v-78h78v-257q0 -76 11.5 -126t36.5 -81q24 -30 61.5 -42.5t92.5 -12.5q67 0 118 30.5t84 82.5h4l4 -99h61q-91 -44 -91 -124q0 -48 31 -75.5t84 -27.5 q27 0 55.5 7.5t44.5 20.5l-13 50q-24 -12 -46 -12q-28 0 -44 17.5t-16 42.5q0 61 64 101h25v76h-78q-7 49 -7 109v398h-166v-78h75z" />
<glyph unicode="&#x178;" d="M170 889.5q21 -16.5 53 -16.5q31 0 51 16.5t20 43.5t-20 43.5t-51 16.5q-33 0 -53.5 -16.5t-20.5 -43.5t21 -43.5zM431.5 889.5q19.5 -16.5 50.5 -16.5q34 0 53.5 16.5t19.5 43.5t-19.5 43.5t-53.5 16.5q-31 0 -50.5 -16.5t-19.5 -43.5t19.5 -43.5zM399 0v314l290 502 h-104l-227 -403h-1l-233 403h-114l292 -504v-312h97z" />
<glyph unicode="&#x179;" d="M358 877l190 113v24h-133l-137 -137h80zM635 0v86h-462l462 643v87h-571v-86h461l-461 -643v-87h571z" />
<glyph unicode="&#x17a;" d="M340 666l139 174h-127l-76 -174h64zM602 0v78h-399l399 427v78h-504v-78h395l-395 -427v-78h504z" />
<glyph unicode="&#x17b;" d="M292 877.5q21 -19.5 58 -19.5t59 19.5t22 49.5q0 28 -22.5 47t-58.5 19t-57.5 -19t-21.5 -47q0 -30 21 -49.5zM635 0v86h-462l462 643v87h-571v-86h461l-461 -643v-87h571z" />
<glyph unicode="&#x17c;" d="M306 697q21 -21 53 -21q34 0 56.5 21t22.5 52q0 32 -22.5 54.5t-56.5 22.5q-32 0 -53 -22.5t-21 -54.5q0 -31 21 -52zM602 0v78h-399l399 427v78h-504v-78h395l-395 -427v-78h504z" />
<glyph unicode="&#x17d;" d="M430 1014l-94 -78l-90 78h-121l173 -144h68l173 144h-109zM635 0v86h-462l462 643v87h-571v-86h461l-461 -643v-87h571z" />
<glyph unicode="&#x17e;" d="M452 854l-100 -128l-94 128h-91l157 -213h43l167 213h-82zM602 0v78h-399l399 427v78h-504v-78h395l-395 -427v-78h504z" />
<glyph unicode="&#x17f;" d="M248 501v-501h94v617q0 62 30 93.5t87 31.5q33 0 60 -6t50.5 -16t43.5 -19l34 77q-36 21 -84 33t-100 12q-215 0 -215 -207v-33h-137v-82h137z" />
<glyph unicode="&#x192;" d="M585 583h-140l9 48q7 61 26 91q20 27 60 27q57 0 107 -23l27 75q-63 29 -141 29q-82 0 -119.5 -39.5t-52.5 -129.5l-12 -78h-112v-82h99l-79 -492q-17 -95 -38 -130q-22 -40 -67 -40q-28 0 -51.5 5t-51.5 17l-25 -76q71 -28 135 -28q81 0 128 60q38 49 53 143l93 541h152 v82z" />
<glyph unicode="&#x1f4;" d="M415 877l190 113v24h-133l-137 -137h80zM596 603v195l1 4q-65 28 -192 28q-69 0 -130 -24t-107 -73q-50 -52 -78 -134t-28 -191q0 -213 90 -319q84 -103 244 -103q63 0 125 16q64 18 100 46v359h-250v-78h168v-228q-53 -29 -127 -29q-248 0 -248 336q0 176 76 262 q64 74 173 74q61 0 97 -8v-133h86z" />
<glyph unicode="&#x1f5;" d="M387 666l139 174h-127l-76 -174h64zM513.5 583q-50.5 9 -118.5 9q-156 0 -235.5 -76t-79.5 -226q0 -156 62.5 -230t195.5 -74q65 0 107 20t70 60h5v-65q0 -46 -9.5 -77t-30.5 -51t-55 -29.5t-86 -9.5q-49 0 -96 18q-45 13 -67 34l-44 -83q86 -50 208 -50q121 0 193 53 q78 59 78 165v586q-47 17 -97.5 26zM216 128q-40 59 -40 163q0 111 52.5 167t148.5 56q92 0 143 -24v-277q-17 -76 -58 -112.5t-111 -36.5q-93 0 -135 64z" />
<glyph unicode="&#x218;" d="M89 245v-189l-2 -4q53 -26 102 -42q81 -24 156 -24q133 0 205 63q74 65 74 167q0 63 -32 107q-57 75 -184 128q-42 17 -104 48q-54 27 -83 57t-29 72q0 24 12 45t34 37q45 34 121 34q70 0 139 -16v-125h86v186l1 4h-1v2l-2 -1q-35 17 -92 26.5t-126 9.5q-122 0 -195 -56 t-73 -151q0 -69 32 -111q56 -77 183 -127q48 -19 104 -46q54 -26 83 -56.5t29 -74.5q0 -67 -54 -103q-47 -33 -131 -33q-83 0 -167 43v130h-86zM286.5 -143q13.5 -14 34.5 -14q8 0 11 1q0 -51 -51 -81l33 -37q33 13 58 42q35 41 35 92q0 44 -21.5 66t-53.5 22 q-24 0 -41.5 -16t-17.5 -39q0 -22 13.5 -36z" />
<glyph unicode="&#x219;" d="M499 114.5q-12 -18.5 -34 -29.5q-41 -22 -107 -22q-63 0 -125 26q-27 11 -50.5 25.5t-37.5 28.5l-47 -75q38 -33 104 -56q75 -26 145 -26q124 0 189.5 51t65.5 134q0 54 -29 86q-53 56 -166 79q-48 8 -95 21q-49 12 -75 28.5t-26 44.5q0 46 46 69q39 21 95 21 q60 0 101.5 -15t94.5 -44l37 73q-42 26 -101.5 44.5t-132.5 18.5q-99 0 -161 -40q-70 -47 -70 -128q0 -54 29 -83q51 -51 167 -75q56 -12 93 -23q48 -14 75 -35t27 -56q0 -24 -12 -42.5zM300.5 -143q13.5 -14 34.5 -14q8 0 11 1q0 -51 -51 -81l33 -37q33 13 58 42 q35 41 35 92q0 44 -21.5 66t-53.5 22q-24 0 -41.5 -16t-17.5 -39q0 -22 13.5 -36z" />
<glyph unicode="&#x21a;" d="M133 603v127h168v-644h-128v-86h353v86h-128v644h169v-127h86v213h-606v-213h86zM294.5 -143q13.5 -14 34.5 -14q8 0 11 1q0 -52 -51 -81l33 -37q33 13 58 42q35 41 35 92q0 44 -21.5 66t-53.5 22q-24 0 -41.5 -16t-17.5 -39q0 -22 13.5 -36z" />
<glyph unicode="&#x21b;" d="M175 505v-289q0 -115 69 -176q61 -55 161 -55q58 0 114.5 19.5t98.5 52.5l-30 69q-38 -29 -76 -46t-86 -17q-78 0 -119 41.5t-41 125.5v275h311v78h-311v141l-91 -26v-115h-139v-78h139zM324.5 -143q13.5 -14 34.5 -14q8 0 12 1q0 -52 -52 -81l33 -37q35 14 58 42 q35 41 35 92q0 44 -21.5 66t-52.5 22q-25 0 -42.5 -15.5t-17.5 -39.5q0 -22 13.5 -36z" />
<glyph unicode="&#x237;" d="M361 -119q-31 -42 -99 -42q-40 0 -80 16t-75 42l-38 -75q31 -24 73 -41q63 -28 117 -28q108 0 167 58.5t59 174.5v597h-375v-78h282v-502q0 -80 -31 -122z" />
<glyph unicode="&#x2bc;" d="M205 720q21 -20 49 -20q11 0 14 1q0 -37 -21.5 -62.5t-58.5 -45.5l35 -47q46 17 78 56q45 56 45 138q0 48 -23.5 73t-65.5 25q-31 0 -52 -18.5t-21 -49.5q0 -30 21 -50z" />
<glyph unicode="&#x2c6;" d="M250 641l100 127l94 -127h91l-157 213h-43l-167 -213h82z" />
<glyph unicode="&#x2c7;" d="M451 854l-100 -128l-94 128h-91l157 -213h43l167 213h-82z" />
<glyph unicode="&#x2d8;" d="M239 708q49 -40 114 -40q34 0 65 12.5t54 34.5q23 21 37 48t18 56l-49 21q-20 -44 -52 -67t-72 -23q-39 0 -74 24t-56 66l-53 -27q16 -65 68 -105z" />
<glyph unicode="&#x2d9;" d="M294 697q21 -21 53 -21q34 0 57 21t23 52q0 32 -23 54.5t-57 22.5q-32 0 -53 -22.5t-21 -54.5q0 -31 21 -52z" />
<glyph unicode="&#x2da;" d="M267 673q31 -28 82 -28q49 0 81.5 29.5t32.5 75.5q0 53 -31.5 79.5t-82.5 26.5q-52 0 -82.5 -28.5t-30.5 -77.5t31 -77zM312.5 787.5q14.5 12.5 36.5 12.5q21 0 36 -13t15 -37t-14 -36.5t-37 -12.5q-21 0 -36 13t-15 36q0 25 14.5 37.5z" />
<glyph unicode="&#x2db;" d="M241 -124q0 -48 31.5 -75.5t84.5 -27.5q26 0 55 7.5t45 20.5l-13 50q-24 -12 -46 -12q-28 0 -44 17.5t-16 42.5q0 37 23 65.5t65 47.5h-65q-120 -44 -120 -136z" />
<glyph unicode="&#x2dc;" d="M280 752q26 0 64 -22q20 -12 36.5 -18.5t33.5 -6.5q31 0 56.5 13t54.5 45l-41 51q-28 -28 -54 -28q-12 0 -22.5 4t-21 10t-16.5 9q-20 11 -36.5 17.5t-33.5 6.5q-27 0 -62.5 -17.5t-67.5 -52.5l43 -47q36 36 67 36z" />
<glyph unicode="&#x2dd;" d="M243 666l92 174h-101l-40 -174h49zM372 666l153 174h-120l-86 -174h53z" />
<glyph unicode="&#x301;" horiz-adv-x="0" d="M-407 666l138 174h-127l-75 -174h64z" />
<glyph unicode="&#x394;" d="M667 43l-299 786h-39l-296 -786v-43h634v43zM344 633l210 -549h-414l203 549h1z" />
<glyph unicode="&#x3a9;" d="M304 0v146q-82 13 -124 78q-48 73 -48 212q0 81 9.5 137t33.5 93q24 39 66 58.5t106 19.5q132 0 185 -97q21 -39 28.5 -91t7.5 -116q0 -139 -51 -215q-45 -64 -123 -79v-146h276v82h-188v18q87 30 138 120q50 85 50 214q0 189 -70 285q-79 111 -251 111q-167 0 -246 -105 q-74 -95 -74 -287q0 -128 44 -216q52 -102 143 -122v-18h-187v-82h275z" />
<glyph unicode="&#x3bc;" d="M666 0v76h-75q-1 5 -4.5 33t-3.5 81v393h-93v-378q-18 -63 -63 -100t-108 -37q-69 0 -98.5 45.5t-29.5 139.5v330h-93v-816h93v155l-6 108h6q37 -44 118 -44q66 0 115.5 28t74.5 72h5l13 -86h149z" />
<glyph unicode="&#x3c0;" d="M669 501v82h-505q-58 0 -91.5 -24t-57.5 -73l62 -37q18 28 33 40t38 12h16v-501h94v501h221v-377q0 -66 20.5 -97.5t75.5 -31.5q51 0 108 26l-22 63q-24 -7 -51 -7q-37 0 -37 58v366h96z" />
<glyph unicode="&#x401;" d="M180.5 889.5q20.5 -16.5 52.5 -16.5q31 0 51 16.5t20 43.5t-20 43.5t-51 16.5q-32 0 -52.5 -16.5t-20.5 -43.5t20.5 -43.5zM441.5 889.5q19.5 -16.5 50.5 -16.5q34 0 54 16.5t20 43.5t-20 43.5t-54 16.5q-31 0 -50.5 -16.5t-19.5 -43.5t19.5 -43.5zM610 0v86h-388v291 h353v86h-353v267h382v86h-479v-816h485z" />
<glyph unicode="&#x402;" d="M371.5 416q32.5 8 68.5 8q66 0 100 -33q42 -42 42 -134q0 -93 -28 -137.5t-91 -44.5q-65 0 -85 3v-84q12 -2 27 -2q10 -1 54 -1q114 0 169.5 66.5t55.5 206.5q0 131 -68 194q-55 50 -146 50q-66 0 -100 -9l-51 -15v246h231v86h-523v-86h196v-730h96v399q20 9 52.5 17z " />
<glyph unicode="&#x403;" d="M392 877l190 113v24h-133l-138 -137h81zM194 730v-644h-112v-86h391v86h-183v644h265v-127h86v213h-559v-86h112z" />
<glyph unicode="&#x404;" d="M620 603v184h-1q-40 25 -72 33q-41 10 -120 10q-76 0 -141 -24t-112 -73q-110 -110 -110 -325q0 -106 27 -186.5t76 -134.5q47 -50 110 -75.5t138 -25.5q139 0 219 63l-1 2v158h-86v-117q-45 -20 -105 -20q-57 0 -105.5 19.5t-84.5 57.5q-38 39 -60 96.5t-25 132.5h359 v86h-357q13 144 95 218q35 32 78.5 47t90.5 15q58 0 101 -16v-125h86z" />
<glyph unicode="&#x405;" d="M89 245v-189l-2 -4q53 -26 102 -42q81 -24 156 -24q133 0 205 63q74 65 74 167q0 63 -32 107q-57 75 -184 128q-42 17 -104 48q-54 27 -83 57t-29 72q0 24 12 45t34 37q45 34 121 34q70 0 139 -16v-125h86v186l1 4h-1v2l-2 -1q-35 17 -92 26.5t-126 9.5q-122 0 -195 -56 t-73 -151q0 -69 32 -111q56 -77 183 -127q48 -19 104 -46q54 -26 83 -56.5t29 -74.5q0 -67 -54 -103q-47 -33 -131 -33q-83 0 -167 43v130h-86z" />
<glyph unicode="&#x406;" d="M301 730v-644h-231v-86h560v86h-232v644h232v86h-560v-86h231z" />
<glyph unicode="&#x407;" d="M167.5 889.5q20.5 -16.5 52.5 -16.5q31 0 51 16.5t20 43.5t-20 43.5t-51 16.5q-32 0 -52.5 -16.5t-20.5 -43.5t20.5 -43.5zM428.5 889.5q19.5 -16.5 50.5 -16.5q34 0 54 16.5t20 43.5t-20 43.5t-54 16.5q-31 0 -50.5 -16.5t-19.5 -43.5t19.5 -43.5zM301 730v-644h-231 v-86h560v86h-232v644h232v86h-560v-86h231z" />
<glyph unicode="&#x408;" d="M478 730v-423q0 -121 -44 -176.5t-133 -55.5q-51 0 -97 21q-29 12 -64 35l-42 -77q23 -25 78 -44q63 -22 127 -22q132 0 202 77t70 224v527h-462v-86h365z" />
<glyph unicode="&#x409;" d="M421 -6q36 -3 62 -3q109 0 161.5 66.5t52.5 207.5q0 133 -56 194q-46 51 -135 51q-33 0 -66 -11v317h-311q-5 -306 -17 -456q-13 -155 -35 -221q-10 -32 -20.5 -41t-28.5 -9q-9 0 -16 3l-11 -86q23 -12 50 -12q36 0 65.5 27t45.5 80q25 79 37.5 225.5t19.5 403.5h127 v-724q20 -5 75 -12zM440 84v329q8 3 23 6.5t27 3.5q29 0 49.5 -7.5t34.5 -24.5q28 -39 28 -134q0 -98 -25 -139t-87 -41q-30 0 -50 7z" />
<glyph unicode="&#x40a;" d="M400 -6q42 -3 69 -3q105 0 158.5 62t53.5 199q0 134 -57 186q-48 45 -140 45q-18 0 -37 -4q-14 -2 -35 -7v344h-94v-344h-206v344h-93v-816h93v386h206v-379q27 -7 82 -13zM412 84v302q2 0 10.5 3t19.5 4l19 2q5 1 16 1q29 0 48.5 -5.5t31.5 -20.5q14 -17 21 -47.5 t7 -78.5q0 -91 -24.5 -129t-83.5 -38q-49 0 -65 7z" />
<glyph unicode="&#x40b;" d="M383.5 413.5q36.5 13.5 88.5 13.5q36 0 58 -10t33 -30q11 -19 15 -47.5t4 -72.5v-267h97v285q0 129 -45 180q-22 25 -57 36.5t-86 11.5q-57 0 -105 -17q-22 -9 -72 -35v269h231v86h-524v-86h196v-730h97v373q33 27 69.5 40.5z" />
<glyph unicode="&#x40c;" d="M340 877l191 113v24h-133l-138 -137h80zM694 0l-324 428l288 388h-112l-263 -364h-87v364h-97v-816h97v378h90l285 -378h123z" />
<glyph unicode="&#x40e;" d="M221.5 890q51.5 -33 137.5 -33q163 0 191 136l-82 20q-7 -42 -34.5 -65t-73.5 -23q-47 0 -75 23t-32 66l-92 -23q9 -68 60.5 -101zM35 816l252 -570l105 -1q-19 -83 -50 -126q-30 -39 -63 -39q-42 0 -80 20l-29 -80q21 -14 44 -20t60 -6q42 0 73.5 15.5t57.5 49.5 q25 33 47.5 87.5t46.5 139.5l166 530h-99l-143 -485h-74l-202 485h-112z" />
<glyph unicode="&#x40f;" d="M310 -211h82v211h219v816h-97v-730h-330v730h-97v-816h223v-211z" />
<glyph unicode="&#x410;" d="M681 0l-275 816h-115l-272 -816h95l75 226h314l77 -226h101zM356 694l120 -384h-257l123 384h14z" />
<glyph unicode="&#x411;" d="M205 -4q8 0 24 -2q36 -3 96 -3q61 0 114.5 16t94.5 48q43 33 66.5 84t23.5 119q0 129 -89 189q-75 49 -207 49q-46 0 -105 -11v245h346v86h-443v-808q24 -6 79 -12zM305 75q-20 0 -31 1q-41 2 -51 6v320q4 1 17 3t26 3l28 2q9 2 24 2q93 0 141 -31q62 -39 62 -140 q0 -80 -53 -126q-49 -40 -131 -40h-32z" />
<glyph unicode="&#x412;" d="M520 789q-67 37 -178 37q-128 0 -225 -17v-803q25 -7 51 -8q53 -7 114 -7h47q59 0 114 14.5t96 42.5q44 30 69 76.5t25 107.5q0 89 -55 142q-42 43 -123 59v4q38 10 68 30t48 47q18 26 28 56t10 60q0 108 -89 159zM213 735q40 7 119 7q77 0 120 -27q54 -33 54 -105 q0 -55 -41 -93q-33 -33 -97 -55q-30 -5 -94 -5h-61v278zM269 77q-45 2 -56 6v292h102q96 0 147 -28q69 -37 69 -122q0 -37 -15.5 -65.5t-43.5 -47.5q-53 -37 -134 -37q-21 0 -69 2z" />
<glyph unicode="&#x413;" d="M194 730v-644h-112v-86h391v86h-183v644h265v-127h86v213h-559v-86h112z" />
<glyph unicode="&#x414;" d="M593 86v730h-401q0 -194 -15 -313q-27 -238 -67 -355l-23 -62h-78v-250h82v164h508v-164h82v250h-88zM244 317q34 200 39 413h214v-644h-307q35 125 54 231z" />
<glyph unicode="&#x415;" d="M610 0v86h-388v291h353v86h-353v267h382v86h-479v-816h485z" />
<glyph unicode="&#x416;" d="M233 450l-111 366h-101l132 -404l-153 -412h100l138 378h64v-378h93v378h61l136 -378h108l-164 417l141 399h-95l-128 -366h-59v366h-93v-366h-69z" />
<glyph unicode="&#x417;" d="M318 -14q58 0 112 15t95 46q44 33 68.5 81.5t24.5 112.5q0 83 -46.5 134t-130.5 62v5q73 22 112.5 74t39.5 114q0 55 -20.5 95t-58.5 63q-66 42 -185 42q-84 0 -142 -13q-65 -13 -87 -26v-174h87v115q61 17 125 17q82 0 129 -32q50 -35 50 -107q0 -27 -11.5 -52 t-31.5 -44q-47 -40 -105 -46h-81v-82h70q87 -6 135 -43t48 -107q0 -82 -53 -125t-144 -43q-73 0 -138 23v122h-87v-185q100 -42 225 -42z" />
<glyph unicode="&#x418;" d="M630 0v816h-92l-304 -533l-66 -130h-7l6 115v548h-97v-816h92l303 527l68 131h7l-7 -117v-541h97z" />
<glyph unicode="&#x419;" d="M228.5 890q51.5 -33 137.5 -33q163 0 191 136l-82 20q-7 -42 -34.5 -65t-73.5 -23q-47 0 -75 23t-32 66l-92 -23q9 -68 60.5 -101zM630 0v816h-92l-304 -533l-66 -130h-7l6 115v548h-97v-816h92l303 527l68 131h7l-7 -117v-541h97z" />
<glyph unicode="&#x41a;" d="M694 0l-324 428l288 388h-112l-263 -364h-87v364h-97v-816h97v378h90l285 -378h123z" />
<glyph unicode="&#x41b;" d="M611 0v816h-408q-7 -295 -28 -452q-21 -148 -57 -217q-18 -33 -36.5 -47t-40.5 -14q-14 0 -25 4l-13 -84q29 -12 66 -12q87 0 136 107q37 83 57 232t32 397h220v-730h97z" />
<glyph unicode="&#x41c;" d="M630 0v816h-88l-186 -310h-3l-193 310h-90v-816h94v543l-14 110h6l54 -99l125 -201h29l119 200l56 100h6l-12 -111v-542h97z" />
<glyph unicode="&#x41d;" d="M630 0v816h-97v-355h-366v355h-97v-816h97v374h366v-374h97z" />
<glyph unicode="&#x41e;" d="M121 103q73 -117 228 -117q148 0 221.5 108t73.5 314q0 202 -66 307q-72 115 -229 115q-148 0 -220.5 -108t-72.5 -314q0 -202 65 -305zM204.5 662.5q45.5 81.5 144.5 81.5q104 0 152 -100q40 -83 40 -236q0 -173 -46 -254.5t-146 -81.5q-103 0 -151 102q-39 81 -39 234 q0 173 45.5 254.5z" />
<glyph unicode="&#x41f;" d="M618 0v816h-536v-816h96v730h343v-730h97z" />
<glyph unicode="&#x420;" d="M213 0v310q-2 0 20 -2q10 -1 24 -2t33 -1h19q63 0 119.5 15t99.5 46q98 69 98 209q0 137 -102 202q-81 49 -210 49q-121 0 -197 -18v-808h96zM458 707q66 -43 66 -132q0 -103 -70 -148q-54 -35 -150 -35h-18q-18 0 -27 1q-37 0 -46 3v339q32 7 103 7q87 0 142 -35z" />
<glyph unicode="&#x421;" d="M620 603v184h-1q-40 25 -72 33q-41 10 -120 10q-156 0 -247 -97q-104 -107 -104 -325q0 -212 95 -321q45 -50 107.5 -75.5t136.5 -25.5q139 0 219 63l-1 2v158h-86v-117q-45 -20 -105 -20t-108.5 21t-81.5 63q-74 88 -74 252q0 174 80 261q33 38 78.5 56.5t96.5 18.5 q58 0 101 -16v-125h86z" />
<glyph unicode="&#x422;" d="M133 603v127h168v-644h-128v-86h353v86h-128v644h169v-127h86v213h-606v-213h86z" />
<glyph unicode="&#x423;" d="M35 816l252 -570l105 -1q-19 -83 -50 -126q-30 -39 -63 -39q-42 0 -80 20l-29 -80q21 -14 44 -20t60 -6q42 0 73.5 15.5t57.5 49.5q25 33 47.5 87.5t46.5 139.5l166 530h-99l-143 -485h-74l-202 485h-112z" />
<glyph unicode="&#x424;" d="M398 -23v99q54 0 103 17.5t87 54.5q86 89 86 272t-89 269q-70 67 -187 67v84h-97v-84q-58 0 -108 -19.5t-86 -59.5q-81 -91 -81 -269q0 -192 86 -270q66 -62 189 -62v-99h97zM174 619q42 55 129 55v-518q-94 0 -136 57q-45 62 -45 195q0 145 52 211zM528 211 q-42 -55 -134 -55v518q87 0 134 -60q49 -61 49 -194q0 -146 -49 -209z" />
<glyph unicode="&#x425;" d="M132 0l186 293l31 58l31 -58l183 -293h113l-267 423l256 393h-108l-173 -276l-28 -55l-30 55l-163 276h-116l246 -401l-270 -415h109z" />
<glyph unicode="&#x426;" d="M596 86v730h-97v-730h-321v730h-96v-816h529v-164h82v250h-97z" />
<glyph unicode="&#x427;" d="M96 528q0 -123 61 -179q55 -49 160 -49q106 0 201 52v-352h96v816h-96v-376q-31 -25 -79 -39.5t-102 -14.5q-145 0 -145 160v270h-96v-288z" />
<glyph unicode="&#x428;" d="M640 816h-91v-730h-154v730h-91v-730h-154v730h-91v-816h581v816z" />
<glyph unicode="&#x429;" d="M618 -164h82v250h-72v730h-90v-730h-154v730h-91v-730h-153v730h-91v-816h569v-164z" />
<glyph unicode="&#x42a;" d="M235 -0.5q28 -3.5 53 -5.5q50 -3 76 -3q141 0 222 75q76 70 76 198q0 62 -20 109t-58 77q-72 58 -206 58q-25 0 -52 -3t-41 -6v317h-261v-86h164v-722q19 -5 47 -8.5zM354 76q-17 0 -25 1q-31 0 -44 5v332q12 4 36 7t50 3q92 0 140.5 -43t48.5 -124q0 -87 -46 -134.5 t-139 -47.5q-12 0 -21 1z" />
<glyph unicode="&#x42b;" d="M135 -6q42 -3 76 -3q122 0 187 65q71 71 71 209q0 137 -76 203q-63 52 -161 52q-40 0 -77 -10v306h-97v-810q19 -6 77 -12zM641 0v816h-96v-816h96zM155 85v338q7 4 27 7.5t40 3.5q70 0 106 -35q44 -47 44 -142q0 -94 -42 -138q-41 -42 -112 -42q-46 0 -63 8z" />
<glyph unicode="&#x42c;" d="M239 -6q53 -3 89 -3q68 0 126 16.5t100 49.5q92 74 92 207q0 132 -92 194q-74 50 -204 50q-12 0 -42 -2l-23 -1q-16 -1 -31.5 -3t-19.5 -3v317h-96v-808q28 -8 101 -14zM234 82v332q5 1 19.5 3.5t27.5 3.5l30 2q11 1 26 1q93 0 143 -33q63 -43 63 -134q0 -89 -59 -137 q-55 -45 -144 -45q-74 0 -106 7z" />
<glyph unicode="&#x42d;" d="M175 612v123q51 14 104 14q108 0 177 -69q70 -73 76 -219h-288v-87h289q0 -157 -78 -238q-34 -34 -78 -51t-91 -17q-67 0 -130 24v117h-86v-173q29 -17 82 -31q60 -19 114 -19q77 0 143 24t115 73q106 109 106 325q0 219 -95 325q-86 97 -245 97q-60 0 -113.5 -12 t-89.5 -33l2 -4v-169h86z" />
<glyph unicode="&#x42e;" d="M41 816v-816h97v375h95q2 -183 52 -284q51 -105 157 -105q117 0 173.5 105.5t56.5 316.5q0 207 -49 309q-53 113 -169 113q-109 0 -164 -104q-50 -92 -56 -265h-96v355h-97zM357 654q27 90 90 90q74 0 103 -98q25 -80 25 -238q0 -179 -28 -256q-29 -80 -97 -80 q-56 0 -87 87q-32 87 -32 249q0 168 26 246z" />
<glyph unicode="&#x42f;" d="M410 826q-134 0 -213 -53q-90 -61 -90 -195q0 -94 50 -155q46 -53 118 -71l-226 -352h114l203 337h120v-337h97v808q-73 18 -173 18zM486 735v-323h-79q-89 0 -139 39q-58 44 -58 127q0 90 61 130q51 34 135 34q42 0 80 -7z" />
<glyph unicode="&#x430;" d="M249 502q45 12 91 12q40 0 66 -9t41 -29q19 -29 19 -90q0 -24 -3 -56q-66 10 -126 10q-91 0 -148 -25q-102 -44 -102 -160q0 -77 50 -121t137 -44q77 0 133 39q36 25 57 58h6l10 -87h155v76h-78q-6 43 -6 111q0 52 3 100q2 68 2 94q0 94 -36 145q-48 66 -157 66 q-65 0 -127.5 -13.5t-109.5 -40.5l29 -68q49 20 94 32zM211 94.5q-28 26.5 -28 68.5q0 39 21 61q41 45 147 45q53 0 112 -10v-82q-16 -40 -56 -72q-22 -17 -50.5 -27t-59.5 -10q-58 0 -86 26.5z" />
<glyph unicode="&#x431;" d="M175.5 604.5q17.5 47.5 49.5 72.5q28 23 68.5 32t107.5 13q73 4 123 14q38 8 65 29l-14 80q-24 -19 -59.5 -27.5t-103.5 -12.5q-63 -5 -105 -12.5t-77 -22.5q-41 -19 -70.5 -48.5t-49.5 -76.5q-44 -102 -44 -292q0 -367 284 -367q134 0 208.5 82.5t74.5 235.5 q0 134 -64 206t-184 72q-80 0 -133 -23.5t-97 -81.5h-3q6 80 23.5 127.5zM213 450.5q50 53.5 157 53.5q42 0 74 -16t53 -45q39 -53 39 -146q0 -113 -46.5 -173t-139.5 -60q-91 0 -141 70q-23 31 -34.5 71.5t-11.5 84.5q0 107 50 160.5z" />
<glyph unicode="&#x432;" d="M169 -1q86 -7 160 -7q144 0 216.5 41.5t72.5 130.5q0 61 -32 94.5t-108 46.5v5q57 16 85.5 55t28.5 84q0 72 -57 107t-181 35q-46 0 -66 -1q-73 -2 -104 -5l-44 -3v-581zM230 511l25 1q48 2 96 2q81 0 115 -19t34 -66q0 -18 -11 -35t-31 -29q-44 -28 -90 -28h-138v174z M352 267q93 0 135 -27q38 -24 38 -70q0 -54 -44 -77.5t-137 -23.5q-66 0 -114 4v194h122z" />
<glyph unicode="&#x433;" d="M462 78h-177v426h226v-139h79v218h-471v-79h75v-426h-75v-78h343v78z" />
<glyph unicode="&#x434;" d="M570 79v504h-366q-1 -113 -15 -215q-26 -172 -63 -242q-22 -40 -28 -47h-65v-219h79v140h469v-140h79v219h-90zM260 281q20 101 27 224h192v-427h-287q43 77 68 203z" />
<glyph unicode="&#x435;" d="M546.5 116q-22.5 -13 -48.5 -23q-66 -25 -121 -25q-97 0 -152.5 53t-55.5 155h451q1 15 1 42q0 150 -71 218q-64 61 -182 61q-67 0 -122 -20.5t-93 -58.5q-80 -80 -80 -227q0 -138 74 -221q75 -84 213 -84q71 0 145 24q66 23 112 63l-36 67q-12 -11 -34.5 -24z M485.5 477.5q43.5 -42.5 49.5 -119.5h-362q7 84 65 127q47 35 133 35q71 0 114.5 -42.5z" />
<glyph unicode="&#x436;" d="M303 0h91v261h70l125 -261h104l-154 312l137 271h-95l-124 -252h-63v252h-91v-252h-73l-106 252h-102l134 -285l-149 -298h100l125 261h71v-261z" />
<glyph unicode="&#x437;" d="M204 389v97q57 31 141 31q64 0 106 -21q43 -22 43 -68q0 -18 -11.5 -35t-30.5 -29q-18 -13 -41.5 -20.5t-46.5 -7.5h-83v-76h66q91 0 132 -22.5t41 -68.5q0 -47 -47 -76q-45 -25 -112 -25q-84 0 -144 30q-41 19 -78 58l-47 -73q27 -34 86 -61q69 -32 162 -32 q132 0 205 50q68 47 68 123q0 62 -31.5 97t-106.5 48v4q50 15 84 58q14 18 22 38.5t8 39.5q0 34 -16.5 62t-47.5 46q-64 39 -160 39q-80 0 -147 -20q-43 -14 -94 -43l1 -4v-139h79z" />
<glyph unicode="&#x438;" d="M600 0v583h-83l-326 -450h-4l3 73v377h-91v-583h83l328 443h3l-3 -77v-366h90z" />
<glyph unicode="&#x439;" d="M237 688q23 -16 54 -24.5t63 -8.5q71 0 120 37t59 103l-70 22q-10 -47 -38 -70.5t-68 -23.5q-86 0 -106 96l-80 -28q13 -68 66 -103zM600 0v583h-83l-326 -450h-4l3 73v377h-91v-583h83l328 443h3l-3 -77v-366h90z" />
<glyph unicode="&#x43a;" d="M651 0v78h-76l-212 229l257 276h-109l-230 -250h-64v250h-90v-583h90v264h64l250 -264h120z" />
<glyph unicode="&#x43b;" d="M588 0v583h-378q-2 -86 -8 -182l-1 -26q-7 -89 -15 -144t-20 -85q-24 -60 -62 -60q-12 0 -42 6l-15 -86q16 -7 26.5 -9t32.5 -2q58 0 95 38t57 110q17 63 24 145t13 216h202v-504h91z" />
<glyph unicode="&#x43c;" d="M625 0v583h-93l-178 -293h-2l-185 293h-92v-583h86v347l-6 82h5l170 -267h33l168 267h5l-2 -83v-346h91z" />
<glyph unicode="&#x43d;" d="M597 0v583h-91v-243h-314v243h-89v-583h89v259h314v-259h91z" />
<glyph unicode="&#x43e;" d="M83.5 170.5q17.5 -55.5 51.5 -95.5q76 -89 215 -89q67 0 120.5 21.5t89.5 61.5q35 39 54 96t19 126q0 66 -17 121.5t-52 95.5q-74 89 -214 89q-135 0 -209.5 -82t-74.5 -224q0 -65 17.5 -120.5zM350 519q94 0 146 -72q42 -62 42 -156q0 -112 -47.5 -169.5t-140.5 -57.5 q-96 0 -145 72q-21 32 -31.5 72.5t-10.5 82.5q0 228 187 228z" />
<glyph unicode="&#x43f;" d="M592 0v583h-485v-583h90v504h304v-504h91z" />
<glyph unicode="&#x440;" d="M202 -233v245q28 -12 64 -19q29 -7 78 -7q67 0 123.5 22t95.5 63q40 42 61.5 100.5t21.5 131.5q0 154 -62 224t-189 70q-125 0 -198 -96h-6l-11 82h-156v-76h79q3 -15 7 -65l2 -63v-612h90zM508.5 459q40.5 -53 40.5 -155q0 -116 -55 -178t-150 -62q-50 0 -82 9t-60 28 v266q3 26 18 51.5t40 46.5q24 22 55 34.5t65 12.5q88 0 128.5 -53z" />
<glyph unicode="&#x441;" d="M596 382v163l1 3q-45 22 -99.5 35.5t-132.5 13.5q-67 0 -122 -20t-94 -59q-79 -81 -79 -227q0 -138 78 -221q79 -84 230 -84q84 0 156 30q57 25 97 57l-41 68q-36 -31 -87.5 -49.5t-106.5 -18.5q-102 0 -166 59q-63 57 -63 159q0 116 55 170t171 54q58 0 119 -22v-111h84 z" />
<glyph unicode="&#x442;" d="M140 365v139h164v-426h-145v-78h377v78h-141v426h165v-139h79v218h-578v-218h79z" />
<glyph unicode="&#x443;" d="M54 583l244 -583h79q-31 -148 -119 -148q-14 0 -52 10q-32 8 -46 21l-33 -84q13 -13 51 -25q43 -13 66 -13q68 0 109 31q74 56 105 175q8 32 26 92l162 524h-94l-145 -493h-44l-204 493h-105z" />
<glyph unicode="&#x444;" d="M305 738v-150q-20 4 -55 4q-110 0 -166 -75.5t-56 -225.5q0 -155 49 -230t148 -75q54 0 80 9v-228h89v227q12 -4 31.5 -6t32.5 -2q104 0 159 84t55 233q0 153 -51 221t-158 68q-35 0 -69 -6v230h-179v-78h90zM150 128q-29 63 -29 163q0 224 130 224q31 0 56 -4v-442 q-26 -6 -59 -6q-67 0 -98 65zM552 459q26 -51 26 -156q0 -119 -31 -179.5t-96 -60.5q-43 0 -58 3v444q22 5 52 5q77 0 107 -56z" />
<glyph unicode="&#x445;" d="M160 0l189 239l185 -239h112l-239 303l225 280h-105l-173 -219l-167 219h-117l225 -285l-241 -298h106z" />
<glyph unicode="&#x446;" d="M586 79v504h-90v-504h-301v504h-90v-583h498v-140h79v219h-96z" />
<glyph unicode="&#x447;" d="M105 421q0 -122 49 -170q22 -25 57.5 -35.5t86.5 -10.5q111 0 180 42v-247h91v583h-91v-258q-24 -18 -65 -30t-99 -12q-71 0 -98 41q-12 18 -16.5 43t-4.5 61v155h-90v-162z" />
<glyph unicode="&#x448;" d="M635 583h-86v-501h-156v501h-86v-501h-157v501h-86v-583h571v583z" />
<glyph unicode="&#x449;" d="M618 82v501h-86v-501h-140v501h-87v-501h-139v501h-87v-583h532v-140h79v222h-72z" />
<glyph unicode="&#x44a;" d="M51 583v-79h145v-504q83 -7 163 -7q148 0 218.5 48.5t70.5 153.5q0 76 -56 121q-61 50 -191 50q-59 0 -115 -8v225h-235zM387 290q81 0 123 -29.5t42 -77.5q0 -52 -42.5 -82t-127.5 -30q-46 0 -96 7v204q32 8 101 8z" />
<glyph unicode="&#x44b;" d="M55 583v-583q74 -7 155 -7q132 0 190.5 48t58.5 154q0 82 -44 123q-52 50 -164 50q-54 0 -103 -8v223h-93zM645 0v583h-93v-583h93zM234 291q68 0 98.5 -28.5t30.5 -78.5q0 -55 -30.5 -82t-101.5 -27q-42 0 -83 7v201q27 8 86 8z" />
<glyph unicode="&#x44c;" d="M131 583v-578q16 -2 49 -4l53 -3q58 -5 95 -5q148 0 219 48.5t71 153.5q0 78 -56 121q-65 50 -192 50q-94 0 -150 -8v225h-89zM273.5 288.5q31.5 1.5 83.5 1.5q81 0 122.5 -29.5t41.5 -77.5q0 -52 -42 -82t-127 -30q-32 0 -64 4l-36 2l-32 3v202q22 5 53.5 6.5z" />
<glyph unicode="&#x44d;" d="M197 412v87q49 20 115 20q49 0 90 -14t70 -39q28 -24 44.5 -59t19.5 -75h-275v-77h277q0 -88 -69 -142q-30 -22 -68.5 -33.5t-77.5 -11.5q-101 0 -197 68l-39 -72q37 -36 104 -56q66 -22 130 -22q66 0 122.5 20.5t98.5 59.5q43 40 66 97t23 128q0 70 -21 127t-60 96 q-39 40 -92.5 61.5t-119.5 21.5q-71 0 -123.5 -10.5t-94.5 -32.5h-2v-142h79z" />
<glyph unicode="&#x44e;" d="M607 62.5q48 76.5 48 228.5q0 74 -9.5 129.5t-31.5 93.5q-46 83 -160 83q-105 0 -154 -66q-46 -62 -54 -192h-96v244h-93v-583h93v258h95q5 -136 46 -197q50 -75 160 -75q108 0 156 76.5zM340.5 394q4.5 41 17.5 68q25 53 94 53q67 0 90 -66q17 -50 17 -158 q0 -119 -19 -169q-22 -54 -86 -54q-40 0 -63.5 17t-36.5 49q-18 49 -18 157q0 62 4.5 103z" />
<glyph unicode="&#x44f;" d="M569 0v578q-59 11 -92 15.5t-72 4.5q-130 0 -202 -46q-79 -52 -79 -153q0 -66 37 -109q31 -39 80 -53l-106 -159h-60v-78h116l147 227h140v-227h91zM245.5 333.5q-26.5 27.5 -26.5 72.5q0 114 182 114q16 0 38 -4.5t39 -10.5v-208h-163q-43 9 -69.5 36.5z" />
<glyph unicode="&#x451;" d="M171 682q18 -19 48 -19q29 0 48 19.5t19 47.5q0 31 -19 50t-48 19q-30 0 -48 -19t-18 -50q0 -29 18 -48zM431.5 682.5q18.5 -19.5 46.5 -19.5q30 0 49.5 19.5t19.5 47.5q0 31 -19 50t-50 19q-29 0 -47 -19t-18 -50q0 -28 18.5 -47.5zM546.5 116q-22.5 -13 -48.5 -23 q-66 -25 -121 -25q-97 0 -152.5 53t-55.5 155h451q1 15 1 42q0 150 -71 218q-64 61 -182 61q-67 0 -122 -20.5t-93 -58.5q-80 -80 -80 -227q0 -138 74 -221q75 -84 213 -84q71 0 145 24q66 23 112 63l-36 67q-12 -11 -34.5 -24zM485.5 477.5q43.5 -42.5 49.5 -119.5h-362 q7 84 65 127q47 35 133 35q71 0 114.5 -42.5z" />
<glyph unicode="&#x452;" d="M162 513v-513h93v211q13 56 57 91.5t100 35.5q38 0 61.5 -11t38.5 -34q13 -22 18.5 -56t5.5 -83v-154q0 -48 -3 -77t-13 -48q-11 -21 -30 -31t-52 -10v-79q26 -2 35 -2q81 0 119 53t38 163v206q0 73 -11 120t-35 75q-23 27 -59 38.5t-87 11.5q-60 0 -102.5 -20.5 t-75.5 -59.5h-5v173h187v70h-187v233h-93v-233h-93v-70h93z" />
<glyph unicode="&#x453;" d="M360 666l139 174h-127l-76 -174h64zM462 78h-177v426h226v-139h79v218h-471v-79h75v-426h-75v-78h343v78z" />
<glyph unicode="&#x454;" d="M596 382v163l1 3q-45 22 -99.5 35.5t-132.5 13.5q-67 0 -122 -20t-94 -59q-79 -81 -79 -227q0 -138 78 -221q79 -84 230 -84q84 0 156 30q57 25 97 57l-41 68q-36 -31 -87.5 -49.5t-106.5 -18.5q-102 0 -166 59q-51 46 -62 125h266v76h-265q9 89 61.5 135.5t162.5 46.5 q58 0 119 -22v-111h84z" />
<glyph unicode="&#x455;" d="M499 114.5q-12 -18.5 -34 -29.5q-41 -22 -107 -22q-63 0 -125 26q-27 11 -50.5 25.5t-37.5 28.5l-47 -75q38 -33 104 -56q75 -26 145 -26q124 0 189.5 51t65.5 134q0 54 -29 86q-53 56 -166 79q-48 8 -95 21q-49 12 -75 28.5t-26 44.5q0 46 46 69q39 21 95 21 q60 0 101.5 -15t94.5 -44l37 73q-42 26 -101.5 44.5t-132.5 18.5q-99 0 -161 -40q-70 -47 -70 -128q0 -54 29 -83q51 -51 167 -75q56 -12 93 -23q48 -14 75 -35t27 -56q0 -24 -12 -42.5z" />
<glyph unicode="&#x456;" d="M315 697q21 -21 53 -21q34 0 57 21t23 52q0 32 -23 54.5t-57 22.5q-32 0 -53 -22.5t-21 -54.5q0 -31 21 -52zM617 78h-198v505h-297v-78h203v-427h-203v-78h495v78z" />
<glyph unicode="&#x457;" d="M171 705q18 -19 48 -19q29 0 48 19t19 47q0 31 -19 50t-48 19q-30 0 -48 -19t-18 -50q0 -28 18 -47zM431.5 705q18.5 -19 46.5 -19q30 0 49.5 19t19.5 47q0 31 -19 50t-50 19q-29 0 -47 -19t-18 -50q0 -28 18.5 -47zM617 78h-198v505h-297v-78h203v-427h-203v-78h495v78z " />
<glyph unicode="&#x458;" d="M364 697q21 -21 53 -21q34 0 57 21t23 52q0 32 -23 54.5t-57 22.5q-32 0 -53 -22.5t-21 -54.5q0 -31 21 -52zM361 -119q-31 -42 -99 -42q-40 0 -80 16t-75 42l-38 -75q31 -24 73 -41q63 -28 117 -28q108 0 167 58.5t59 174.5v597h-375v-78h282v-502q0 -80 -31 -122z" />
<glyph unicode="&#x459;" d="M150 583q-5 -288 -35 -408q-12 -56 -29 -76t-38 -20q-16 0 -27 5l-14 -78q14 -6 24.5 -8.5t31.5 -2.5q69 0 110 91q30 71 44 203q8 78 15 212h114v-501q59 -7 132 -7q98 0 150.5 49.5t52.5 152.5q0 78 -36 123q-41 50 -126 50q-49 0 -85 -8v223h-284zM460 289.5 q16 1.5 43 1.5q48 0 67.5 -28t19.5 -79q0 -55 -21.5 -83t-69.5 -28q-35 0 -65 7v203q10 5 26 6.5z" />
<glyph unicode="&#x45a;" d="M309 583v-241h-194v241h-93v-583h93v260h194v-260q48 -7 143 -7q125 0 181.5 48t56.5 154q0 81 -42 123q-47 50 -155 50q-23 0 -49.5 -2.5t-41.5 -5.5v223h-93zM435 288.5q22 2.5 42 2.5q60 0 88 -28.5t28 -78.5q0 -54 -28 -81.5t-92 -27.5q-13 0 -39 2l-32 3v203 q11 3 33 5.5z" />
<glyph unicode="&#x45b;" d="M162 513v-513h93v211q13 56 57 91.5t100 35.5q38 0 61.5 -11t38.5 -34q13 -22 18.5 -56t5.5 -83v-154h94v175q0 73 -11 120t-35 75q-23 27 -59 38.5t-87 11.5q-60 0 -102.5 -20.5t-75.5 -59.5h-5v173h187v70h-187v233h-93v-233h-93v-70h93z" />
<glyph unicode="&#x45c;" d="M338 666l139 174h-127l-76 -174h64zM651 0v78h-76l-212 229l257 276h-109l-230 -250h-64v250h-90v-583h90v264h64l250 -264h120z" />
<glyph unicode="&#x45e;" d="M250 688q24 -16 54.5 -24.5t62.5 -8.5q71 0 120 37t59 103l-70 22q-10 -47 -38 -70.5t-68 -23.5q-86 0 -106 96l-80 -28q11 -67 66 -103zM54 583l244 -583h79q-31 -148 -119 -148q-14 0 -52 10q-32 8 -46 21l-33 -84q13 -13 51 -25q43 -13 66 -13q68 0 109 31 q74 56 105 175q8 32 26 92l162 524h-94l-145 -493h-44l-204 493h-105z" />
<glyph unicode="&#x45f;" d="M314 -187h79v187h190v583h-93v-501h-280v501h-93v-583h197v-187z" />
<glyph unicode="&#x460;" d="M406 10q35 -26 86 -26q45 0 77 35t52 96q34 103 34 274q0 212 -56 325q-59 119 -175 119v-87q54 0 87 -72q42 -94 42 -276q0 -191 -22 -266q-21 -62 -60 -62q-30 0 -50 37q-20 38 -20 110v225h-103v-225q0 -68 -21 -107.5t-53 -39.5q-36 0 -54 63q-24 77 -24 263 q0 196 41 281q32 69 88 69v87q-59 0 -103.5 -31t-72.5 -90q-56 -113 -56 -323q0 -167 34 -274q19 -62 52 -96.5t80 -34.5q53 0 88 28t52 95h3q13 -66 54 -97z" />
<glyph unicode="&#x461;" d="M405.5 8.5q34.5 -24.5 79.5 -24.5q90 0 133 85q36 69 36 211q0 170 -65 252q-60 71 -168 71v-82q62 0 94 -43q42 -55 42 -192q0 -106 -17 -161q-19 -60 -61 -60q-39 0 -61 28t-22 80v173h-93v-173q0 -51 -22 -79.5t-63 -28.5q-43 0 -58 60q-18 57 -18 160q0 133 42 192 q18 25 42 34.5t54 9.5v82q-111 0 -168 -70q-67 -81 -67 -253q0 -138 35 -211q42 -85 137 -85q104 0 132 99h4q18 -50 52.5 -74.5z" />
<glyph unicode="&#x462;" d="M182 641v-633q28 -8 101 -14q53 -3 89 -3q142 0 226 66q92 74 92 207q0 132 -92 194q-76 49 -204 49q-12 0 -42 -2l-23 -1q-17 -1 -31.5 -3.5t-18.5 -2.5v143h241v82h-241v118h-97v-118h-174v-82h174zM279 82v331q4 1 18 3.5t28 3.5l31 2q10 1 25 1q91 0 144 -34 q29 -19 46 -52t17 -80q0 -90 -60 -137q-55 -45 -143 -45q-75 0 -106 7z" />
<glyph unicode="&#x463;" d="M170 506v-506q45 -5 96 -5q17 -1 50 -1q16 -1 44 -1q135 0 198 48.5t63 153.5q0 79 -48 123q-55 50 -172 50q-88 0 -137 -8v146h221v77h-221v233h-94v-233h-127v-77h127zM308 289.5q26 1.5 65 1.5q77 0 114.5 -29t37.5 -78q0 -54 -38 -81.5t-123 -27.5q-57 0 -100 7v201 q18 5 44 6.5z" />
<glyph unicode="&#x472;" d="M121 103q73 -117 228 -117q148 0 221.5 108t73.5 314q0 202 -66 307q-72 115 -229 115q-148 0 -220.5 -108t-72.5 -314q0 -202 65 -305zM492 660q40 -73 48 -203h-380q6 147 52 217t137 70q95 0 143 -84zM204 161q-40 75 -45 210h381q-5 -154 -51 -226.5t-140 -72.5 q-97 0 -145 89z" />
<glyph unicode="&#x473;" d="M83.5 170.5q17.5 -55.5 51.5 -95.5q76 -89 215 -89q67 0 120.5 21.5t89.5 61.5q35 39 54 96t19 126q0 66 -17 121.5t-52 95.5q-74 89 -214 89q-135 0 -209.5 -82t-74.5 -224q0 -65 17.5 -120.5zM427.5 503.5q33.5 -15.5 56.5 -42.5q21 -26 34.5 -61.5t16.5 -71.5h-371 q15 191 186 191q44 0 77.5 -15.5zM216 122q-21 26 -34.5 60t-17.5 71h371q-7 -94 -54 -141.5t-131 -47.5q-86 0 -134 58z" />
<glyph unicode="&#x474;" d="M571 708q23 30 55 30q44 0 81 -21l28 82q-21 13 -44.5 19t-63.5 6q-37 0 -60 -6t-46 -27q-25 -26 -49 -77.5t-50 -139.5l-114 -418h-8l-229 660h-105l287 -816h91l182 606q23 72 45 102z" />
<glyph unicode="&#x475;" d="M560 487q20 18 39 18q14 0 40 -11l14 87q-24 10 -68 10q-64 0 -103 -56q-18 -25 -34 -61t-38 -95l-84 -217h-1l-171 421h-107l253 -596h39l178 428q23 55 43 72z" />
<glyph unicode="&#x48a;" d="M186.5 890q51.5 -33 137.5 -33q163 0 191 136l-82 20q-7 -42 -34.5 -65t-73.5 -23t-74.5 23.5t-32.5 65.5l-92 -23q9 -68 60.5 -101zM592 0l-52 -152h86l83 234h-121v734h-92l-304 -533l-66 -130h-7l6 115v548h-97v-816h92l303 527l68 131h7l-7 -117v-541h101z" />
<glyph unicode="&#x48b;" d="M237 688q23 -16 54 -24.5t63 -8.5q71 0 120 37t59 103l-70 22q-10 -47 -38 -70.5t-68 -23.5q-86 0 -106 96l-80 -28q13 -68 66 -103zM607 0l-52 -152h86l83 230h-124v505h-83l-326 -450h-4l3 73v377h-91v-583h83l328 443h3l-3 -77v-366h97z" />
<glyph unicode="&#x48c;" d="M182 641v-633q28 -8 101 -14q53 -3 89 -3q142 0 226 66q92 74 92 207q0 132 -92 194q-76 49 -204 49q-12 0 -42 -2l-23 -1q-17 -1 -31.5 -3.5t-18.5 -2.5v143h241v82h-241v118h-97v-118h-174v-82h174zM279 82v331q4 1 18 3.5t28 3.5l31 2q10 1 25 1q91 0 144 -34 q29 -19 46 -52t17 -80q0 -90 -60 -137q-55 -45 -143 -45q-75 0 -106 7z" />
<glyph unicode="&#x48d;" d="M170 506v-506q45 -5 96 -5q17 -1 50 -1q16 -1 44 -1q135 0 198 48.5t63 153.5q0 79 -48 123q-55 50 -172 50q-88 0 -137 -8v146h221v77h-221v233h-94v-233h-127v-77h127zM308 289.5q26 1.5 65 1.5q77 0 114.5 -29t37.5 -78q0 -54 -38 -81.5t-123 -27.5q-57 0 -100 7v201 q18 5 44 6.5z" />
<glyph unicode="&#x48e;" d="M191 0v310q-2 0 20 -2q10 -1 24 -2t33 -1h19q67 0 121 16l90 -129l54 39l-80 114q132 69 132 230q0 138 -103 202q-79 49 -210 49q-120 0 -197 -18v-808h97zM359 399q-31 -7 -77 -7h-18q-18 0 -27 1q-38 0 -46 3v339q31 7 103 7q86 0 142 -35q65 -42 65 -132 q0 -60 -21.5 -97.5t-62.5 -58.5l-82 120l-50 -32z" />
<glyph unicode="&#x48f;" d="M202 -233v245q28 -12 64 -19q29 -7 78 -7q68 0 124 22l5 2.5t7 2.5l75 -86l56 47l-69 78l21 19q40 42 61.5 100.5t21.5 131.5q0 154 -62 224t-189 70q-125 0 -198 -96h-6l-11 82h-156v-76h79q3 -15 7 -65l2 -63v-612h90zM508.5 459q40.5 -53 40.5 -155q0 -119 -56 -179 q-3 -4 -8 -7l-78 91l-54 -48l71 -83q-37 -14 -80 -14q-50 0 -82 9t-60 28v266q3 26 18 51.5t40 46.5q24 22 55 34.5t65 12.5q88 0 128.5 -53z" />
<glyph unicode="&#x490;" d="M194 730v-644h-112v-86h403v86h-195v644h351v226h-86v-140h-473v-86h112z" />
<glyph unicode="&#x491;" d="M462 78h-177v426h305v219h-79v-140h-392v-79h75v-426h-75v-78h343v78z" />
<glyph unicode="&#x492;" d="M187 816v-367h-112v-77h112v-372h96v372h251v77h-251v281h341v86h-437z" />
<glyph unicode="&#x493;" d="M162 583v-258h-105v-70h105v-255h93v255h291v70h-291v176h341v82h-434z" />
<glyph unicode="&#x494;" d="M213 336q16 5 32 9q41 9 79 9q40 0 71 -9.5t55 -32.5q51 -51 51 -162q0 -213 -165 -213q-30 0 -50.5 0.5t-34.5 3.5v-87q12 -2 27 -2q10 -1 54 -1q272 0 272 308q0 152 -78 222q-65 57 -173 57q-65 0 -105 -9l-56 -15v316h341v86h-437v-816h96v329q10 2 21 7z" />
<glyph unicode="&#x495;" d="M258 227q40 10 105 10q37 0 69 -11.5t54 -34.5q52 -52 52 -150q0 -203 -157 -203q-65 0 -85 3v-81q18 -3 27 -3q10 -1 55 -1q131 0 192 71.5t61 224.5q0 141 -75 209q-63 57 -168 57q-78 0 -128 -9q-20 -4 -52 -15v207h351v82h-445v-583h94v212q17 8 50 15z" />
<glyph unicode="&#x496;" d="M233 450l-111 366h-101l132 -404l-153 -412h100l138 378h64v-378h93v378h61l136 -378h48v-140h82v226h-56l-130 331l141 399h-95l-128 -366h-59v366h-93v-366h-69z" />
<glyph unicode="&#x497;" d="M303 0h91v261h70l125 -261h45v-140h80v218h-60l-115 234l137 271h-95l-124 -252h-63v252h-91v-252h-73l-106 252h-102l134 -285l-149 -298h100l125 261h71v-261z" />
<glyph unicode="&#x498;" d="M180 1.5q51 -11.5 107 -14.5v-174h81v177q33 3 60 10q52 14 97 47q44 33 68.5 81.5t24.5 112.5q0 83 -46.5 134t-130.5 62v5q73 22 112.5 74t39.5 114q0 55 -20.5 95t-58.5 63q-66 42 -185 42q-84 0 -142 -13q-65 -13 -87 -26v-174h87v115q61 17 125 17q82 0 129 -32 q50 -35 50 -107q0 -27 -11.5 -52t-31.5 -44q-47 -40 -105 -46h-81v-82h70q87 -6 135 -43t48 -107q0 -82 -53 -125t-144 -43q-73 0 -138 23v122h-87v-185q36 -15 87 -26.5z" />
<glyph unicode="&#x499;" d="M204 389v97q57 31 141 31q64 0 106 -21q43 -22 43 -68q0 -18 -11.5 -35t-30.5 -29q-18 -13 -41.5 -20.5t-46.5 -7.5h-83v-76h66q91 0 132 -22.5t41 -68.5q0 -47 -47 -76q-45 -25 -112 -25q-84 0 -144 30q-41 19 -78 58l-47 -73q27 -34 86 -61q64 -29 136 -31v-178h79v179 q96 10 152 48q68 47 68 123q0 62 -31.5 97t-106.5 48v4q50 15 84 58q14 18 22 38.5t8 39.5q0 34 -16.5 62t-47.5 46q-64 39 -160 39q-80 0 -147 -20q-43 -14 -94 -43l1 -4v-139h79z" />
<glyph unicode="&#x49a;" d="M618 0v-140h82v226h-72l-258 342l288 388h-112l-263 -364h-87v364h-97v-816h97v378h90l285 -378h47z" />
<glyph unicode="&#x49b;" d="M550 0v-140h80v218h-78l-213 229l258 276h-110l-229 -250h-64v250h-90v-583h90v264h64l249 -264h43z" />
<glyph unicode="&#x49c;" d="M291 227v151h32l239 -378h122l-277 428l253 388h-112l-227 -364h-30v137h-76v-137h-63v364h-97v-816h97v378h63v-151h76z" />
<glyph unicode="&#x49d;" d="M651 78h-58l-160 229l187 276h-98l-171 -250h-42v136h-73v-136h-60v250h-90v-583h90v264h60v-150h73v150h42l191 -264h109v78z" />
<glyph unicode="&#x49e;" d="M134 665v-665h97v378h55l285 -378h123l-324 428l288 388h-112l-263 -364h-52v213h139v77h-139v74h-97v-74h-134v-77h134z" />
<glyph unicode="&#x49f;" d="M127 583v-583h90v264h64l250 -264h120v78h-76l-212 229l257 276h-109l-230 -250h-64v250h185v70h-185v163h-189v-78h99v-85h-98v-70h98z" />
<glyph unicode="&#x4a0;" d="M695 0l-324 428l288 388h-112l-262 -364h-30v364h-249v-86h153v-730h96v378h32l286 -378h122z" />
<glyph unicode="&#x4a1;" d="M674 0v78h-76l-212 229l258 276h-110l-230 -250h-64v250h-218v-82h128v-501h90v264h64l250 -264h120z" />
<glyph unicode="&#x4a2;" d="M603 0v-140h81v226h-107v730h-97v-355h-310v355h-97v-816h97v374h310v-374h123z" />
<glyph unicode="&#x4a3;" d="M595 0l1 -140h79v218h-85v505h-93v-244h-322v244h-93v-583h93v258h322v-258h98z" />
<glyph unicode="&#x4a4;" d="M375 816v-355h-275v355h-97v-816h97v374h275v-374h97v730h224v86h-321z" />
<glyph unicode="&#x4a5;" d="M381 583v-244h-263v244h-94v-583h94v258h263v-258h94v501h200v82h-294z" />
<glyph unicode="&#x4a6;" d="M480 354q30 0 50 -9.5t32 -32.5q26 -46 26 -162q0 -105 -31.5 -159t-88.5 -54q-42 0 -62 4v-87q17 -3 58 -3q219 0 219 308q0 158 -49 222q-42 57 -126 57q-33 0 -51.5 -3t-39.5 -9v390h-395v-816h97v730h202v-730h96v340q28 14 63 14z" />
<glyph unicode="&#x4a7;" d="M473 237q57 0 84.5 -46.5t27.5 -149.5q0 -203 -129 -203q-44 0 -64 3v-81q15 -4 60 -4q115 0 171 72t56 224q0 144 -51 209q-44 57 -134 57q-52 0 -86 -15v280h-374v-583h93v501h188v-501h93v222q34 15 65 15z" />
<glyph unicode="&#x4a8;" d="M87.5 721.5q-70.5 -108.5 -70.5 -313.5q0 -195 74 -307q77 -115 227 -115q85 0 147 35q25 -16 61 -25.5t72 -9.5q37 0 58.5 5t43.5 22l-30 76q-23 -17 -43 -18l-38 -2q-3 0 -39 4q61 54 94 152t33 239q0 159 -57.5 244t-171.5 85t-173 -94.5t-59 -276.5q0 -110 43 -204 q44 -102 115 -143q-18 -7 -56 -7q-92 1 -145 88.5t-53 252.5q0 168 44.5 251.5t129.5 83.5v86q-136 0 -206.5 -108.5zM353 638q37 69 102 69q63 0 93 -73q27 -64 27 -177q0 -133 -26 -217t-80 -134q-75 41 -115 135q-36 84 -36 172q0 153 35 225z" />
<glyph unicode="&#x4a9;" d="M75.5 517q-65.5 -79 -65.5 -226q0 -137 70 -221q35 -41 85.5 -62.5t113.5 -21.5q96 0 156 42q20 -20 53 -31t67 -11q41 0 76.5 12.5t57.5 32.5l-29 70q-37 -38 -92 -38q-29 0 -44 8q25 12 50.5 37t44.5 60q20 34 31 76.5t11 87.5q0 111 -45 178q-54 73 -154 73 q-115 0 -167 -92q-44 -75 -44 -196q0 -72 28.5 -131t71.5 -85q-18 -11 -58 -11q-91 0 -140 67q-46 59 -46 158q0 112 39.5 166.5t120.5 55.5v82q-126 -1 -191.5 -80zM370 437q26 64 91 64q48 0 78 -52q25 -49 25 -117q0 -83 -36 -152q-35 -67 -84 -89q-45 31 -71 86.5 t-26 120.5q0 88 23 139z" />
<glyph unicode="&#x4aa;" d="M620 603v184h-1q-40 25 -72 33q-41 10 -120 10q-156 0 -247 -97q-104 -107 -104 -325q0 -212 95 -321q42 -47 91.5 -69t105.5 -30v-175h82v174q115 8 184 62l-1 2v158h-86v-117q-45 -20 -105 -20t-108.5 21t-81.5 63q-74 88 -74 252q0 174 80 261q33 38 78.5 56.5 t96.5 18.5q58 0 101 -16v-125h86z" />
<glyph unicode="&#x4ab;" d="M596 382v163l1 3q-45 22 -99.5 35.5t-132.5 13.5q-67 0 -122 -20t-94 -59q-79 -81 -79 -227q0 -138 78 -221q67 -71 177 -80v-177h80v174q64 2 129 29q57 25 97 57l-41 68q-36 -31 -87.5 -49.5t-106.5 -18.5q-102 0 -166 59q-63 57 -63 159q0 116 55 170t171 54 q58 0 119 -22v-111h84z" />
<glyph unicode="&#x4ac;" d="M133 603v127h168v-730h122v-140h82v226h-107v644h169v-127h86v213h-606v-213h86z" />
<glyph unicode="&#x4ad;" d="M140 365v139h164v-426h-145v-78h321v-140h80v218h-165v426h165v-139h79v218h-578v-218h79z" />
<glyph unicode="&#x4ae;" d="M399 0v314l290 502h-104l-227 -403h-1l-233 403h-114l292 -504v-312h97z" />
<glyph unicode="&#x4af;" d="M50 583l255 -592v-224h94v225l250 591h-101l-183 -470h-13l-195 470h-107z" />
<glyph unicode="&#x4b0;" d="M302 260v-260h97v260h175v72h-165l280 484h-104l-227 -403h-1l-233 403h-114l280 -484h-163v-72h175z" />
<glyph unicode="&#x4b1;" d="M305 -70v-163h94v163h140v70h-137l247 583h-101l-183 -470h-13l-195 470h-107l251 -583h-135v-70h139z" />
<glyph unicode="&#x4b2;" d="M132 0l186 293l31 58l31 -58l183 -293h49v-140h82v226h-73l-212 337l256 393h-108l-173 -276l-28 -55l-30 55l-163 276h-116l246 -401l-270 -415h109z" />
<glyph unicode="&#x4b3;" d="M160 0l189 239l185 -239h56v-140h79v218h-85l-177 225l225 280h-105l-173 -219l-167 219h-117l225 -285l-241 -298h106z" />
<glyph unicode="&#x4b4;" d="M174 730v-730h444v-164h82v250h-97v730h-97v-730h-235v644h170v86h-441v-86h174z" />
<glyph unicode="&#x4b5;" d="M607 82v501h-93v-501h-241v419h163v82h-428v-82h172v-501h432v-148h79v230h-84z" />
<glyph unicode="&#x4b6;" d="M37 528q0 -122 62 -179q55 -49 160 -49t200 52v-352h122v-140h81v226h-106v730h-97v-376q-30 -25 -78 -39.5t-102 -14.5q-145 0 -145 160v270h-97v-288z" />
<glyph unicode="&#x4b7;" d="M105 421q0 -122 49 -170q22 -25 57.5 -35.5t86.5 -10.5q111 0 180 42v-247h106v-140h79v218h-94v505h-91v-258q-24 -18 -65 -30t-99 -12q-71 0 -98 41q-12 18 -16.5 43t-4.5 61v155h-90v-162z" />
<glyph unicode="&#x4b8;" d="M391 169v139q73 14 126 44v-352h96v816h-96v-376q-49 -37 -126 -49v140h-77v-145q-132 8 -132 160v270h-97v-288q0 -125 62 -179q56 -49 167 -49v-131h77z" />
<glyph unicode="&#x4b9;" d="M105 421q0 -122 49 -170q22 -25 57.5 -35.5t86.5 -10.5h5v-126h74v131q8 1 37 9q45 17 64 28v-247h91v583h-91v-258q-19 -14 -48 -24.5t-53 -13.5v148h-74v-152q-62 3 -87 41q-12 18 -16.5 43t-4.5 61v155h-90v-162z" />
<glyph unicode="&#x4ba;" d="M610 288q0 124 -62 181q-52 48 -161 48q-103 0 -200 -53v352h-97v-816h97v377q31 24 78.5 38.5t102.5 14.5q145 0 145 -159v-271h97v288z" />
<glyph unicode="&#x4bb;" d="M97 738v-738h90v371q7 31 25 59t43 48t55.5 30.5t61.5 10.5q85 0 121 -50q16 -24 22 -60.5t6 -90.5v-318h91v336q0 78 -12.5 129t-38.5 80q-25 28 -66.5 40t-99.5 12q-68 0 -117 -21.5t-86 -64.5h-5v305h-182v-78h92z" />
<glyph unicode="&#x4bc;" d="M677 496q0 168 -50 247q-56 87 -186 87q-121 0 -188 -97.5t-75 -281.5l-17 -1q-37 -1 -53 23q-14 20 -14 52q0 19 10.5 42t28.5 37h-91q-15 -15 -24 -39.5t-9 -50.5q0 -66 37.5 -104.5t112.5 -38.5h19q8 -200 80 -292.5t211 -92.5q68 0 121 23.5t89 61.5l-44 67 q-70 -66 -159 -66q-54 0 -89.5 18t-58.5 56q-23 36 -35 91t-17 134h391q10 63 10 125zM442 749q86 0 117 -72q22 -53 22 -163q0 -33 -5 -62h-301q13 297 167 297z" />
<glyph unicode="&#x4bd;" d="M557.5 81q-39.5 -13 -78.5 -13q-100 0 -144 57q-44 53 -44 157h375q7 56 7 85q0 132 -71 188q-53 42 -151 42q-109 0 -174 -61.5t-79 -177.5q-3 -1 -13 -1q-43 0 -64 23q-17 17 -17 47q0 35 14.5 59.5t40.5 42.5h-91q-26 -25 -37 -49.5t-11 -58.5q0 -65 38 -99 q44 -41 123 -41h14q2 -138 64 -215q66 -80 193 -80q60 0 113 16t88 45l-35 66q-21 -19 -60.5 -32zM549.5 478q32.5 -37 32.5 -122h-289q7 84 47 121.5t112 37.5q65 0 97.5 -37z" />
<glyph unicode="&#x4be;" d="M677 496q0 168 -50 247q-56 87 -186 87q-121 0 -188 -97.5t-75 -281.5l-17 -1q-37 -1 -53 23q-14 20 -14 52q0 19 10.5 42t28.5 37h-91q-15 -15 -24 -39.5t-9 -50.5q0 -66 37.5 -104.5t112.5 -38.5h19q7 -180 65.5 -272t171.5 -109v-177h82v174q110 11 182 84l-44 67 q-70 -66 -159 -66q-54 0 -89.5 18t-58.5 56q-23 36 -35 91t-17 134h391q10 63 10 125zM442 749q86 0 117 -72q22 -53 22 -163q0 -33 -5 -62h-301q13 297 167 297z" />
<glyph unicode="&#x4bf;" d="M557.5 81q-39.5 -13 -78.5 -13q-100 0 -144 57q-44 53 -44 157h375q7 56 7 85q0 132 -71 188q-53 42 -151 42q-109 0 -174 -61.5t-79 -177.5q-3 -1 -13 -1q-43 0 -64 23q-17 17 -17 47q0 35 14.5 59.5t40.5 42.5h-91q-26 -25 -37 -49.5t-11 -58.5q0 -65 38 -99 q44 -41 123 -41h14q1 -126 54 -202.5t158 -88.5v-177h79v175q105 9 167 59l-35 66q-21 -19 -60.5 -32zM549.5 478q32.5 -37 32.5 -122h-289q7 84 47 121.5t112 37.5q65 0 97.5 -37z" />
<glyph unicode="&#x4c0;" d="M301 730v-644h-231v-86h560v86h-232v644h232v86h-560v-86h231z" />
<glyph unicode="&#x4c3;" d="M523.5 -32q-8.5 -46 -26.5 -73q-19 -28 -50.5 -41.5t-78.5 -13.5v-85q6 -1 18 -1h15q110 0 167 71q60 77 60 240v21q0 327 -251 351l281 379h-112l-263 -364h-87v364h-97v-816h97v378h72q136 0 200 -69.5t64 -225.5q0 -69 -8.5 -115z" />
<glyph unicode="&#x4c4;" d="M478 -127q-42 -41 -134 -41h-22q-19 0 -22 1v-80q21 -3 32 -3h31q117 0 182 65q71 71 71 214q0 109 -43 179q-58 90 -199 101l246 274h-109l-230 -261h-64v261h-90v-583h90v252h51q254 2 254 -233q0 -105 -44 -146z" />
<glyph unicode="&#x4c5;" d="M603 0l-53 -152h87l82 234h-108v734h-408q-7 -295 -28 -452q-21 -148 -57 -217q-18 -33 -36.5 -47t-40.5 -14q-14 0 -25 4l-13 -84q29 -12 66 -12q87 0 136 107q37 83 57 232t32 397h220v-730h89z" />
<glyph unicode="&#x4c6;" d="M571 0l-52 -152h86l83 230h-124v505h-377q-5 -134 -10 -208q-6 -89 -14.5 -144t-20.5 -85q-23 -60 -62 -60q-10 0 -42 6l-15 -86q17 -7 27.5 -9t32.5 -2q111 0 151 148q17 63 24.5 145t13.5 216h201v-504h98z" />
<glyph unicode="&#x4c7;" d="M522 816v-355h-345v355h-97v-816h97v374h345v-374q0 -50 -2.5 -77.5t-11.5 -46.5q-9 -21 -28 -30t-52 -9v-82q12 -2 19 -2h17q81 0 118 53t37 163v847h-97z" />
<glyph unicode="&#x4c8;" d="M507.5 -76q-3.5 -30 -13.5 -49q-11 -21 -30 -31t-51 -10v-79q26 -2 35 -2q80 0 118 53t38 163v614h-93v-244h-322v244h-93v-583h93v258h322v-258q0 -46 -3.5 -76z" />
<glyph unicode="&#x4c9;" d="M586 0l-52 -152h86l83 234h-121v734h-97v-355h-322v355h-97v-816h97v374h322v-374h101z" />
<glyph unicode="&#x4ca;" d="M580 0l-53 -152h86l83 230h-122v505h-91v-243h-314v243h-90v-583h90v259h314v-259h97z" />
<glyph unicode="&#x4cb;" d="M90 528q0 -123 62 -179q53 -49 159 -49t201 52v-266h-107v-226h81v140h123v816h-97v-376q-31 -25 -78.5 -39.5t-102.5 -14.5q-144 0 -144 160v270h-97v-288z" />
<glyph unicode="&#x4cc;" d="M105 421q0 -122 49 -170q22 -25 57.5 -35.5t86.5 -10.5q111 0 180 42v-172h-99v-215h79v140h111v583h-91v-258q-24 -18 -65 -30t-99 -12q-71 0 -98 41q-12 18 -16.5 43t-4.5 61v155h-90v-162z" />
<glyph unicode="&#x4cd;" d="M611 0l-52 -152h86l83 234h-122v734h-87l-187 -310h-2l-194 310h-89v-816h94v543l-14 110h6l54 -99l124 -201h29l119 200l56 100h6l-11 -111v-542h101z" />
<glyph unicode="&#x4ce;" d="M631 0l-53 -152h87l82 230h-122v505h-93l-178 -293h-2l-185 293h-92v-583h86v347l-6 82h5l170 -267h33l168 267h5l-2 -83v-346h97z" />
<glyph unicode="&#x4cf;" d="M303 738v-738h254v78h-161v738h-256v-78h163z" />
<glyph unicode="&#x4d0;" d="M212.5 890q51.5 -33 137.5 -33q84 0 131 35.5t60 100.5l-83 20q-6 -42 -33.5 -65t-73.5 -23q-47 0 -75 23t-32 66l-92 -23q9 -68 60.5 -101zM681 0l-275 816h-115l-272 -816h95l75 226h314l77 -226h101zM356 694l120 -384h-257l123 384h14z" />
<glyph unicode="&#x4d1;" d="M244 688q24 -16 54.5 -24.5t62.5 -8.5q71 0 120 37t59 103l-70 22q-10 -47 -38 -70.5t-68 -23.5q-86 0 -106 96l-80 -28q13 -68 66 -103zM249 502q45 12 91 12q40 0 66 -9t41 -29q19 -29 19 -90q0 -24 -3 -56q-66 10 -126 10q-91 0 -148 -25q-102 -44 -102 -160 q0 -77 50 -121t137 -44q77 0 133 39q36 25 57 58h6l10 -87h155v76h-78q-6 43 -6 111q0 52 3 100q2 68 2 94q0 94 -36 145q-48 66 -157 66q-65 0 -127.5 -13.5t-109.5 -40.5l29 -68q49 20 94 32zM211 94.5q-28 26.5 -28 68.5q0 39 21 61q41 45 147 45q53 0 112 -10v-82 q-16 -40 -56 -72q-22 -17 -50.5 -27t-59.5 -10q-58 0 -86 26.5z" />
<glyph unicode="&#x4d2;" d="M166.5 889.5q20.5 -16.5 52.5 -16.5q31 0 51 16.5t20 43.5t-20 43.5t-51 16.5q-32 0 -52.5 -16.5t-20.5 -43.5t20.5 -43.5zM427.5 889.5q19.5 -16.5 50.5 -16.5q34 0 54 16.5t20 43.5t-20 43.5t-54 16.5q-31 0 -50.5 -16.5t-19.5 -43.5t19.5 -43.5zM681 0l-275 816h-115 l-272 -816h95l75 226h314l77 -226h101zM356 694l120 -384h-257l123 384h14z" />
<glyph unicode="&#x4d3;" d="M180.5 682.5q18.5 -19.5 48.5 -19.5q28 0 47 19.5t19 47.5q0 31 -18.5 50t-47.5 19q-31 0 -49 -19t-18 -50q0 -28 18.5 -47.5zM440.5 682.5q18.5 -19.5 46.5 -19.5q30 0 49.5 19.5t19.5 47.5q0 31 -19 50t-50 19q-29 0 -47 -19t-18 -50q0 -28 18.5 -47.5zM249 502 q45 12 91 12q40 0 66 -9t41 -29q19 -29 19 -90q0 -24 -3 -56q-66 10 -126 10q-91 0 -148 -25q-102 -44 -102 -160q0 -77 50 -121t137 -44q77 0 133 39q36 25 57 58h6l10 -87h155v76h-78q-6 43 -6 111q0 52 3 100q2 68 2 94q0 94 -36 145q-48 66 -157 66q-65 0 -127.5 -13.5 t-109.5 -40.5l29 -68q49 20 94 32zM211 94.5q-28 26.5 -28 68.5q0 39 21 61q41 45 147 45q53 0 112 -10v-82q-16 -40 -56 -72q-22 -17 -50.5 -27t-59.5 -10q-58 0 -86 26.5z" />
<glyph unicode="&#x4d4;" d="M663 0v87h-213v288h190v88h-190v266h210v87h-317l-320 -816h97l85 223h152v-223h306zM357 307h-123l96 260l24 77h3v-337z" />
<glyph unicode="&#x4d5;" d="M361.5 37.5q17.5 -17.5 39.5 -28.5q44 -23 96 -23q45 0 86 12t64 32l-28 66q-13 -15 -43 -21q-37 -11 -59 -11q-66 0 -101.5 48t-36.5 155h281q6 43 6 113q0 117 -56 175q-42 42 -111 42q-41 0 -79 -17q-45 -23 -64 -61q-12 33 -56 55q-40 18 -83 18q-44 0 -84.5 -12.5 t-68.5 -37.5l22 -67q22 17 53.5 28t58.5 11q47 0 75 -24q32 -34 32 -94q0 -15 -2 -59q-9 0 -16 1l-47 1h-16q-91 0 -137 -38q-53 -45 -53 -140q0 -77 39.5 -123.5t102.5 -46.5q112 0 154 85h5q9 -21 26.5 -38.5zM560.5 478.5q24.5 -40.5 24.5 -114.5v-21h-204q1 82 40 133 q33 43 78 43q37 0 61.5 -40.5zM141 97q-21 28 -21 72q0 58 36 81q27 15 84 15h13l38 -1q6 -2 13 -2v-122q-8 -31 -35.5 -51t-64.5 -20q-42 0 -63 28z" />
<glyph unicode="&#x4d6;" d="M211 890q52 -33 138 -33q162 0 191 136l-83 20q-6 -42 -33.5 -65t-73.5 -23q-47 0 -75 23t-32 66l-93 -23q9 -68 61 -101zM610 0v86h-388v291h353v86h-353v267h382v86h-479v-816h485z" />
<glyph unicode="&#x4d7;" d="M245 688q24 -16 55 -24.5t63 -8.5q71 0 119.5 37t58.5 103l-70 22q-10 -47 -38 -70.5t-68 -23.5q-86 0 -106 96l-79 -28q11 -67 65 -103zM546.5 116q-22.5 -13 -48.5 -23q-66 -25 -121 -25q-97 0 -152.5 53t-55.5 155h451q1 15 1 42q0 150 -71 218q-64 61 -182 61 q-67 0 -122 -20.5t-93 -58.5q-80 -80 -80 -227q0 -138 74 -221q75 -84 213 -84q71 0 145 24q66 23 112 63l-36 67q-12 -11 -34.5 -24zM485.5 477.5q43.5 -42.5 49.5 -119.5h-362q7 84 65 127q47 35 133 35q71 0 114.5 -42.5z" />
<glyph unicode="&#x4d8;" d="M64 325q0 -77 18.5 -140t53.5 -107q36 -44 87 -68t113 -24q143 0 215.5 108.5t72.5 313.5q0 221 -77 324q-74 98 -217 98q-67 0 -125.5 -16t-98.5 -40l25 -78q25 16 77 32q55 16 103 16q72 0 117 -30.5t68.5 -93t30.5 -163.5h-451q-12 -70 -12 -132zM479.5 144.5 q-46.5 -76.5 -142.5 -76.5q-44 0 -77.5 20t-55.5 55q-43 68 -43 171q0 34 5 61h361q-1 -154 -47.5 -230.5z" />
<glyph unicode="&#x4d9;" d="M208 490q57 25 115 25q93 0 148 -51t60 -134h-452q-4 -31 -4 -63q0 -131 71 -205q36 -39 84.5 -57.5t100.5 -18.5q67 0 122.5 20.5t93.5 58.5q39 39 59 96.5t20 129.5q0 141 -73 223q-74 83 -214 83q-73 0 -137 -21.5t-111 -60.5l38 -72q31 27 79 47zM217 117 q-24 24 -36 57.5t-12 73.5h358q0 -86 -57 -140q-25 -22 -56 -33.5t-62 -11.5q-86 0 -135 54z" />
<glyph unicode="&#x4da;" d="M147.5 889.5q20.5 -16.5 53.5 -16.5q30 0 50.5 16.5t20.5 43.5t-20.5 43.5t-50.5 16.5q-33 0 -53.5 -16.5t-20.5 -43.5t20.5 -43.5zM409 889.5q20 -16.5 50 -16.5q34 0 54 16.5t20 43.5t-20 43.5t-54 16.5q-30 0 -50 -16.5t-20 -43.5t20 -43.5zM64 325q0 -77 18.5 -140 t53.5 -107q36 -44 87 -68t113 -24q143 0 215.5 108.5t72.5 313.5q0 221 -77 324q-74 98 -217 98q-67 0 -125.5 -16t-98.5 -40l25 -78q25 16 77 32q55 16 103 16q72 0 117 -30.5t68.5 -93t30.5 -163.5h-451q-12 -70 -12 -132zM479.5 144.5q-46.5 -76.5 -142.5 -76.5 q-44 0 -77.5 20t-55.5 55q-43 68 -43 171q0 34 5 61h361q-1 -154 -47.5 -230.5z" />
<glyph unicode="&#x4db;" d="M163 682q18 -19 48 -19q29 0 48 19.5t19 47.5q0 31 -19 50t-48 19q-30 0 -48 -19t-18 -50q0 -29 18 -48zM423 682.5q18 -19.5 47 -19.5q30 0 49.5 19.5t19.5 47.5q0 31 -19 50t-50 19q-29 0 -47 -19t-18 -50q0 -28 18 -47.5zM208 490q57 25 115 25q93 0 148 -51t60 -134 h-452q-4 -31 -4 -63q0 -131 71 -205q36 -39 84.5 -57.5t100.5 -18.5q67 0 122.5 20.5t93.5 58.5q39 39 59 96.5t20 129.5q0 141 -73 223q-74 83 -214 83q-73 0 -137 -21.5t-111 -60.5l38 -72q31 27 79 47zM217 117q-24 24 -36 57.5t-12 73.5h358q0 -86 -57 -140 q-25 -22 -56 -33.5t-62 -11.5q-86 0 -135 54z" />
<glyph unicode="&#x4dc;" d="M164 889.5q21 -16.5 53 -16.5q31 0 51 16.5t20 43.5t-20 43.5t-51 16.5q-32 0 -53 -16.5t-21 -43.5t21 -43.5zM425.5 889.5q19.5 -16.5 50.5 -16.5q34 0 53.5 16.5t19.5 43.5t-19.5 43.5t-53.5 16.5q-31 0 -50.5 -16.5t-19.5 -43.5t19.5 -43.5zM233 450l-111 366h-101 l132 -404l-153 -412h100l138 378h64v-378h93v378h61l136 -378h108l-164 417l141 399h-95l-128 -366h-59v366h-93v-366h-69z" />
<glyph unicode="&#x4dd;" d="M164 682q18 -19 48 -19q29 0 48 19.5t19 47.5q0 31 -19 50t-48 19q-30 0 -48 -19t-18 -50q0 -29 18 -48zM424.5 682.5q18.5 -19.5 46.5 -19.5q30 0 49.5 19.5t19.5 47.5q0 31 -19 50t-50 19q-29 0 -47 -19t-18 -50q0 -28 18.5 -47.5zM303 0h91v261h70l125 -261h104 l-154 312l137 271h-95l-124 -252h-63v252h-91v-252h-73l-106 252h-102l134 -285l-149 -298h100l125 261h71v-261z" />
<glyph unicode="&#x4de;" d="M166.5 889.5q20.5 -16.5 52.5 -16.5q31 0 51 16.5t20 43.5t-20 43.5t-51 16.5q-32 0 -52.5 -16.5t-20.5 -43.5t20.5 -43.5zM427.5 889.5q19.5 -16.5 50.5 -16.5q34 0 54 16.5t20 43.5t-20 43.5t-54 16.5q-31 0 -50.5 -16.5t-19.5 -43.5t19.5 -43.5zM318 -14q58 0 112 15 t95 46q44 33 68.5 81.5t24.5 112.5q0 83 -46.5 134t-130.5 62v5q73 22 112.5 74t39.5 114q0 55 -20.5 95t-58.5 63q-66 42 -185 42q-84 0 -142 -13q-65 -13 -87 -26v-174h87v115q61 17 125 17q82 0 129 -32q50 -35 50 -107q0 -27 -11.5 -52t-31.5 -44q-47 -40 -105 -46h-81 v-82h70q87 -6 135 -43t48 -107q0 -82 -53 -125t-144 -43q-73 0 -138 23v122h-87v-185q100 -42 225 -42z" />
<glyph unicode="&#x4df;" d="M158.5 682.5q18.5 -19.5 47.5 -19.5t48 19.5t19 47.5q0 31 -19 50t-48 19q-30 0 -48 -19t-18 -50q0 -28 18.5 -47.5zM418.5 682.5q18.5 -19.5 46.5 -19.5q30 0 49.5 19.5t19.5 47.5q0 31 -19 50t-50 19q-29 0 -47 -19t-18 -50q0 -28 18.5 -47.5zM204 389v97q57 31 141 31 q64 0 106 -21q43 -22 43 -68q0 -18 -11.5 -35t-30.5 -29q-18 -13 -41.5 -20.5t-46.5 -7.5h-83v-76h66q91 0 132 -22.5t41 -68.5q0 -47 -47 -76q-45 -25 -112 -25q-84 0 -144 30q-41 19 -78 58l-47 -73q27 -34 86 -61q69 -32 162 -32q132 0 205 50q68 47 68 123 q0 62 -31.5 97t-106.5 48v4q50 15 84 58q14 18 22 38.5t8 39.5q0 34 -16.5 62t-47.5 46q-64 39 -160 39q-80 0 -147 -20q-43 -14 -94 -43l1 -4v-139h79z" />
<glyph unicode="&#x4e0;" d="M164 603v127h304l-213 -268v-64h68q112 0 173 -40t61 -119q0 -38 -16.5 -69t-46.5 -52q-29 -22 -70 -34t-86 -12q-92 0 -176 39v135h-86v-184q36 -31 104.5 -53.5t156.5 -22.5q68 0 125 17.5t99 51.5q90 72 90 193q0 52 -19 94t-55 72q-35 29 -84 45t-107 16h-12l223 279 v62h-519v-213h86z" />
<glyph unicode="&#x4e1;" d="M194 365v134h269l-209 -290v-56h75q209 0 209 -150q0 -79 -50.5 -124.5t-142.5 -45.5q-37 0 -76 13t-73 34v120h-79v-166l-2 -2q42 -34 105 -57q63 -22 122 -22q129 0 207 67q79 71 79 194q0 49 -17.5 89t-50.5 68q-32 29 -77 44t-98 15h-19l209 269v84h-461v-218h80z " />
<glyph unicode="&#x4e2;" d="M539 911v72h-369v-72h369zM630 0v816h-92l-304 -533l-66 -130h-7l6 115v548h-97v-816h92l303 527l68 131h7l-7 -117v-541h97z" />
<glyph unicode="&#x4e3;" d="M528 677v73h-345v-73h345zM600 0v583h-83l-326 -450h-4l3 73v377h-91v-583h83l328 443h3l-3 -77v-366h90z" />
<glyph unicode="&#x4e4;" d="M172.5 889.5q20.5 -16.5 52.5 -16.5q31 0 51 16.5t20 43.5t-20 43.5t-51 16.5q-32 0 -52.5 -16.5t-20.5 -43.5t20.5 -43.5zM433.5 889.5q19.5 -16.5 50.5 -16.5q34 0 53.5 16.5t19.5 43.5t-19.5 43.5t-53.5 16.5q-31 0 -50.5 -16.5t-19.5 -43.5t19.5 -43.5zM630 0v816 h-92l-304 -533l-66 -130h-7l6 115v548h-97v-816h92l303 527l68 131h7l-7 -117v-541h97z" />
<glyph unicode="&#x4e5;" d="M180.5 682.5q18.5 -19.5 48.5 -19.5q28 0 47 19.5t19 47.5q0 31 -18.5 50t-47.5 19q-31 0 -49 -19t-18 -50q0 -28 18.5 -47.5zM440.5 682.5q18.5 -19.5 46.5 -19.5q30 0 49.5 19.5t19.5 47.5q0 31 -19 50t-50 19q-29 0 -47 -19t-18 -50q0 -28 18.5 -47.5zM600 0v583h-83 l-326 -450h-4l3 73v377h-91v-583h83l328 443h3l-3 -77v-366h90z" />
<glyph unicode="&#x4e6;" d="M167.5 889.5q20.5 -16.5 52.5 -16.5q31 0 51 16.5t20 43.5t-20 43.5t-51 16.5q-32 0 -52.5 -16.5t-20.5 -43.5t20.5 -43.5zM428.5 889.5q19.5 -16.5 50.5 -16.5q34 0 54 16.5t20 43.5t-20 43.5t-54 16.5q-31 0 -50.5 -16.5t-19.5 -43.5t19.5 -43.5zM121 103 q73 -117 228 -117q148 0 221.5 108t73.5 314q0 202 -66 307q-72 115 -229 115q-148 0 -220.5 -108t-72.5 -314q0 -202 65 -305zM204.5 662.5q45.5 81.5 144.5 81.5q104 0 152 -100q40 -83 40 -236q0 -173 -46 -254.5t-146 -81.5q-103 0 -151 102q-39 81 -39 234 q0 173 45.5 254.5z" />
</font>
</defs>
</svg>
