<?xml version="1.0" standalone="no"?>
<!DOCTYPE svg PUBLIC "-//W3C//DTD SVG 1.1//EN" "http://www.w3.org/Graphics/SVG/1.1/DTD/svg11.dtd" >
<svg xmlns="http://www.w3.org/2000/svg" xmlns:xlink="http://www.w3.org/1999/xlink" version="1.1">
<metadata></metadata>
<defs>
<font id="anegaarregular" horiz-adv-x="0" >
<font-face units-per-em="2048" ascent="1638" descent="-410" />
<missing-glyph horiz-adv-x="262" />
<glyph unicode="&#x651;&#x64b;" d="M93 1762q-44 0 -44 47q0 36 41 49l371 118q9 3 21 3q51 0 51 -48q0 -35 -41 -47l-384 -120q-7 -2 -15 -2zM83 1964q-44 0 -44 47q0 35 42 49l371 118q9 3 21 3q50 0 50 -48q0 -35 -40 -47l-385 -120q-7 -2 -15 -2zM469 1742q47 0 47 -95t-35 -153t-107 -57q-72 0 -95 68 q-38 -105 -139 -105q-96 0 -96 126q0 55 23 104q13 27 35 27q33 0 27 -46q-10 -88 40 -88q73 0 91 129q6 43 35 43t30 -40q4 -100 63 -100q68 0 50 127q-1 7 -1 15q0 45 32 45z" />
<glyph unicode="&#x651;&#x64c;" arabic-form="isolated" d="M450 1996q0 57 -55 57q-27 -1 -49 -27t-22 -62t47 -61q27 8 53 37t26 56zM538 2030q0 -106 -101 -183q36 -25 36 -53q1 -34 -35 -34t-72 28q-220 -116 -308 -116q-52 0 -52 43q0 34 41 45q68 18 68 79q1 28 -33 28t-54 -12t-31 -12q-24 1 -24 23t19 41q41 41 103 41 q92 0 92 -84q0 -30 -17 -66q58 22 117 59q-44 46 -44 109q-1 63 51 120t111 57q59 -1 96 -33t37 -80zM475 1656q47 0 47 -95t-36 -153t-106 -57q-71 0 -95 68q-38 -105 -139 -105q-96 0 -96 126q0 55 18 93t40 38q32 0 27 -46q-11 -88 40 -88q73 0 91 129q6 43 34 43t31 -40 q3 -100 63 -100q67 0 50 127q-1 7 -1 15q0 45 32 45z" />
<glyph unicode="&#x651;&#x64d;" arabic-form="isolated" d="M101 1352q-44 0 -44 46q0 36 41 49l372 119q9 3 20 3q51 0 51 -48q0 -35 -41 -48l-384 -119q-6 -2 -15 -2zM91 1544q-44 0 -44 47q0 36 42 49l371 118q10 3 21 3q50 0 50 -48q0 -34 -40 -47l-385 -120q-6 -2 -15 -2zM486 2152q47 0 47 -94t-35 -153q-34 -58 -106 -58 t-96 68q-38 -105 -139 -105q-96 0 -96 126q0 56 18 94t40 37q33 0 27 -46q-10 -88 40 -88q73 0 91 129q6 43 35 43t30 -40q4 -100 63 -100q68 0 50 127q-1 7 -1 15q0 45 32 45z" />
<glyph unicode="&#x651;&#x64e;" arabic-form="isolated" d="M117 1743q-44 0 -44 47q0 36 41 49l371 118q10 3 21 3q51 0 51 -48q0 -34 -41 -47l-384 -120q-6 -2 -15 -2zM486 1728q47 0 47 -94t-35 -153q-34 -58 -106 -58t-96 68q-38 -105 -139 -105q-96 0 -96 126q0 56 18 94t40 37q33 0 27 -46q-10 -88 40 -88q73 0 91 129 q6 43 35 43t30 -40q4 -100 63 -100q68 0 50 127q-1 7 -1 15q0 45 32 45z" />
<glyph unicode="&#x651;&#x64f;" arabic-form="isolated" d="M470 1975q0 57 -55 57q-27 0 -49 -26t-22 -63q0 -36 47 -61q27 8 53 37t26 56zM558 2009q0 -106 -101 -183q36 -25 36 -53q1 -34 -35 -34t-72 28q-220 -116 -308 -116q-52 0 -52 43q0 34 41 45q149 39 240 97q-44 46 -44 109q-1 63 51 120t111 57t96 -32t37 -81z M503 1637q47 0 47 -95q0 -94 -35 -152t-107 -58t-95 68q-38 -105 -139 -105q-96 0 -96 126q0 55 23 104q13 27 35 27q32 0 27 -46q-11 -88 40 -88q73 0 91 129q6 43 35 43t30 -40q4 -100 63 -100q68 0 50 127q-1 7 -1 15q0 45 32 45z" />
<glyph unicode="&#x651;&#x650;" arabic-form="isolated" d="M103 1431q-44 0 -44 47q0 36 41 49l371 118q10 3 21 3q51 0 51 -48q0 -34 -41 -47l-384 -120q-6 -2 -15 -2zM478 2011q47 -1 47 -95t-35 -152q-34 -58 -106 -58t-96 68q-38 -105 -139 -105q-96 0 -96 126q-1 55 17 93t41 38q32 0 27 -46q-11 -88 40 -88q73 0 91 129 q7 43 35 43t30 -40q3 -100 63 -100q67 0 50 127q-1 7 -1 15q0 45 32 45z" />
<glyph unicode="&#xfedf;&#xfee0;&#xfeea;" horiz-adv-x="2188" arabic-form="isolated" d="M1443 1360q25 0 25 -50q0 -112 -77 -113q-37 0 -50 36q-20 -56 -73 -56t-53 67q-1 30 9 50t22 21q18 0 14 -36t22 -36q39 0 49 69q3 23 19 23t16 -22q2 -53 33 -53q37 0 27 68v8q0 24 17 24zM1331 1406q-10 0 -10 34v138q2 25 25 26h3q10 0 10 -34v-119q-3 -44 -25 -45 h-3zM519 172q0 -111 -120 -111t-198 81q-76 92 -76 270q0 53 7 111q29 243 346 243h2q53 -4 146 -21v61q3 164 107 164h2q85 -1 86 -153v-368q27 -220 178 -220h8q225 0 228 187l-1 471q1 172 106 173h2q104 0 107 -184l-1 -407v-43q4 -197 188 -197h42q161 7 167 257v514 q0 160 104 160h11q98 0 98 -169v-522q0 -245 -119 -352q-84 -77 -258 -77h-70q-180 0 -267 220q-98 -220 -317 -220h-23q-365 18 -384 280v102q0 162 -148 162t-148 -162v-2q0 -122 98 -154q96 0 96 -95q1 -3 1 1z" />
<glyph unicode="&#xfedf;&#xfe82;" horiz-adv-x="1000" arabic-form="isolated" d="M203 1653q33 0 97 -29t134 -29q70 1 114 31t58 30q38 0 42 -48v-10q-8 -59 -87 -97t-143 -37t-112 30q-49 29 -76 29q-74 0 -152 -68q-23 -15 -39 -15q-38 5 -39 53v4q0 80 104 126q67 30 99 30zM805 1325q104 0 107 -184l-1 -672q0 -245 -119 -352q-84 -77 -265 -77 h-328q-114 6 -114 107v2q1 80 131 80h255q221 6 227 257l-1 666q1 172 106 173h2zM267 1326h2q105 -1 106 -173v-590q-1 -172 -106 -173h-2q-104 0 -107 184v568q3 184 107 184z" />
<glyph unicode="&#xfee0;&#xfe82;" horiz-adv-x="1036" arabic-form="final" d="M203 1653q33 0 97 -29t134 -29q70 1 114 31t58 30q38 0 42 -48v-10q-8 -59 -87 -97t-143 -37t-112 30q-49 29 -76 29q-74 0 -152 -68q-23 -15 -39 -15q-38 5 -39 53v4q0 80 104 126q67 30 99 30zM272 1326h2q105 -1 106 -173v-590q-1 -172 -106 -173h-2q-104 0 -107 184 v568q3 184 107 184zM85 147v2q1 81 94 81v-1h292q221 6 227 257l-1 666q1 172 106 173h2q104 0 107 -184l-2 -671v-44q5 -197 119 -197h21v-189h-26q-108 0 -157 159q-61 -69 -75 -83q-83 -76 -236 -76h-357q-114 6 -114 107z" />
<glyph unicode="&#xfedf;&#xfe84;" horiz-adv-x="1000" arabic-form="isolated" d="M416 1477q55 -1 55 -39t-55 -38h-242q-77 0 -77 39q0 29 124 29q-62 66 -65 102v20q0 133 148 133t147 -88v-35q0 -30 -42 -30h-5q-33 0 -33 27q0 47 -59 47t-59 -84t75 -83h88zM805 1325q104 0 107 -184l-1 -672q0 -245 -119 -352q-84 -77 -265 -77h-328 q-114 6 -114 107v2q1 80 131 80h255q221 6 227 257l-1 666q1 172 106 173h2zM267 1326h2q105 -1 106 -173v-590q-1 -172 -106 -173h-2q-104 0 -107 184v568q3 184 107 184z" />
<glyph unicode="&#xfee0;&#xfe84;" horiz-adv-x="1036" arabic-form="final" d="M416 1477q55 -1 55 -39t-55 -38h-242q-77 0 -77 39q0 29 124 29q-62 66 -65 102v20q0 133 148 133t147 -88v-35q0 -30 -42 -30h-5q-33 0 -33 27q0 47 -59 47t-59 -84t75 -83h88zM272 1326h2q105 -1 106 -173v-590q-1 -172 -106 -173h-2q-104 0 -107 184v568 q3 184 107 184zM85 147v2q1 81 94 81v-1h53l73 1l1 -1h165q221 6 227 257l-1 666q1 172 106 173h2q104 0 107 -184l-2 -671v-44q5 -197 119 -197h21v-189h-26q-108 0 -157 159q-61 -69 -75 -83q-83 -76 -236 -76h-357q-114 6 -114 107z" />
<glyph unicode="&#xfedf;&#xfe88;" horiz-adv-x="1000" arabic-form="isolated" d="M416 -320q55 0 55 -38t-55 -39h-242q-77 0 -77 39q0 29 124 29q-62 66 -65 102v20q0 133 148 133t147 -88v-35q0 -30 -42 -30h-5q-33 0 -33 27q0 47 -59 47q-59 1 -59 -83t75 -84h88zM805 1325q104 0 107 -184l-1 -672q0 -245 -119 -352q-84 -77 -265 -77h-328 q-114 6 -114 107v2q1 80 131 80h255q221 6 227 257l-1 666q1 172 106 173h2zM267 1326h2q105 -1 106 -173v-590q-1 -172 -106 -173h-2q-104 0 -107 184v568q3 184 107 184z" />
<glyph unicode="&#xfee0;&#xfe88;" horiz-adv-x="1036" arabic-form="final" d="M416 -320q55 0 55 -38t-55 -39h-242q-77 0 -77 39q0 29 124 29q-62 66 -65 102v20q0 133 148 133t147 -88v-35q0 -30 -42 -30h-5q-33 0 -33 27q0 47 -59 47q-59 1 -59 -83t75 -84h88zM272 1326h2q105 -1 106 -173v-590q-1 -172 -106 -173h-2q-104 0 -107 184v568 q3 184 107 184zM85 147v2q1 81 94 81v-1h53l73 1l1 -1h165q221 6 227 257l-1 666q1 172 106 173h2q104 0 107 -184l-2 -671v-44q5 -197 119 -197h21v-189h-26q-108 0 -157 159q-61 -69 -75 -83q-83 -76 -236 -76h-357q-114 6 -114 107z" />
<glyph unicode="&#xfedf;&#xfe8e;" horiz-adv-x="1000" arabic-form="isolated" d="M805 1325q104 0 107 -184l-1 -672q0 -245 -119 -352q-84 -77 -265 -77h-328q-114 6 -114 107v2q1 80 131 80h255q221 6 227 257l-1 666q1 172 106 173h2zM267 1326h2q105 -1 106 -173v-590q-1 -172 -106 -173h-2q-104 0 -107 184v568q3 184 107 184z" />
<glyph unicode="&#xfee0;&#xfe8e;" horiz-adv-x="1036" arabic-form="final" d="M272 1326h2q105 -1 106 -173v-590q-1 -172 -106 -173h-2q-104 0 -107 184v568q3 184 107 184zM85 147v2q1 81 94 81v-1h292q221 6 227 257l-1 666q1 172 106 173h2q104 0 107 -184l-2 -671v-44q5 -197 119 -197h21v-189h-26q-108 0 -157 159q-61 -69 -75 -83 q-83 -76 -236 -76h-357q-114 6 -114 107z" />
<glyph unicode="&#x6c0;" horiz-adv-x="800" arabic-form="isolated" d="M432 1048q0 88 96 89q96 -1 95 -89q1 -88 -95 -88t-96 88zM156 1050q0 88 96 88t95 -88q1 -88 -95 -89q-96 1 -96 89zM418 208q16 0 32 4q102 24 121 130q1 12 1 22q0 93 -148 207q-145 -103 -145 -199q0 -29 11 -57q42 -107 128 -107zM363 852q74 0 225 -162t151 -349 q0 -141 -132 -240q-90 -61 -177 -61q-255 0 -293 203q-12 68 -12 124q0 123 61 190q91 99 214 103q-107 97 -108 111q0 69 60 80q4 1 11 1z" />
<glyph unicode="&#x6a9;" horiz-adv-x="1600" arabic-form="isolated" d="M815 850q0 57 27 110q61 121 331 278q259 165 338 165q44 0 61 -30q8 -14 8 -30q0 -58 -184 -189q-47 -39 -155 -102t-272 -210q184 -8 296 -45q253 -85 271 -316q13 -199 -107 -310q-55 -47 -139 -74q-225 -57 -507 -60v3q-353 2 -495 98t-152 355l-1 63q1 134 100 134 t99 -127v-27q0 -301 431 -307q564 38 585 178v15q0 136 -319 219h-2q-151 38 -175 84q-39 68 -39 125z" />
<glyph unicode="&#x6cc;" horiz-adv-x="1400" arabic-form="isolated" d="M952 -319q96 -1 95 -89q1 -88 -95 -88t-96 88t96 89zM676 -320q96 0 95 -88q1 -88 -95 -89q-96 1 -96 89t96 88zM773 -53q24 0 60 2q127 11 203 63t112 189h-327q-192 1 -192 176q0 204 112 361q102 140 339 140h50q129 0 129 -92q0 -103 -128 -104l-42 1 q-265 -4 -294 -297h312q235 0 235 -157q0 -168 -66 -246t-114 -113q-80 -65 -175 -84q-53 -13 -119 -19h-123q-127 0 -221 20t-194 82q-102 62 -154 142t-51 236q0 70 15 124l63 190q52 159 135 159q10 0 22 -2q67 -14 67 -81q0 -29 -10 -65l-74 -217q-19 -61 -19 -114 q0 -197 244 -277q55 -13 105 -17h100z" />
<glyph unicode="&#x67e;" horiz-adv-x="1670" arabic-form="final" d="M408 819q120 0 120 -110v-2q-1 -87 -98 -93q-96 -32 -96 -154q0 -24 5 -43q47 -121 198 -164q81 -24 254 -24h321q241 0 241 291l-1 112q1 128 104 128q92 0 92 -129v-117q20 -285 137 -285v-189q-109 0 -193 110l-23 51q-98 -146 -381 -161h-367q-303 0 -451 99 q-96 64 -128 219q-7 58 -7 92q0 197 76 288q77 81 197 81zM878 -388q96 0 95 -88q1 -88 -95 -89q-96 1 -96 89t96 88zM1022 -140q96 0 96 -88t-96 -89q-96 1 -95 89q-1 88 95 88zM726 -141q96 -1 96 -89t-96 -88t-95 88q-1 88 95 89z" />
<glyph unicode="&#x67e;" horiz-adv-x="718" arabic-form="initial" d="M244 -388q96 0 95 -88q1 -88 -95 -89q-96 1 -96 89t96 88zM388 -140q96 0 96 -88t-96 -89q-96 1 -95 89q-1 88 95 88zM92 -141q96 -1 96 -89t-96 -88t-95 88q-1 88 95 89zM-19 229h49q353 0 353 291v112q0 128 103 128q92 0 92 -129v-120q0 -257 -140 -359 q-157 -112 -395 -112h-62v189z" />
<glyph unicode="&#x67e;" horiz-adv-x="754" arabic-form="medial" d="M254 -388q96 0 95 -88q1 -88 -95 -89q-96 1 -96 89t96 88zM398 -140q96 0 96 -88t-96 -89q-96 1 -95 89q-1 88 95 88zM102 -141q96 -1 96 -89t-96 -88t-95 88q-1 88 95 89zM769 229v-189h-23q-149 1 -267 155q-42 -34 -52 -42q-157 -112 -406 -112l-41 -1v190h40 q352 0 352 291l-1 112q1 128 104 128q92 0 92 -129v-76q10 -326 179 -327h23z" />
<glyph unicode="&#x686;" horiz-adv-x="1145" arabic-form="final" d="M910 -388q96 0 95 -88q1 -88 -95 -89q-96 1 -96 89t96 88zM1054 -140q96 0 96 -88t-96 -89q-96 1 -95 89q-1 88 95 88zM758 -141q96 -1 96 -89t-96 -88t-95 88q-1 88 95 89zM929 194q-117 -152 -271 -152h-21q-19 1 -59 1q-242 0 -243 -195q0 -21 5 -46l3 -7 q32 -112 164 -112l76 9q41 0 61 -30t19 -58q0 -28 -27 -68q-42 -61 -155 -62q-113 -2 -218 87q-126 110 -128 282v42q0 111 67 196q100 102 184 124t262 35q168 0 168 148q0 153 -107 238q-42 32 -91 32q-88 0 -190 -108q-93 -93 -160 -93h-4q-38 1 -64 29t-25 48 q0 79 50 139q117 145 257 203q49 20 126 20t197 -59q187 -91 205 -340v-6q6 -174 61 -236q36 -26 73 -26h15v-189h-21q-137 3 -209 154z" />
<glyph unicode="&#x686;" horiz-adv-x="1178" arabic-form="initial" d="M456 -388q96 0 96 -88t-96 -89q-96 1 -95 89q-1 88 95 88zM602 -140q96 0 95 -88q1 -88 -95 -89q-96 1 -96 89t96 88zM306 -141q96 -1 95 -89q1 -88 -95 -88t-96 88t96 89zM1004 201q24 0 44 10q0 -19 -32 -69q-65 -102 -371 -102l-143 -1h-523v190h482q194 14 194 159 q0 153 -107 238q-42 32 -91 32q-88 0 -190 -108q-93 -93 -160 -93h-4q-37 1 -63 29t-26 48q0 79 50 139q117 145 257 203q49 20 126 20t197 -59q187 -91 205 -341q5 -176 51 -236t104 -59z" />
<glyph unicode="&#x686;" horiz-adv-x="982" arabic-form="medial" d="M396 -388q96 0 96 -88t-96 -89q-96 1 -95 89q-1 88 95 88zM542 -140q96 0 95 -88q1 -88 -95 -89q-96 1 -96 89t96 88zM246 -141q96 -1 95 -89q1 -88 -95 -88t-96 88t96 89zM-21 40v189h482q194 14 194 159q0 153 -107 238q-42 32 -91 32q-88 0 -190 -108 q-93 -93 -160 -93h-4q-37 1 -63 29t-26 48q0 79 50 139q117 145 257 203q49 20 126 20t197 -59q187 -91 205 -340q0 -14 1 -105q14 -94 53 -137q36 -26 73 -26h15v-189h-21q-137 3 -209 154q-114 -148 -332 -154h-450z" />
<glyph unicode="&#x698;" horiz-adv-x="600" arabic-form="final" d="M267 816q-1 88 95 88t96 -88t-96 -89q-96 1 -95 89zM412 568q0 88 96 88t95 -88q1 -88 -95 -89q-96 1 -96 89zM116 568q0 88 96 89q96 -1 95 -89q1 -88 -95 -88t-96 88zM520 229h93v-189h-15q-49 0 -82 -22q-46 -34 -51 -114t-16 -143q-25 -109 -125 -192 q-137 -96 -260 -96h-36q-120 0 -148 36q-11 0 -28 54v26q0 56 79 84q15 0 28 3q33 -3 69 -3h24q102 0 181 97q39 64 39 138t9 119l9 46q69 156 230 156z" />
<glyph unicode="&#x6af;" horiz-adv-x="1667" arabic-form="final" d="M847 1236q0 14 18 35q45 52 334 229q96 55 141 55t45 -34q0 -47 -124 -118q-90 -53 -209 -125t-172 -72q-17 0 -24 4q-9 12 -9 26zM805 850q0 57 27 110q61 121 331 278q259 165 338 165q44 0 61 -30q8 -14 8 -30q0 -58 -184 -189q-47 -39 -155 -102t-272 -210 q184 -8 296 -45q253 -85 271 -316q1 -71 13 -149t110 -103h30v-189h-33q-159 27 -196 157q-86 -73 -170 -100q-225 -57 -507 -60v3q-353 2 -495 98t-152 355l-1 63q1 134 100 134t99 -127v-27q0 -301 431 -307q564 38 585 178v15q0 136 -319 219h-2q-151 38 -175 84 q-39 68 -39 125z" />
<glyph unicode="&#x6af;" horiz-adv-x="800" arabic-form="initial" d="M17 1236q0 14 18 35q45 52 334 229q96 55 141 55t45 -34q0 -47 -124 -118q-90 -53 -209 -125t-172 -72q-17 0 -24 4q-9 12 -9 26zM22 40h-36v189h163q348 40 369 178v15q0 136 -314 218q-156 39 -180 85q-39 68 -39 125t27 110q61 121 331 278q259 165 338 165 q44 0 61 -30q8 -14 8 -30q0 -79 -304 -269q-145 -85 -309 -232q184 -8 296 -45q272 -91 272 -357q0 -176 -113 -273q-53 -44 -134 -70q-225 -57 -436 -57z" />
<glyph unicode="&#x6af;" horiz-adv-x="850" arabic-form="medial" d="M17 1236q0 14 18 35q45 52 334 229q96 55 141 55t45 -34q0 -47 -124 -118q-90 -53 -209 -125t-172 -72q-17 0 -24 4q-9 12 -9 26zM832 229h25v-189h-24q-149 12 -211 151q-83 -68 -164 -94q-225 -57 -436 -57h-36v189h163q348 40 369 178v15q0 136 -314 218 q-156 39 -180 85q-39 68 -39 125t27 110q61 121 331 278q259 165 338 165q44 0 61 -30q8 -14 8 -30q0 -79 -304 -269q-145 -85 -309 -232q184 -8 296 -45q272 -91 272 -357q0 -40 -7 -83q34 -128 134 -128z" />
<glyph unicode="&#x6c0;" horiz-adv-x="971" arabic-form="final" d="M442 1078q0 88 96 89q96 -1 95 -89q1 -88 -95 -88t-96 88zM166 1080q0 88 96 88t95 -88q1 -88 -95 -89q-96 1 -96 89zM135 412q0 53 7 111q29 243 346 243h2q53 -4 146 -21v61q3 164 107 164h2q85 -1 86 -153v-378q0 -211 114 -211q9 0 18 1h29v-189h-42q-292 0 -320 281 v101q0 162 -148 162t-148 -162v-2q0 -122 98 -154q96 0 104 -99q-9 -106 -128 -106t-197 81q-76 92 -76 270z" />
<glyph unicode="&#x622;" horiz-adv-x="571" arabic-form="final" d="M120 1490q32 0 96 -29t134 -29t114 30t59 31q38 0 42 -48v-10q-8 -59 -87 -97q-78 -38 -142 -37t-113 30t-76 29q-74 0 -152 -68q-23 -15 -39 -15q-38 5 -39 53v4q0 80 104 126q67 30 99 30zM579 229v-189h-53q-17 -1 -33 -1q-163 0 -248 78q-119 107 -119 352l-1 507 q3 184 107 184h2q105 -1 106 -173l-1 -501q6 -251 227 -257h13z" />
<glyph unicode="&#x623;" horiz-adv-x="600" arabic-form="final" d="M442 1285q0 -35 -50 -35h-222q-70 0 -70 35q0 27 113 27q-56 60 -59 93v19q0 121 134 121t135 -80v-32q0 -28 -38 -28h-5q-30 0 -30 25q0 43 -54 43q-54 -1 -54 -77t69 -76h81q50 0 50 -35zM623 229v-189h-53q-17 -1 -33 -1q-163 0 -248 78q-119 107 -119 352l-1 507 q3 184 107 184h2q105 -1 106 -173l-1 -501q6 -251 227 -257h13z" />
<glyph unicode="&#x624;" horiz-adv-x="964" arabic-form="final" d="M610 940q0 -35 -50 -35h-222q-70 0 -70 35q0 27 113 27q-56 60 -59 93v19q0 121 134 121t135 -80v-32q0 -28 -38 -28h-5q-30 0 -30 25q0 43 -54 43t-54 -76t69 -77h81q50 0 50 -35zM543 150q0 -112 -152 -111q-112 0 -190 81q-76 92 -76 270q0 53 7 111q29 243 346 243h2 q237 -14 297 -139q35 -88 35 -198q0 -20 -1 -45q19 -133 136 -133h35v-189q-161 2 -199 95q3 -13 3 -31t-3 -38q-44 -204 -143 -316t-249 -161q-37 -8 -87 -8t-89 37q-40 37 -40 77q0 14 5 28q19 43 94 59q184 30 243 101q132 130 132 365q0 143 -43 233q-33 81 -134 81 q-147 0 -148 -162v-2q0 -122 96 -154q97 -6 115 -50q8 -22 8 -44z" />
<glyph unicode="&#x625;" horiz-adv-x="548" arabic-form="final" d="M410 -260q0 -35 -50 -35h-222q-70 0 -70 35q0 27 113 27q-56 60 -59 93v19q0 121 134 121t135 -80v-32q0 -28 -38 -28h-5q-30 0 -30 25q0 43 -54 43t-54 -76t69 -77h81q50 0 50 -35zM564 229v-189h-53q-17 -1 -33 -1q-163 0 -248 78q-119 107 -119 352l-1 673 q3 184 107 184h2q105 -1 106 -173l-1 -667q6 -251 227 -257h13z" />
<glyph unicode="&#x626;" horiz-adv-x="1100" arabic-form="final" d="M800 435q0 -35 -50 -35h-222q-70 0 -70 35q0 27 113 27q-56 60 -59 93v19q0 121 134 121t135 -80v-32q0 -28 -38 -28h-5q-30 0 -30 25q0 43 -54 43q-54 -1 -54 -77t69 -76h81q50 0 50 -35zM30 30q0 52 15 106l85 253q33 105 97 105q18 0 38 -6q69 -21 69 -84 q0 -29 -12 -66l-74 -218q-19 -61 -19 -114q0 -197 245 -277q65 -12 147 -12h61q21 0 88 3l130 30q-263 243 -263 310q-11 0 -11 40t59 84t216 45h216v-189h-259q223 -176 223 -238l4 -40q0 -90 -65 -152t-237 -78h-133q-126 0 -220 20t-196 82t-152 142q-52 80 -52 254z" />
<glyph unicode="&#x626;" horiz-adv-x="600" arabic-form="initial" d="M357 954q55 0 55 -38t-55 -39h-242q-77 0 -77 39q0 29 124 29q-62 66 -65 102v20q-1 133 147 133t148 -88v-35q0 -30 -42 -30h-5q-33 0 -33 27q0 47 -59 47q-59 1 -59 -83t75 -84h88zM-34 229h49q313 0 313 291v112q0 128 103 128q92 0 92 -129v-120q0 -257 -140 -359 q-157 -112 -355 -112h-62v189z" />
<glyph unicode="&#x626;" horiz-adv-x="754" arabic-form="medial" d="M417 954q55 0 55 -38t-55 -39h-242q-77 0 -77 39q0 29 124 29q-62 66 -65 102v20q-1 133 147 133t148 -88v-35q0 -30 -42 -30h-5q-33 0 -33 27q0 47 -59 47q-59 1 -59 -83t75 -84h88zM769 229v-189h-23q-149 1 -267 155q-42 -34 -52 -42q-157 -112 -406 -112l-41 -1v190 h40q352 0 352 291l-1 112q1 128 104 128q92 0 92 -129v-76q10 -326 179 -327h23z" />
<glyph unicode="&#x627;" horiz-adv-x="569" arabic-form="final" d="M589 229v-189h-53q-17 -1 -33 -1q-163 0 -248 78q-119 107 -119 352l-1 673q3 184 107 184h2q105 -1 106 -173l-1 -667q6 -251 227 -257h13z" />
<glyph unicode="&#x628;" horiz-adv-x="1670" arabic-form="final" d="M884 -140q96 0 96 -88t-96 -89q-96 1 -95 89q-1 88 95 88zM408 819q120 0 120 -110v-2q-1 -87 -98 -93q-96 -32 -96 -154q0 -24 5 -43q47 -121 198 -164q81 -24 254 -24h321q241 0 241 291l-1 112q1 128 104 128q92 0 92 -129v-117q20 -285 137 -285v-189 q-109 0 -193 110l-23 51q-98 -146 -381 -161h-367q-303 0 -451 99q-96 64 -128 219q-7 58 -7 92q0 197 76 288q77 81 197 81z" />
<glyph unicode="&#x628;" horiz-adv-x="600" arabic-form="initial" d="M333 632q0 128 103 128q92 0 92 -129v-120q0 -257 -140 -359q-157 -112 -395 -112h-12v189q352 0 352 291v112zM210 -140q96 0 95 -88q1 -88 -95 -89q-96 1 -96 89t96 88z" />
<glyph unicode="&#x628;" horiz-adv-x="754" arabic-form="medial" d="M210 -140q96 0 95 -88q1 -88 -95 -89q-96 1 -96 89t96 88zM769 229v-189h-23q-149 1 -267 155q-42 -34 -52 -42q-157 -112 -406 -112l-41 -1v190h40q352 0 352 291l-1 112q1 128 104 128q92 0 92 -129v-76q10 -326 179 -327h23z" />
<glyph unicode="&#x62a;" horiz-adv-x="1670" arabic-form="final" d="M984 912q0 88 96 89q96 -1 95 -89q1 -88 -95 -88t-96 88zM688 914q0 88 96 88t95 -88q1 -88 -95 -89q-96 1 -96 89zM408 819q120 0 120 -110v-2q-1 -87 -98 -93q-96 -32 -96 -154q0 -24 5 -43q47 -121 198 -164q81 -24 254 -24h321q241 0 241 291l-1 112q1 128 104 128 q92 0 92 -129v-117q20 -285 137 -285v-189q-109 0 -193 110l-23 51q-52 -42 -61 -48q-166 -113 -320 -113h-367q-303 0 -451 99q-96 64 -128 219q-7 58 -7 92q0 197 76 288q77 81 197 81z" />
<glyph unicode="&#x62a;" horiz-adv-x="600" arabic-form="initial" d="M332 632q0 128 103 128q92 0 92 -129v-120q0 -257 -140 -359q-157 -112 -395 -112h-12v189q352 0 352 291v112zM272 1018q0 88 96 89q96 -1 95 -89q1 -88 -95 -88t-96 88zM-24 1020q0 88 96 88t95 -88q1 -88 -95 -89q-96 1 -96 89z" />
<glyph unicode="&#x62a;" horiz-adv-x="754" arabic-form="medial" d="M282 1018q0 88 96 89q96 -1 95 -89q1 -88 -95 -88t-96 88zM-14 1020q0 88 96 88t95 -88q1 -88 -95 -89q-96 1 -96 89zM769 229v-189h-23q-149 1 -267 155q-42 -34 -52 -42q-157 -112 -406 -112l-41 -1v190h40q352 0 352 291l-1 112q1 128 104 128q92 0 92 -129v-76 q10 -326 179 -327h23z" />
<glyph unicode="&#x62b;" horiz-adv-x="1670" arabic-form="final" d="M408 819q120 0 120 -110v-2q-1 -87 -98 -93q-96 -32 -96 -154q0 -24 5 -43q47 -121 198 -164q81 -24 254 -24h321q241 0 241 291l-1 112q1 128 104 128q92 0 92 -129v-117q20 -285 137 -285v-189q-109 0 -193 110l-23 51q-98 -146 -381 -161h-367q-303 0 -451 99 q-96 64 -128 219q-7 58 -7 92q0 197 76 288q77 81 197 81zM849 1160q-1 88 95 89q96 -1 96 -89t-96 -88t-95 88zM994 912q0 88 96 89q96 -1 95 -89q1 -88 -95 -88t-96 88zM698 914q0 88 96 88t95 -88q1 -88 -95 -89q-96 1 -96 89z" />
<glyph unicode="&#x62b;" horiz-adv-x="657" arabic-form="initial" d="M147 1266q-1 88 95 89q96 -1 96 -89t-96 -88t-95 88zM292 1018q0 88 96 89q96 -1 95 -89q1 -88 -95 -88t-96 88zM-4 1020q0 88 96 88t95 -88q1 -88 -95 -89q-96 1 -96 89zM332 632q0 128 103 128q92 0 92 -129v-120q0 -257 -140 -359q-157 -112 -395 -112h-12v189 q352 0 352 291v112z" />
<glyph unicode="&#x62b;" horiz-adv-x="754" arabic-form="medial" d="M147 1266q-1 88 95 89q96 -1 96 -89t-96 -88t-95 88zM292 1018q0 88 96 89q96 -1 95 -89q1 -88 -95 -88t-96 88zM-4 1020q0 88 96 88t95 -88q1 -88 -95 -89q-96 1 -96 89zM769 229v-189h-23q-149 1 -267 155q-42 -34 -52 -42q-157 -112 -406 -112l-41 -1v190h40 q352 0 352 291l-1 112q1 128 104 128q92 0 92 -129v-76q10 -326 179 -327h23z" />
<glyph unicode="&#x62c;" horiz-adv-x="1145" arabic-form="final" d="M811 -228q-1 88 95 88t96 -88t-96 -89q-96 1 -95 89zM929 194q-117 -152 -271 -152h-21q-19 1 -59 1q-242 0 -243 -195q0 -21 5 -46l3 -7q32 -112 164 -112l76 9q41 0 61 -30t19 -58q0 -28 -27 -68q-42 -61 -155 -62q-113 -2 -218 87q-126 110 -128 282v42q0 111 67 196 q100 102 184 124t262 35q168 0 168 148q0 153 -107 238q-42 32 -91 32q-88 0 -190 -108q-93 -93 -160 -93h-4q-38 1 -64 29t-25 48q0 79 50 139q117 145 257 203q49 20 126 20t197 -59q187 -91 205 -340v-6q6 -174 61 -236q36 -26 73 -26h15v-189h-21q-137 3 -209 154z" />
<glyph unicode="&#x62c;" horiz-adv-x="1102" arabic-form="initial" d="M1004 201q24 0 44 10q0 -19 -32 -69q-65 -102 -371 -102l-143 -1h-523v190h482q194 14 194 159q0 153 -107 238q-42 32 -91 32q-88 0 -190 -108q-93 -93 -160 -93h-4q-37 1 -63 29t-26 48q0 79 50 139q117 145 257 203q49 20 126 20t197 -59q187 -91 205 -341 q5 -176 51 -236t104 -59zM222 -228q0 88 96 88t95 -88q1 -88 -95 -89q-96 1 -96 89z" />
<glyph unicode="&#x62c;" horiz-adv-x="982" arabic-form="medial" d="M222 -228q0 88 96 88t95 -88q1 -88 -95 -89q-96 1 -96 89zM-21 40v189h482q194 14 194 159q0 153 -107 238q-42 32 -91 32q-88 0 -190 -108q-93 -93 -160 -93h-4q-37 1 -63 29t-26 48q0 79 50 139q117 145 257 203q49 20 126 20t197 -59q187 -91 205 -340q0 -14 1 -105 q14 -94 53 -137q36 -26 73 -26h15v-189h-21q-137 3 -209 154q-114 -148 -332 -154h-450z" />
<glyph unicode="&#x62d;" horiz-adv-x="1145" arabic-form="final" d="M929 194q-117 -152 -271 -152h-21q-19 1 -59 1q-242 0 -243 -195q0 -21 5 -46l3 -7q32 -112 164 -112l76 9q41 0 61 -30t19 -58q0 -28 -27 -68q-42 -61 -155 -62q-113 -2 -218 87q-126 110 -128 282v42q0 111 67 196q100 102 184 124t262 35q168 0 168 148 q0 153 -107 238q-42 32 -91 32q-88 0 -190 -108q-93 -93 -160 -93h-4q-38 1 -64 29t-25 48q0 79 50 139q117 145 257 203q49 20 126 20t197 -59q187 -91 205 -340v-6q6 -174 61 -236q36 -26 73 -26h15v-189h-21q-137 3 -209 154z" />
<glyph unicode="&#x62d;" horiz-adv-x="1102" arabic-form="initial" d="M1004 201q24 0 44 10q0 -19 -32 -69q-65 -102 -371 -102l-143 -1h-523v190h482q194 14 194 159q0 153 -107 238q-42 32 -91 32q-88 0 -190 -108q-93 -93 -160 -93h-4q-37 1 -63 29t-26 48q0 79 50 139q117 145 257 203q49 20 126 20t197 -59q187 -91 205 -341 q5 -176 51 -236t104 -59z" />
<glyph unicode="&#x62d;" horiz-adv-x="982" arabic-form="medial" d="M-21 40v189h482q194 14 194 159q0 153 -107 238q-42 32 -91 32q-88 0 -190 -108q-93 -93 -160 -93h-4q-37 1 -63 29t-26 48q0 79 50 139q117 145 257 203q49 20 126 20t197 -59q187 -91 205 -340q0 -14 1 -105q14 -94 53 -137q36 -26 73 -26h15v-189h-21q-137 3 -209 154 q-114 -148 -332 -154h-450z" />
<glyph unicode="&#x62e;" horiz-adv-x="1145" arabic-form="final" d="M449 1152q-1 88 95 89q96 -1 96 -89t-96 -88t-95 88zM929 194q-117 -152 -271 -152h-21q-19 1 -59 1q-242 0 -243 -195q0 -21 5 -46l3 -7q32 -112 164 -112l76 9q41 0 61 -30t19 -58q0 -28 -27 -68q-42 -61 -155 -62q-113 -2 -218 87q-126 110 -128 282v42q0 111 67 196 q100 102 184 124t262 35q168 0 168 148q0 153 -107 238q-42 32 -91 32q-88 0 -190 -108q-93 -93 -160 -93h-4q-38 1 -64 29t-25 48q0 79 50 139q117 145 257 203q49 20 126 20t197 -59q187 -91 205 -340v-6q6 -174 61 -236q36 -26 73 -26h15v-189h-21q-137 3 -209 154z" />
<glyph unicode="&#x62e;" horiz-adv-x="1089" arabic-form="initial" d="M1004 201q24 0 44 10q0 -19 -32 -69q-65 -102 -371 -102l-143 -1h-523v190h482q194 14 194 159q0 153 -107 238q-42 32 -91 32q-88 0 -190 -108q-93 -93 -160 -93h-4q-37 1 -63 29t-26 48q0 79 50 139q117 145 257 203q49 20 126 20t197 -59q187 -91 205 -341 q5 -176 51 -236t104 -59zM222 1152q0 88 96 89q96 -1 95 -89q1 -88 -95 -88t-96 88z" />
<glyph unicode="&#x62e;" horiz-adv-x="982" arabic-form="medial" d="M222 1152q0 88 96 89q96 -1 95 -89q1 -88 -95 -88t-96 88zM-21 40v189h482q194 14 194 159q0 153 -107 238q-42 32 -91 32q-88 0 -190 -108q-93 -93 -160 -93h-4q-37 1 -63 29t-26 48q0 79 50 139q117 145 257 203q49 20 126 20t197 -59q187 -91 205 -340q0 -14 1 -105 q14 -94 53 -137q36 -26 73 -26h15v-189h-21q-137 3 -209 154q-114 -148 -332 -154h-450z" />
<glyph unicode="&#x62f;" horiz-adv-x="1061" arabic-form="final" d="M1074 229v-189h-13q-109 0 -216 117q-39 -53 -49 -64q-72 -53 -137 -53h-434q-112 1 -113 86v2q0 101 119 101h258q166 0 166 98q0 34 -26 77l-126 159q-37 53 -91 53t-96 -25t-72 -25q-29 0 -64 53q-10 15 -10 35t10 54q16 56 120 92q46 17 100 17q89 0 183 -76 q47 -30 100 -95l138 -183q91 -136 164 -185t89 -49z" />
<glyph unicode="&#x630;" horiz-adv-x="1061" arabic-form="final" d="M320 1154q96 0 95 -88q1 -88 -95 -89q-96 1 -96 89t96 88zM1074 229v-189h-13q-109 0 -216 117q-39 -53 -49 -64q-72 -53 -137 -53h-434q-112 1 -113 86v2q0 101 119 101h258q166 0 166 98q0 34 -26 77l-126 159q-37 53 -91 53t-96 -25t-72 -25q-29 0 -64 53 q-10 15 -10 35t10 54q16 56 120 92q46 17 100 17q89 0 183 -76q47 -30 100 -95l138 -183q91 -136 164 -185t89 -49z" />
<glyph unicode="&#x631;" horiz-adv-x="600" arabic-form="final" d="M520 229h93v-189h-15q-49 0 -82 -22q-46 -34 -51 -114t-16 -143q-25 -109 -125 -192q-137 -96 -260 -96h-36q-120 0 -148 36q-11 0 -28 54v26q0 56 79 84q15 0 28 3q33 -3 69 -3h24q102 0 181 97q39 64 39 138t9 119l9 46q69 156 230 156z" />
<glyph unicode="&#x632;" horiz-adv-x="600" arabic-form="final" d="M258 709q96 -1 95 -89q1 -88 -95 -88t-96 88t96 89zM520 229h93v-189h-15q-49 0 -82 -22q-46 -34 -51 -114t-16 -143q-25 -109 -125 -192q-137 -96 -260 -96h-36q-120 0 -148 36q-11 0 -28 54v26q0 56 79 84q15 0 28 3q33 -3 69 -3h24q102 0 181 97q39 64 39 138t9 119 l9 46q69 156 230 156z" />
<glyph unicode="&#x633;" horiz-adv-x="2243" arabic-form="final" d="M653 -450q-216 0 -360 96t-144 337q-4 55 -4 103q0 148 34 230q17 49 42 77q82 114 186 139q37 8 87 8t90 -37t40 -77q0 -14 -6 -30q-17 -56 -86 -56q-167 0 -187 -236v-5l1 -116q0 -244 302 -244t302 314v528q0 179 105 179q111 -1 111 -137v-243q9 -171 150 -171 q119 0 119 156v258q0 132 115 137q85 0 90 -144v-230q9 -180 141 -180h2q131 0 131 175v228q0 151 98 151q80 0 80 -150l-1 -127q1 -160 46 -201q44 -53 100 -53h35v-189h-34q-135 6 -174 132q-94 -134 -214 -142h-45q-165 9 -262 155q-71 -180 -249 -180q-71 0 -129 35 q-21 -278 -149 -378q-147 -112 -363 -112z" />
<glyph unicode="&#x633;" horiz-adv-x="1400" arabic-form="initial" d="M18 40h-38v189h65q144 0 144 196v156q0 179 105 179q111 -1 111 -137v-243q9 -171 150 -171q119 0 119 156v258q0 132 115 137q85 0 90 -144v-230q9 -180 141 -180h2q131 0 131 175v228q0 151 98 151q80 0 81 -149v-191q0 -176 -62 -279t-181 -111h-45q-165 9 -262 155 q-69 -176 -238 -176t-281 125q-118 -94 -245 -94z" />
<glyph unicode="&#x633;" horiz-adv-x="1508" arabic-form="medial" d="M18 40h-38v189h65q144 0 144 196v156q0 179 105 179q111 -1 111 -137v-243q9 -171 150 -171q119 0 119 156v258q0 132 115 137q85 0 90 -144v-230q9 -180 141 -180h2q131 0 131 175v228q0 151 98 151q79 0 79 -146v-131q5 -254 179 -254h31v-189h-44q-164 8 -207 159 q-81 -161 -200 -169h-45q-165 9 -262 155q-69 -176 -238 -176t-281 125q-118 -94 -245 -94z" />
<glyph unicode="&#x634;" horiz-adv-x="2243" arabic-form="final" d="M653 -450q-216 0 -360 96t-144 337q-4 55 -4 103q0 148 34 230q17 49 42 77q82 114 186 139q37 8 87 8t90 -37t40 -77q0 -14 -6 -30q-17 -56 -86 -56q-167 0 -187 -236v-5l1 -116q0 -244 302 -244t302 314v528q0 179 105 179q111 -1 111 -137v-243q9 -171 150 -171 q119 0 119 156v258q0 132 115 137q85 0 90 -144v-230q9 -180 141 -180h2q131 0 131 175v228q0 151 98 151q80 0 80 -150l-1 -127q1 -160 46 -201q44 -53 100 -53h35v-189h-34q-135 6 -174 132q-94 -134 -214 -142h-45q-165 9 -262 155q-71 -180 -249 -180q-71 0 -129 35 q-21 -278 -149 -378q-147 -112 -363 -112zM1436 1320q0 88 96 88t95 -88q1 -88 -95 -89q-96 1 -96 89zM1581 1072q-1 88 95 88t96 -88t-96 -89q-96 1 -95 89zM1285 1072q-1 88 95 89q96 -1 96 -89t-96 -88t-95 88z" />
<glyph unicode="&#x634;" horiz-adv-x="1400" arabic-form="initial" d="M18 40h-38v189h65q144 0 144 196v156q0 179 105 179q111 -1 111 -137v-243q9 -171 150 -171q119 0 119 156v258q0 132 115 137q85 0 90 -144v-230q9 -180 141 -180h2q131 0 131 175v228q0 151 98 151q80 0 81 -149v-191q0 -176 -62 -279t-181 -111h-45q-165 9 -262 155 q-69 -176 -238 -176t-281 125q-118 -94 -245 -94zM820 1072q0 88 96 88t95 -88q1 -88 -95 -89q-96 1 -96 89zM675 1320q-1 88 95 88t96 -88t-96 -89q-96 1 -95 89zM524 1072q0 88 96 89q96 -1 95 -89q1 -88 -95 -88t-96 88z" />
<glyph unicode="&#x634;" horiz-adv-x="1508" arabic-form="medial" d="M524 1072q0 88 96 89q96 -1 95 -89q1 -88 -95 -88t-96 88zM820 1072q0 88 96 88t95 -88q1 -88 -95 -89q-96 1 -96 89zM675 1320q-1 88 95 88t96 -88t-96 -89q-96 1 -95 89zM18 40h-38v189h65q144 0 144 196v156q0 179 105 179q111 -1 111 -137v-243q9 -171 150 -171 q119 0 119 156v258q0 132 115 137q85 0 90 -144v-230q9 -180 141 -180h2q131 0 131 175v228q0 151 98 151q79 0 79 -146v-131q5 -254 179 -254h31v-189h-44q-164 8 -207 159q-81 -161 -200 -169h-45q-165 9 -262 155q-69 -176 -238 -176t-281 125q-118 -94 -245 -94z" />
<glyph unicode="&#x635;" horiz-adv-x="2342" arabic-form="final" d="M1820 229q216 0 216 160q0 176 -162 176h-8q-425 -21 -525 -336h479zM1758 40h-621q-22 -289 -144 -378q-157 -112 -363 -112t-351 96q-144 96 -144 336l1 117q7 223 72 294q82 114 186 139q38 8 88 8t89 -37q40 -37 40 -77q0 -14 -6 -30q-17 -56 -86 -56 q-167 0 -183 -201h-4v-156q1 -244 302 -244t323 310v467q1 164 110 164q92 0 92 -165v-300q158 377 324 447q131 78 342 91q377 0 389 -274v-96q6 -74 141 -74l1 -269q-121 6 -203 108q-39 -33 -53 -41q-100 -67 -342 -67z" />
<glyph unicode="&#x635;" horiz-adv-x="1477" arabic-form="initial" d="M200 680q92 0 92 -165v-280q158 357 324 427q131 78 342 91q377 0 389 -274v-172q-19 -139 -117 -203t-339 -64h-520q-131 0 -175 95q-38 -94 -139 -95h-79v189h112v287q1 164 110 164zM955 229q216 0 216 160q0 176 -162 176h-8q-425 -21 -525 -336h479z" />
<glyph unicode="&#x635;" horiz-adv-x="1528" arabic-form="medial" d="M406 40q-161 0 -206 99q-47 -98 -138 -99h-84v189h117v287q1 164 110 164q92 0 92 -165l2 -267q156 344 322 414q131 78 342 91q377 0 389 -275q2 -36 28 -135t135 -114h21v-189h-14q-101 7 -206 141q-51 -57 -78 -75q-100 -66 -342 -66h-490zM959 229q216 0 216 160 q0 176 -162 176h-8q-425 -21 -525 -336h479z" />
<glyph unicode="&#x636;" horiz-adv-x="2342" arabic-form="final" d="M1820 229q216 0 216 160q0 176 -162 176h-8q-425 -21 -525 -336h479zM1356 1030q96 0 96 -88t-96 -89q-96 1 -95 89q-1 88 95 88zM1758 40h-621q-22 -289 -144 -378q-157 -112 -363 -112t-351 96q-144 96 -144 336l1 117q7 223 72 294q82 114 186 139q38 8 88 8t89 -37 q40 -37 40 -77q0 -14 -6 -30q-17 -56 -86 -56q-167 0 -183 -201h-4v-156q1 -244 302 -244t323 310v467q1 164 110 164q92 0 92 -165v-300q158 377 324 447q131 78 342 91q377 0 389 -274v-96q6 -74 141 -74l1 -269q-121 6 -203 108q-39 -33 -53 -41q-100 -67 -342 -67z" />
<glyph unicode="&#x636;" horiz-adv-x="1477" arabic-form="initial" d="M542 1030q96 0 95 -88q1 -88 -95 -89q-96 1 -96 89t96 88zM200 680q92 0 92 -165v-280q158 357 324 427q131 78 342 91q377 0 389 -274v-172q-19 -139 -117 -203t-339 -64h-520q-131 0 -175 95q-38 -94 -139 -95h-79v189h112v287q1 164 110 164zM955 229q216 0 216 160 q0 176 -162 176h-8q-425 -21 -525 -336h479z" />
<glyph unicode="&#x636;" horiz-adv-x="1528" arabic-form="medial" d="M406 40q-161 0 -206 99q-47 -98 -138 -99h-84v189h117v287q1 164 110 164q92 0 92 -165l2 -267q156 344 322 414q131 78 342 91q377 0 389 -275q2 -36 28 -135t135 -114h21v-189h-14q-101 7 -206 141q-51 -57 -78 -75q-100 -66 -342 -66h-490zM959 229q216 0 216 160 q0 176 -162 176h-8q-425 -21 -525 -336h479zM546 1030q96 0 95 -88q1 -88 -95 -89q-96 1 -96 89t96 88z" />
<glyph unicode="&#x637;" horiz-adv-x="1600" arabic-form="final" d="M1611 229v-189h-54q-101 7 -206 141q-52 -58 -78 -74q-100 -67 -342 -67h-655q-151 0 -151 94v18q0 77 155 77h65q49 132 115 236v697q3 164 97 164h2q95 -1 96 -173v-488q174 78 343 88q377 0 389 -274v-13q4 -32 28 -127q25 -95 165 -110h31zM1000 229q216 0 216 160 q0 176 -162 176h-8q-425 -21 -525 -336h479z" />
<glyph unicode="&#x637;" horiz-adv-x="1100" arabic-form="initial" d="M588 40h-608v189h22q49 122 95 206v707q3 184 107 184h2q105 -1 106 -173v-488q174 78 343 88q377 0 389 -274v-172q-18 -139 -116 -203t-340 -64zM652 229q216 0 216 160q0 176 -162 176h-8q-425 -21 -525 -336h479z" />
<glyph unicode="&#x637;" horiz-adv-x="1232" arabic-form="medial" d="M1239 229v-189h-24q-101 7 -206 141q-51 -57 -68 -68h-1q-110 -73 -352 -73h-608v189h22q49 122 95 206v707q3 184 107 184h2q105 -1 106 -173v-488q174 78 343 88q377 0 389 -276q6 -60 27 -123q27 -110 147 -125h21zM652 229q216 0 216 160q0 176 -162 176h-8 q-425 -21 -525 -336h479z" />
<glyph unicode="&#x638;" horiz-adv-x="1600" arabic-form="final" d="M896 1077q96 -1 96 -89t-96 -88t-95 88q-1 88 95 89zM1611 229v-189h-54q-101 7 -206 141q-52 -58 -78 -74q-100 -67 -342 -67h-655q-151 0 -151 94v18q0 77 155 77h65q49 132 115 236v697q3 164 97 164h2q95 -1 96 -173v-488q174 78 343 88q377 0 389 -274v-13 q4 -32 28 -127q25 -95 165 -110h31zM1000 229q216 0 216 160q0 176 -162 176h-8q-425 -21 -525 -336h479z" />
<glyph unicode="&#x638;" horiz-adv-x="1100" arabic-form="initial" d="M554 1077q96 -1 95 -89q1 -88 -95 -88t-96 88t96 89zM588 40h-608v189h22q49 122 95 206v707q3 184 107 184h2q105 -1 106 -173v-488q174 78 343 88q377 0 389 -274v-172q-18 -139 -116 -203t-340 -64zM652 229q216 0 216 160q0 176 -162 176h-8q-425 -21 -525 -336h479z " />
<glyph unicode="&#x638;" horiz-adv-x="1232" arabic-form="medial" d="M554 1077q96 -1 95 -89q1 -88 -95 -88t-96 88t96 89zM1239 229v-189h-24q-101 7 -206 141q-51 -57 -68 -68h-1q-110 -73 -352 -73h-608v189h22q49 122 95 206v707q3 184 107 184h2q105 -1 106 -173v-488q174 78 343 88q377 0 389 -276q6 -60 27 -123q27 -110 147 -125h21 zM652 229q216 0 216 160q0 176 -162 176h-8q-425 -21 -525 -336h479z" />
<glyph unicode="&#x639;" horiz-adv-x="1108" arabic-form="final" d="M665 665q-88 0 -148 -96l155 -206l159 213q-68 88 -160 89h-6zM683 -396q0 -28 -27 -68q-42 -61 -155 -62q-113 -2 -218 87q-126 110 -128 282v42q0 111 67 196q70 72 110 92q38 21 70 31t64 31q26 19 26 38t-4 31l-69 91l-62 90q-53 67 -53 137q0 90 140 175 q96 56 210 57h48q140 -5 261 -93l58 -46q46 -51 46 -97t-27 -87l-166 -220q-12 -24 -12 -40q0 -25 38 -33t66 -9h165v-189h-223q-163 0 -231 197q-63 -174 -164 -192q-10 -4 -17 -7q-141 -36 -141 -190q0 -21 5 -46l3 -7q32 -112 164 -112l76 9q41 0 61 -30t19 -58z" />
<glyph unicode="&#x639;" horiz-adv-x="925" arabic-form="initial" d="M707 230q128 0 128 -77q0 -107 -176 -113h-679v189h131q-55 137 -55 191q-3 18 -3 35q-1 91 87 221q104 156 323 155q144 0 262 -90q57 -38 90 -80q28 -43 28 -77t-36 -61t-66 -27t-78 38q-85 78 -198 79q-185 0 -200 -194q0 -154 216 -190h189q20 1 37 1z" />
<glyph unicode="&#x639;" horiz-adv-x="900" arabic-form="medial" d="M435 665q-88 0 -148 -96l155 -206l159 213q-68 88 -160 89h-6zM922 229v-189h-203q-183 0 -271 197q-71 -197 -256 -197h-212v189h195q59 0 110 47l-91 121q-106 119 -106 219t132 181q96 56 210 57h48q140 -5 261 -93l58 -46q46 -51 46 -97t-27 -87l-184 -243 q21 -58 105 -59h185z" />
<glyph unicode="&#x63a;" horiz-adv-x="1108" arabic-form="final" d="M665 665q-88 0 -148 -96l155 -206l159 213q-68 88 -160 89h-6zM683 -396q0 -28 -27 -68q-42 -61 -155 -62q-113 -2 -218 87q-126 110 -128 282v42q0 111 67 196q70 72 110 92q38 21 70 31t64 31q26 19 26 38t-4 31l-69 91l-62 90q-53 67 -53 137q0 90 140 175 q96 56 210 57h48q140 -5 261 -93l58 -46q46 -51 46 -97t-27 -87l-166 -220q-12 -24 -12 -40q0 -25 38 -33t66 -9h165v-189h-223q-163 0 -231 197q-63 -174 -164 -192q-10 -4 -17 -7q-141 -36 -141 -190q0 -21 5 -46l3 -7q32 -112 164 -112l76 9q41 0 61 -30t19 -58z M656 1170q96 0 96 -88t-96 -89q-96 1 -95 89q-1 88 95 88z" />
<glyph unicode="&#x63a;" horiz-adv-x="925" arabic-form="initial" d="M432 1170q96 0 95 -88q1 -88 -95 -89q-96 1 -96 89t96 88zM707 230q128 0 128 -77q0 -107 -176 -113h-679v189h131q-55 137 -55 191q-3 18 -3 35q-1 91 87 221q104 156 323 155q144 0 262 -90q57 -38 90 -80q28 -43 28 -77t-36 -61t-66 -27t-78 38q-85 78 -198 79 q-185 0 -200 -194q0 -154 216 -190h189q20 1 37 1z" />
<glyph unicode="&#x63a;" horiz-adv-x="900" arabic-form="medial" d="M435 665q-88 0 -148 -96l155 -206l159 213q-68 88 -160 89h-6zM922 229v-189h-203q-183 0 -271 197q-71 -197 -256 -197h-212v189h195q59 0 110 47l-91 121q-106 119 -106 219t132 181q96 56 210 57h48q140 -5 261 -93l58 -46q46 -51 46 -97t-27 -87l-184 -243 q21 -58 105 -59h185zM432 1170q96 0 96 -88t-96 -89q-96 1 -95 89q-1 88 95 88z" />
<glyph unicode="&#x641;" horiz-adv-x="1770" arabic-form="final" d="M1291 487q0 -114 -120 -114t-195 77q-4 9 -11 12q-56 63 -66 195v25q10 265 245 294q28 6 79 6q177 0 265 -78q108 -96 107 -355q1 -36 1 -79t-4 -83q42 -127 171 -158h18v-189h-30q-111 0 -248 121q-137 -121 -351 -121h-455q-293 0 -437 96t-154 357l-1 133 q1 134 100 134t99 -127v-97q0 -307 393 -307h483q222 18 226 199q2 34 2 92t-14 130q-25 133 -179 133h-2q-115 -1 -131 -97q0 -108 112 -108h6q90 0 91 -90v-1zM1116 1206q0 88 96 88t95 -88q1 -88 -95 -89q-96 1 -96 89z" />
<glyph unicode="&#x641;" horiz-adv-x="800" arabic-form="initial" d="M441 487q0 -114 -120 -114t-195 77q-4 9 -11 12q-56 63 -66 195v25q10 265 245 294q28 6 79 6q177 0 265 -78q108 -96 107 -355q2 -28 2 -54q-5 -247 -115 -351t-330 -104h-332v189h360q222 18 226 199q2 34 2 92t-14 130q-25 133 -179 133h-2q-115 -1 -131 -97 q0 -108 112 -108h6q90 0 91 -90v-1zM266 1206q0 88 96 88t95 -88q1 -88 -95 -89q-96 1 -96 89z" />
<glyph unicode="&#x641;" horiz-adv-x="939" arabic-form="medial" d="M461 487q0 -114 -120 -114t-195 77q-4 9 -11 12q-56 63 -66 195v25q10 265 245 294q28 6 79 6q177 0 265 -78q108 -96 107 -355q1 -36 1 -79t-4 -83q42 -127 161 -158h18v-189h-30q-101 0 -238 121q-137 -121 -351 -121h-342v189h370q222 18 226 199q2 34 2 92t-14 130 q-25 133 -179 133h-2q-115 -1 -131 -97q0 -108 112 -108h6q90 0 91 -90v-1zM286 1206q0 88 96 88t95 -88q1 -88 -95 -89q-96 1 -96 89z" />
<glyph unicode="&#x642;" horiz-adv-x="1418" arabic-form="final" d="M935 944q-1 88 95 88t96 -88t-96 -89q-96 1 -95 89zM639 944q-1 88 95 89q96 -1 96 -89t-96 -88t-95 88zM958 223q0 -114 -120 -114t-195 77q-4 9 -11 12q-56 63 -66 195v25q10 265 245 294q28 6 79 6q176 0 264 -78t104 -265q23 -146 175 -146v-189h-15q-70 0 -151 77 q-23 -132 -49 -224q-36 -132 -162 -221q-126 -88 -362 -90q-238 -2 -398 123t-160 307l-1 199v5q0 155 102 155q95 0 96 -157v-206q57 -239 363 -239t361 235q18 67 18 188t-14 194q-25 133 -179 133h-2q-115 -1 -131 -97q0 -108 112 -108h6q90 0 91 -90v-1z" />
<glyph unicode="&#x642;" horiz-adv-x="800" arabic-form="initial" d="M418 1208q0 88 96 88t95 -88q1 -88 -95 -89q-96 1 -96 89zM122 1208q0 88 96 89q96 -1 95 -89q1 -88 -95 -88t-96 88zM441 487q0 -114 -120 -114t-195 77q-4 9 -11 12q-56 63 -66 195v25q10 265 245 294q28 6 79 6q177 0 265 -78q108 -96 107 -355q2 -28 2 -54 q-5 -247 -115 -351t-330 -104h-332v189h360q222 18 226 199q2 34 2 92t-14 130q-25 133 -179 133h-2q-115 -1 -131 -97q0 -108 112 -108h6q90 0 91 -90v-1z" />
<glyph unicode="&#x642;" horiz-adv-x="947" arabic-form="medial" d="M428 1208q0 88 96 88t95 -88q1 -88 -95 -89q-96 1 -96 89zM132 1208q0 88 96 89q96 -1 95 -89q1 -88 -95 -88t-96 88zM461 487q0 -114 -120 -114t-195 77q-4 9 -11 12q-56 63 -66 195v25q10 265 245 294q28 6 79 6q177 0 265 -78q108 -96 107 -355q1 -36 1 -79t-4 -83 q42 -127 181 -158h8v-189h-20q-121 0 -258 121q-137 -121 -351 -121h-342v189h370q222 18 226 199q2 34 2 92t-14 130q-25 133 -179 133h-2q-115 -1 -131 -97q0 -108 112 -108h6q90 0 91 -90v-1z" />
<glyph unicode="&#x643;" horiz-adv-x="1667" arabic-form="final" d="M805 850q0 57 27 110q61 121 331 278q259 165 338 165q44 0 61 -30q8 -14 8 -30q0 -58 -184 -189q-47 -39 -155 -102t-272 -210q184 -8 296 -45q253 -85 271 -316q1 -71 13 -149t110 -103h30v-189h-33q-159 27 -196 157q-86 -73 -170 -100q-225 -57 -507 -60v3 q-353 2 -495 98t-152 355l-1 63q1 134 100 134t99 -127v-27q0 -301 431 -307q564 38 585 178v15q0 136 -319 219h-2q-151 38 -175 84q-39 68 -39 125z" />
<glyph unicode="&#x643;" horiz-adv-x="800" arabic-form="initial" d="M22 40h-36v189h163q348 40 369 178v15q0 136 -314 218q-156 39 -180 85q-39 68 -39 125t27 110q61 121 331 278q259 165 338 165q44 0 61 -30q8 -14 8 -30q0 -79 -304 -269q-145 -85 -309 -232q184 -8 296 -45q272 -91 272 -357q0 -176 -113 -273q-53 -44 -134 -70 q-225 -57 -436 -57z" />
<glyph unicode="&#x643;" horiz-adv-x="850" arabic-form="medial" d="M832 229h25v-189h-24q-149 12 -211 151q-83 -68 -164 -94q-225 -57 -436 -57h-36v189h163q348 40 369 178v15q0 136 -314 218q-156 39 -180 85q-39 68 -39 125t27 110q61 121 331 278q259 165 338 165q44 0 61 -30q8 -14 8 -30q0 -79 -304 -269q-145 -85 -309 -232 q184 -8 296 -45q272 -91 272 -357q0 -40 -7 -83q34 -128 134 -128z" />
<glyph unicode="&#x644;" horiz-adv-x="1300" arabic-form="final" d="M320 63q0 -30 2 -81q0 -243 292 -243t292 314v1094q0 179 105 179q101 -1 101 -137v-789q9 -171 182 -171h24v-190q-16 -1 -31 -1q-100 0 -167 57q-20 -334 -148 -433q-147 -112 -353 -112t-350 96t-144 336v117q7 223 72 294q82 114 186 139q37 8 87 8t90 -37t40 -77 q0 -14 -6 -30q-17 -56 -86 -56q-167 0 -187 -233q-1 -14 -1 -44z" />
<glyph unicode="&#x644;" horiz-adv-x="500" arabic-form="initial" d="M-19 229h49q213 0 213 291v678q0 128 103 128q92 0 92 -129v-686q0 -257 -140 -359q-122 -101 -285 -112h-32v189z" />
<glyph unicode="&#x644;" horiz-adv-x="700" arabic-form="medial" d="M709 229v-189h-13q-149 1 -267 155q-42 -34 -52 -42q-157 -112 -321 -112h-67l-2 189h63q272 0 272 291l-1 677q1 128 104 128q92 0 92 -129v-641q10 -326 179 -327h13z" />
<glyph unicode="&#x645;" horiz-adv-x="1345" arabic-form="final" d="M530 413q0 133 -56 133q-29 0 -70 -27q-104 -56 -104 -239v-612q0 -128 -103 -128q-92 0 -92 129v620q0 257 140 359q99 70 180 91q59 21 107 21t85 -8q104 -32 104 -209v-6l1 -153q0 -162 148 -162t148 162v2q0 122 -96 154q-107 6 -108 96q-1 2 -1 -2q0 86 76 107 q36 4 62 4q112 0 190 -81q75 -91 75 -180v-2q-1 -103 -2 -121v-7q0 -20 6 -44q36 -81 115 -81h28v-189h-21q-114 3 -188 97q-125 -97 -303 -97q-266 17 -303 189q-17 77 -18 162v22z" />
<glyph unicode="&#x645;" horiz-adv-x="900" arabic-form="initial" d="M562 61q-120 0 -119 110v2q1 87 98 93q96 32 96 154v2q-1 162 -149 162t-147 -162l-1 -151q-20 -231 -334 -231h-36v189h50q130 0 130 150q0 122 17 198q37 172 314 189h2q317 0 346 -243q7 -58 7 -111q0 -178 -76 -270q-78 -81 -198 -81z" />
<glyph unicode="&#x645;" horiz-adv-x="971" arabic-form="medial" d="M844 429q0 -47 -15 -110q40 -90 119 -90h28v-189h-21q-114 3 -188 97q-80 -61 -122 -69t-67 -7q-128 0 -127 112q1 87 98 93q96 32 96 154v2q-1 162 -149 162t-147 -162l-1 -151q-20 -231 -324 -231h-46v189h50q130 0 130 150q0 122 17 198q37 172 314 189h2 q317 0 346 -243q7 -47 7 -94z" />
<glyph unicode="&#x646;" horiz-adv-x="1333" arabic-form="final" d="M579 768q-1 88 95 88t96 -88t-96 -89q-96 1 -95 89zM290 66q0 -28 2 -84q2 -243 338 -243t336 297v545q0 179 105 179q111 -1 111 -137v-223q9 -171 166 -171v-189h-40q-28 0 -52 18t-75 17q-21 -313 -150 -414q-136 -111 -392 -111t-400 96t-144 336v117q7 223 72 294 q82 114 186 139q37 8 87 8t90 -37t40 -77q0 -14 -6 -30q-17 -56 -86 -56q-167 0 -187 -232q-1 -14 -1 -42z" />
<glyph unicode="&#x646;" horiz-adv-x="600" arabic-form="initial" d="M79 1018q-1 88 95 89q96 -1 96 -89t-96 -88t-95 88zM323 632q0 128 103 128q92 0 92 -129v-120q0 -257 -140 -359q-157 -112 -395 -112h-12v189q352 0 352 291v112z" />
<glyph unicode="&#x646;" horiz-adv-x="754" arabic-form="medial" d="M89 1018q-1 88 95 89q96 -1 96 -89t-96 -88t-95 88zM769 229v-189h-23q-149 1 -267 155q-42 -34 -52 -42q-157 -112 -406 -112l-41 -1v190h40q352 0 352 291l-1 112q1 128 104 128q92 0 92 -129v-76q10 -326 179 -327h23z" />
<glyph unicode="&#x647;" horiz-adv-x="971" arabic-form="final" d="M135 412q0 53 7 111q29 243 346 243h2q53 -4 146 -21v61q3 164 107 164h2q85 -1 86 -153v-378q0 -211 114 -211q9 0 18 1h29v-189h-42q-292 0 -320 281v101q0 162 -148 162t-148 -162v-2q0 -122 98 -154q96 0 104 -99q-9 -106 -128 -106t-197 81q-76 92 -76 270z" />
<glyph unicode="&#x647;" horiz-adv-x="1216" arabic-form="initial" d="M692 407q0 -74 -73 -182q263 16 278 155v13q0 116 -289 247q84 -159 84 -233zM59 409q0 159 73 256q32 43 174 99q-88 44 -115 59t-37 34q-19 29 -19 55q-1 26 25 65t65 39t73 -9q106 -18 472 -209q270 -133 306 -361v-1q-2 -234 -124 -315t-330 -81h-654v189h147 q-56 111 -56 180zM511 415q0 210 -152 210q-16 0 -31 -2q-124 -15 -124 -203t150 -191h30q127 13 127 186z" />
<glyph unicode="&#x647;" horiz-adv-x="750" arabic-form="medial" d="M26 40h-41v189h28q323 0 323 291v42q0 128 103 128q92 0 92 -129v-50q0 -206 -87 -324q119 42 281 42h41v-189h-28q-344 0 -344 -119v-6q9 -126 170 -126q67 0 84 -54q6 -16 6 -29q0 -39 -39 -75t-87 -36q-158 0 -266 123q-52 71 -56 185v7q0 90 64 168 q-107 -38 -244 -38z" />
<glyph unicode="&#x648;" horiz-adv-x="964" arabic-form="final" d="M543 150q0 -112 -152 -111q-112 0 -190 81q-76 92 -76 270q0 53 7 111q29 243 346 243h2q237 -14 297 -139q35 -88 35 -198q0 -20 -1 -45q19 -133 136 -133h35v-189q-161 2 -199 95q3 -13 3 -31t-3 -38q-44 -204 -143 -316t-249 -161q-37 -8 -87 -8t-89 37q-40 37 -40 77 q0 14 5 28q19 43 94 59q184 30 243 101q132 130 132 365q0 143 -43 233q-33 81 -134 81q-147 0 -148 -162v-2q0 -122 96 -154q97 -6 115 -50q8 -22 8 -44z" />
<glyph unicode="&#x649;" horiz-adv-x="1100" arabic-form="final" d="M30 30q0 52 15 106l85 253q33 105 97 105q18 0 38 -6q69 -21 69 -84q0 -29 -12 -66l-74 -218q-19 -61 -19 -114q0 -197 245 -277q65 -12 147 -12h61q21 0 88 3l130 30q-263 243 -263 310q-11 0 -11 40t59 84t216 45h216v-189h-259q223 -176 223 -238l4 -40 q0 -90 -65 -152t-237 -78h-133q-126 0 -220 20t-196 82t-152 142q-52 80 -52 254z" />
<glyph unicode="&#x64a;" horiz-adv-x="1100" arabic-form="final" d="M752 -559q96 -1 95 -89q1 -88 -95 -88t-96 88t96 89zM476 -560q96 0 95 -88q1 -88 -95 -89q-96 1 -96 89t96 88zM30 30q0 52 15 106l85 253q33 105 97 105q18 0 38 -6q69 -21 69 -84q0 -29 -12 -66l-74 -218q-19 -61 -19 -114q0 -197 245 -277q65 -12 147 -12h61 q21 0 88 3l130 30q-263 243 -263 310q-11 0 -11 40t59 84t216 45h216v-189h-259q223 -176 223 -238l4 -40q0 -90 -65 -152t-237 -78h-133q-126 0 -220 20t-196 82t-152 142q-52 80 -52 254z" />
<glyph unicode="&#x64a;" horiz-adv-x="675" arabic-form="initial" d="M378 -140q96 0 96 -88t-96 -89q-96 1 -95 89q-1 88 95 88zM82 -141q96 -1 96 -89t-96 -88t-95 88q-1 88 95 89zM-9 229h49q353 0 353 291v112q0 128 103 128q92 0 92 -129v-120q0 -257 -140 -359q-157 -112 -395 -112h-62v189z" />
<glyph unicode="&#x64a;" horiz-adv-x="754" arabic-form="medial" d="M378 -140q96 0 96 -88t-96 -89q-96 1 -95 89q-1 88 95 88zM82 -141q96 -1 96 -89t-96 -88t-95 88q-1 88 95 89zM769 229v-189h-23q-149 1 -267 155q-42 -34 -52 -42q-157 -112 -406 -112l-41 -1v190h40q352 0 352 291l-1 112q1 128 104 128q92 0 92 -129v-76 q10 -326 179 -327h23z" />
<glyph />
<glyph horiz-adv-x="500" />
<glyph unicode=" "  horiz-adv-x="262" />
<glyph unicode="&#x09;" horiz-adv-x="262" />
<glyph unicode="&#xa0;" horiz-adv-x="262" />
<glyph unicode="!" horiz-adv-x="447" d="M225 40q-78 0 -78 88t78 89q78 -1 78 -89t-78 -88zM221 1198q96 0 96 -180q0 -446 -17 -527q-18 -81 -80 -81t-78 81t-17 527q0 180 96 180z" />
<glyph unicode="%" horiz-adv-x="873" d="M233 1176q108 0 108 -88t-108 -89q-108 1 -108 89t108 88zM181 18q-15 0 -15 44q0 136 158 521q245 595 369 595q15 0 15 -44q0 -137 -159 -521q-247 -595 -368 -595zM635 20q-108 0 -108 88t108 89q108 -1 108 -89t-108 -88z" />
<glyph unicode="(" horiz-adv-x="720" d="M555 1338q35 0 35 -26q0 -50 -58 -156q-204 -376 -204 -711t204 -709q58 -107 58 -157q0 -26 -35 -26q-119 -1 -241 223q-188 348 -189 670q1 322 189 668q122 224 241 224z" />
<glyph unicode=")" horiz-adv-x="720" d="M160 -447q-35 0 -35 26q0 50 58 157q204 375 204 709q0 335 -204 711q-58 106 -58 156q0 26 35 26q120 0 242 -224q188 -346 188 -668t-188 -670q-122 -224 -242 -223z" />
<glyph unicode="*" horiz-adv-x="905" d="M450 318q-62 0 -62 172q-102 -102 -123 -102t-43 21q-21 22 -21 44t107 127q-183 0 -183 58t181 59q-105 105 -105 127q-1 22 21 44q22 21 43 21t123 -104q0 175 62 175t62 -172q102 100 124 100t43 -20t21 -44q0 -22 -105 -127q180 -1 180 -59t-181 -58 q105 -105 105 -127t-21 -43q-20 -21 -42 -21t-124 102q0 -173 -62 -173z" />
<glyph unicode="+" horiz-adv-x="1164" d="M582 953q40 0 68 -27t27 -108q-5 -30 -5 -58q0 -83 44 -126t123 -43q28 0 59 5q81 0 114 -32q22 -23 22 -65t-22 -65q-33 -32 -114 -32q-24 3 -48 3q-84 1 -130 -45t-46 -131q0 -24 3 -48q0 -83 -32 -116q-23 -22 -65 -22t-65 22q-32 33 -32 116q3 24 3 48q0 85 -46 131 t-130 45q-24 0 -48 -3h-2q-81 0 -108 27t-27 69t22 66q33 32 114 32q27 -4 53 -4q88 0 136 48t48 139l-2 58q0 71 22 93q24 22 64 23z" />
<glyph unicode="," horiz-adv-x="584" d="M292 206q28 0 66 -19q96 -49 96 -143t-74 -240q-13 -28 -31 -57q-45 -80 -92 -80t-98 45q-34 34 -34 50t5 25q22 43 127 89q55 30 65 52t10 35q0 36 -29 51q-29 14 -52 20q-70 17 -70 53q0 22 21 56q40 63 90 63z" />
<glyph unicode="-" horiz-adv-x="960" d="M125 310q1 94 353 95q352 -1 352 -95t-352 -94t-353 94z" />
<glyph unicode="." horiz-adv-x="471" d="M233 40q-108 0 -108 88t108 89q108 -1 108 -89t-108 -88z" />
<glyph unicode="/" horiz-adv-x="659" d="M501 1200q28 0 28 -120t-91 -449q-164 -591 -283 -591q-30 0 -30 120t93 449q165 591 283 591z" />
<glyph unicode="0" horiz-adv-x="799" d="M284 527q0 -117 114 -117t113 117q1 117 -113 117t-114 -117zM125 520q-1 118 49 192t197 74h49q151 -2 200 -73t49 -179q0 -47 -8 -100q-23 -165 -287 -165q-105 1 -177 67t-72 184z" />
<glyph unicode="&#x660;" horiz-adv-x="799" d="M284 527q0 -117 114 -117t113 117q1 117 -113 117t-114 -117zM125 520q-1 118 49 192t197 74h49q151 -2 200 -73t49 -179q0 -47 -8 -100q-23 -165 -287 -165q-105 1 -177 67t-72 184z" />
<glyph unicode="1" horiz-adv-x="572" d="M389 40q-14 0 -32 6q-104 34 -112 479q-7 446 -96 586q-24 37 -24 55q0 12 52 12q123 0 194 -110t71 -271q-4 -239 -8 -400q7 -196 7 -239q-1 -118 -52 -118z" />
<glyph unicode="&#x661;" horiz-adv-x="572" d="M389 40q-14 0 -32 6q-104 34 -112 479q-7 446 -96 586q-24 37 -24 55q0 12 52 12q123 0 194 -110t71 -271q-4 -239 -8 -400q7 -196 7 -239q-1 -118 -52 -118z" />
<glyph unicode="2" horiz-adv-x="1016" d="M389 40q-14 0 -32 6q-104 34 -112 479q-7 446 -96 586q-24 37 -24 55q0 12 52 12q123 0 194 -110t71 -272q12 -212 130 -212t117 139q0 34 -7 73q0 175 -89 315q-24 37 -24 55q0 12 52 12q123 0 194 -110t71 -405q-41 -279 -232 -279q-21 0 -48 4q-66 0 -176 109 q11 -282 11 -339q-1 -118 -52 -118z" />
<glyph unicode="&#x662;" horiz-adv-x="1016" d="M389 40q-14 0 -32 6q-104 34 -112 479q-7 446 -96 586q-24 37 -24 55q0 12 52 12q123 0 194 -110t71 -272q12 -212 130 -212t117 139q0 34 -7 73q0 175 -89 315q-24 37 -24 55q0 12 52 12q123 0 194 -110t71 -405q-41 -279 -232 -279q-21 0 -48 4q-66 0 -176 109 q11 -282 11 -339q-1 -118 -52 -118z" />
<glyph unicode="3" horiz-adv-x="1447" d="M391 40q-14 0 -32 6q-93 30 -110 366l-3 42v26q-8 491 -97 631q-24 37 -24 55q0 12 52 12q123 0 194 -110t71 -271q0 -213 130 -213q120 0 120 208q0 179 -89 319q-24 37 -24 55q0 12 52 12q123 0 194 -110t71 -271q0 -212 111 -215q107 3 107 173q0 18 -1 38 q0 178 -89 318q-24 37 -24 55q0 12 52 12q124 0 194 -110t56 -376t-232 -279q-25 -2 -47 -2q-158 0 -206 122q-89 -123 -185 -123t-197 24q8 -221 8 -276q-1 -118 -52 -118z" />
<glyph unicode="&#x663;" horiz-adv-x="1447" d="M391 40q-14 0 -32 6q-93 30 -110 366l-3 42v26q-8 491 -97 631q-24 37 -24 55q0 12 52 12q123 0 194 -110t71 -271q0 -213 130 -213q120 0 120 208q0 179 -89 319q-24 37 -24 55q0 12 52 12q123 0 194 -110t71 -271q0 -212 111 -215q107 3 107 173q0 18 -1 38 q0 178 -89 318q-24 37 -24 55q0 12 52 12q124 0 194 -110t56 -376t-232 -279q-25 -2 -47 -2q-158 0 -206 122q-89 -123 -185 -123t-197 24q8 -221 8 -276q-1 -118 -52 -118z" />
<glyph unicode="4" horiz-adv-x="1317" d="M1187 487q0 -132 -313 -132q-170 0 -436 57l3 -190v-64q-1 -118 -52 -118q-14 0 -32 6q-77 24 -102 265q-17 101 -17 238q0 422 -89 562q-24 37 -24 55q0 12 52 12q123 0 194 -110t71 -276q0 -218 190 -218q0 372 71 471q55 77 223 77q253 0 253 -116q0 -70 -65 -70 q-24 0 -60 8t-67 9q-151 0 -151 -169q0 -200 216 -200q135 0 135 -97z" />
<glyph unicode="&#x664;" horiz-adv-x="1317" d="M1187 487q0 -132 -313 -132q-170 0 -436 57l3 -190v-64q-1 -118 -52 -118q-14 0 -32 6q-77 24 -102 265q-17 101 -17 238q0 422 -89 562q-24 37 -24 55q0 12 52 12q123 0 194 -110t71 -276q0 -218 190 -218q0 372 71 471q55 77 223 77q253 0 253 -116q0 -70 -65 -70 q-24 0 -60 8t-67 9q-151 0 -151 -169q0 -200 216 -200q135 0 135 -97z" />
<glyph unicode="5" horiz-adv-x="1267" d="M464 1170q0 30 15 51q23 18 57 18t72 -13q100 -34 190 -120q301 -227 338 -564q1 -16 1 -37t-3 -47q-13 -264 -100 -340t-200 -78h-4q-133 2 -205 148q-96 -147 -222 -147h-3q-75 0 -166 69q-109 82 -109 381q10 215 136 357t269 227l-39 38q-27 27 -27 57zM804 243h9 q117 6 117 218q0 54 -8 126q-18 143 -174 266l-116 98q-341 -212 -346 -477v-7q10 -220 132 -227h9q126 0 126 147l-11 117q0 81 78 81t78 -76l-12 -132q0 -134 118 -134z" />
<glyph unicode="&#x665;" horiz-adv-x="1267" d="M464 1170q0 30 15 51q23 18 57 18t72 -13q100 -34 190 -120q301 -227 338 -564q1 -16 1 -37t-3 -47q-13 -264 -100 -340t-200 -78h-4q-133 2 -205 148q-96 -147 -222 -147h-3q-75 0 -166 69q-109 82 -109 381q10 215 136 357t269 227l-39 38q-27 27 -27 57zM804 243h9 q117 6 117 218q0 54 -8 126q-18 143 -174 266l-116 98q-341 -212 -346 -477v-7q10 -220 132 -227h9q126 0 126 147l-11 117q0 81 78 81t78 -76l-12 -132q0 -134 118 -134z" />
<glyph unicode="6" horiz-adv-x="972" d="M324 857v-33q6 -170 290 -170q204 0 204 -89q0 -117 -214 -458q-20 -38 -54 -52t-52 -14t-37 11q-36 20 -36 62q0 43 13 62l161 284q-474 0 -474 345q0 244 161 349q77 61 216 69v2h31q130 0 209 -52q100 -81 100 -207q0 -14 -1 -27q-13 -77 -94 -86q1 0 -2 2 q-15 -2 -21 -2q-71 0 -85 87q-31 96 -137 96q-20 0 -45 -4q-69 -22 -101 -70t-32 -105zM747 853h-3h3z" />
<glyph unicode="&#x666;" horiz-adv-x="972" d="M324 857v-33q6 -170 290 -170q204 0 204 -89q0 -117 -214 -458q-20 -38 -54 -52t-52 -14t-37 11q-36 20 -36 62q0 43 13 62l161 284q-474 0 -474 345q0 244 161 349q77 61 216 69v2h31q130 0 209 -52q100 -81 100 -207q0 -14 -1 -27q-13 -77 -94 -86q1 0 -2 2 q-15 -2 -21 -2q-71 0 -85 87q-31 96 -137 96q-20 0 -45 -4q-69 -22 -101 -70t-32 -105zM747 853h-3h3z" />
<glyph unicode="7" horiz-adv-x="1074" d="M869 1158h11q64 -6 64 -80q0 -38 -14 -92l-205 -753q-47 -193 -154 -193h-76q-104 0 -151 193l-205 752q-14 54 -14 92q0 75 73 81h2q102 0 154 -185l180 -675l181 675q52 185 154 185z" />
<glyph unicode="&#x667;" horiz-adv-x="1074" d="M869 1158h11q64 -6 64 -80q0 -38 -14 -92l-205 -753q-47 -193 -154 -193h-76q-104 0 -151 193l-205 752q-14 54 -14 92q0 75 73 81h2q102 0 154 -185l180 -675l181 675q52 185 154 185z" />
<glyph unicode="8" horiz-adv-x="1074" d="M200 40h-2q-73 6 -73 81q0 38 14 92l205 752q47 193 151 193h76q107 0 154 -193l205 -753q14 -54 14 -92q0 -74 -64 -80h-11q-102 0 -154 185l-181 675l-180 -675q-52 -185 -154 -185z" />
<glyph unicode="&#x668;" horiz-adv-x="1074" d="M200 40h-2q-73 6 -73 81q0 38 14 92l205 752q47 193 151 193h76q107 0 154 -193l205 -753q14 -54 14 -92q0 -74 -64 -80h-11q-102 0 -154 185l-181 675l-180 -675q-52 -185 -154 -185z" />
<glyph unicode="9" horiz-adv-x="989" d="M498 457h-16q-120 0 -190 43q-167 102 -167 304q1 202 85 324t301 126l37 -6q166 -18 238 -136t73 -469q0 -42 -1 -87l-2 -385v-5q0 -126 -104 -126q-87 0 -89 133l2 335q-99 -51 -167 -51zM485 1055q-152 0 -168 -197q-1 -16 -1 -30q0 -174 166 -174q178 0 180 210 q-20 191 -177 191z" />
<glyph unicode="&#x669;" horiz-adv-x="989" d="M498 457h-16q-120 0 -190 43q-167 102 -167 304q1 202 85 324t301 126l37 -6q166 -18 238 -136t73 -469q0 -42 -1 -87l-2 -385v-5q0 -126 -104 -126q-87 0 -89 133l2 335q-99 -51 -167 -51zM485 1055q-152 0 -168 -197q-1 -16 -1 -30q0 -174 166 -174q178 0 180 210 q-20 191 -177 191z" />
<glyph unicode=":" horiz-adv-x="521" d="M248 490q-123 0 -123 88t123 89q123 -1 123 -89t-123 -88zM248 133q-123 1 -123 89t123 88t123 -88t-123 -89z" />
<glyph unicode="=" horiz-adv-x="1010" d="M125 494q-1 94 377 95q378 -1 378 -95t-378 -94t-377 94zM125 134q-1 94 377 95q378 -1 378 -95t-378 -94t-377 94z" />
<glyph unicode="[" horiz-adv-x="765" d="M519 -247q116 0 116 -97q1 -97 -167 -97q-168 -1 -256 143t-87 844q-1 700 87 844t256 143q168 0 167 -97q0 -97 -116 -97q-195 0 -195 -793t195 -793z" />
<glyph unicode="]" horiz-adv-x="765" d="M436 546q0 793 -195 793q-116 0 -116 97q-1 97 167 97q168 1 256 -143t87 -844q1 -700 -87 -844t-256 -143q-168 0 -167 97q0 97 116 97q195 0 195 793z" />
<glyph unicode="{" horiz-adv-x="816" d="M333 456q0 -69 46 -137q72 -103 72 -351t87 -248l35 8q31 0 91 -94q22 -33 22 -50q0 -25 -93 -25q-182 -1 -264 49t-82 336t-89 416q-33 48 -33 96t33 98q89 128 89 444t82 366t264 49q93 0 93 -25q0 -17 -22 -50q-59 -93 -104 -93l-48 10q-88 0 -88 -185l10 -222 q0 -176 -50 -250t-51 -142z" />
<glyph unicode="}" horiz-adv-x="816" d="M125 1388q0 25 93 25q182 1 264 -49t82 -366t89 -444q33 -50 33 -98t-33 -96q-89 -130 -89 -416t-82 -336t-264 -49q-93 0 -93 25q0 17 22 50q60 94 91 94l35 -8q87 0 87 248t72 351q46 68 46 137q0 68 -50 142t-51 250l10 222q0 185 -88 185l-48 -10q-45 0 -104 93 q-22 33 -22 50z" />
<glyph unicode="&#xab;" horiz-adv-x="1076" d="M945 24q0 -4 -23 -4q-124 0 -308 216q-87 103 -87 202t88 202q184 212 308 212q23 0 23 -3q0 -43 -98 -163t-99 -248q0 -128 98 -250t98 -164zM543 24q0 -4 -23 -4q-124 0 -307 216q-88 104 -88 203t88 202q184 212 308 212q23 0 23 -3q0 -42 -98 -163t-99 -249 q0 -128 98 -250t98 -164z" />
<glyph unicode="&#xad;" horiz-adv-x="960" d="M125 310q1 94 353 95q352 -1 352 -95t-352 -94t-353 94z" />
<glyph unicode="&#xbb;" horiz-adv-x="1076" d="M322 438q0 128 -98 248t-99 163q0 3 23 3q124 0 308 -212q88 -103 88 -202t-87 -202q-184 -216 -308 -216q-23 0 -23 4q0 42 98 164t98 250zM724 438q0 128 -98 249t-99 163q0 3 23 3q124 0 308 -212q88 -103 88 -202t-88 -203q-183 -216 -307 -216q-23 0 -23 4 q0 42 98 164t98 250z" />
<glyph unicode="&#xd7;" horiz-adv-x="959" d="M478 218q-84 0 -157 -97q-59 -58 -97 -58t-69 30q-30 31 -30 69t58 97q97 73 97 157t-97 156q-58 58 -58 96t30 69q31 30 69 30t97 -57q77 -103 159 -103q82 1 150 79t115 78q26 0 55 -29t29 -67t-57 -95q-103 -74 -103 -158t102 -157q57 -58 57 -96t-30 -68t-68 -30 t-96 57q-72 97 -156 97z" />
<glyph unicode="&#xf7;" horiz-adv-x="1010" d="M125 436q-1 94 377 94t378 -94t-378 -95q-378 1 -377 95zM484 850q108 0 108 -88t-108 -89q-108 1 -108 89t108 88zM484 20q-108 0 -108 88t108 89q108 -1 108 -89t-108 -88z" />
<glyph unicode="&#x2d9;" horiz-adv-x="561" d="M293 596q168 0 168 -164t-168 -163q-168 -1 -168 163t168 164z" />
<glyph unicode="&#x2219;" horiz-adv-x="561" d="M293 596q168 0 168 -164t-168 -163q-168 -1 -168 163t168 164z" />
<glyph unicode="&#x60c;" horiz-adv-x="625" d="M433 127q-20 -100 -119 -90h-2q-110 13 -136 102q-37 123 -4 288q21 145 154 95q53 -22 49 -60t-80 -115q-39 -46 -42 -78q-6 -58 60 -66q21 -1 43 2q98 13 77 -78z" />
<glyph unicode="&#x61b;" horiz-adv-x="592" d="M221 128q-1 88 95 89q96 -1 96 -89t-96 -88t-95 88zM462 476q0 -129 -116 -129h-4q-118 2 -155 94t-37 239q0 31 2 65q6 124 96 124q27 0 59 -8q59 -19 59 -61t-73 -129q-35 -52 -35 -85q0 -60 67 -60l82 11q55 0 55 -61z" />
<glyph unicode="&#x61f;" horiz-adv-x="888" d="M531 128q-1 88 95 89q96 -1 96 -89t-96 -88t-95 88zM758 1107q0 -167 -115 -167h-3q-76 1 -76 41q0 1 1 6v19q0 114 -111 114q-119 0 -119 -213t228 -213q148 0 155 -174v-21q0 -152 -93 -153l-2 -1q-69 0 -69 23l7 48q0 94 -123 94h-25q-11 -1 -19 -1q-97 0 -183 85 t-86 359q0 27 1 56q9 300 273 300q279 0 326 -77q33 -55 33 -125z" />
<glyph unicode="&#x621;" horiz-adv-x="788" d="M658 95q0 -55 -78 -55h-345q-110 0 -110 55q0 42 177 42q-88 93 -93 145v29q0 190 210 190t210 -126v-50q0 -43 -59 -43h-8q-47 0 -47 39q0 67 -84 67t-84 -119t107 -119h126q78 0 78 -55z" />
<glyph unicode="&#x622;" horiz-adv-x="470" d="M115 1490q33 0 97 -29t134 -29t114 30t58 31q38 0 42 -48v-10q-8 -59 -87 -97t-143 -37t-112 30q-49 29 -76 29q-74 0 -152 -68q-23 -15 -39 -15q-38 5 -39 53v4q0 80 104 126q67 30 99 30zM232 1160h2q105 -1 106 -173v-774q-1 -172 -106 -173h-2q-104 0 -107 184v752 q3 184 107 184z" />
<glyph unicode="&#x623;" horiz-adv-x="543" d="M442 1285q0 -35 -50 -35h-222q-70 0 -70 35q0 27 113 27q-56 60 -59 93v19q0 121 134 121t135 -80v-32q0 -28 -38 -28h-5q-30 0 -30 25q0 43 -54 43q-54 -1 -54 -77t69 -76h81q50 0 50 -35zM276 1160h2q105 -1 106 -173v-774q-1 -172 -106 -173h-2q-104 0 -107 184v752 q3 184 107 184z" />
<glyph unicode="&#x624;" horiz-adv-x="900" d="M543 150q0 -112 -152 -111q-112 0 -190 81q-76 92 -76 270q0 53 7 111q29 243 346 243h2q237 -14 297 -139q35 -88 35 -198q4 -212 -29 -341q-44 -204 -143 -316t-249 -161q-37 -8 -87 -8t-89 37q-40 37 -40 77q0 14 5 28q19 43 94 59q184 30 243 101q132 130 132 365 q0 143 -43 233q-33 81 -134 81q-147 0 -148 -162v-2q0 -122 96 -154q97 -6 115 -50q8 -22 8 -44zM600 940q0 -35 -50 -35h-222q-70 0 -70 35q0 27 113 27q-56 60 -59 93v19q0 121 134 121t135 -80v-32q0 -28 -38 -28h-5q-30 0 -30 25q0 43 -54 43t-54 -76t69 -77h81 q50 0 50 -35z" />
<glyph unicode="&#x625;" horiz-adv-x="543" d="M466 -365q0 -35 -50 -35h-222q-70 0 -70 35q0 27 113 27q-56 60 -59 93v19q0 121 134 121t135 -80v-32q0 -28 -38 -28h-5q-30 0 -30 25q0 43 -54 43q-54 -1 -54 -77t69 -76h81q50 0 50 -35zM294 1326h2q105 -1 106 -173v-940q-1 -172 -106 -173h-2q-103 0 -107 184v918 q4 184 107 184z" />
<glyph unicode="&#x626;" horiz-adv-x="1400" d="M754 831q0 -35 -50 -35h-222q-70 0 -70 35q0 27 113 27q-56 60 -59 93v19q0 121 134 121t135 -80v-32q0 -28 -38 -28h-5q-30 0 -30 25q0 43 -54 43q-54 -1 -54 -77t69 -76h81q50 0 50 -35zM773 -53q24 0 60 2q127 11 203 63t112 189h-327q-192 1 -192 176q0 204 112 361 q102 140 339 140h50q129 0 129 -92q0 -103 -128 -104l-42 1q-265 -4 -294 -297h312q235 0 235 -157q0 -168 -66 -246t-114 -113q-80 -65 -175 -84q-53 -13 -119 -19h-123q-127 0 -221 20t-194 82q-102 62 -154 142t-51 236q0 70 15 124l63 190q52 159 135 159q10 0 22 -2 q67 -14 67 -81q0 -29 -10 -65l-74 -217q-19 -61 -19 -114q0 -197 244 -277q55 -13 105 -17h100z" />
<glyph unicode="&#x627;" horiz-adv-x="470" d="M232 1326h2q105 -1 106 -173v-940q-1 -172 -106 -173h-2q-104 0 -107 184v918q3 184 107 184z" />
<glyph unicode="&#x628;" horiz-adv-x="1600" d="M874 -140q96 0 96 -88t-96 -89q-96 1 -95 89q-1 88 95 88zM399 819q120 0 120 -111q0 4 -1 2q-1 -90 -98 -96q-96 -32 -96 -154q0 -24 5 -43q47 -121 198 -164q81 -24 254 -24h321q241 0 241 291l-1 112q1 128 104 128q92 0 92 -129v-120q0 -257 -140 -358 q-116 -109 -320 -113h-367q-303 0 -451 99q-96 64 -128 219q-7 58 -7 92q0 197 76 288q78 81 198 81z" />
<glyph unicode="&#x62a;" horiz-adv-x="1600" d="M398 819q120 0 120 -110v-2q-1 -87 -98 -93q-96 -32 -96 -154q0 -24 5 -43q47 -121 198 -164q81 -24 254 -24h321q241 0 241 291l-1 112q1 128 104 128q92 0 92 -129v-120q0 -257 -140 -358q-116 -109 -320 -113h-367q-303 0 -451 99q-96 64 -128 219q-7 58 -7 92 q0 197 76 288q77 81 197 81zM974 912q0 88 96 89q96 -1 95 -89q1 -88 -95 -88t-96 88zM678 914q0 88 96 88t95 -88q1 -88 -95 -89q-96 1 -96 89z" />
<glyph unicode="&#x62b;" horiz-adv-x="1668" d="M398 819q120 0 120 -110v-2q-1 -87 -98 -93q-96 -32 -96 -154q0 -24 5 -43q47 -121 198 -164q81 -24 254 -24h321q241 0 241 291l-1 112q1 128 104 128q92 0 92 -129v-120q0 -257 -140 -358q-116 -109 -320 -113h-367q-303 0 -451 99q-96 64 -128 219q-7 58 -7 92 q0 197 76 288q77 81 197 81zM839 1160q-1 88 95 89q96 -1 96 -89t-96 -88t-95 88zM984 912q0 88 96 89q96 -1 95 -89q1 -88 -95 -88t-96 88zM688 914q0 88 96 88t95 -88q1 -88 -95 -89q-96 1 -96 89z" />
<glyph unicode="&#x62c;" horiz-adv-x="1200" d="M1155 201q24 0 44 10q0 -19 -32 -69q-65 -102 -369 -102q-80 7 -164 7t-156 -14q-153 -29 -153 -185q0 -21 5 -46l3 -7q32 -112 164 -112l76 9q41 0 61 -30t19 -58q0 -28 -27 -68q-42 -61 -155 -62q-113 -2 -218 87q-126 110 -128 282v42q0 111 67 196q100 102 184 124 t262 35q168 0 168 148q0 153 -107 238q-42 32 -91 32q-88 0 -190 -108q-93 -93 -160 -93h-4q-38 1 -64 29t-25 48q0 79 50 139q117 145 257 203q49 20 126 20t197 -59q187 -91 205 -341q4 -176 50 -236t105 -59zM801 -228q-1 88 95 88t96 -88t-96 -89q-96 1 -95 89z" />
<glyph unicode="&#x62d;" horiz-adv-x="1200" d="M1155 201q24 0 44 10q0 -19 -32 -69q-65 -102 -369 -102q-80 7 -164 7t-156 -14q-153 -29 -153 -185q0 -21 5 -46l3 -7q32 -112 164 -112l76 9q41 0 61 -30t19 -58q0 -28 -27 -68q-42 -61 -155 -62q-113 -2 -218 87q-126 110 -128 282v42q0 111 67 196q100 102 184 124 t262 35q168 0 168 148q0 153 -107 238q-42 32 -91 32q-88 0 -190 -108q-93 -93 -160 -93h-4q-38 1 -64 29t-25 48q0 79 50 139q117 145 257 203q49 20 126 20t197 -59q187 -91 205 -341q4 -176 50 -236t105 -59z" />
<glyph unicode="&#x62e;" horiz-adv-x="1200" d="M1155 201q24 0 44 10q0 -19 -32 -69q-65 -102 -369 -102q-80 7 -164 7t-156 -14q-153 -29 -153 -185q0 -21 5 -46l3 -7q32 -112 164 -112l76 9q41 0 61 -30t19 -58q0 -28 -27 -68q-42 -61 -155 -62q-113 -2 -218 87q-126 110 -128 282v42q0 111 67 196q100 102 184 124 t262 35q168 0 168 148q0 153 -107 238q-42 32 -91 32q-88 0 -190 -108q-93 -93 -160 -93h-4q-38 1 -64 29t-25 48q0 79 50 139q117 145 257 203q49 20 126 20t197 -59q187 -91 205 -341q4 -176 50 -236t105 -59zM439 1152q-1 88 95 89q96 -1 96 -89t-96 -88t-95 88z" />
<glyph unicode="&#x62f;" horiz-adv-x="941" d="M95 128q0 101 119 101h258q166 0 166 98q0 34 -26 77l-126 159q-36 53 -90 53t-98 -25q-42 -25 -71 -25t-64 53q-10 15 -10 35q-1 20 9 54q16 56 121 92q45 17 99 17q89 0 184 -76q47 -30 100 -95l138 -183q46 -73 55 -145q0 -51 -15 -100q-51 -177 -202 -178h-434 q-112 1 -113 86v2z" />
<glyph unicode="&#x630;" horiz-adv-x="941" d="M310 1154q96 0 95 -88q1 -88 -95 -89q-96 1 -96 89t96 88zM95 128q0 101 119 101h258q166 0 166 98q0 34 -26 77l-126 159q-36 53 -90 53t-98 -25q-42 -25 -71 -25t-64 53q-10 15 -10 35q-1 20 9 54q16 56 121 92q45 17 99 17q89 0 184 -76q47 -30 100 -95l138 -183 q46 -73 55 -145q0 -51 -15 -100q-51 -177 -202 -178h-434q-112 1 -113 86v2z" />
<glyph unicode="&#x631;" horiz-adv-x="600" d="M328 391q0 113 91 114h15q79 0 88 -127q1 -42 1 -87t-4 -137q-3 -92 -35 -210q-32 -116 -143 -219t-230 -136q-37 -8 -87 -8t-90 37t-40 77q0 14 5 28q19 43 94 59q184 30 243 100q81 72 90 211v21q2 82 2 277z" />
<glyph unicode="&#x632;" horiz-adv-x="600" d="M328 391q0 113 91 114h15q79 0 88 -127q1 -42 1 -87t-4 -137q-3 -92 -35 -210q-32 -116 -143 -219t-230 -136q-37 -8 -87 -8t-90 37t-40 77q0 14 5 28q19 43 94 59q184 30 243 100q81 72 90 211v21q2 82 2 277zM406 874q96 0 95 -88q1 -88 -95 -89q-96 1 -96 89t96 88z " />
<glyph unicode="&#x633;" horiz-adv-x="2200" d="M1520 185q-72 -183 -268 -183q-46 0 -110 38q-21 -278 -149 -378q-147 -112 -363 -112t-360 96t-144 337q-1 33 -1 61q0 269 73 349q82 114 186 139q38 8 88 8t89 -37q40 -37 40 -77q0 -14 -6 -30q-17 -56 -86 -56q-167 0 -186 -239v-118q1 -244 303 -244t301 314v528 q0 179 105 179q111 -1 111 -137v-243q9 -171 150 -171q119 0 119 156v258q0 132 115 137q85 0 90 -144v-230q9 -180 141 -180h2q131 0 131 175v228q0 151 98 151q80 0 80 -150l1 -190q0 -176 -62 -279t-181 -111h-45q-165 9 -262 155z" />
<glyph unicode="&#x634;" horiz-adv-x="2200" d="M1520 185q-72 -183 -268 -183q-46 0 -110 38q-21 -278 -149 -378q-147 -112 -363 -112t-360 96t-144 337q-1 33 -1 61q0 269 73 349q82 114 186 139q38 8 88 8t89 -37q40 -37 40 -77q0 -14 -6 -30q-17 -56 -86 -56q-167 0 -186 -239v-118q1 -244 303 -244t301 314v528 q0 179 105 179q111 -1 111 -137v-243q9 -171 150 -171q119 0 119 156v258q0 132 115 137q85 0 90 -144v-230q9 -180 141 -180h2q131 0 131 175v228q0 151 98 151q80 0 80 -150l1 -190q0 -176 -62 -279t-181 -111h-45q-165 9 -262 155zM1558 1072q0 88 96 88t95 -88 q1 -88 -95 -89q-96 1 -96 89zM1413 1320q-1 88 95 88t96 -88t-96 -89q-96 1 -95 89zM1262 1072q0 88 96 89q96 -1 95 -89q1 -88 -95 -88t-96 88z" />
<glyph unicode="&#x635;" horiz-adv-x="2262" d="M1810 229q216 0 216 160q0 176 -162 176h-8q-425 -21 -525 -336h479zM620 -450q-206 0 -351 96q-144 96 -144 336l1 117q7 223 72 294q82 114 186 139q38 8 88 8t89 -37q40 -37 40 -77q0 -14 -6 -30q-17 -56 -86 -56q-167 0 -183 -201h-4v-156q1 -244 302 -244t323 310 v467q1 164 110 164q92 0 92 -165v-300q158 377 324 447q131 78 342 91q377 0 389 -274v-172q-18 -139 -116 -203t-340 -64h-621q-22 -289 -144 -378q-157 -112 -363 -112z" />
<glyph unicode="&#x636;" horiz-adv-x="2262" d="M1810 229q216 0 216 160q0 176 -162 176h-8q-425 -21 -525 -336h479zM1346 1030q96 0 96 -88t-96 -89q-96 1 -95 89q-1 88 95 88zM620 -450q-206 0 -351 96q-144 96 -144 336l1 117q7 223 72 294q82 114 186 139q38 8 88 8t89 -37q40 -37 40 -77q0 -14 -6 -30 q-17 -56 -86 -56q-167 0 -183 -201h-4v-156q1 -244 302 -244t323 310v467q1 164 110 164q92 0 92 -165v-300q158 377 324 447q131 78 342 91q377 0 389 -274v-172q-18 -139 -116 -203t-340 -64h-621q-22 -289 -144 -378q-157 -112 -363 -112z" />
<glyph unicode="&#x637;" horiz-adv-x="1400" d="M236 40q-151 0 -151 94v18q0 77 155 77h65q69 152 115 236v697q3 164 97 164h2q95 -1 96 -173v-508q174 98 343 108q377 0 389 -274v-172q-19 -139 -117 -203t-339 -64h-655zM955 229q216 0 216 160q0 176 -162 176h-8q-425 -21 -525 -336h479z" />
<glyph unicode="&#x638;" horiz-adv-x="1400" d="M856 1077q96 -1 96 -89t-96 -88t-95 88q-1 88 95 89zM236 40q-151 0 -151 94v18q0 77 155 77h65q69 152 115 236v697q3 164 97 164h2q95 -1 96 -173v-508q174 98 343 108q377 0 389 -274v-172q-19 -139 -117 -203t-339 -64h-655zM955 229q216 0 216 160q0 176 -162 176 h-8q-425 -21 -525 -336h479z" />
<glyph unicode="&#x639;" horiz-adv-x="1200" d="M653 -396q0 -28 -27 -68q-42 -61 -155 -62q-113 -2 -218 87q-126 110 -128 282v42q0 111 67 196q42 43 96 80t122 37q-85 169 -85 222q-3 18 -3 35q0 91 88 221q104 155 322 155q144 0 262 -90q57 -38 90 -80q28 -43 28 -77t-36 -61t-66 -27t-78 38q-85 78 -198 79 q-185 0 -200 -194q0 -111 118 -163q131 -27 327 -27q20 1 37 1q128 0 128 -77q0 -107 -176 -113h-411q-232 0 -232 -192q0 -21 5 -46l3 -7q32 -112 164 -112l76 9q41 0 61 -30t19 -58z" />
<glyph unicode="&#x63a;" horiz-adv-x="1200" d="M740 1162q96 0 96 -88t-96 -89q-96 1 -95 89q-1 88 95 88zM653 -396q0 -28 -27 -68q-42 -61 -155 -62q-113 -2 -218 87q-126 110 -128 282v42q0 111 67 196q42 43 96 80t122 37q-85 169 -85 222q-3 18 -3 35q0 91 88 221q104 155 322 155q144 0 262 -90q57 -38 90 -80 q28 -43 28 -77t-36 -61t-66 -27t-78 38q-85 78 -198 79q-185 0 -200 -194q0 -111 118 -163q131 -27 327 -27q20 1 37 1q128 0 128 -77q0 -107 -176 -113h-411q-232 0 -232 -192q0 -21 5 -46l3 -7q32 -112 164 -112l76 9q41 0 61 -30t19 -58z" />
<glyph unicode="&#x640;" horiz-adv-x="289" d="M305 40h-327v189h327v-189z" />
<glyph unicode="&#x641;" horiz-adv-x="1672" d="M1307 487q0 -114 -120 -114t-195 77q-4 9 -11 12q-56 63 -66 195v25q10 265 245 294q28 6 79 6q177 0 265 -78q108 -96 107 -355q2 -28 2 -54q-5 -247 -115 -351t-330 -104h-451q-293 0 -437 96t-154 357l-1 133q1 134 100 134t99 -127v-97q0 -307 393 -307h479 q222 18 226 199q2 34 2 92t-14 130q-25 133 -179 133h-2q-115 -1 -131 -97q0 -108 112 -108h6q90 0 91 -90v-1zM1132 1206q0 88 96 88t95 -88q1 -88 -95 -89q-96 1 -96 89z" />
<glyph unicode="&#x642;" horiz-adv-x="1300" d="M925 944q-1 88 95 88t96 -88t-96 -89q-96 1 -95 89zM880 718q176 0 264 -78q110 -98 110 -402q0 -58 -4 -132t-40 -210q-38 -136 -164 -224t-362 -90q-238 -2 -398 123t-160 307l-1 199v5q0 155 102 155q95 0 96 -157v-206q57 -239 363 -239t361 235q18 67 18 188 t-14 194q-25 133 -179 133h-2q-115 -1 -131 -97q0 -108 112 -108h6q90 0 90 -95q0 -1 1 -1q-1 -109 -121 -109q-119 0 -194 77q-4 9 -11 12q-56 63 -66 195v25q10 265 245 294q28 6 79 6zM629 944q-1 88 95 89q96 -1 96 -89t-96 -88t-95 88z" />
<glyph unicode="&#x644;" horiz-adv-x="1252" d="M320 63q0 -30 2 -81q0 -243 292 -243t292 314v1094q0 179 105 179q100 -1 100 -137v-1152q-24 -313 -137 -373q-149 -114 -355 -114t-350 96t-144 336v117q7 223 72 294q82 114 186 139q37 8 87 8t90 -37t40 -77q0 -14 -6 -30q-17 -56 -86 -56q-167 0 -187 -233 q-1 -14 -1 -44z" />
<glyph unicode="&#x645;" horiz-adv-x="1272" d="M813 634q0 111 120 111t198 -81q76 -92 76 -270q0 -53 -7 -111q-29 -243 -348 -243q-277 17 -314 189q-17 77 -18 162v22q0 133 -56 133q-29 0 -70 -27q-104 -56 -104 -239v-612q0 -128 -103 -128q-92 0 -92 129v620q0 257 140 359q99 70 180 91q59 21 107 21t88 -8 q102 -18 102 -184q0 -14 -1 -30l1 -154q0 -162 148 -162t148 162v2q0 122 -96 154q-97 6 -98 96q-1 2 -1 -2z" />
<glyph unicode="&#x646;" horiz-adv-x="1300" d="M609 768q-1 88 95 88t96 -88t-96 -89q-96 1 -95 89zM1211 216v-141q-21 -313 -150 -414q-136 -111 -392 -111t-400 96t-144 336v117q7 223 72 294q82 114 186 139q37 8 87 8t90 -37t40 -77q0 -14 -6 -30q-17 -56 -86 -56q-167 0 -187 -232q-1 -14 -1 -42t2 -84 q2 -243 338 -243t336 297v545q0 179 105 179q111 -1 111 -137v-222q-1 -132 -1 -185z" />
<glyph unicode="&#x647;" horiz-adv-x="800" d="M418 208q16 0 32 4q102 24 121 130q1 12 1 22q0 93 -148 207q-145 -103 -145 -199q0 -29 11 -57q42 -107 128 -107zM363 852q74 0 225 -162t151 -349q0 -141 -132 -240q-90 -61 -177 -61q-255 0 -293 203q-12 68 -12 124q0 123 61 190q91 99 214 103q-107 97 -108 111 q0 69 60 80q4 1 11 1z" />
<glyph unicode="&#x648;" horiz-adv-x="900" d="M543 150q0 -112 -152 -111q-112 0 -190 81q-76 92 -76 270q0 53 7 111q29 243 346 243h2q237 -14 297 -139q35 -88 35 -198v-45q0 -181 -29 -296q-44 -204 -143 -316t-249 -161q-37 -8 -87 -8t-89 37q-40 37 -40 77q0 14 5 28q19 43 94 59q184 30 243 101 q132 130 132 365q0 143 -43 233q-33 81 -134 81q-147 0 -148 -162v-2q0 -122 96 -154q97 -6 115 -50q8 -22 8 -44z" />
<glyph unicode="&#x649;" horiz-adv-x="1400" d="M773 -53q24 0 60 2q127 11 203 63t112 189h-327q-192 1 -192 176q0 204 112 361q102 140 339 140h50q129 0 129 -92q0 -103 -128 -104l-42 1q-265 -4 -294 -297h312q235 0 235 -157q0 -168 -66 -246t-114 -113q-80 -65 -175 -84q-53 -13 -119 -19h-123q-127 0 -221 20 t-194 82q-102 62 -154 142t-51 236q0 70 15 124l63 190q52 159 135 159q10 0 22 -2q67 -14 67 -81q0 -29 -10 -65l-74 -217q-19 -61 -19 -114q0 -197 244 -277q55 -13 105 -17h100z" />
<glyph unicode="&#x64b;" d="M95 1411q-44 0 -44 47q0 36 41 49l371 118q9 3 21 3q51 0 51 -48q0 -34 -41 -47l-384 -120q-6 -2 -15 -2zM85 1613q-44 0 -44 47q0 36 42 49l371 118q9 3 21 3q50 0 50 -48q0 -35 -40 -47l-385 -120q-6 -2 -15 -2z" />
<glyph unicode="&#x64c;" d="M448 1728q0 57 -55 57q-27 -1 -49 -27t-22 -62t47 -61q27 8 53 37t26 56zM536 1762q0 -106 -101 -183q36 -25 36 -53q1 -34 -35 -34t-72 28q-220 -116 -308 -116q-52 0 -52 43q0 34 41 45q68 18 68 79q1 28 -33 28t-54 -12t-31 -12q-24 1 -24 23t19 41q41 41 103 41 q92 0 92 -84q0 -30 -17 -66q58 22 117 59q-44 45 -44 109q-1 64 51 120t111 57q59 -1 96 -33t37 -80z" />
<glyph unicode="&#x64d;" d="M93 -1025q-44 0 -44 46q0 36 41 49l372 119q9 3 20 3q51 0 51 -48q0 -35 -41 -48l-384 -119q-6 -2 -15 -2zM83 -833q-44 0 -44 47q0 36 42 49l371 118q9 3 21 3q50 0 50 -48q0 -35 -40 -47l-385 -120q-6 -2 -15 -2z" />
<glyph unicode="&#x64e;" d="M95 1411q-44 0 -44 47q0 36 41 49l371 118q9 3 21 3q51 0 51 -48q0 -34 -41 -47l-384 -120q-6 -2 -15 -2z" />
<glyph unicode="&#x64f;" d="M448 1728q0 57 -55 57q-27 -1 -49 -27t-22 -62t47 -61q27 8 53 37t26 56zM536 1762q0 -106 -101 -183q36 -25 36 -53q1 -34 -35 -34t-72 28q-220 -116 -308 -116q-52 0 -52 43q0 34 41 45q148 39 240 97q-44 45 -44 109q-1 64 51 120t111 57q59 -1 96 -33t37 -80z" />
<glyph unicode="&#x650;" d="M95 -845q-44 0 -44 47q0 36 41 49l371 118q9 3 21 3q51 0 51 -48q0 -34 -41 -47l-384 -120q-6 -2 -15 -2z" />
<glyph unicode="&#x651;" d="M475 1822q47 0 47 -95t-35 -153t-107 -57q-72 0 -95 68q-38 -105 -139 -105q-96 0 -96 126q0 55 23 104q13 27 35 27q32 0 27 -46q-11 -88 40 -88q73 0 91 129q6 43 35 43t30 -40q4 -100 63 -100q68 0 50 127q-1 7 -1 15q0 45 32 45z" />
<glyph unicode="&#x652;" d="M309 1600q32 0 61 18t29 54t-33 62t-69 25q-37 1 -59 -27t-22 -59q0 -73 93 -73zM475 1684q0 -76 -52 -130t-126 -54t-116 46t-42 128q-1 84 53 134t120 50t115 -48q48 -50 48 -126z" />
<glyph unicode="&#x67e;" horiz-adv-x="1668" d="M398 819q120 0 120 -110v-2q-1 -87 -98 -93q-96 -32 -96 -154q0 -24 5 -43q47 -121 198 -164q81 -24 254 -24h321q241 0 241 291l-1 112q1 128 104 128q92 0 92 -129v-120q0 -257 -140 -358q-116 -109 -320 -113h-367q-303 0 -451 99q-96 64 -128 219q-7 58 -7 92 q0 197 76 288q77 81 197 81zM868 -388q96 0 95 -88q1 -88 -95 -89q-96 1 -96 89t96 88zM1012 -140q96 0 96 -88t-96 -89q-96 1 -95 89q-1 88 95 88zM716 -141q96 -1 96 -89t-96 -88t-95 88q-1 88 95 89z" />
<glyph unicode="&#x686;" horiz-adv-x="1200" d="M940 -388q96 0 95 -88q1 -88 -95 -89q-96 1 -96 89t96 88zM1084 -140q96 0 96 -88t-96 -89q-96 1 -95 89q-1 88 95 88zM788 -141q96 -1 96 -89t-96 -88t-95 88q-1 88 95 89zM1155 201q24 0 44 10q0 -19 -32 -69q-65 -102 -369 -102q-80 7 -164 7t-156 -14 q-153 -29 -153 -185q0 -21 5 -46l3 -7q32 -112 164 -112l76 9q41 0 61 -30t19 -58q0 -28 -27 -68q-42 -61 -155 -62q-113 -2 -218 87q-126 110 -128 282v42q0 111 67 196q100 102 184 124t262 35q168 0 168 148q0 153 -107 238q-42 32 -91 32q-88 0 -190 -108 q-93 -93 -160 -93h-4q-38 1 -64 29t-25 48q0 79 50 139q117 145 257 203q49 20 126 20t197 -59q187 -91 205 -341q4 -176 50 -236t105 -59z" />
<glyph unicode="&#x698;" horiz-adv-x="600" d="M257 1016q-1 88 95 88t96 -88t-96 -89q-96 1 -95 89zM402 768q0 88 96 88t95 -88q1 -88 -95 -89q-96 1 -96 89zM106 768q0 88 96 89q96 -1 95 -89q1 -88 -95 -88t-96 88zM334 391q0 113 91 114h15q79 0 88 -127q1 -42 1 -87t-4 -137q-3 -92 -35 -210q-32 -116 -143 -219 t-230 -136q-37 -8 -87 -8t-90 37t-40 77q0 14 5 28q19 43 94 59q184 30 243 100q81 72 90 211v21q2 82 2 277z" />
<glyph unicode="&#x6af;" horiz-adv-x="1600" d="M847 1236q0 14 18 35q45 52 334 229q96 55 141 55t45 -34q0 -47 -124 -118q-90 -53 -209 -125t-172 -72q-17 0 -24 4q-9 12 -9 26zM815 850q0 57 27 110q61 121 331 278q259 165 338 165q44 0 61 -30q8 -14 8 -30q0 -58 -184 -189q-47 -39 -155 -102t-272 -210 q184 -8 296 -45q253 -85 271 -316q13 -199 -107 -310q-55 -47 -139 -74q-225 -57 -507 -60v3q-353 2 -495 98t-152 355l-1 63q1 134 100 134t99 -127v-27q0 -301 431 -307q564 38 585 178v15q0 136 -319 219h-2q-151 38 -175 84q-39 68 -39 125z" />
<glyph unicode="&#x2000;" horiz-adv-x="1090" />
<glyph unicode="&#x2001;" horiz-adv-x="2181" />
<glyph unicode="&#x2002;" horiz-adv-x="1090" />
<glyph unicode="&#x2003;" horiz-adv-x="2181" />
<glyph unicode="&#x2004;" horiz-adv-x="727" />
<glyph unicode="&#x2005;" horiz-adv-x="545" />
<glyph unicode="&#x2006;" horiz-adv-x="363" />
<glyph unicode="&#x2007;" horiz-adv-x="363" />
<glyph unicode="&#x2008;" horiz-adv-x="272" />
<glyph unicode="&#x2009;" horiz-adv-x="436" />
<glyph unicode="&#x200a;" horiz-adv-x="121" />
<glyph unicode="&#x200c;" horiz-adv-x="95" d="M95 -20h-95v1468h95v-1468z" />
<glyph unicode="&#x200d;" horiz-adv-x="93" d="M95 -20h-95v1313l-59 -59l-62 62l107 107l-107 107l62 62l107 -107l107 107l62 -62l-107 -107l107 -107l-62 -62l-60 60v-1314z" />
<glyph unicode="&#x200e;" horiz-adv-x="34" d="M34 1175v-1175h-34v1207h160l-61 61l25 23l100 -101l-100 -102l-25 22l66 65h-131z" />
<glyph unicode="&#x200f;" horiz-adv-x="34" d="M34 0h-34v1175h-131l63 -65l-21 -22l-103 102l103 101l21 -23l-61 -61h163v-1207z" />
<glyph unicode="&#x2010;" horiz-adv-x="960" d="M125 310q1 94 353 95q352 -1 352 -95t-352 -94t-353 94z" />
<glyph unicode="&#x2011;" horiz-adv-x="960" d="M125 310q1 94 353 95q352 -1 352 -95t-352 -94t-353 94z" />
<glyph unicode="&#x2012;" horiz-adv-x="960" d="M125 310q1 94 353 95q352 -1 352 -95t-352 -94t-353 94z" />
<glyph unicode="&#x2013;" horiz-adv-x="1279" d="M125 310q1 94 513 95q511 -1 511 -95t-511.5 -94t-512.5 94z" />
<glyph unicode="&#x2014;" horiz-adv-x="2303" d="M125 310q3 94 1025 95q1023 -1 1023 -95t-1022.5 -94t-1025.5 94z" />
<glyph unicode="&#x2018;" horiz-adv-x="449" d="M209 937q-109 -1 -109 107t58 224t169 115q72 0 72 -50q0 -28 -21 -70q-60 -119 -60 -223t-109 -103z" />
<glyph unicode="&#x2019;" horiz-adv-x="449" d="M290 1383q109 1 109 -107t-58 -224t-169 -115q-72 0 -72 50q0 28 21 70q60 119 60 223t109 103z" />
<glyph unicode="&#x201c;" horiz-adv-x="690" d="M419 1033q-59 0 -59 67q0 99 50 199t127 100q23 0 23 -7q0 -19 -18 -55q-64 -127 -64 -241q0 -63 -59 -63zM159 1033q-59 0 -59 67q0 99 50 199t127 100q23 0 23 -7q0 -19 -18 -55q-64 -127 -64 -241q0 -63 -59 -63z" />
<glyph unicode="&#x201d;" horiz-adv-x="690" d="M241 1399q59 0 59 -67q0 -99 -50 -199t-127 -100q-23 0 -23 7q0 19 18 55q64 127 64 241q0 63 59 63zM501 1399q59 0 59 -67q0 -99 -50 -199t-127 -100q-23 0 -23 7q0 19 18 55q64 127 64 241q0 63 59 63z" />
<glyph unicode="&#x202f;" horiz-adv-x="436" />
<glyph unicode="&#x2039;" horiz-adv-x="719" d="M536 1039q29 0 29 -98q1 -136 -103 -219t-104 -164t91 -155q137 -112 140 -261v-11q0 -91 -25 -91q-72 0 -342 285q-97 104 -97 215q-1 144 171 322t240 177z" />
<glyph unicode="&#x203a;" horiz-adv-x="719" d="M149 941q0 98 29 98q68 1 240 -177t171 -322q0 -111 -97 -215q-270 -285 -342 -285q-25 0 -25 91v11q3 149 140 261q91 74 91 155t-104 164t-103 219z" />
<glyph unicode="&#x205f;" horiz-adv-x="545" />
<glyph unicode="&#x25fc;" horiz-adv-x="500" d="M0 0v0v0v0v0z" />
<glyph unicode="&#xe820;" d="M103 1091q-44 0 -44 47q0 36 41 49l371 118q10 3 21 3q51 0 51 -48q0 -34 -41 -47l-384 -120q-6 -2 -15 -2z" />
<glyph unicode="&#xe821;" d="M465 1426q0 57 -55 57q-27 -1 -49 -27t-22 -62t47 -61q27 8 53 37t26 56zM553 1460q0 -106 -101 -183q36 -25 36 -53q0 -34 -36 -34t-71 28q-220 -116 -308 -116q-52 0 -52 43q0 34 41 45q148 39 240 97q-44 45 -44 109t52 120t110 57q59 0 96 -32t37 -81z" />
<glyph unicode="&#xe822;" d="M299 1055q32 1 61 19t29 53t-33 61t-69 25q-36 0 -58 -27t-22 -58q0 -73 92 -73zM465 1140q0 -76 -52 -131q-52 -54 -126 -54t-116 45t-42 128q-1 84 53 134t121 50t115 -48t47 -124z" />
<glyph unicode="&#xe823;" d="M97 908q-44 0 -44 47q0 36 41 49l371 118q9 3 21 3q51 0 51 -48q0 -34 -41 -47l-384 -120q-7 -2 -15 -2zM87 1110q-44 0 -44 47q0 36 42 49l371 118q9 3 21 3q50 0 50 -48q0 -34 -40 -47l-385 -120q-7 -2 -15 -2z" />
<glyph unicode="&#xe824;" d="M449 1182q0 57 -55 57q-27 -1 -49 -27t-22 -62t47 -61q27 8 53 37t26 56zM537 1216q0 -106 -101 -183q36 -25 36 -53q0 -34 -36 -34t-71 28q-220 -116 -308 -116q-52 0 -52 43q0 34 41 45q68 18 68 79q0 28 -34 28t-53 -12q-20 -12 -31 -12q-24 1 -24 23t19 41 q41 41 103 41q92 0 92 -84q0 -30 -17 -66q58 22 117 59q-44 46 -44 109t52 120t110 57q59 -1 96 -33t37 -80z" />
<glyph unicode="&#xe825;" d="M470 1349q47 -1 47 -95t-35 -152q-34 -58 -106 -58t-96 68q-38 -105 -139 -105q-96 0 -96 126q0 55 18 93t40 38q33 0 27 -46q-10 -88 40 -88q73 0 91 129q6 43 35 43t30 -40q4 -100 63 -100q68 0 50 127q-1 8 -1 15q0 45 32 45z" />
<glyph unicode="&#xe826;" d="M4 -577q-44 0 -44 47q0 35 41 49l371 118q10 3 21 3q51 0 51 -48q0 -35 -41 -47l-384 -120q-6 -2 -15 -2z" />
<glyph unicode="&#xe827;" d="M-10 -774q-44 0 -44 46q0 36 41 49l372 119q9 3 20 3q51 0 51 -48q0 -35 -41 -48l-384 -119q-7 -2 -15 -2zM-20 -582q-44 0 -44 47q0 36 42 49l371 118q9 3 21 3q50 0 50 -48q0 -34 -40 -47l-385 -120q-7 -2 -15 -2z" />
<glyph unicode="&#xe828;" d="M109 1380q-44 0 -44 47q0 36 41 49l371 118q9 3 21 3q51 0 51 -48q0 -34 -41 -47l-384 -120q-6 -2 -15 -2zM478 1365q47 -1 47 -95t-35 -152q-34 -58 -106 -58t-96 68q-38 -105 -139 -105q-96 0 -96 126q-1 55 17 93t41 38q32 0 27 -46q-11 -88 40 -88q73 0 91 129 q7 43 35 43t30 -40q3 -100 63 -100q67 0 50 127q-1 8 -1 15q0 45 32 45z" />
<glyph unicode="&#xe829;" d="M445 1804q0 57 -55 57q-27 -1 -49 -27t-22 -62t47 -61q27 8 53 37t26 56zM533 1838q0 -106 -101 -183q36 -25 36 -53q0 -34 -36 -34t-71 28q-220 -116 -308 -116q-52 0 -52 43q0 34 41 45q148 39 240 97q-44 46 -44 109t52 120t110 57q59 -1 96 -33t37 -80zM478 1465 q47 -1 47 -95t-35 -152q-34 -58 -106 -58t-96 68q-38 -105 -139 -105q-96 0 -96 126q-1 55 17 93t41 38q32 0 27 -46q-11 -88 40 -88q73 0 91 129q7 43 35 43t30 -40q3 -100 63 -100q67 0 50 127q-1 8 -1 15q0 45 32 45z" />
<glyph unicode="&#xe82a;" d="M101 1495q-44 0 -44 47q0 36 41 49l371 118q10 3 21 3q51 0 51 -48q0 -34 -41 -47l-384 -120q-6 -2 -15 -2zM91 1697q-44 0 -44 47q0 36 42 49l371 118q10 3 21 3q50 0 50 -48q0 -34 -40 -47l-385 -120q-6 -2 -15 -2zM478 1475q47 -1 47 -95t-35 -152q-34 -58 -106 -58 t-96 68q-38 -105 -139 -105q-96 0 -96 126q-1 55 17 93t41 38q32 0 27 -46q-11 -88 40 -88q73 0 91 129q7 43 35 43t30 -40q3 -100 63 -100q67 0 50 127q-1 8 -1 15q0 45 32 45z" />
<glyph unicode="&#xe82b;" d="M450 1811q0 57 -55 57q-27 0 -49 -26t-22 -63q0 -36 47 -61q27 8 53 37t26 56zM538 1845q0 -106 -101 -183q36 -25 36 -53q1 -34 -35 -34t-72 28q-220 -116 -308 -116q-52 0 -52 43q0 34 41 45q68 18 68 79q1 28 -33 28t-54 -12t-31 -12q-24 0 -24 22t19 42q41 41 103 41 q92 0 92 -84q0 -30 -17 -66q58 22 117 59q-44 46 -44 109q-1 63 51 120t111 57t96 -32t37 -81zM475 1471q47 0 47 -95q0 -94 -36 -152t-106 -58q-71 0 -95 68q-38 -105 -139 -105q-96 0 -96 126q0 55 18 93t40 38q32 0 27 -46q-11 -88 40 -88q73 0 91 129q6 43 34 43t31 -40 q3 -100 63 -100q67 0 50 127q-1 7 -1 15q0 45 32 45z" />
<glyph unicode="&#xe82c;" d="M103 948q-44 0 -44 47q0 36 41 49l371 118q10 3 21 3q51 0 51 -48q0 -34 -41 -47l-384 -120q-6 -2 -15 -2zM478 1528q47 0 47 -95t-35 -153q-34 -58 -106 -57q-72 0 -96 68q-38 -105 -139 -105q-96 0 -96 126q-1 55 17 93t41 38q32 0 27 -46q-11 -88 40 -88q73 0 91 129 q7 43 35 43t30 -40q3 -100 63 -100q67 0 50 127q-1 7 -1 15q0 45 32 45z" />
<glyph unicode="&#xe82d;" d="M93 1025q-44 0 -44 46q0 36 41 49l372 119q9 3 20 3q51 0 51 -48q0 -35 -41 -48l-384 -119q-7 -2 -15 -2zM83 1217q-44 0 -44 47q0 36 42 49l371 118q9 3 21 3q50 0 50 -48q0 -34 -40 -47l-385 -120q-7 -2 -15 -2zM478 1825q47 0 47 -95q0 -94 -35 -152q-34 -58 -106 -58 t-96 68q-38 -105 -139 -105q-96 0 -96 126q-1 55 17 93t41 38q32 0 27 -46q-11 -88 40 -88q73 0 91 129q7 43 35 43t30 -40q3 -100 63 -100q67 0 50 127q-1 7 -1 15q0 45 32 45z" />
<glyph unicode="&#xfd3e;" horiz-adv-x="1105" d="M675 618q-1 52 -37 90t-92 39t-91 -37q-36 -38 -38 -92q-1 -54 35 -89q36 -36 91 -36t93 36q38 37 39 89zM1039 -427q-31 0 -122 66q-269 195 -414 584q-209 0 -209 55q132 116 137 223q-45 0 -105 -48q-12 -9 -110 -99q-36 0 -55 163q-111 52 -111 96t105 107 q0 60 15 108t34 48q136 -144 227 -144q-5 53 -37 94t-112 130q0 16 69 36t146 23q132 395 397 605q88 70 118 70t31 -15q-1 -5 -4 -8q-78 -83 -172 -240q-139 -231 -167 -422q100 -15 100 -45q-141 -118 -141 -221q76 0 215 147q19 0 39 -54t20 -110q106 -54 106 -100 q0 -37 -100 -96q0 -153 -55 -160q-120 128 -221 141q0 -51 47 -113q11 -15 100 -114q0 -22 -108 -45q30 -161 130 -335t218 -278q17 -20 20 -34q0 -15 -31 -15z" />
<glyph unicode="&#xfd3f;" horiz-adv-x="1105" d="M574 747q-56 -1 -92 -39t-37 -90q1 -52 39 -89q38 -36 93 -36t91 36q36 35 35 89q-2 54 -38 92q-35 38 -91 37zM1070 613q0 -44 -111 -96q-19 -163 -55 -163q-98 90 -110 99q-60 48 -105 48q5 -107 137 -223q0 -55 -209 -55q-145 -389 -414 -584q-91 -66 -122 -66t-31 15 q3 14 20 34q118 104 218 278t130 335q-108 23 -108 45q89 99 100 114q47 62 47 113q-101 -13 -221 -141q-55 7 -55 160q-100 59 -100 96q0 46 106 100q0 56 20 110t39 54q139 -147 215 -147q0 103 -141 221q0 30 100 45q-28 191 -167 422q-94 157 -172 240q-4 4 -4 8 q1 15 31 15t118 -70q265 -210 397 -605q77 -3 146 -23t69 -36q-81 -89 -95 -107q-49 -64 -54 -117q91 0 227 144q19 0 34 -48t15 -108q105 -63 105 -107z" />
<glyph horiz-adv-x="2466" d="M366 300h296q8 -1 8 -8v-280q0 -8 -8 -8h-296q-8 0 -8 8v280q1 8 8 8zM14 300h292q8 -1 8 -8v-280q0 -8 -8 -8h-292q-8 0 -8 8v280q1 8 8 8zM1434 656h292q8 -1 8 -8v-280q0 -8 -8 -8h-292q-8 0 -8 8v280q1 8 8 8zM1082 656h288q8 -1 8 -8v-280q0 -8 -8 -8h-288 q-8 0 -8 8v280q1 8 8 8zM1082 2076h644q8 -1 8 -8v-700h48v700q1 8 8 8h648q8 -1 8 -8v-988q1 -11 -6 -13h-296q-7 3 -6 9v704h-48v-704q0 -8 -8 -8h-1412v-56h700q8 -1 8 -8v-284q0 -8 -8 -8h-1004q-8 0 -8 8v996q1 8 8 8h296q8 -1 8 -8v-348h44v348q1 8 8 8h296q8 -1 8 -8 v-348h400v412h-48v-348q0 -8 -8 -8h-288q-8 0 -8 8v636q1 8 8 8zM722 2076h296q8 -1 8 -8v-280q0 -8 -8 -8h-296q-8 0 -8 8v280q1 8 8 8zM366 2076h296q8 -1 8 -8v-280q0 -8 -8 -8h-296q-8 0 -8 8v280q1 8 8 8zM14 2076h292q8 -1 8 -8v-1412h704q8 -1 8 -8v-348h756v412 h-348q-8 0 -8 8v284q1 8 8 8h1004q8 -1 8 -8v-992q0 -8 -8 -8h-292q-8 0 -8 8v700h-48v-700q0 -8 -8 -8h-1360q-8 0 -8 8v348h-700q-8 0 -8 8v1700q1 8 8 8z" />
</font>
</defs>
</svg>
